<?xml version="1.0" encoding="UTF-8" standalone="no"?>
<svg
   width="100"
   height="100"
   viewBox="0 0 100 100"
   version="1.1"
   id="svg1"
   sodipodi:docname="icon.svg"
   inkscape:version="1.4.2 (1:1.4.2+202505120737+ebf0e940d0)"
   xml:space="preserve"
   xmlns:inkscape="http://www.inkscape.org/namespaces/inkscape"
   xmlns:sodipodi="http://sodipodi.sourceforge.net/DTD/sodipodi-0.dtd"
   xmlns="http://www.w3.org/2000/svg"
   xmlns:svg="http://www.w3.org/2000/svg"><sodipodi:namedview
     id="namedview1"
     pagecolor="#ffffff"
     bordercolor="#000000"
     borderopacity="0.25"
     inkscape:showpageshadow="2"
     inkscape:pageopacity="0.0"
     inkscape:pagecheckerboard="0"
     inkscape:deskcolor="#d1d1d1"
     showgrid="false"
     inkscape:zoom="3.4624495"
     inkscape:cx="23.682656"
     inkscape:cy="68.593058"
     inkscape:current-layer="layer1"
     inkscape:window-width="1920"
     inkscape:window-height="1008"
     inkscape:window-x="0"
     inkscape:window-y="0"
     inkscape:window-maximized="1"><inkscape:grid
       id="grid1"
       units="px"
       originx="0"
       originy="0"
       spacingx="1"
       spacingy="1"
       empcolor="#0099e5"
       empopacity="0.30196078"
       color="#3f84a6"
       opacity="0.14902"
       empspacing="5"
       dotted="false"
       gridanglex="30"
       gridanglez="30"
       visible="false" /></sodipodi:namedview><defs
     id="defs1" /><g
     inkscape:label="org.ekips.filter.gears"
     inkscape:groupmode="layer"
     id="layer1"><path
       style="fill:none;stroke:#dd0000;stroke-width:0.690537;stroke-dasharray:none"
       d="m 5.1704331,49.999948 8.4391699,-4.790046 v 0 l 7.363263,-2.987884 v 0 l 6.296296,-1.636278 v 0 l 5.28542,-0.65677 v 0 l 4.361914,0.03142 v 0 l 3.534805,0.490885 v 0 l 2.81979,0.777803 m -38.1006579,8.770904 8.4391699,4.790029 v 0 l 7.363263,2.987901 v 0 l 6.296296,1.636278 v 0 l 5.28542,0.656753 v 0 l 4.361914,-0.03142 v 0 l 3.534805,-0.490885 v 0 l 2.81979,-0.777786 M 6.696882,38.39805 16.090909,35.954845 v 0 l 7.885532,-0.979526 v 0 l 6.50477,0.04713 v 0 l 5.276443,0.735214 v 0 l 4.202762,1.158842 v 0 l 3.28825,1.389705 v 0 l 2.521667,1.479389 M 6.696882,38.39812 l 6.912721,6.811852 v 0 l 6.341147,4.790046 v 0 l 5.657481,3.212031 v 0 l 4.935733,2.001642 v 0 l 4.218471,1.098316 v 0 l 3.543766,0.439337 v 0 l 2.922904,-0.02244 m -30.053747,-29.143709 9.705597,0.07182 v 0 l 7.86984,1.093845 v 0 l 6.271645,1.730416 v 0 l 4.906591,2.073371 v 0 l 3.758971,2.207853 v 0 l 2.817528,2.194405 v 0 l 2.050963,2.082331 m -37.381135,-11.45395 4.915551,8.369685 v 0 l 4.881957,6.267173 v 0 l 4.635365,4.565881 v 0 l 4.247613,3.212049 v 0 l 3.792566,2.151816 v 0 l 3.30843,1.342645 v 0 l 2.828749,0.735197 M 18.301006,18.301084 27.65695,20.881015 v 0 l 7.31843,3.095486 v 0 l 5.610421,3.292721 v 0 l 4.200517,3.274802 v 0 l 3.061857,3.104446 v 0 l 2.151834,2.84893 v 0 l 1.443498,2.541831 M 18.301006,18.301084 20.880955,27.65701 v 0 l 3.095486,7.31843 v 0 l 3.292721,5.610421 v 0 l 3.274802,4.200517 v 0 l 3.104446,3.061857 v 0 l 2.84893,2.151834 v 0 l 2.541831,1.443498 m -11.45395,-40.268149 8.369685,4.915568 v 0 l 6.267173,4.88194 v 0 l 4.565881,4.635365 v 0 l 3.212049,4.247613 v 0 l 2.151816,3.792566 v 0 l 1.342645,3.30843 v 0 l 0.735197,2.828749 m -26.644446,-28.610231 0.07182,9.705597 v 0 l 1.093844,7.86984 v 0 l 1.730416,6.271645 v 0 l 2.073371,4.906591 v 0 l 2.207854,3.758971 v 0 l 2.194404,2.817528 v 0 l 2.082331,2.050963 m -0.64106,-41.8596107 6.811852,6.9127207 v 0 l 4.790046,6.341147 v 0 l 3.212032,5.657481 v 0 l 2.001641,4.935733 v 0 l 1.098316,4.218471 v 0 l 0.439337,3.543766 v 0 l -0.02244,2.922904 M 38.398163,6.6969423 35.954958,16.090986 v 0 l -0.979527,7.885515 v 0 l 0.04713,6.50477 v 0 l 0.735215,5.276443 v 0 l 1.158841,4.202762 v 0 l 1.389706,3.28825 v 0 l 1.479388,2.521667 M 50.00013,5.1704936 54.790158,13.609663 v 0 l 2.987901,7.363263 v 0 l 1.636279,6.296296 v 0 l 0.656752,5.28542 v 0 l -0.03142,4.361914 v 0 l -0.490885,3.534805 v 0 l -0.777786,2.81979 M 50.000095,5.1704936 45.210049,13.609663 v 0 l -2.987884,7.363263 v 0 l -1.636278,6.296296 v 0 l -0.65677,5.28542 v 0 l 0.03142,4.361914 v 0 l 0.490885,3.534805 v 0 l 0.777803,2.81979 M 61.60201,6.6969423 64.045232,16.090986 v 0 l 0.979527,7.885515 v 0 l -0.04713,6.50477 v 0 l -0.735215,5.276443 v 0 l -1.158841,4.202762 v 0 l -1.389706,3.28825 v 0 L 60.21448,45.770393 M 61.601958,6.6969423 54.790107,13.609663 v 0 l -4.790029,6.341147 v 0 l -3.212049,5.657481 v 0 l -2.001642,4.935733 v 0 l -1.098316,4.218471 v 0 l -0.439336,3.543766 v 0 l 0.02244,2.922904 m 29.143691,-30.053747 -0.07182,9.705597 v 0 l -1.093828,7.86984 v 0 L 69.518789,35.0225 v 0 l -2.073371,4.906591 v 0 l -2.207853,3.758971 v 0 L 63.04316,46.50559 v 0 l -2.082331,2.050963 m 11.45395,-37.381135 -8.369668,4.915568 v 0 l -6.267173,4.88194 v 0 l -4.565898,4.635365 v 0 l -3.212031,4.247613 v 0 l -2.151834,3.792566 v 0 L 46.50553,36.9569 v 0 l -0.735197,2.828749 M 81.698994,18.301084 79.119045,27.65701 v 0 l -3.095486,7.31843 v 0 l -3.292721,5.610421 v 0 l -3.274802,4.200517 v 0 l -3.104446,3.061857 v 0 l -2.84893,2.151713 v 0 l -2.541831,1.443498 M 81.698994,18.300963 72.34305,20.880894 v 0 l -7.318412,3.095487 v 0 l -5.610421,3.29272 v 0 l -4.200535,3.274802 v 0 l -3.061857,3.104446 v 0 l -2.151816,2.84893 v 0 l -1.443516,2.541831 m 40.268149,-11.45395 -4.915551,8.369685 v 0 l -4.881939,6.267173 v 0 l -4.635383,4.565881 v 0 l -4.247595,3.212049 v 0 l -3.792584,2.151816 v 0 l -3.30843,1.342645 v 0 l -2.828749,0.735197 M 88.824642,27.58516 79.119045,27.65698 v 0 l -7.869823,1.093845 v 0 l -6.271661,1.730416 v 0 l -4.906592,2.073371 v 0 l -3.758971,2.207853 v 0 L 53.49447,36.95687 v 0 l -2.050963,2.08233 m 41.859611,-0.641059 -6.912721,6.811851 v 0 l -6.34113,4.78996 v 0 l -5.657498,3.212031 v 0 l -4.935733,2.001642 v 0 l -4.218471,1.098316 v 0 l -3.543766,0.439337 v 0 l -2.922886,-0.02244 M 93.303118,38.398016 83.909091,35.95481 v 0 l -7.885532,-0.979526 v 0 l -6.50477,0.04713 v 0 l -5.276443,0.735215 v 0 l -4.202762,1.158841 v 0 l -3.288249,1.389705 v 0 l -2.521668,1.479389 m 40.5999,10.214419 -8.43917,4.790029 v 0 l -7.363245,2.987901 v 0 l -6.296314,1.636278 v 0 l -5.28542,0.656753 v 0 l -4.361913,-0.03142 v 0 l -3.534806,-0.490885 v 0 l -2.819772,-0.777786 m 38.10064,-8.770904 -8.43917,-4.790046 v 0 l -7.363245,-2.987884 v 0 l -6.296314,-1.636278 v 0 l -5.28542,-0.65677 v 0 l -4.361913,0.03142 v 0 l -3.534806,0.490885 v 0 l -2.819772,0.777803 m 36.574191,20.372785 -9.394027,2.443222 v 0 l -7.885532,0.979527 v 0 l -6.50477,-0.04713 v 0 l -5.276443,-0.735214 v 0 l -4.202762,-1.158842 v 0 l -3.288249,-1.389705 v 0 l -2.521668,-1.479388 m 39.073451,1.387478 -6.912721,-6.811852 v 0 l -6.34113,-4.790011 v 0 L 74.391769,46.7879 v 0 l -4.935733,-2.001642 v 0 l -4.218471,-1.098316 v 0 l -3.543766,-0.439337 v 0 l -2.922886,0.02244 m 30.053729,29.143689 -9.705597,-0.07182 v 0 l -7.869823,-1.093828 v 0 l -6.271661,-1.730433 v 0 l -4.906592,-2.073371 v 0 l -3.758971,-2.207847 v 0 L 53.49447,63.04303 v 0 l -2.050963,-2.082331 m 37.381135,11.45395 -4.915551,-8.369667 v 0 l -4.881939,-6.267174 v 0 L 74.391769,53.21191 v 0 l -4.247595,-3.211962 v 0 L 66.35159,47.848115 v 0 l -3.30843,-1.342646 v 0 L 60.214411,45.770272 M 81.698994,81.698933 72.34305,79.118984 v 0 l -7.318412,-3.095486 v 0 l -5.610421,-3.292721 v 0 l -4.200535,-3.274801 v 0 L 52.151825,66.35153 v 0 L 50.000009,63.5026 v 0 l -1.443516,-2.541832 m 33.142501,20.738165 -2.579949,-9.355944 v 0 l -3.095486,-7.318412 v 0 l -3.292721,-5.610421 v 0 l -3.274802,-4.200535 v 0 L 66.35159,52.151764 v 0 l -2.84893,-2.151816 v 0 l -2.541831,-1.443515 m 11.45395,40.268148 -8.369668,-4.915551 v 0 l -6.267173,-4.881939 v 0 L 53.21204,74.391708 v 0 l -3.212031,-4.247595 v 0 L 47.848175,66.35153 v 0 L 46.50553,63.043099 v 0 L 45.770333,60.21435 m 26.644446,28.610231 -0.07182,-9.705597 v 0 l -1.093827,-7.869823 v 0 L 69.518699,64.9775 v 0 l -2.073371,-4.906592 v 0 l -2.207853,-3.758971 v 0 L 63.04307,53.494409 v 0 l -2.082331,-2.050963 m 0.64106,41.859611 -6.811852,-6.912721 v 0 l -4.790029,-6.34113 v 0 l -3.212049,-5.657498 v 0 l -2.001641,-4.935732 v 0 l -1.098316,-4.218472 v 0 l -0.439337,-3.543765 v 0 l 0.02244,-2.922887 m 18.330798,34.532205 2.443222,-9.394027 v 0 l 0.979527,-7.885532 v 0 l -0.04713,-6.50477 v 0 l -0.735207,-5.276443 v 0 l -1.158841,-4.202762 v 0 l -1.389705,-3.288249 v 0 L 60.21429,54.229606 m -10.214402,40.5999 -4.790046,-8.43917 v 0 l -2.987884,-7.363245 v 0 L 40.58568,72.730777 v 0 l -0.65677,-5.28542 v 0 l 0.03142,-4.361913 v 0 l 0.490885,-3.534806 v 0 l 0.777803,-2.819772 m 8.770904,38.10064 4.790029,-8.43917 v 0 l 2.987901,-7.363245 v 0 l 1.636278,-6.296314 v 0 l 0.656753,-5.28542 v 0 l -0.03142,-4.361913 v 0 l -0.490885,-3.534806 v 0 L 58.770792,56.728866 M 38.39799,93.303057 35.954785,83.90903 v 0 l -0.979526,-7.885532 v 0 l 0.04713,-6.50477 v 0 l 0.735214,-5.276443 v 0 l 1.158842,-4.202762 v 0 l 1.389705,-3.288249 v 0 l 1.479389,-2.521668 m -1.387479,39.073451 6.811852,-6.912721 v 0 l 4.790046,-6.34113 v 0 l 3.212031,-5.657498 v 0 l 2.001642,-4.935732 v 0 l 1.098316,-4.218472 v 0 l 0.439337,-3.543765 v 0 l -0.02244,-2.922887 m -29.143705,30.053729 0.07182,-9.705597 v 0 l 1.093845,-7.869823 v 0 L 30.48122,64.9775 v 0 l 2.073371,-4.906592 v 0 l 2.207853,-3.758971 v 0 l 2.194405,-2.817528 v 0 L 39.03918,51.443446 M 27.58523,88.824581 35.954915,83.90903 v 0 l 6.267173,-4.881939 v 0 l 4.565881,-4.635383 v 0 l 3.212049,-4.247595 v 0 l 2.151816,-3.792583 v 0 l 1.342645,-3.308431 v 0 l 0.735197,-2.828749 m -35.928661,21.484583 2.579949,-9.355944 v 0 l 3.095486,-7.318412 v 0 l 3.292721,-5.610421 v 0 l 3.274802,-4.200535 v 0 l 3.104446,-3.061857 v 0 l 2.84893,-2.151816 v 0 l 2.541831,-1.443515 m -20.738165,33.1425 9.355944,-2.579949 v 0 l 7.31843,-3.095486 v 0 l 5.610421,-3.292721 v 0 l 4.200517,-3.274801 v 0 l 3.061857,-3.104446 v 0 l 2.151834,-2.84893 v 0 l 1.443498,-2.541832 m -40.268149,11.45395 4.915551,-8.369667 v 0 l 4.881957,-6.267174 v 0 l 4.635365,-4.565898 v 0 l 4.247613,-3.212031 v 0 l 3.792557,-2.151833 v 0 l 3.30843,-1.342646 v 0 l 2.828749,-0.735197 m -28.610231,26.644446 9.705597,-0.07182 v 0 l 7.86984,-1.093828 v 0 l 6.271645,-1.730433 v 0 l 4.906591,-2.073371 v 0 l 3.758971,-2.207853 v 0 l 2.817528,-2.194405 v 0 l 2.050963,-2.082331 m -41.859611,0.64106 6.912721,-6.811852 v 0 l 6.341147,-4.789942 v 0 l 5.657481,-3.212049 v 0 l 4.935733,-2.001642 v 0 l 4.218471,-1.098316 v 0 l 3.543766,-0.439331 v 0 l 2.922904,0.02244 m -34.532223,18.330798 9.394027,2.443223 v 0 l 7.885532,0.979526 v 0 l 6.50477,-0.04713 v 0 l 5.276443,-0.735214 v 0 l 4.202762,-1.158842 v 0 l 3.28825,-1.389705 v 0 l 2.521667,-1.479389"
       id="path1" /></g></svg>
