<svg width="191" height="169" version="1.1" xmlns="http://www.w3.org/2000/svg" desc="Created with imagetracer.js version 1.2.6" ><path fill="rgb(215,212,208)" stroke="rgb(215,212,208)" stroke-width="1" opacity="1" d="M 0 0 L 16 0.5 Q 11.9 2.9 4.5 2 L 3 3.5 L 2.5 14 L 1 13.5 L 0.5 15 L 0 0 Z " /><path fill="rgb(215,212,208)" stroke="rgb(215,212,208)" stroke-width="1" opacity="1" d="M 145.5 0 L 191 0 L 191 37.5 L 191 39.5 L 191 42.5 L 188.5 47 L 188 43 Q 191.3 44.3 190 39.5 L 188 39.5 L 189 37.5 L 189 3 L 173.5 1 L 169.5 2 L 165.5 1 L 157.5 3 L 154.5 2 L 145.5 1 L 145.5 0 Z " /><path fill="rgb(215,212,208)" stroke="rgb(215,212,208)" stroke-width="1" opacity="1" d="M 17.5 2 L 66 2.5 L 17.5 3 L 17.5 2 Z " /><path fill="rgb(215,212,208)" stroke="rgb(215,212,208)" stroke-width="1" opacity="1" d="M 73.5 2 L 80 2.5 L 73.5 3 L 73.5 2 Z " /><path fill="rgb(215,212,208)" stroke="rgb(215,212,208)" stroke-width="1" opacity="1" d="M 85.5 2 L 90 2.5 L 85.5 3 L 85.5 2 Z " /><path fill="rgb(215,212,208)" stroke="rgb(215,212,208)" stroke-width="1" opacity="1" d="M 106.5 2 L 110 2.5 L 106.5 3 L 106.5 2 Z " /><path fill="rgb(215,212,208)" stroke="rgb(215,212,208)" stroke-width="1" opacity="1" d="M 117.5 2 L 122 2.5 L 117.5 3 L 117.5 2 Z " /><path fill="rgb(215,212,208)" stroke="rgb(215,212,208)" stroke-width="1" opacity="1" d="M 3.5 25 L 4 34.5 L 3 34.5 L 3.5 25 Z " /><path fill="rgb(215,212,208)" stroke="rgb(215,212,208)" stroke-width="1" opacity="1" d="M 0.5 36 L 1 38.5 L 0 38.5 L 0.5 36 Z " /><path fill="rgb(215,212,208)" stroke="rgb(215,212,208)" stroke-width="1" opacity="1" d="M 3.5 36 Q 6.3 37.3 4 38.5 L 3.5 72 L 3 45.5 L 2 43.5 L 3.5 36 Z " /><path fill="rgb(215,212,208)" stroke="rgb(215,212,208)" stroke-width="1" opacity="1" d="M 0.5 45 L 1 47.5 L 0 47.5 L 0.5 45 Z " /><path fill="rgb(215,212,208)" stroke="rgb(215,212,208)" stroke-width="1" opacity="1" d="M 0.5 55 L 1 61.5 L 0 61.5 L 0.5 55 Z " /><path fill="rgb(215,212,208)" stroke="rgb(215,212,208)" stroke-width="1" opacity="1" d="M 188 55 L 190 55.5 L 189 59.5 L 189 61.5 L 188.5 66 L 188 55 Z " /><path fill="rgb(215,212,208)" stroke="rgb(215,212,208)" stroke-width="1" opacity="1" d="M 188.5 67 L 189 71.5 L 188 71.5 L 188.5 67 Z " /><path fill="rgb(215,212,208)" stroke="rgb(215,212,208)" stroke-width="1" opacity="1" d="M 3.5 73 L 4 78.5 L 3 78.5 L 3.5 73 Z " /><path fill="rgb(215,212,208)" stroke="rgb(215,212,208)" stroke-width="1" opacity="1" d="M 188.5 76 L 189 83.5 L 188 83.5 L 188.5 76 Z " /><path fill="rgb(215,212,208)" stroke="rgb(215,212,208)" stroke-width="1" opacity="1" d="M 3.5 81 L 4 87.5 L 3 87.5 L 3.5 81 Z " /><path fill="rgb(215,212,208)" stroke="rgb(215,212,208)" stroke-width="1" opacity="1" d="M 3.5 115 L 4 119.5 L 3 119.5 L 3.5 115 Z " /><path fill="rgb(215,212,208)" stroke="rgb(215,212,208)" stroke-width="1" opacity="1" d="M 0.5 148 L 1 151.5 L 0 151.5 L 0.5 148 Z " /><path fill="rgb(215,212,208)" stroke="rgb(215,212,208)" stroke-width="1" opacity="1" d="M 0.5 153 L 1 155.5 L 0 155.5 L 0.5 153 Z " /><path fill="rgb(118,144,93)" stroke="rgb(118,144,93)" stroke-width="1" opacity="1" d="M 29 3 L 90.5 3 L 91 5 Q 87.2 4.3 86 7.5 L 87 9.5 L 84 10.5 L 84.5 12 L 82.5 12 L 73 14 L 70.5 21 L 68.5 21 L 65 23.5 L 63.5 26 L 60.5 26 L 46 34 L 42.5 40 L 41 39.5 L 41.5 38 L 36.5 36 L 33.5 39 L 32 37.5 L 35 36.5 L 34 34.5 L 34.5 33 L 32.5 34 L 32.5 32 L 28.5 33 L 28 31 L 24.5 32 L 24 30 L 19.5 29 L 18.5 30 L 13.5 27 L 4 24 L 4.5 14 L 5.5 15 L 7.5 13 L 11.5 13 L 16.5 11 L 18.5 11 L 28.5 10 L 30 8.5 L 29 3 Z M 80 7 Q 78 12 84 10 Q 86 5 80 7 Z M 70 16 L 67 20 L 71 19 L 72 17 L 70 16 Z M 44 33 L 39 36 Q 40 38 44 37 L 46 34 L 44 33 Z " /><path fill="rgb(118,144,93)" stroke="rgb(118,144,93)" stroke-width="1" opacity="1" d="M 110.5 12 L 110.5 14 L 115.5 13 L 115.5 15 L 120 16 L 119.5 18 L 118 17.5 L 117.5 19 L 116.5 16 L 114 17 L 115 20.5 L 113 21.5 L 114 19 Q 111.3 17.9 112 20.5 L 111 20.5 Q 111.8 18.3 109.5 19 Q 107.8 15.9 106 17.5 L 104.5 14 L 102.5 14 L 101 13.5 L 109.5 13 L 110.5 12 Z M 114 15 L 110 18 Q 112 21 114 17 L 114 15 Z " /><path fill="rgb(118,144,93)" stroke="rgb(118,144,93)" stroke-width="1" opacity="1" d="M 119.5 20 L 118.5 22 L 119.5 20 Z " /><path fill="rgb(118,144,93)" stroke="rgb(118,144,93)" stroke-width="1" opacity="1" d="M 115.5 22 L 114.5 24 L 115.5 22 Z " /><path fill="rgb(118,144,93)" stroke="rgb(118,144,93)" stroke-width="1" opacity="1" d="M 61.5 28 L 60.5 30 L 61.5 28 Z " /><path fill="rgb(118,144,93)" stroke="rgb(118,144,93)" stroke-width="1" opacity="1" d="M 146.5 37 L 151 37.5 L 142.5 39 L 139.5 41 L 140.5 39 L 146.5 37 Z " /><path fill="rgb(118,144,93)" stroke="rgb(118,144,93)" stroke-width="1" opacity="1" d="M 45.5 38 L 48 38.5 L 45.5 39 L 45.5 38 Z " /><path fill="rgb(118,144,93)" stroke="rgb(118,144,93)" stroke-width="1" opacity="1" d="M 152.5 38 Q 158.3 37.3 161 39.5 L 158.5 40 Q 157.3 37.8 152.5 39 L 152.5 38 Z " /><path fill="rgb(118,144,93)" stroke="rgb(118,144,93)" stroke-width="1" opacity="1" d="M 162.5 40 L 172 44.5 L 165.5 50 L 169 45.5 Q 170.1 42.2 167.5 43 L 166.5 44 L 163.5 41 L 162.5 40 Z " /><path fill="rgb(118,144,93)" stroke="rgb(118,144,93)" stroke-width="1" opacity="1" d="M 137.5 41 L 134.5 45 L 137.5 41 Z " /><path fill="rgb(118,144,93)" stroke="rgb(118,144,93)" stroke-width="1" opacity="1" d="M 133.5 46 L 133 47.5 L 132.5 49 L 132 47.5 L 133.5 46 Z " /><path fill="rgb(118,144,93)" stroke="rgb(118,144,93)" stroke-width="1" opacity="1" d="M 128.5 50 L 131 50.5 L 128.5 51 L 128.5 50 Z " /><path fill="rgb(118,144,93)" stroke="rgb(118,144,93)" stroke-width="1" opacity="1" d="M 163.5 50 L 161.5 53 L 163.5 50 Z " /><path fill="rgb(118,144,93)" stroke="rgb(118,144,93)" stroke-width="1" opacity="1" d="M 159.5 56 L 164 58.5 L 162.5 58 Q 158.8 57.8 159.5 56 Z " /><path fill="rgb(118,144,93)" stroke="rgb(118,144,93)" stroke-width="1" opacity="1" d="M 165.5 59 L 172 66.5 L 170 65.5 L 165.5 59 Z " /><path fill="rgb(118,144,93)" stroke="rgb(118,144,93)" stroke-width="1" opacity="1" d="M 49.5 64 L 47.5 67 L 49.5 64 Z " /><path fill="rgb(118,144,93)" stroke="rgb(118,144,93)" stroke-width="1" opacity="1" d="M 65.5 71 L 66.5 73 L 65.5 71 Z " /><path fill="rgb(118,144,93)" stroke="rgb(118,144,93)" stroke-width="1" opacity="1" d="M 174.5 72 L 176 75.5 L 173 73.5 L 174.5 72 Z " /><path fill="rgb(118,144,93)" stroke="rgb(118,144,93)" stroke-width="1" opacity="1" d="M 61.5 139 L 62.5 141 L 61.5 139 Z " /><path fill="rgb(124,151,99)" stroke="rgb(124,151,99)" stroke-width="1" opacity="1" d="M 88.5 5 L 90 5.5 L 87 7 L 86 11 Q 83.3 9.9 84 12.5 Q 85.2 15.3 86.5 13 L 88.5 12 L 90.5 13 L 99.5 11 L 100.5 12 L 109.5 12 L 121 15 L 121 18.5 L 115.5 25 L 108 30 Q 109.3 33.3 104.5 32 L 102 33 L 101.5 35 L 99.5 35 Q 96.2 33.9 97 36.5 L 95.5 36 L 92 38.5 Q 94.5 43.3 97 41.5 L 96 42.5 L 99 45.5 L 99.5 47 L 101 46.5 L 100 48.5 L 102 48.5 L 101 50.5 L 103 53.5 L 96 54.5 L 98 55.5 L 92.5 56 L 92.5 54 Q 86.3 52.3 84.5 55 L 84 53 L 78.5 52 L 77 54.5 Q 79.8 56.3 78 62.5 L 74 72.5 L 74.5 74 L 71.5 76 L 71.5 77 L 73 77.5 L 71.5 78 L 63.5 68 L 62 67.5 Q 64.3 66.3 61.5 65 L 60 64.5 L 60 62.5 L 55.5 55 L 52 59.5 L 52.5 61 L 45 67.5 L 44.5 69 Q 43.3 66.8 42 69.5 L 41.5 71 L 38 67.5 L 39 66.5 L 38 59.5 Q 40.7 57.8 39 51.5 L 41 47.5 L 39.5 47 L 37 48 L 36.5 50 L 35 49.5 L 34.5 51 L 32.5 51 L 26.5 54 L 26 51.5 L 30 43.5 L 29.5 42 Q 32.5 42.7 31 39 L 33.5 39 L 33 37.5 L 35 34.5 L 31 32.5 L 32.5 32 L 36 34.5 L 35 36.5 L 36.5 36 L 45.5 33 L 47.5 34 L 58 27.5 L 57.5 26 L 59.5 27 L 59.5 25 L 63.5 26 L 67.5 21 L 69 20.5 L 67 20 L 69.5 16 L 72.5 17 L 73 14 L 82.5 12 L 84 10.5 L 80 10 Q 78.3 5.5 83.5 7 L 85.5 6 Q 87 8.5 88.5 5 Z M 84 7 L 84 10 L 86 9 Q 87 6 84 7 Z M 102 13 L 103 14 L 105 14 L 106 18 L 108 17 L 111 19 L 110 18 L 114 15 L 114 17 L 117 16 L 118 19 L 118 18 L 120 18 L 120 16 L 110 13 L 102 13 Z M 72 17 L 71 19 L 69 20 Q 71 23 72 20 L 72 17 Z M 114 17 L 112 19 L 114 19 L 114 17 Z M 41 37 L 42 38 L 42 40 L 44 39 Q 45 36 41 37 Z M 46 38 L 46 39 L 48 39 L 46 38 Z " /><path fill="rgb(124,151,99)" stroke="rgb(124,151,99)" stroke-width="1" opacity="1" d="M 63.5 23 L 62.5 25 L 61 24.5 L 63.5 23 Z " /><path fill="rgb(124,151,99)" stroke="rgb(124,151,99)" stroke-width="1" opacity="1" d="M 8.5 25 L 11 26.5 L 9.5 26 L 8.5 25 Z " /><path fill="rgb(124,151,99)" stroke="rgb(124,151,99)" stroke-width="1" opacity="1" d="M 21.5 30 L 24 30.5 L 21.5 31 L 21.5 30 Z " /><path fill="rgb(124,151,99)" stroke="rgb(124,151,99)" stroke-width="1" opacity="1" d="M 146.5 38 L 161.5 40 L 165.5 43 L 167.5 43 Q 170.1 42.2 169 45.5 L 164.5 51 L 163.5 50 L 160.5 53 Q 156.8 51.8 158 55.5 L 166 60.5 L 163.5 66 L 161.5 66 L 155.5 67 L 154.5 66 L 137.5 66 L 133.5 68 L 133.5 67 L 137.5 65 L 154.5 65 L 157.5 66 L 160 65 Q 161.1 62.3 158.5 63 L 156.5 63 L 145.5 61 L 137.5 61 L 133 62 Q 134.3 65 130.5 64 L 128.5 63 L 128.5 65 Q 127.3 62.8 122.5 64 L 122.5 65 L 124 65.5 L 122.5 66 L 116 63.5 L 122 62 L 122.5 58 L 123.5 62 L 124 56.5 L 122 56.5 Q 122.8 54.3 120.5 55 L 120.5 57 Q 118.3 57.8 119 55.5 L 124 52.5 L 123.5 51 L 125.5 52 L 130.5 51 L 133 48.5 L 138.5 40 L 140.5 40 L 146.5 38 Z M 164 60 L 161 64 L 165 63 L 164 60 Z " /><path fill="rgb(124,151,99)" stroke="rgb(124,151,99)" stroke-width="1" opacity="1" d="M 116.5 57 L 118 59.5 L 116 60.5 L 117 58.5 L 116.5 57 Z " /><path fill="rgb(124,151,99)" stroke="rgb(124,151,99)" stroke-width="1" opacity="1" d="M 115.5 65 L 116.5 67 L 115.5 65 Z " /><path fill="rgb(124,151,99)" stroke="rgb(124,151,99)" stroke-width="1" opacity="1" d="M 154.5 69 L 157 69.5 L 154.5 70 L 154.5 69 Z " /><path fill="rgb(124,151,99)" stroke="rgb(124,151,99)" stroke-width="1" opacity="1" d="M 159.5 70 L 168 70.5 L 159.5 71 L 159.5 70 Z " /><path fill="rgb(124,151,99)" stroke="rgb(124,151,99)" stroke-width="1" opacity="1" d="M 153.5 71 L 154 73.5 L 153 73.5 L 153.5 71 Z " /><path fill="rgb(124,151,99)" stroke="rgb(124,151,99)" stroke-width="1" opacity="1" d="M 154.5 76 L 155 85.5 L 154 85.5 L 154.5 76 Z " /><path fill="rgb(124,151,99)" stroke="rgb(124,151,99)" stroke-width="1" opacity="1" d="M 141.5 77 L 142 81.5 L 141 81.5 L 141.5 77 Z " /><path fill="rgb(124,151,99)" stroke="rgb(124,151,99)" stroke-width="1" opacity="1" d="M 146.5 91 L 147.5 93 L 146.5 91 Z " /><path fill="rgb(16,62,100)" stroke="rgb(16,62,100)" stroke-width="1" opacity="1" d="M 4 4 L 27.5 4 L 28 7.5 L 29 10 L 17.5 10 L 4 13 L 4 4 Z " /><path fill="rgb(16,62,100)" stroke="rgb(16,62,100)" stroke-width="1" opacity="1" d="M 91 4 L 154 4.5 L 149.5 11 L 148 11.5 L 148 13.5 L 143.5 19 Q 141.3 18.3 142 20.5 L 133.5 28 L 132 27.5 L 129.5 31 L 114 39.5 Q 113.3 41.8 115.5 41 L 124 46.5 Q 121.8 47.8 124.5 49 Q 125.8 46.8 127 49.5 Q 118.9 50.4 116 56.5 L 111 69 L 116.5 67 L 126.5 66 L 128 66.5 L 128.5 65 L 129 67.5 L 127.5 74 L 127 67 L 122 67 L 122 68.5 L 124 68.5 L 122.5 70 L 120 68.5 L 121 70.5 L 119.5 71 L 117.5 71 L 114.5 70 L 113.5 72 L 113 70 L 110 70 Q 111.3 67 107.5 68 L 105.5 68 L 102 68.5 L 112 71.5 L 108.5 73 L 94.5 66 L 93 68.5 L 95 77.5 L 94 77.5 L 92 68 L 88 68 Q 89.3 71 85.5 70 L 83.5 70 L 81 70.5 L 83.5 72 L 85.5 72 L 88.5 71 L 90 71.5 L 90.5 69 L 91 73 L 88.5 72 L 85.5 73 L 83.5 73 L 81 73 Q 82.3 70 78.5 71 L 73.5 78 L 74 76.5 Q 79.8 69.3 80 56.5 L 79 54 L 85.5 56 L 97.5 57 L 98.5 56 L 105 56 Q 103 46.1 96.5 40 L 94 38.5 Q 110.3 34.3 119 22.5 L 123 15.5 L 108.5 11 L 90.5 11 L 86 12 L 91 4 Z M 91 7 L 89 9 Q 88 11 91 10 L 91 7 Z " /><path fill="rgb(16,62,100)" stroke="rgb(16,62,100)" stroke-width="1" opacity="1" d="M 4 25 L 22.5 32 L 34 34.5 Q 26.2 42.7 24 55 L 38.5 49 L 38 50.5 L 37 65.5 L 39.5 73 L 53 61.5 L 55.5 56 Q 60.8 69.8 71 78.5 L 66 75.5 Q 66.9 78.5 62.5 77 L 61 76.5 Q 61.8 78.8 59.5 78 L 56 80.5 L 57.5 83 Q 53.8 81 55.5 79 Q 53.3 79.8 54 77.5 L 53 74 Q 50 72.8 51 76.5 L 46 91 L 44 90.5 L 47 84.5 L 42.5 88 L 41.5 87 L 38.5 88 L 36.5 88 L 32 87 L 31 83 L 29 83.5 L 31 86.5 Q 28.5 88 30 93.5 L 31 95.5 L 30 95.5 L 28 86.5 L 28 69.5 L 29 66.5 L 26 68.5 L 23.5 72 L 13.5 79 L 14.5 77 L 17 75.5 L 15.5 73 L 13 74.5 L 14 71.5 L 12 71 L 11.5 77 L 11 66.5 Q 13.9 52.4 22 43.5 L 4 35 L 4 25 Z M 64 73 L 63 75 L 63 76 L 66 75 L 64 73 Z M 56 77 L 57 79 L 59 78 L 56 77 Z M 30 80 L 34 86 L 38 86 L 32 82 Q 33 79 30 80 Z M 44 82 L 45 85 L 46 83 L 44 82 Z M 41 84 L 39 86 L 40 87 L 42 86 Q 43 88 44 86 L 41 84 Z " /><path fill="rgb(16,62,100)" stroke="rgb(16,62,100)" stroke-width="1" opacity="1" d="M 123.5 71 L 122.5 73 L 123.5 71 Z " /><path fill="rgb(16,62,100)" stroke="rgb(16,62,100)" stroke-width="1" opacity="1" d="M 124.5 73 Q 127.1 72.3 126 75 L 123 74.5 L 124.5 73 Z " /><path fill="rgb(16,62,100)" stroke="rgb(16,62,100)" stroke-width="1" opacity="1" d="M 89.5 78 L 93 78.5 L 87.5 80 L 87.5 79 L 89.5 78 Z " /><path fill="rgb(16,62,100)" stroke="rgb(16,62,100)" stroke-width="1" opacity="1" d="M 77.5 82 L 79 82.5 L 76.5 84 L 77.5 82 Z " /><path fill="rgb(16,62,100)" stroke="rgb(16,62,100)" stroke-width="1" opacity="1" d="M 71.5 85 L 73 85.5 L 68.5 88 L 69.5 86 L 71.5 85 Z " /><path fill="rgb(16,62,100)" stroke="rgb(16,62,100)" stroke-width="1" opacity="1" d="M 43.5 93 L 44 94.5 L 40.5 99 L 41 97.5 L 43.5 93 Z " /><path fill="rgb(16,62,100)" stroke="rgb(16,62,100)" stroke-width="1" opacity="1" d="M 31.5 98 L 33 101.5 L 32 101.5 L 31.5 98 Z " /><path fill="rgb(134,152,101)" stroke="rgb(134,152,101)" stroke-width="1" opacity="1" d="M 114.5 25 L 110.5 30 L 114.5 25 Z " /><path fill="rgb(134,152,101)" stroke="rgb(134,152,101)" stroke-width="1" opacity="1" d="M 133.5 28 L 132.5 30 L 133.5 28 Z " /><path fill="rgb(134,152,101)" stroke="rgb(134,152,101)" stroke-width="1" opacity="1" d="M 104.5 32 L 106 32.5 L 102.5 34 L 102.5 33 L 104.5 32 Z " /><path fill="rgb(134,152,101)" stroke="rgb(134,152,101)" stroke-width="1" opacity="1" d="M 93.5 39 L 98 42 L 104 55 L 96 54.5 L 103 53.5 Q 99.4 44.2 93.5 39 Z " /><path fill="rgb(134,152,101)" stroke="rgb(134,152,101)" stroke-width="1" opacity="1" d="M 19.5 46 L 18.5 48 L 19.5 46 Z " /><path fill="rgb(134,152,101)" stroke="rgb(134,152,101)" stroke-width="1" opacity="1" d="M 167.5 48 L 166.5 50 L 167.5 48 Z " /><path fill="rgb(134,152,101)" stroke="rgb(134,152,101)" stroke-width="1" opacity="1" d="M 126.5 50 L 128 50.5 L 120 54.5 L 122 55 L 122.5 57 L 124 56.5 Q 122.8 61.3 125 62.5 L 123 61.5 L 122.5 58 L 122 62 L 118 62.5 L 120 63.5 L 118 64.5 L 121.5 65 L 129.5 63 L 133 64 Q 131.7 60.7 136.5 62 L 137.5 61 L 145.5 61 L 156.5 63 L 158.5 63 Q 161.1 62.3 160 65 L 158 65.5 L 161.5 66 L 165 64.5 L 164.5 63 L 161 64 L 163.5 60 L 165.5 63 L 167.5 60 L 170 64.5 L 171.5 68 L 173 67.5 L 172.5 69 L 174 69.5 L 173.5 71 L 175 71.5 Q 173 76 171 72.5 Q 171.8 70.3 169.5 71 L 167.5 72 L 167.5 70 L 158.5 70 L 153 71 L 153.5 74 L 155 73.5 L 154 74.5 L 154 85.5 L 155 86.5 L 153 88.5 L 154 89.5 L 152 93.5 L 151.5 99 L 150 95 L 147 93.5 Q 149.8 91.7 145.5 90 Q 142.5 90.9 144 86.5 L 143 84 L 141 83.5 L 142 77 L 138 78.5 Q 140.3 79.8 137.5 81 L 136 81.5 L 136 83.5 L 132.5 88 L 129 83.5 L 128 73.5 L 130 64 L 112.5 67 L 113 65.5 Q 114.7 57.2 120.5 53 L 126.5 50 Z M 120 55 Q 118 58 121 57 L 120 55 Z M 138 65 L 138 66 L 155 66 L 138 65 Z M 156 66 L 156 67 L 158 67 L 156 66 Z M 155 69 L 155 70 L 157 70 L 155 69 Z " /><path fill="rgb(134,152,101)" stroke="rgb(134,152,101)" stroke-width="1" opacity="1" d="M 163.5 51 L 162.5 53 L 163.5 51 Z " /><path fill="rgb(134,152,101)" stroke="rgb(134,152,101)" stroke-width="1" opacity="1" d="M 79.5 52 L 84 53.5 L 81.5 54 L 79.5 52 Z " /><path fill="rgb(134,152,101)" stroke="rgb(134,152,101)" stroke-width="1" opacity="1" d="M 38.5 53 L 39 58.5 L 38 58.5 L 38.5 53 Z " /><path fill="rgb(134,152,101)" stroke="rgb(134,152,101)" stroke-width="1" opacity="1" d="M 77.5 53 Q 80.3 55.7 79 62.5 L 74.5 73 L 75 71.5 L 78 62.5 L 78 55.5 L 77.5 53 Z " /><path fill="rgb(134,152,101)" stroke="rgb(134,152,101)" stroke-width="1" opacity="1" d="M 85.5 54 L 93 54.5 L 85.5 55 L 85.5 54 Z " /><path fill="rgb(134,152,101)" stroke="rgb(134,152,101)" stroke-width="1" opacity="1" d="M 158.5 54 L 159.5 56 Q 156.7 56.7 158.5 54 Z " /><path fill="rgb(134,152,101)" stroke="rgb(134,152,101)" stroke-width="1" opacity="1" d="M 54.5 56 L 54 57.5 L 52.5 60 L 53 58.5 L 54.5 56 Z " /><path fill="rgb(134,152,101)" stroke="rgb(134,152,101)" stroke-width="1" opacity="1" d="M 57.5 58 L 61 63.5 L 59 62.5 L 57.5 58 Z " /><path fill="rgb(134,152,101)" stroke="rgb(134,152,101)" stroke-width="1" opacity="1" d="M 51.5 61 L 45.5 68 L 51.5 61 Z " /><path fill="rgb(134,152,101)" stroke="rgb(134,152,101)" stroke-width="1" opacity="1" d="M 38.5 62 L 39 66.5 L 38 66.5 L 38.5 62 Z " /><path fill="rgb(134,152,101)" stroke="rgb(134,152,101)" stroke-width="1" opacity="1" d="M 61.5 65 L 62.5 67 L 61.5 65 Z " /><path fill="rgb(134,152,101)" stroke="rgb(134,152,101)" stroke-width="1" opacity="1" d="M 43.5 68 L 42.5 70 L 43.5 68 Z " /><path fill="rgb(134,152,101)" stroke="rgb(134,152,101)" stroke-width="1" opacity="1" d="M 63.5 68 L 73 76.5 L 71.5 77 L 63.5 68 Z " /><path fill="rgb(134,152,101)" stroke="rgb(134,152,101)" stroke-width="1" opacity="1" d="M 39.5 69 L 40.5 71 Q 37.7 71.7 39.5 69 Z " /><path fill="rgb(134,152,101)" stroke="rgb(134,152,101)" stroke-width="1" opacity="1" d="M 9.5 80 L 10.5 82 L 9.5 80 Z " /><path fill="rgb(134,152,101)" stroke="rgb(134,152,101)" stroke-width="1" opacity="1" d="M 27.5 81 L 28 83.5 L 27 83.5 L 27.5 81 Z " /><path fill="rgb(134,152,101)" stroke="rgb(134,152,101)" stroke-width="1" opacity="1" d="M 105.5 95 L 106.5 97 L 105.5 95 Z " /><path fill="rgb(134,152,101)" stroke="rgb(134,152,101)" stroke-width="1" opacity="1" d="M 121.5 113 L 123 113.5 L 120.5 115 L 121.5 113 Z " /><path fill="rgb(134,152,101)" stroke="rgb(134,152,101)" stroke-width="1" opacity="1" d="M 49.5 122 L 52.5 126 L 49.5 122 Z " /><path fill="rgb(134,152,101)" stroke="rgb(134,152,101)" stroke-width="1" opacity="1" d="M 122.5 139 L 125 139.5 L 122.5 140 L 122.5 139 Z " /><path fill="rgb(222,222,217)" stroke="rgb(222,222,217)" stroke-width="1" opacity="1" d="M 16.5 0 L 54 0.5 L 40.5 2 L 38.5 2 L 17.5 2 L 16.5 3 L 12 1.5 L 16.5 0 Z " /><path fill="rgb(222,222,217)" stroke="rgb(222,222,217)" stroke-width="1" opacity="1" d="M 58.5 0 L 65 0.5 L 58.5 1 L 58.5 0 Z " /><path fill="rgb(222,222,217)" stroke="rgb(222,222,217)" stroke-width="1" opacity="1" d="M 76.5 0 L 88 0.5 L 84 1.5 L 84.5 3 L 81.5 2 L 80 2.5 L 80.5 1 Q 75.5 2 76.5 0 Z " /><path fill="rgb(222,222,217)" stroke="rgb(222,222,217)" stroke-width="1" opacity="1" d="M 90.5 0 L 144.5 0 L 150 1.5 L 128.5 2 L 127.5 3 L 123.5 2 L 121.5 2 L 113.5 2 L 112.5 3 L 109.5 2 L 105.5 3 Q 102.5 0 95.5 1 L 95.5 3 L 93 2.5 L 93.5 1 Q 89.5 1.8 90.5 0 Z " /><path fill="rgb(222,222,217)" stroke="rgb(222,222,217)" stroke-width="1" opacity="1" d="M 1.5 13 L 3 14.5 L 3 25.5 L 2 27.5 L 4 35.5 L 2 44.5 L 3 45.5 L 3 71.5 L 4 72.5 L 3 73.5 L 3 93.5 Q -0.2 96.3 0.5 103 L 0 62.5 Q 2.5 61 1 55.5 Q -1.5 54 0 48.5 L 1 45.5 Q -1.3 44.3 0 39.5 L 1 36.5 L 0 35.5 L 0 15.5 L 1.5 13 Z " /><path fill="rgb(222,222,217)" stroke="rgb(222,222,217)" stroke-width="1" opacity="1" d="M 190.5 38 L 190 39.5 L 191 43.5 L 191 67.5 L 190 67.5 L 189.5 66 L 188 66.5 L 190 60.5 L 189 56.5 L 189 54.5 L 189 44.5 L 190 43.5 L 189 39.5 L 190.5 38 Z " /><path fill="rgb(222,222,217)" stroke="rgb(222,222,217)" stroke-width="1" opacity="1" d="M 189.5 71 L 190 72.5 L 189 76 L 191 76.5 L 189.5 77 Q 187.3 76.3 188 72.5 L 189.5 71 Z " /><path fill="rgb(222,222,217)" stroke="rgb(222,222,217)" stroke-width="1" opacity="1" d="M 188.5 84 L 189 88.5 L 188 88.5 L 188.5 84 Z " /><path fill="rgb(222,222,217)" stroke="rgb(222,222,217)" stroke-width="1" opacity="1" d="M 188.5 95 L 189 99.5 L 188 99.5 L 188.5 95 Z " /><path fill="rgb(222,222,217)" stroke="rgb(222,222,217)" stroke-width="1" opacity="1" d="M 3.5 100 L 4 102.5 L 3 102.5 L 3.5 100 Z " /><path fill="rgb(222,222,217)" stroke="rgb(222,222,217)" stroke-width="1" opacity="1" d="M 188.5 103 L 189 107.5 L 188 107.5 L 188.5 103 Z " /><path fill="rgb(222,222,217)" stroke="rgb(222,222,217)" stroke-width="1" opacity="1" d="M 2 104 L 4 104.5 L 2.5 108 L 2 104 Z " /><path fill="rgb(222,222,217)" stroke="rgb(222,222,217)" stroke-width="1" opacity="1" d="M 0.5 105 L 1 110.5 L 0 110.5 L 0.5 105 Z " /><path fill="rgb(222,222,217)" stroke="rgb(222,222,217)" stroke-width="1" opacity="1" d="M 0.5 113 L 3 122.5 L 2 122.5 L 0.5 113 Z " /><path fill="rgb(222,222,217)" stroke="rgb(222,222,217)" stroke-width="1" opacity="1" d="M 41.5 114 L 40.5 116 L 41.5 114 Z " /><path fill="rgb(222,222,217)" stroke="rgb(222,222,217)" stroke-width="1" opacity="1" d="M 39.5 118 L 38.5 120 L 39.5 118 Z " /><path fill="rgb(222,222,217)" stroke="rgb(222,222,217)" stroke-width="1" opacity="1" d="M 0.5 120 L 1 122.5 L 0 122.5 L 0.5 120 Z " /><path fill="rgb(222,222,217)" stroke="rgb(222,222,217)" stroke-width="1" opacity="1" d="M 0.5 127 L 3 128.5 L 0 129 L 0.5 127 Z " /><path fill="rgb(222,222,217)" stroke="rgb(222,222,217)" stroke-width="1" opacity="1" d="M 1.5 134 L 2 135.5 L 0 136.5 L 1.5 134 Z " /><path fill="rgb(222,222,217)" stroke="rgb(222,222,217)" stroke-width="1" opacity="1" d="M 0 138 Q 2.7 136.9 2 139.5 L 3 140.5 L 3 161.5 L 3 163.5 Q 5.3 170.8 0 169 L 0 156.5 L 1 153.5 L 0.5 152 L 2 152.5 Q -0.6 149.6 0 143.5 L 0 141.5 L 0 138 Z " /><path fill="rgb(82,100,96)" stroke="rgb(82,100,96)" stroke-width="1" opacity="1" d="M 28.5 3 L 29 6.5 L 28 6.5 L 28.5 3 Z " /><path fill="rgb(82,100,96)" stroke="rgb(82,100,96)" stroke-width="1" opacity="1" d="M 88.5 7 L 87.5 9 L 88.5 7 Z " /><path fill="rgb(82,100,96)" stroke="rgb(82,100,96)" stroke-width="1" opacity="1" d="M 18.5 10 L 22 10.5 L 18.5 11 L 18.5 10 Z " /><path fill="rgb(82,100,96)" stroke="rgb(82,100,96)" stroke-width="1" opacity="1" d="M 92.5 11 L 97 11.5 L 92.5 12 L 92.5 11 Z " /><path fill="rgb(82,100,96)" stroke="rgb(82,100,96)" stroke-width="1" opacity="1" d="M 101.5 11 L 107 11.5 L 101.5 12 L 101.5 11 Z " /><path fill="rgb(82,100,96)" stroke="rgb(82,100,96)" stroke-width="1" opacity="1" d="M 140.5 22 L 139.5 24 L 140.5 22 Z " /><path fill="rgb(82,100,96)" stroke="rgb(82,100,96)" stroke-width="1" opacity="1" d="M 116.5 24 L 111.5 30 L 116.5 24 Z " /><path fill="rgb(82,100,96)" stroke="rgb(82,100,96)" stroke-width="1" opacity="1" d="M 39.5 47 L 40 49 L 38 48.5 L 39.5 47 Z " /><path fill="rgb(82,100,96)" stroke="rgb(82,100,96)" stroke-width="1" opacity="1" d="M 126.5 48 L 127.5 50 L 126.5 48 Z " /><path fill="rgb(82,100,96)" stroke="rgb(82,100,96)" stroke-width="1" opacity="1" d="M 120.5 52 L 117.5 56 L 120.5 52 Z " /><path fill="rgb(82,100,96)" stroke="rgb(82,100,96)" stroke-width="1" opacity="1" d="M 104.5 54 L 103.5 56 L 100 55.5 L 104.5 54 Z " /><path fill="rgb(82,100,96)" stroke="rgb(82,100,96)" stroke-width="1" opacity="1" d="M 37.5 55 L 38 64.5 L 37 64.5 L 37.5 55 Z " /><path fill="rgb(82,100,96)" stroke="rgb(82,100,96)" stroke-width="1" opacity="1" d="M 51.5 62 L 50.5 64 L 51.5 62 Z " /><path fill="rgb(82,100,96)" stroke="rgb(82,100,96)" stroke-width="1" opacity="1" d="M 46.5 67 L 45.5 69 L 46.5 67 Z " /><path fill="rgb(82,100,96)" stroke="rgb(82,100,96)" stroke-width="1" opacity="1" d="M 95.5 67 L 96.5 69 L 95.5 67 Z " /><path fill="rgb(82,100,96)" stroke="rgb(82,100,96)" stroke-width="1" opacity="1" d="M 63.5 69 L 64.5 71 L 63.5 69 Z " /><path fill="rgb(82,100,96)" stroke="rgb(82,100,96)" stroke-width="1" opacity="1" d="M 27.5 73 L 28 77.5 L 27 77.5 L 27.5 73 Z " /><path fill="rgb(82,100,96)" stroke="rgb(82,100,96)" stroke-width="1" opacity="1" d="M 95.5 75 L 96 78.5 L 95 78.5 L 95.5 75 Z " /><path fill="rgb(82,100,96)" stroke="rgb(82,100,96)" stroke-width="1" opacity="1" d="M 123.5 75 L 128 75.5 L 123.5 76 L 123.5 75 Z " /><path fill="rgb(82,100,96)" stroke="rgb(82,100,96)" stroke-width="1" opacity="1" d="M 108.5 76 L 108.5 79 Q 106.3 79.8 107 77.5 L 108.5 76 Z " /><path fill="rgb(82,100,96)" stroke="rgb(82,100,96)" stroke-width="1" opacity="1" d="M 57.5 84 L 58.5 86 L 57.5 84 Z " /><path fill="rgb(82,100,96)" stroke="rgb(82,100,96)" stroke-width="1" opacity="1" d="M 112.5 94 L 111.5 96 L 112.5 94 Z " /><path fill="rgb(82,100,96)" stroke="rgb(82,100,96)" stroke-width="1" opacity="1" d="M 124.5 117 L 125.5 119 L 124.5 117 Z " /><path fill="rgb(82,100,96)" stroke="rgb(82,100,96)" stroke-width="1" opacity="1" d="M 59.5 137 L 60.5 139 L 59.5 137 Z " /><path fill="rgb(82,100,96)" stroke="rgb(82,100,96)" stroke-width="1" opacity="1" d="M 97.5 164 L 100 164.5 L 97.5 165 L 97.5 164 Z " /><path fill="rgb(82,100,96)" stroke="rgb(82,100,96)" stroke-width="1" opacity="1" d="M 116.5 164 L 119 164.5 L 116.5 165 L 116.5 164 Z " /><path fill="rgb(199,130,114)" stroke="rgb(199,130,114)" stroke-width="1" opacity="1" d="M 153.5 37 L 156 37.5 L 153.5 38 L 153.5 37 Z " /><path fill="rgb(199,130,114)" stroke="rgb(199,130,114)" stroke-width="1" opacity="1" d="M 169.5 46 L 168.5 48 L 169.5 46 Z " /><path fill="rgb(199,130,114)" stroke="rgb(199,130,114)" stroke-width="1" opacity="1" d="M 94.5 67 L 102.5 72 L 108.5 73 L 110 74.5 L 107 79 L 96 79 L 96 74.5 L 94.5 67 Z " /><path fill="rgb(199,130,114)" stroke="rgb(199,130,114)" stroke-width="1" opacity="1" d="M 160.5 71 L 167 71.5 L 160.5 72 L 160.5 71 Z " /><path fill="rgb(199,130,114)" stroke="rgb(199,130,114)" stroke-width="1" opacity="1" d="M 123 76 L 128 76 L 128 79.5 L 129 83.5 L 132.5 88 L 136.5 83 L 138 84.5 L 143 102.5 L 143 118.5 L 140 129 L 134 127 L 136 109.5 L 127 88.5 L 122.5 83 Q 119.9 83.8 121 80.5 L 123 76 Z " /><path fill="rgb(199,130,114)" stroke="rgb(199,130,114)" stroke-width="1" opacity="1" d="M 145.5 91 L 146.5 93 L 145.5 91 Z " /><path fill="rgb(199,130,114)" stroke="rgb(199,130,114)" stroke-width="1" opacity="1" d="M 50.5 99 L 49.5 101 L 50.5 99 Z " /><path fill="rgb(199,130,114)" stroke="rgb(199,130,114)" stroke-width="1" opacity="1" d="M 124.5 163 L 125 164.5 L 123 169 L 96.5 169 Q 95.5 169 96 164.5 L 97.5 165 L 118.5 165 L 124.5 163 Z " /><path fill="rgb(233,242,235)" stroke="rgb(233,242,235)" stroke-width="1" opacity="1" d="M 129.5 2 L 134 2.5 L 129.5 3 L 129.5 2 Z " /><path fill="rgb(233,242,235)" stroke="rgb(233,242,235)" stroke-width="1" opacity="1" d="M 3.5 10 L 4 12.5 L 3 12.5 L 3.5 10 Z " /><path fill="rgb(233,242,235)" stroke="rgb(233,242,235)" stroke-width="1" opacity="1" d="M 94.5 79 Q 101.2 81.3 111.5 80 L 122 83 L 123.5 86 Q 126.1 85.2 125 88.5 L 128 95 L 130 95.5 L 129.5 97 L 131 97.5 L 130.5 99 L 132 99.5 L 132 101.5 L 134 104.5 Q 131.5 106 135 107.5 L 133 122.5 L 133 124.5 L 132 129.5 L 132.5 131 Q 129.9 130.3 131 133 L 126 133 L 126 134.5 L 126.5 138 L 120.5 138 L 114.5 132 L 114 137 Q 105.8 137.4 103 131.5 L 100 123 L 98 122.5 L 99 120.5 L 96.5 118 L 88.5 117 L 87 117.5 Q 87.8 114.9 84.5 116 L 75.5 110 L 74 110.5 Q 76.2 109.3 73.5 108 L 72 108.5 L 72.5 107 Q 70.3 107.8 71 105.5 Q 64.4 100.8 63 92 L 77.5 85 L 89 82 L 89.5 80 L 92.5 81 L 94.5 79 Z M 110 81 L 106 83 Q 103 82 104 85 L 103 84 L 96 92 L 96 96 L 101 102 L 104 101 L 103 97 L 108 100 L 110 99 L 117 91 L 116 84 L 110 81 Z M 122 112 L 118 115 L 115 120 L 116 121 Q 113 120 114 123 L 114 125 L 112 125 Q 111 129 115 130 L 119 129 L 121 125 L 124 124 Q 126 125 125 123 L 128 121 L 125 115 L 122 112 Z " /><path fill="rgb(233,242,235)" stroke="rgb(233,242,235)" stroke-width="1" opacity="1" d="M 43.5 115 L 44 119 L 46 119 Q 44.5 122.8 47.5 122 Q 52.9 125.4 54 132 L 56 132.5 L 56 134.5 L 63.5 143 L 67.5 145 L 69 144.5 Q 68.3 146.8 70.5 146 L 73 146.5 Q 72.2 149.1 75.5 148 L 79 149 L 79 155.5 L 83.5 161 L 95 165 L 96 169 L 42.5 169 L 41.5 168 L 37 169 L 38 164.5 L 36 164.5 L 34.5 161 L 32.5 166 L 32 162.5 L 32 160.5 L 32 143.5 L 35 136.5 L 34 134.5 L 37 124 L 39 123.5 L 38.5 122 L 40 121.5 L 39.5 120 L 41 119.5 L 40 117.5 L 43 116.5 L 43.5 115 Z M 34 156 L 33 159 L 35 159 Q 36 155 34 156 Z M 40 160 L 39 163 L 40 163 L 40 160 Z M 41 163 L 40 167 L 41 167 L 41 163 Z " /><path fill="rgb(220,204,187)" stroke="rgb(220,204,187)" stroke-width="1" opacity="1" d="M 165.5 1 L 172.5 2 L 175.5 1 L 176.5 2 L 189 3 L 189 37.5 L 188 39.5 L 189 42.5 L 188 46.5 L 189 50.5 L 188 51.5 L 188 76.5 L 187 77.5 Q 189.3 78.8 188 83.5 L 183.5 87 L 182 86.5 Q 181.3 88.8 183.5 88 L 183.5 89 L 176.5 88 L 175.5 89 L 172.5 86 L 171 85.5 Q 173.5 84 170 82.5 L 165.5 76 L 163 74.5 Q 162.4 71.8 168.5 73 L 170 72.5 Q 169.3 74.8 171.5 74 L 174 74.5 Q 171.8 75.8 174.5 77 L 177 73 L 175 72.5 L 175.5 71 L 174 70.5 L 174.5 69 L 173 68.5 L 173.5 67 L 172 66.5 Q 174.3 65.3 171.5 64 L 170 63.5 Q 172.3 62.2 169.5 61 Q 167.3 61.8 168 59.5 L 165 58.5 L 165 57 Q 161.2 58.5 162 55.5 L 160 55.5 L 161.5 53 L 163 53.5 L 164.5 51 L 165.5 52 L 171 46.5 Q 170.3 44.3 172.5 45 L 171.5 43 L 161.5 38 L 159.5 39 L 150.5 36 L 148.5 37 L 144 36 L 143.5 38 L 141 37 L 140.5 39 L 139 38.5 L 133.5 45 L 131 46.5 L 130 48.5 L 130.5 50 L 128.5 50 L 124 45.5 L 124.5 44 L 122.5 43 L 121 43.5 L 121.5 42 L 118 40.5 L 126 35.5 L 125.5 34 L 127.5 34 L 130 32.5 L 131.5 30 Q 132.8 32.3 134 29.5 L 136.5 26 L 137.5 27 L 149 15.5 L 148.5 14 L 151 12.5 Q 148.8 11.3 151.5 10 L 153 9.5 L 152.5 8 L 155 6.5 L 154.5 5 L 156 4.5 Q 153.8 3.3 156.5 2 L 158.5 3 L 165.5 1 Z M 171 81 L 171 83 L 176 87 L 173 83 Q 174 80 171 81 Z " /><path fill="rgb(220,204,187)" stroke="rgb(220,204,187)" stroke-width="1" opacity="1" d="M 4 38 L 14.5 42 L 16 41.5 L 15.5 43 L 17.5 42 L 20 44.5 Q 15.7 46.8 17.5 49 L 16 49.5 L 16.5 51 L 14 52.5 L 13 55.5 L 13.5 57 Q 11.3 56.3 12 58.5 L 12.5 60 L 11 59.5 L 10 65.5 L 10.5 67 L 9 67.5 L 9 76.5 L 8 82 L 11.5 83 L 12.5 80 L 14.5 80 L 21 76.5 Q 18.2 74.7 22.5 73 L 23.5 74 L 26 72.5 L 26.5 88 L 27.5 86 L 28 87.5 Q 25.7 88.8 27 93.5 L 28.5 97 L 30 96.5 L 29 100.5 L 31 103.5 Q 27.4 105.3 27 110.5 Q 29.6 113.4 29 119.5 L 27 122.5 L 24 137.5 L 25 144 Q 28.3 142.7 27 147.5 L 26 151.5 L 27.5 156 L 28.5 151 L 30 154.5 L 30 163.5 L 31 169 L 4.5 169 L 4 167.5 Q 1.8 166.3 3 161.5 L 4 159.5 L 3 154.5 L 4 153.5 L 4 143.5 L 5 142.5 L 4 139.5 L 5 137.5 L 4 132.5 Q 8 130.5 4 128.5 L 4 120.5 L 5 119.5 L 4 118.5 L 4 95.5 L 5 92.5 L 4 91.5 L 4 83.5 L 6 83.5 L 5.5 80 L 4.5 82 L 4 75.5 L 4 73.5 L 4 38 Z M 8 87 L 7 90 L 8 90 L 8 87 Z M 6 88 L 5 92 L 6 92 L 6 88 Z M 8 92 L 7 95 L 8 95 L 8 92 Z M 26 110 L 23 115 L 23 124 L 25 130 L 26 123 Q 28 121 25 120 Q 24 115 27 114 L 26 110 Z M 27 115 L 26 120 L 27 120 L 27 115 Z M 7 119 L 5 124 Q 4 127 7 126 L 7 119 Z M 24 139 L 23 143 L 24 143 L 24 139 Z M 25 144 L 25 148 L 25 147 Q 27 145 25 144 Z M 24 148 L 23 150 L 25 151 L 24 148 Z " /><path fill="rgb(220,204,187)" stroke="rgb(220,204,187)" stroke-width="1" opacity="1" d="M 115.5 39 L 116.5 41 L 115.5 39 Z " /><path fill="rgb(220,204,187)" stroke="rgb(220,204,187)" stroke-width="1" opacity="1" d="M 51.5 75 L 52.5 77 Q 49.7 77.7 51.5 75 Z " /><path fill="rgb(220,204,187)" stroke="rgb(220,204,187)" stroke-width="1" opacity="1" d="M 155.5 76 L 156 78.5 L 155 78.5 L 155.5 76 Z " /><path fill="rgb(220,204,187)" stroke="rgb(220,204,187)" stroke-width="1" opacity="1" d="M 140.5 77 L 141 79.5 L 139 78.5 L 140.5 77 Z " /><path fill="rgb(220,204,187)" stroke="rgb(220,204,187)" stroke-width="1" opacity="1" d="M 155.5 80 L 156 84.5 L 155 84.5 L 155.5 80 Z " /><path fill="rgb(220,204,187)" stroke="rgb(220,204,187)" stroke-width="1" opacity="1" d="M 137.5 81 L 139.5 82 L 141 81.5 L 137.5 84 L 137.5 81 Z " /><path fill="rgb(220,204,187)" stroke="rgb(220,204,187)" stroke-width="1" opacity="1" d="M 122.5 83 L 124.5 86 L 122.5 83 Z " /><path fill="rgb(220,204,187)" stroke="rgb(220,204,187)" stroke-width="1" opacity="1" d="M 139.5 84 L 142 84.5 Q 139.9 87.8 139.5 84 Z " /><path fill="rgb(220,204,187)" stroke="rgb(220,204,187)" stroke-width="1" opacity="1" d="M 142.5 87 L 141.5 89 L 142.5 87 Z " /><path fill="rgb(220,204,187)" stroke="rgb(220,204,187)" stroke-width="1" opacity="1" d="M 103.5 95 L 102.5 97 L 103.5 95 Z " /><path fill="rgb(220,204,187)" stroke="rgb(220,204,187)" stroke-width="1" opacity="1" d="M 150.5 98 L 151.5 100 L 150.5 98 Z " /><path fill="rgb(220,204,187)" stroke="rgb(220,204,187)" stroke-width="1" opacity="1" d="M 99.5 99 L 100.5 101 L 99.5 99 Z " /><path fill="rgb(220,204,187)" stroke="rgb(220,204,187)" stroke-width="1" opacity="1" d="M 48.5 101 L 47.5 103 L 48.5 101 Z " /><path fill="rgb(220,204,187)" stroke="rgb(220,204,187)" stroke-width="1" opacity="1" d="M 135.5 109 L 136 111.5 L 135 111.5 L 135.5 109 Z " /><path fill="rgb(220,204,187)" stroke="rgb(220,204,187)" stroke-width="1" opacity="1" d="M 134.5 117 L 135 119.5 L 134 119.5 L 134.5 117 Z " /><path fill="rgb(220,204,187)" stroke="rgb(220,204,187)" stroke-width="1" opacity="1" d="M 28.5 127 L 29 130.5 L 28 130.5 L 28.5 127 Z " /><path fill="rgb(220,204,187)" stroke="rgb(220,204,187)" stroke-width="1" opacity="1" d="M 27.5 132 L 28 134.5 L 27 134.5 L 27.5 132 Z " /><path fill="rgb(220,204,187)" stroke="rgb(220,204,187)" stroke-width="1" opacity="1" d="M 104.5 134 L 105.5 136 L 104.5 134 Z " /><path fill="rgb(220,204,187)" stroke="rgb(220,204,187)" stroke-width="1" opacity="1" d="M 116.5 135 L 115.5 137 L 116.5 135 Z " /><path fill="rgb(220,204,187)" stroke="rgb(220,204,187)" stroke-width="1" opacity="1" d="M 28.5 140 L 29 142.5 L 28 142.5 L 28.5 140 Z " /><path fill="rgb(220,204,187)" stroke="rgb(220,204,187)" stroke-width="1" opacity="1" d="M 139.5 154 L 138.5 156 L 139.5 154 Z " /><path fill="rgb(230,225,221)" stroke="rgb(230,225,221)" stroke-width="1" opacity="1" d="M 65.5 0 L 74 0.5 L 65.5 1 L 65.5 0 Z " /><path fill="rgb(230,225,221)" stroke="rgb(230,225,221)" stroke-width="1" opacity="1" d="M 75.5 0 L 76.5 2 L 75.5 0 Z " /><path fill="rgb(230,225,221)" stroke="rgb(230,225,221)" stroke-width="1" opacity="1" d="M 88.5 0 L 92 1.5 L 90.5 2 L 88.5 2 L 84 1.5 L 88.5 0 Z " /><path fill="rgb(230,225,221)" stroke="rgb(230,225,221)" stroke-width="1" opacity="1" d="M 43.5 1 L 49 1.5 L 43.5 2 L 43.5 1 Z " /><path fill="rgb(230,225,221)" stroke="rgb(230,225,221)" stroke-width="1" opacity="1" d="M 78.5 1 L 81 1.5 L 78.5 2 L 78.5 1 Z " /><path fill="rgb(230,225,221)" stroke="rgb(230,225,221)" stroke-width="1" opacity="1" d="M 96.5 1 L 102 1.5 L 96.5 2 L 96.5 1 Z " /><path fill="rgb(230,225,221)" stroke="rgb(230,225,221)" stroke-width="1" opacity="1" d="M 148.5 2 L 152 2.5 L 148.5 3 L 148.5 2 Z " /><path fill="rgb(230,225,221)" stroke="rgb(230,225,221)" stroke-width="1" opacity="1" d="M 189.5 66 Q 192.5 69.1 191 76 Q 188 77.3 189 73.5 L 190 71.5 Q 187.7 70.2 189.5 66 Z " /><path fill="rgb(230,225,221)" stroke="rgb(230,225,221)" stroke-width="1" opacity="1" d="M 25.5 71 L 24.5 73 L 25.5 71 Z " /><path fill="rgb(230,225,221)" stroke="rgb(230,225,221)" stroke-width="1" opacity="1" d="M 52.5 77 L 51.5 79 L 52.5 77 Z " /><path fill="rgb(230,225,221)" stroke="rgb(230,225,221)" stroke-width="1" opacity="1" d="M 189 77 Q 192.5 75.9 191 83.5 L 190 83.5 L 189 77 Z " /><path fill="rgb(230,225,221)" stroke="rgb(230,225,221)" stroke-width="1" opacity="1" d="M 190.5 87 L 191 88.5 L 190 91.5 L 191 92.5 L 191 104 Q 187.7 105.3 189 100.5 L 190 96.5 Q 187.5 95 189 89.5 L 190.5 87 Z " /><path fill="rgb(230,225,221)" stroke="rgb(230,225,221)" stroke-width="1" opacity="1" d="M 60.5 89 L 63 90.5 L 61.5 91 L 60.5 89 Z " /><path fill="rgb(230,225,221)" stroke="rgb(230,225,221)" stroke-width="1" opacity="1" d="M 145.5 92 L 146.5 94 L 145.5 92 Z " /><path fill="rgb(230,225,221)" stroke="rgb(230,225,221)" stroke-width="1" opacity="1" d="M 1 96 Q 4.3 94.9 3 99 Q -0.3 100.1 1 96 Z " /><path fill="rgb(230,225,221)" stroke="rgb(230,225,221)" stroke-width="1" opacity="1" d="M 50.5 98 L 48.5 101 L 50.5 98 Z " /><path fill="rgb(230,225,221)" stroke="rgb(230,225,221)" stroke-width="1" opacity="1" d="M 143.5 103 L 144 105.5 L 143 105.5 L 143.5 103 Z " /><path fill="rgb(230,225,221)" stroke="rgb(230,225,221)" stroke-width="1" opacity="1" d="M 1.5 106 L 3 109.5 L 1 108.5 L 1.5 106 Z " /><path fill="rgb(230,225,221)" stroke="rgb(230,225,221)" stroke-width="1" opacity="1" d="M 189.5 107 L 190 109.5 L 188.5 115 L 188 108.5 L 189.5 107 Z " /><path fill="rgb(230,225,221)" stroke="rgb(230,225,221)" stroke-width="1" opacity="1" d="M 1.5 114 L 0.5 116 L 1.5 114 Z " /><path fill="rgb(230,225,221)" stroke="rgb(230,225,221)" stroke-width="1" opacity="1" d="M 143.5 115 L 144 117.5 L 143 117.5 L 143.5 115 Z " /><path fill="rgb(230,225,221)" stroke="rgb(230,225,221)" stroke-width="1" opacity="1" d="M 190.5 115 L 191 134.5 L 190 134.5 L 190.5 115 Z " /><path fill="rgb(230,225,221)" stroke="rgb(230,225,221)" stroke-width="1" opacity="1" d="M 2.5 116 L 3 118.5 L 0.5 120 L 0.5 119 Q 3.4 119.7 2.5 116 Z " /><path fill="rgb(230,225,221)" stroke="rgb(230,225,221)" stroke-width="1" opacity="1" d="M 188.5 117 L 189.5 139 L 190.5 137 L 191 169 L 189 168.5 L 190 163.5 L 188 160 Q 191.7 161.2 190 156 L 188 155.5 L 188 144.5 L 189 141.5 L 188 139.5 L 188.5 117 Z M 190 148 L 189 153 L 190 153 L 190 148 Z " /><path fill="rgb(230,225,221)" stroke="rgb(230,225,221)" stroke-width="1" opacity="1" d="M 0.5 123 L 3 123.5 L 2 126.5 L 2.5 128 L 0 126.5 L 0.5 123 Z " /><path fill="rgb(230,225,221)" stroke="rgb(230,225,221)" stroke-width="1" opacity="1" d="M 0 129 L 2 129.5 L 0.5 135 L 0 129 Z " /><path fill="rgb(230,225,221)" stroke="rgb(230,225,221)" stroke-width="1" opacity="1" d="M 143.5 131 L 144.5 133 L 143.5 131 Z " /><path fill="rgb(230,225,221)" stroke="rgb(230,225,221)" stroke-width="1" opacity="1" d="M 1.5 136 L 0.5 138 L 1.5 136 Z " /><path fill="rgb(230,225,221)" stroke="rgb(230,225,221)" stroke-width="1" opacity="1" d="M 141.5 153 L 138.5 157 L 141.5 153 Z " /><path fill="rgb(230,225,221)" stroke="rgb(230,225,221)" stroke-width="1" opacity="1" d="M 132.5 160 L 134 160.5 L 131.5 162 L 132.5 160 Z " /><path fill="rgb(230,225,221)" stroke="rgb(230,225,221)" stroke-width="1" opacity="1" d="M 126.5 163 L 125.5 165 L 126.5 163 Z " /><path fill="rgb(230,225,221)" stroke="rgb(230,225,221)" stroke-width="1" opacity="1" d="M 188.5 166 L 187.5 168 L 188.5 166 Z " /><path fill="rgb(27,67,99)" stroke="rgb(27,67,99)" stroke-width="1" opacity="1" d="M 4.5 3 L 28 3.5 L 4.5 4 L 4.5 3 Z " /><path fill="rgb(27,67,99)" stroke="rgb(27,67,99)" stroke-width="1" opacity="1" d="M 92.5 3 L 154 3.5 L 92.5 4 L 92.5 3 Z " /><path fill="rgb(27,67,99)" stroke="rgb(27,67,99)" stroke-width="1" opacity="1" d="M 90.5 5 L 91 7.5 Q 92 11.3 89 10 L 90 7.5 Q 87.8 6.3 90.5 5 Z " /><path fill="rgb(27,67,99)" stroke="rgb(27,67,99)" stroke-width="1" opacity="1" d="M 150.5 10 L 149.5 12 L 148 11.5 L 150.5 10 Z " /><path fill="rgb(27,67,99)" stroke="rgb(27,67,99)" stroke-width="1" opacity="1" d="M 142 19 L 144 19.5 L 141 21.5 L 142 19 Z " /><path fill="rgb(27,67,99)" stroke="rgb(27,67,99)" stroke-width="1" opacity="1" d="M 118.5 22 L 117.5 24 L 118.5 22 Z " /><path fill="rgb(27,67,99)" stroke="rgb(27,67,99)" stroke-width="1" opacity="1" d="M 136.5 25 L 134.5 28 L 136.5 25 Z " /><path fill="rgb(27,67,99)" stroke="rgb(27,67,99)" stroke-width="1" opacity="1" d="M 132.5 27 L 133 28.5 L 130 30.5 L 132.5 27 Z " /><path fill="rgb(27,67,99)" stroke="rgb(27,67,99)" stroke-width="1" opacity="1" d="M 128.5 31 L 127.5 33 L 128.5 31 Z " /><path fill="rgb(27,67,99)" stroke="rgb(27,67,99)" stroke-width="1" opacity="1" d="M 33.5 35 L 32.5 37 L 33.5 35 Z " /><path fill="rgb(27,67,99)" stroke="rgb(27,67,99)" stroke-width="1" opacity="1" d="M 96.5 40 L 97.5 42 L 96.5 40 Z " /><path fill="rgb(27,67,99)" stroke="rgb(27,67,99)" stroke-width="1" opacity="1" d="M 118.5 42 L 122 44.5 L 120.5 45 L 118.5 42 Z " /><path fill="rgb(27,67,99)" stroke="rgb(27,67,99)" stroke-width="1" opacity="1" d="M 124.5 46 Q 127.5 47.5 124.5 49 Q 121.5 47.5 124.5 46 Z " /><path fill="rgb(27,67,99)" stroke="rgb(27,67,99)" stroke-width="1" opacity="1" d="M 19.5 47 L 18.5 49 L 19.5 47 Z " /><path fill="rgb(27,67,99)" stroke="rgb(27,67,99)" stroke-width="1" opacity="1" d="M 37.5 49 L 38.5 51 L 37.5 49 Z " /><path fill="rgb(27,67,99)" stroke="rgb(27,67,99)" stroke-width="1" opacity="1" d="M 79.5 56 L 80 58.5 L 79 58.5 L 79.5 56 Z " /><path fill="rgb(27,67,99)" stroke="rgb(27,67,99)" stroke-width="1" opacity="1" d="M 92.5 56 L 98 56.5 L 92.5 57 L 92.5 56 Z " /><path fill="rgb(27,67,99)" stroke="rgb(27,67,99)" stroke-width="1" opacity="1" d="M 95.5 65 L 94 67.5 L 93.5 69 L 93 67.5 L 95.5 65 Z " /><path fill="rgb(27,67,99)" stroke="rgb(27,67,99)" stroke-width="1" opacity="1" d="M 127.5 65 L 128 66.5 Q 125.5 68 127 73.5 L 127.5 75 L 124.5 73 L 123 73.5 L 120 68.5 L 122 68.5 Q 122.8 66.3 120.5 67 L 120.5 66 L 127 67 L 127.5 65 Z " /><path fill="rgb(27,67,99)" stroke="rgb(27,67,99)" stroke-width="1" opacity="1" d="M 96.5 67 L 100 69.5 L 98.5 69 L 96.5 67 Z " /><path fill="rgb(27,67,99)" stroke="rgb(27,67,99)" stroke-width="1" opacity="1" d="M 88 68 L 92 68 L 92 69.5 L 93.5 74 L 94.5 72 L 95 73.5 L 94 77.5 L 94.5 79 L 89.5 78 L 89.5 80 L 87.5 79 L 84.5 81 L 83 80.5 L 82.5 82 L 78.5 82 L 77 82.5 L 77.5 84 L 75.5 84 L 68 87.5 L 67.5 89 L 66 88.5 L 65.5 90 L 63 89.5 Q 63.8 86.9 60.5 88 L 59 84 L 56 82.5 Q 58.3 81.3 55.5 80 L 54 79.5 L 56 79 Q 54.8 76 58.5 77 L 60 76.5 L 59.5 78 Q 61.8 78.8 61 76.5 L 63.5 73 L 66.5 75 L 67.5 74 L 71.5 78 L 74 77.5 L 73.5 76 L 75 76.5 L 78.5 71 L 81 70.5 L 79 69.5 L 80.5 69 L 83.5 70 L 85.5 70 Q 89.3 71 88 68 Z M 91 69 L 89 73 L 91 73 L 91 69 Z M 82 71 L 81 73 L 84 73 L 82 71 Z M 86 72 L 86 73 L 88 73 L 86 72 Z M 66 75 L 62 77 L 66 77 L 66 75 Z " /><path fill="rgb(27,67,99)" stroke="rgb(27,67,99)" stroke-width="1" opacity="1" d="M 102.5 68 L 106.5 69 L 110 68 L 110 70 Q 113.8 68.5 113 71.5 L 111 72.5 L 111.5 71 Q 103.9 71.3 102.5 68 Z " /><path fill="rgb(27,67,99)" stroke="rgb(27,67,99)" stroke-width="1" opacity="1" d="M 12 71 L 17 74.5 L 17.5 76 L 19 75.5 L 15.5 77 L 14 77.5 L 14.5 79 L 13 78.5 Q 13.8 80.8 11.5 80 L 9 81.5 L 10 80.5 L 10.5 72 L 11.5 77 L 12 71 Z M 14 72 L 14 75 Q 17 74 14 72 Z " /><path fill="rgb(27,67,99)" stroke="rgb(27,67,99)" stroke-width="1" opacity="1" d="M 20.5 72 L 23 72.5 Q 20.9 75.8 20.5 72 Z " /><path fill="rgb(27,67,99)" stroke="rgb(27,67,99)" stroke-width="1" opacity="1" d="M 30 80 Q 32.7 78.9 32 81.5 L 37.5 85 L 40.5 84 L 43.5 85 L 44 82 L 46.5 81 L 49 84.5 L 48 84.5 L 46.5 82 L 45 84.5 L 47 84.5 L 46 88.5 L 46.5 90 Q 45.3 87.8 44 90.5 L 45 93 Q 42.3 91.9 43 94.5 L 42.5 97 L 41 96.5 L 42 98.5 L 38 103.5 L 38.5 105 L 37 105.5 L 37 107.5 Q 37.7 110.1 35 109 L 34 106.5 Q 36.5 105 33 103.5 L 32 98 Q 29.3 99.1 30 96.5 L 31 94.5 L 29.5 87 L 28.5 90 L 28 87.5 L 30 84.5 L 29.5 83 L 31 82.5 L 30 80 Z M 33 85 L 32 87 L 37 88 L 39 88 L 40 88 L 39 86 L 38 86 L 33 85 Z " /><path fill="rgb(17,18,37)" stroke="rgb(17,18,37)" stroke-width="1" opacity="1" d="M 118.5 70 L 122 71 L 123 76.5 L 120.5 82 L 108 77.5 L 112.5 72 L 118.5 70 Z " /><path fill="rgb(17,18,37)" stroke="rgb(17,18,37)" stroke-width="1" opacity="1" d="M 107.5 83 Q 113.5 81.5 115 84.5 L 116 87.5 Q 114.9 95.5 108.5 98 Q 106.3 98.8 107 96.5 L 103.5 95 Q 101.3 95.8 102 99.5 L 102.5 101 L 99 98.5 L 98 91.5 L 103.5 85 L 107.5 83 Z " /><path fill="rgb(17,18,37)" stroke="rgb(17,18,37)" stroke-width="1" opacity="1" d="M 59.5 94 Q 62.8 92.9 62 95.5 L 71 109 L 82.5 117 L 96.5 120 L 98 121.5 Q 99.5 132.1 106.5 137 Q 110.4 139.9 117 139 L 116 136.5 L 119.5 139 L 125.5 140 L 129 137.5 L 127 134.5 L 128.5 135 Q 132.9 136.5 132 133.5 L 134.5 127 Q 141 128.5 144 133.5 Q 146.7 135.8 146 141.5 Q 143.9 151.9 136.5 157 Q 130.7 162.2 121.5 164 L 100.5 165 L 86.5 161 L 82 157.5 Q 79.4 154.6 80 148.5 L 78.5 147 Q 64.5 145 58 135.5 Q 53.7 123.8 45 116.5 L 43 109.5 L 52.5 98 L 59.5 94 Z " /><path fill="rgb(17,18,37)" stroke="rgb(17,18,37)" stroke-width="1" opacity="1" d="M 121.5 114 Q 123.8 113.3 123 115.5 L 127 120.5 L 120 124 L 117.5 128 Q 112.3 129.8 114 124.5 L 118.5 116 L 121.5 114 Z M 122 117 L 120 120 Q 122 123 123 120 L 122 117 Z " /><path fill="rgb(246,253,247)" stroke="rgb(246,253,247)" stroke-width="1" opacity="1" d="M 98.5 79 L 110 79.5 L 98.5 80 L 98.5 79 Z " /><path fill="rgb(246,253,247)" stroke="rgb(246,253,247)" stroke-width="1" opacity="1" d="M 90.5 80 L 93 80.5 L 90.5 81 L 90.5 80 Z " /><path fill="rgb(246,253,247)" stroke="rgb(246,253,247)" stroke-width="1" opacity="1" d="M 112.5 80 L 115 80.5 L 112.5 81 L 112.5 80 Z " /><path fill="rgb(246,253,247)" stroke="rgb(246,253,247)" stroke-width="1" opacity="1" d="M 86.5 81 L 89 81.5 L 78.5 85 L 78.5 84 L 86.5 81 Z " /><path fill="rgb(246,253,247)" stroke="rgb(246,253,247)" stroke-width="1" opacity="1" d="M 116.5 81 L 120 82.5 L 118.5 82 Q 115.5 82.5 116.5 81 Z " /><path fill="rgb(246,253,247)" stroke="rgb(246,253,247)" stroke-width="1" opacity="1" d="M 112.5 82 L 116 83.5 L 114.5 83 Q 111.5 83.5 112.5 82 Z " /><path fill="rgb(246,253,247)" stroke="rgb(246,253,247)" stroke-width="1" opacity="1" d="M 102.5 84 L 98 89.5 L 97 95.5 L 100.5 101 L 102 101.5 L 100.5 102 L 96 95.5 L 96 91.5 L 102.5 84 Z " /><path fill="rgb(246,253,247)" stroke="rgb(246,253,247)" stroke-width="1" opacity="1" d="M 122.5 84 L 123.5 86 L 122.5 84 Z " /><path fill="rgb(246,253,247)" stroke="rgb(246,253,247)" stroke-width="1" opacity="1" d="M 75.5 85 L 77 85.5 L 66.5 91 L 67.5 89 L 75.5 85 Z " /><path fill="rgb(246,253,247)" stroke="rgb(246,253,247)" stroke-width="1" opacity="1" d="M 116.5 85 L 117 90.5 L 109.5 99 L 107.5 100 L 108.5 98 L 115 92.5 L 116.5 85 Z " /><path fill="rgb(246,253,247)" stroke="rgb(246,253,247)" stroke-width="1" opacity="1" d="M 125.5 88 L 129 94.5 L 128 94.5 L 125.5 88 Z " /><path fill="rgb(246,253,247)" stroke="rgb(246,253,247)" stroke-width="1" opacity="1" d="M 62.5 93 L 65 97.5 L 63 96.5 L 62.5 93 Z " /><path fill="rgb(246,253,247)" stroke="rgb(246,253,247)" stroke-width="1" opacity="1" d="M 103.5 96 Q 106.8 94.9 106 97.5 L 104.5 97 Q 102.3 96.3 103 98.5 L 104 100.5 L 103 100.5 L 102 97.5 L 103.5 96 Z " /><path fill="rgb(246,253,247)" stroke="rgb(246,253,247)" stroke-width="1" opacity="1" d="M 65.5 99 L 71 107 L 78.5 113 L 87 116.5 L 84.5 117 L 73 110 Q 74.1 107.3 71.5 108 L 66 101.5 L 65.5 99 Z " /><path fill="rgb(246,253,247)" stroke="rgb(246,253,247)" stroke-width="1" opacity="1" d="M 121.5 112 L 125 114.5 L 128 120.5 L 127 120.5 L 122.5 113 L 116.5 117 L 117.5 115 L 121.5 112 Z " /><path fill="rgb(246,253,247)" stroke="rgb(246,253,247)" stroke-width="1" opacity="1" d="M 44.5 116 L 46 118.5 L 44 117.5 L 44.5 116 Z " /><path fill="rgb(246,253,247)" stroke="rgb(246,253,247)" stroke-width="1" opacity="1" d="M 88.5 117 L 91 117.5 L 88.5 118 L 88.5 117 Z " /><path fill="rgb(246,253,247)" stroke="rgb(246,253,247)" stroke-width="1" opacity="1" d="M 92.5 118 L 97 118.5 L 92.5 119 L 92.5 118 Z " /><path fill="rgb(246,253,247)" stroke="rgb(246,253,247)" stroke-width="1" opacity="1" d="M 46.5 120 Q 52.4 122.6 54 129.5 L 53 129.5 L 46.5 120 Z " /><path fill="rgb(246,253,247)" stroke="rgb(246,253,247)" stroke-width="1" opacity="1" d="M 133.5 120 L 134 122.5 L 133 122.5 L 133.5 120 Z " /><path fill="rgb(246,253,247)" stroke="rgb(246,253,247)" stroke-width="1" opacity="1" d="M 114.5 121 L 115 122.5 L 113 123.5 L 114.5 121 Z " /><path fill="rgb(246,253,247)" stroke="rgb(246,253,247)" stroke-width="1" opacity="1" d="M 99.5 123 Q 101.2 131.3 107 135.5 L 102 131.5 L 99 125.5 L 99.5 123 Z " /><path fill="rgb(246,253,247)" stroke="rgb(246,253,247)" stroke-width="1" opacity="1" d="M 123.5 123 L 125 123.5 L 121 125 L 118.5 129 L 120 126.5 L 121.5 124 L 123.5 123 Z " /><path fill="rgb(246,253,247)" stroke="rgb(246,253,247)" stroke-width="1" opacity="1" d="M 112.5 125 L 114.5 129 L 117 129.5 L 114.5 130 Q 110.8 128.8 112.5 125 Z " /><path fill="rgb(246,253,247)" stroke="rgb(246,253,247)" stroke-width="1" opacity="1" d="M 132.5 127 L 133 129.5 L 132 129.5 L 132.5 127 Z " /><path fill="rgb(246,253,247)" stroke="rgb(246,253,247)" stroke-width="1" opacity="1" d="M 131.5 131 L 132 134 L 128 133.5 L 131 133 L 131.5 131 Z " /><path fill="rgb(246,253,247)" stroke="rgb(246,253,247)" stroke-width="1" opacity="1" d="M 55.5 133 L 63.5 142 L 66 143.5 L 64.5 143 L 56 135.5 L 55.5 133 Z " /><path fill="rgb(246,253,247)" stroke="rgb(246,253,247)" stroke-width="1" opacity="1" d="M 116.5 134 L 119.5 138 L 116.5 134 Z " /><path fill="rgb(246,253,247)" stroke="rgb(246,253,247)" stroke-width="1" opacity="1" d="M 114.5 135 L 116 137.5 L 110.5 138 L 108 136.5 L 109.5 136 L 114 137 L 114.5 135 Z " /><path fill="rgb(246,253,247)" stroke="rgb(246,253,247)" stroke-width="1" opacity="1" d="M 126.5 136 L 127.5 138 L 126.5 136 Z " /><path fill="rgb(246,253,247)" stroke="rgb(246,253,247)" stroke-width="1" opacity="1" d="M 121.5 138 L 126 138.5 L 121.5 139 L 121.5 138 Z " /><path fill="rgb(246,253,247)" stroke="rgb(246,253,247)" stroke-width="1" opacity="1" d="M 76.5 148 L 80 149.5 Q 78.5 155 81 156.5 L 79 155.5 L 79 149 L 76.5 149 L 76.5 148 Z " /><path fill="rgb(246,253,247)" stroke="rgb(246,253,247)" stroke-width="1" opacity="1" d="M 81.5 158 L 89 162.5 L 87.5 163 Q 82.5 161.5 81.5 158 Z " /><path fill="rgb(246,253,247)" stroke="rgb(246,253,247)" stroke-width="1" opacity="1" d="M 93.5 164 Q 97.3 162.8 96 166.5 L 95 166.5 Q 95.8 164.3 93.5 165 L 93.5 164 Z " /><path fill="rgb(229,213,195)" stroke="rgb(229,213,195)" stroke-width="1" opacity="1" d="M 154.5 6 L 153.5 8 L 154.5 6 Z " /><path fill="rgb(229,213,195)" stroke="rgb(229,213,195)" stroke-width="1" opacity="1" d="M 150.5 12 L 149.5 14 L 150.5 12 Z " /><path fill="rgb(229,213,195)" stroke="rgb(229,213,195)" stroke-width="1" opacity="1" d="M 148.5 15 L 145.5 19 L 148.5 15 Z " /><path fill="rgb(229,213,195)" stroke="rgb(229,213,195)" stroke-width="1" opacity="1" d="M 143.5 20 L 135.5 29 L 143.5 20 Z " /><path fill="rgb(229,213,195)" stroke="rgb(229,213,195)" stroke-width="1" opacity="1" d="M 133.5 29 L 131.5 32 L 133.5 29 Z " /><path fill="rgb(229,213,195)" stroke="rgb(229,213,195)" stroke-width="1" opacity="1" d="M 129.5 32 L 128.5 34 L 129.5 32 Z " /><path fill="rgb(229,213,195)" stroke="rgb(229,213,195)" stroke-width="1" opacity="1" d="M 126.5 34 L 125.5 36 L 126.5 34 Z " /><path fill="rgb(229,213,195)" stroke="rgb(229,213,195)" stroke-width="1" opacity="1" d="M 122.5 36 L 124 36.5 L 121.5 38 L 122.5 36 Z " /><path fill="rgb(229,213,195)" stroke="rgb(229,213,195)" stroke-width="1" opacity="1" d="M 144.5 36 L 148 36.5 L 144.5 37 L 144.5 36 Z " /><path fill="rgb(229,213,195)" stroke="rgb(229,213,195)" stroke-width="1" opacity="1" d="M 150.5 36 L 153 36.5 L 150.5 37 L 150.5 36 Z " /><path fill="rgb(229,213,195)" stroke="rgb(229,213,195)" stroke-width="1" opacity="1" d="M 119.5 38 L 117.5 41 L 117 39 L 119.5 38 Z " /><path fill="rgb(229,213,195)" stroke="rgb(229,213,195)" stroke-width="1" opacity="1" d="M 137.5 39 L 133.5 44 L 137.5 39 Z " /><path fill="rgb(229,213,195)" stroke="rgb(229,213,195)" stroke-width="1" opacity="1" d="M 13.5 41 L 17 42.5 L 15.5 43 L 13.5 41 Z " /><path fill="rgb(229,213,195)" stroke="rgb(229,213,195)" stroke-width="1" opacity="1" d="M 119.5 41 L 123 43.5 L 121.5 43 L 119.5 41 Z " /><path fill="rgb(229,213,195)" stroke="rgb(229,213,195)" stroke-width="1" opacity="1" d="M 124.5 44 L 128.5 49 L 124.5 44 Z " /><path fill="rgb(229,213,195)" stroke="rgb(229,213,195)" stroke-width="1" opacity="1" d="M 19.5 45 L 17.5 48 L 19.5 45 Z " /><path fill="rgb(229,213,195)" stroke="rgb(229,213,195)" stroke-width="1" opacity="1" d="M 132.5 45 L 132 46.5 L 130.5 49 L 131 47.5 L 132.5 45 Z " /><path fill="rgb(229,213,195)" stroke="rgb(229,213,195)" stroke-width="1" opacity="1" d="M 170.5 46 L 165.5 52 L 170.5 46 Z " /><path fill="rgb(229,213,195)" stroke="rgb(229,213,195)" stroke-width="1" opacity="1" d="M 15.5 51 L 15 52.5 L 13.5 56 L 13 54.5 L 15.5 51 Z " /><path fill="rgb(229,213,195)" stroke="rgb(229,213,195)" stroke-width="1" opacity="1" d="M 159.5 54 L 162 55.5 L 160.5 55 L 159.5 54 Z " /><path fill="rgb(229,213,195)" stroke="rgb(229,213,195)" stroke-width="1" opacity="1" d="M 12.5 57 L 13 58.5 L 10.5 66 L 10 62.5 L 12.5 57 Z " /><path fill="rgb(229,213,195)" stroke="rgb(229,213,195)" stroke-width="1" opacity="1" d="M 166.5 58 L 167.5 60 L 166.5 58 Z " /><path fill="rgb(229,213,195)" stroke="rgb(229,213,195)" stroke-width="1" opacity="1" d="M 169.5 61 L 170.5 63 L 169.5 61 Z " /><path fill="rgb(229,213,195)" stroke="rgb(229,213,195)" stroke-width="1" opacity="1" d="M 171.5 64 L 172.5 66 L 171.5 64 Z " /><path fill="rgb(229,213,195)" stroke="rgb(229,213,195)" stroke-width="1" opacity="1" d="M 9.5 67 L 10 77.5 L 8.5 81 L 8 77.5 L 9 76.5 L 9.5 67 Z " /><path fill="rgb(229,213,195)" stroke="rgb(229,213,195)" stroke-width="1" opacity="1" d="M 26.5 70 L 27 87.5 L 28 88.5 L 26 87.5 L 26.5 70 Z " /><path fill="rgb(229,213,195)" stroke="rgb(229,213,195)" stroke-width="1" opacity="1" d="M 155 71 Q 160 73 169 72.5 L 163 73 L 164.5 76 L 168 78.5 L 168.5 80 Q 170 77.5 171.5 81 Q 173.8 80.3 173 82.5 L 176 86.5 L 172.5 84 L 171 85.5 L 175.5 89 L 180.5 88 L 183.5 89 L 183.5 88 Q 181.3 88.8 182 86.5 L 181.5 85 Q 183 88.5 184.5 86 L 187.5 84 L 189 91.5 Q 186.3 93.2 188 99.5 L 189 102.5 L 188 103.5 L 188 163.5 L 187 164.5 L 188 166.5 L 187.5 169 L 124.5 169 L 123 167.5 L 125 167 L 126 164.5 L 125.5 163 L 127.5 163 Q 130.8 164.1 130 161.5 L 132.5 161 L 136 158.5 L 137.5 156 L 138.5 157 L 142 153.5 L 147 143.5 L 147 136.5 L 141.5 129 L 140 129.5 L 142 125.5 Q 139.5 124 143 122.5 L 144 115.5 Q 141.7 114.3 143 109.5 Q 145.5 108 144 102.5 L 142 99.5 L 142 97.5 L 141 90.5 L 138 83 L 140 82.5 L 138 82 L 139.5 79 L 141 84.5 L 140.5 86 Q 142.8 85.3 142 87.5 L 146.5 94 Q 148.8 93.3 148 95.5 L 151.5 100 L 153 96.5 L 153 94.5 L 156 84.5 L 156 76.5 L 155 71 Z " /><path fill="rgb(229,213,195)" stroke="rgb(229,213,195)" stroke-width="1" opacity="1" d="M 23.5 73 L 20.5 77 L 23.5 73 Z " /><path fill="rgb(229,213,195)" stroke="rgb(229,213,195)" stroke-width="1" opacity="1" d="M 170.5 73 L 175 75 L 176 77.5 L 171.5 74 L 170.5 73 Z " /><path fill="rgb(229,213,195)" stroke="rgb(229,213,195)" stroke-width="1" opacity="1" d="M 18.5 77 L 17.5 79 L 18.5 77 Z " /><path fill="rgb(229,213,195)" stroke="rgb(229,213,195)" stroke-width="1" opacity="1" d="M 52.5 78 L 56.5 85 Q 59.1 84.3 58 87 L 60 87 L 60 89.5 L 61 91.5 L 56 94 L 56 96 L 53 96 Q 54.3 99 50.5 98 L 47 104 L 44 105.5 Q 41.3 107.8 42 113.5 L 36 124.5 L 34 135 L 32 135.5 L 33 138.5 L 30 147.5 L 31 148.5 L 31 163.5 L 30 163.5 Q 31.4 155.2 28.5 151 L 27.5 156 L 26 148.5 L 27 144 L 25 144.5 L 25 146.5 L 24 148.5 L 25 150.5 L 23 149.5 L 22 146.5 L 23 146.5 L 23.5 148 L 25 138.5 L 24 134.5 L 25 130.5 L 23 123.5 L 23 114.5 L 25.5 110 L 27 113.5 L 27 115.5 L 26 120.5 L 28 121.5 L 29 115.5 L 27 108.5 L 29 105.5 L 28.5 104 Q 29.8 106.3 31 103.5 L 29 98.5 L 30 98.5 L 34 106.5 L 34 108.5 L 35.5 112 Q 37.8 112.8 37 110.5 L 40 105.5 Q 37.5 104 41 102.5 L 43 96 Q 45.7 97.1 45 94.5 L 50 85.5 Q 47.5 84 51 82.5 Q 50.3 78.8 52.5 78 Z M 26 115 L 25 120 L 26 120 L 26 115 Z M 27 122 L 26 126 L 27 126 L 27 122 Z M 26 126 L 25 130 L 26 130 L 26 126 Z M 29 127 L 28 131 L 29 131 L 29 127 Z M 28 132 L 27 135 L 28 135 L 28 132 Z M 29 140 L 28 143 L 29 143 L 29 140 Z " /><path fill="rgb(229,213,195)" stroke="rgb(229,213,195)" stroke-width="1" opacity="1" d="M 14.5 79 L 16 79.5 L 11.5 83 L 14.5 79 Z " /><path fill="rgb(229,213,195)" stroke="rgb(229,213,195)" stroke-width="1" opacity="1" d="M 5.5 80 L 7 84.5 L 4 82.5 L 5.5 80 Z " /><path fill="rgb(229,213,195)" stroke="rgb(229,213,195)" stroke-width="1" opacity="1" d="M 7.5 82 L 10 83.5 L 8.5 84 L 7.5 82 Z " /><path fill="rgb(229,213,195)" stroke="rgb(229,213,195)" stroke-width="1" opacity="1" d="M 7.5 87 L 8 89.5 L 7 89.5 L 7.5 87 Z " /><path fill="rgb(229,213,195)" stroke="rgb(229,213,195)" stroke-width="1" opacity="1" d="M 3.5 88 L 4.5 92 L 5.5 88 L 6 91.5 L 3.5 99 L 3.5 88 Z " /><path fill="rgb(229,213,195)" stroke="rgb(229,213,195)" stroke-width="1" opacity="1" d="M 27.5 90 L 29 96.5 L 28 96.5 L 27.5 90 Z " /><path fill="rgb(229,213,195)" stroke="rgb(229,213,195)" stroke-width="1" opacity="1" d="M 7.5 92 L 8 94.5 L 7 94.5 L 7.5 92 Z " /><path fill="rgb(229,213,195)" stroke="rgb(229,213,195)" stroke-width="1" opacity="1" d="M 3.5 108 L 4 114.5 L 3 114.5 L 3.5 108 Z " /><path fill="rgb(229,213,195)" stroke="rgb(229,213,195)" stroke-width="1" opacity="1" d="M 4.5 119 L 4 120.5 Q 2 128.5 6 130.5 Q 3 131.5 4 136.5 L 5 138.5 L 4 141.5 L 4 143.5 L 3.5 154 L 3 139.5 L 2 138.5 L 3 137.5 L 3 120.5 L 4.5 119 Z " /><path fill="rgb(229,213,195)" stroke="rgb(229,213,195)" stroke-width="1" opacity="1" d="M 6.5 119 L 7 126 Q 4 127.3 5 123.5 L 6.5 119 Z " /><path fill="rgb(229,213,195)" stroke="rgb(229,213,195)" stroke-width="1" opacity="1" d="M 23.5 139 L 24 142.5 L 23 142.5 L 23.5 139 Z " /><path fill="rgb(229,213,195)" stroke="rgb(229,213,195)" stroke-width="1" opacity="1" d="M 5.5 146 L 7 148.5 L 6 148.5 L 5.5 146 Z " /><path fill="rgb(230,233,224)" stroke="rgb(230,233,224)" stroke-width="1" opacity="1" d="M 49.5 1 L 76 1.5 L 69.5 3 L 68.5 2 L 49.5 2 L 49.5 1 Z " /><path fill="rgb(230,233,224)" stroke="rgb(230,233,224)" stroke-width="1" opacity="1" d="M 95.5 1 L 96.5 2 L 105 2.5 L 96.5 3 L 95.5 1 Z " /><path fill="rgb(230,233,224)" stroke="rgb(230,233,224)" stroke-width="1" opacity="1" d="M 4.5 2 L 15 2.5 L 4 3 L 3.5 5 L 3 3.5 L 4.5 2 Z " /><path fill="rgb(230,233,224)" stroke="rgb(230,233,224)" stroke-width="1" opacity="1" d="M 81.5 2 L 84 2.5 L 81.5 3 L 81.5 2 Z " /><path fill="rgb(230,233,224)" stroke="rgb(230,233,224)" stroke-width="1" opacity="1" d="M 123.5 2 L 127 2.5 L 123.5 3 L 123.5 2 Z " /><path fill="rgb(230,233,224)" stroke="rgb(230,233,224)" stroke-width="1" opacity="1" d="M 134.5 2 L 137 2.5 L 134.5 3 L 134.5 2 Z " /><path fill="rgb(230,233,224)" stroke="rgb(230,233,224)" stroke-width="1" opacity="1" d="M 139.5 2 L 145 2.5 L 139.5 3 L 139.5 2 Z " /><path fill="rgb(230,233,224)" stroke="rgb(230,233,224)" stroke-width="1" opacity="1" d="M 3.5 7 L 4 9.5 L 3 9.5 L 3.5 7 Z " /><path fill="rgb(230,233,224)" stroke="rgb(230,233,224)" stroke-width="1" opacity="1" d="M 3.5 13 L 4 22.5 L 3 22.5 L 3.5 13 Z " /><path fill="rgb(230,233,224)" stroke="rgb(230,233,224)" stroke-width="1" opacity="1" d="M 189.5 80 L 191 86.5 L 190 88.5 L 191 91.5 L 190 91.5 Q 187.8 87 189.5 80 Z " /><path fill="rgb(230,233,224)" stroke="rgb(230,233,224)" stroke-width="1" opacity="1" d="M 63.5 91 L 62.5 93 L 61 92.5 L 63.5 91 Z " /><path fill="rgb(230,233,224)" stroke="rgb(230,233,224)" stroke-width="1" opacity="1" d="M 189.5 96 L 190 99.5 L 189 99.5 L 189.5 96 Z " /><path fill="rgb(230,233,224)" stroke="rgb(230,233,224)" stroke-width="1" opacity="1" d="M 1 99 Q 4.7 97.7 3 103.5 L 1.5 106 Q -1.3 104.8 1 103.5 L 1 99 Z " /><path fill="rgb(230,233,224)" stroke="rgb(230,233,224)" stroke-width="1" opacity="1" d="M 189 104 L 191 104.5 L 191 114.5 L 190 115.5 L 190 134.5 L 191 136.5 L 189.5 139 L 189 117.5 L 188 115.5 L 190 107.5 L 189 104 Z " /><path fill="rgb(230,233,224)" stroke="rgb(230,233,224)" stroke-width="1" opacity="1" d="M 1.5 109 L 3 115.5 L 2 115.5 L 1.5 109 Z " /><path fill="rgb(230,233,224)" stroke="rgb(230,233,224)" stroke-width="1" opacity="1" d="M 41 115 Q 43.7 113.9 43 116.5 L 41 117.5 L 41 115 Z " /><path fill="rgb(230,233,224)" stroke="rgb(230,233,224)" stroke-width="1" opacity="1" d="M 0.5 116 L 1 118.5 L 0 118.5 L 0.5 116 Z " /><path fill="rgb(230,233,224)" stroke="rgb(230,233,224)" stroke-width="1" opacity="1" d="M 1.5 120 L 3 126.5 L 2 126.5 L 1.5 120 Z " /><path fill="rgb(230,233,224)" stroke="rgb(230,233,224)" stroke-width="1" opacity="1" d="M 46.5 121 L 45.5 123 L 46.5 121 Z " /><path fill="rgb(230,233,224)" stroke="rgb(230,233,224)" stroke-width="1" opacity="1" d="M 2.5 129 L 3 138 L 1 137.5 L 2 134.5 L 1 130.5 L 2.5 129 Z " /><path fill="rgb(230,233,224)" stroke="rgb(230,233,224)" stroke-width="1" opacity="1" d="M 33 136 L 35 136.5 L 32.5 143 L 32 140.5 L 33 136 Z " /><path fill="rgb(230,233,224)" stroke="rgb(230,233,224)" stroke-width="1" opacity="1" d="M 146.5 140 L 147 142.5 L 146 142.5 L 146.5 140 Z " /><path fill="rgb(230,233,224)" stroke="rgb(230,233,224)" stroke-width="1" opacity="1" d="M 31.5 147 L 32.5 161 Q 34.3 158.3 36 162.5 L 36.5 165 L 38 164.5 L 37 169 L 33 169 L 33 167.5 L 33 165.5 L 32.5 162 L 31.5 165 L 31.5 147 Z " /><path fill="rgb(230,233,224)" stroke="rgb(230,233,224)" stroke-width="1" opacity="1" d="M 189.5 148 L 190 152.5 L 189 152.5 L 189.5 148 Z " /><path fill="rgb(230,233,224)" stroke="rgb(230,233,224)" stroke-width="1" opacity="1" d="M 33.5 156 Q 36.5 155.3 35 159 L 33 158.5 L 33.5 156 Z " /><path fill="rgb(230,233,224)" stroke="rgb(230,233,224)" stroke-width="1" opacity="1" d="M 188 156 Q 191.7 154.8 190 160 Q 186.3 161.2 188 156 Z " /><path fill="rgb(230,233,224)" stroke="rgb(230,233,224)" stroke-width="1" opacity="1" d="M 39.5 160 L 41 166.5 L 40 166.5 L 39.5 160 Z " /><path fill="rgb(230,233,224)" stroke="rgb(230,233,224)" stroke-width="1" opacity="1" d="M 188.5 162 Q 191 163 190 167.5 L 188 168.5 L 189 166.5 L 188.5 162 Z " /></svg>