0
SECTION
2
HEADER
0
ENDSEC
0
SECTION
2
BLOCKS
0
BLOCK
2
Mesh_001
8
Meshes
70
64
10
0.0
20
0.0
30
0.0
3
Mesh_001
0
POLYLINE
66
1
8
Meshes
62
254
70
64
71
58
72
56
0
VERTEX
8
Meshes
10
0.000000
20
0.000000
30
-1.000000
70
192
0
VERTEX
8
Meshes
10
-0.000000
20
-0.000000
30
1.000000
70
192
0
VERTEX
8
Meshes
10
-0.000000
20
-1.000000
30
0.000000
70
192
0
VERTEX
8
Meshes
10
-1.000000
20
0.000000
30
0.000000
70
192
0
VERTEX
8
Meshes
10
0.000000
20
1.000000
30
0.000000
70
192
0
VERTEX
8
Meshes
10
0.450000
20
0.000000
30
0.000000
70
192
0
VERTEX
8
Meshes
10
0.725000
20
0.550000
30
0.000000
70
192
0
VERTEX
8
Meshes
10
1.000000
20
0.000000
30
-0.775000
70
192
0
VERTEX
8
Meshes
10
0.725000
20
0.000000
30
-0.550000
70
192
0
VERTEX
8
Meshes
10
1.000000
20
-0.775000
30
0.000000
70
192
0
VERTEX
8
Meshes
10
0.725000
20
-0.550000
30
0.000000
70
192
0
VERTEX
8
Meshes
10
1.000000
20
0.775000
30
0.000000
70
192
0
VERTEX
8
Meshes
10
1.000000
20
-0.000000
30
0.775000
70
192
0
VERTEX
8
Meshes
10
0.725000
20
0.000000
30
0.550000
70
192
0
VERTEX
8
Meshes
10
-0.750000
20
0.000000
30
0.750000
70
192
0
VERTEX
8
Meshes
10
0.750000
20
-0.943750
30
0.000000
70
192
0
VERTEX
8
Meshes
10
-0.750000
20
-0.750000
30
0.000000
70
192
0
VERTEX
8
Meshes
10
0.518750
20
0.000000
30
-0.412500
70
192
0
VERTEX
8
Meshes
10
0.931250
20
0.000000
30
-0.606250
70
192
0
VERTEX
8
Meshes
10
0.750000
20
-0.000000
30
0.943750
70
192
0
VERTEX
8
Meshes
10
0.750000
20
0.943750
30
0.000000
70
192
0
VERTEX
8
Meshes
10
0.518750
20
0.000000
30
0.412500
70
192
0
VERTEX
8
Meshes
10
-0.000000
20
-0.750000
30
-0.750000
70
192
0
VERTEX
8
Meshes
10
1.000000
20
-0.581250
30
0.581250
70
192
0
VERTEX
8
Meshes
10
0.931250
20
0.606250
30
0.000000
70
192
0
VERTEX
8
Meshes
10
0.000000
20
0.750000
30
-0.750000
70
192
0
VERTEX
8
Meshes
10
0.725000
20
0.412500
30
0.412500
70
192
0
VERTEX
8
Meshes
10
0.518750
20
-0.412500
30
0.000000
70
192
0
VERTEX
8
Meshes
10
1.000000
20
0.581250
30
0.581250
70
192
0
VERTEX
8
Meshes
10
-0.750000
20
0.750000
30
0.000000
70
192
0
VERTEX
8
Meshes
10
0.000000
20
0.750000
30
0.750000
70
192
0
VERTEX
8
Meshes
10
-0.000000
20
-0.750000
30
0.750000
70
192
0
VERTEX
8
Meshes
10
0.725000
20
-0.412500
30
-0.412500
70
192
0
VERTEX
8
Meshes
10
0.725000
20
0.412500
30
-0.412500
70
192
0
VERTEX
8
Meshes
10
-0.750000
20
0.000000
30
-0.750000
70
192
0
VERTEX
8
Meshes
10
0.931250
20
-0.000000
30
0.606250
70
192
0
VERTEX
8
Meshes
10
1.000000
20
-0.581250
30
-0.581250
70
192
0
VERTEX
8
Meshes
10
1.000000
20
0.581250
30
-0.581250
70
192
0
VERTEX
8
Meshes
10
0.750000
20
0.000000
30
-0.943750
70
192
0
VERTEX
8
Meshes
10
0.725000
20
-0.412500
30
0.412500
70
192
0
VERTEX
8
Meshes
10
0.931250
20
-0.606250
30
0.000000
70
192
0
VERTEX
8
Meshes
10
0.518750
20
0.412500
30
0.000000
70
192
0
VERTEX
8
Meshes
10
0.750000
20
0.707812
30
-0.707812
70
192
0
VERTEX
8
Meshes
10
0.750000
20
-0.707812
30
-0.707812
70
192
0
VERTEX
8
Meshes
10
-0.555556
20
-0.555555
30
-0.555556
70
192
0
VERTEX
8
Meshes
10
-0.555555
20
0.555556
30
-0.555556
70
192
0
VERTEX
8
Meshes
10
0.750000
20
0.707812
30
0.707812
70
192
0
VERTEX
8
Meshes
10
-0.555555
20
0.555556
30
0.555556
70
192
0
VERTEX
8
Meshes
10
-0.555556
20
-0.555555
30
0.555556
70
192
0
VERTEX
8
Meshes
10
0.750000
20
-0.707813
30
0.707812
70
192
0
VERTEX
8
Meshes
10
0.572222
20
0.305556
30
0.305556
70
192
0
VERTEX
8
Meshes
10
0.572222
20
-0.305555
30
0.305556
70
192
0
VERTEX
8
Meshes
10
0.572222
20
-0.305555
30
-0.305556
70
192
0
VERTEX
8
Meshes
10
0.572222
20
0.305556
30
-0.305556
70
192
0
VERTEX
8
Meshes
10
0.931250
20
0.454688
30
-0.454688
70
192
0
VERTEX
8
Meshes
10
0.931250
20
0.454687
30
0.454688
70
192
0
VERTEX
8
Meshes
10
0.931250
20
-0.454687
30
-0.454688
70
192
0
VERTEX
8
Meshes
10
0.931250
20
-0.454688
30
0.454688
70
192
0
VERTEX
8
Meshes
62
254
10
0.0
20
0.0
30
0.0
70
128
71
1
72
26
73
43
74
39
0
VERTEX
8
Meshes
62
254
10
0.0
20
0.0
30
0.0
70
128
71
1
72
39
73
44
74
23
0
VERTEX
8
Meshes
62
254
10
0.0
20
0.0
30
0.0
70
128
71
1
72
23
73
45
74
35
0
VERTEX
8
Meshes
62
254
10
0.0
20
0.0
30
0.0
70
128
71
1
72
35
73
46
74
26
0
VERTEX
8
Meshes
62
254
10
0.0
20
0.0
30
0.0
70
128
71
2
72
20
73
47
74
31
0
VERTEX
8
Meshes
62
254
10
0.0
20
0.0
30
0.0
70
128
71
2
72
31
73
48
74
15
0
VERTEX
8
Meshes
62
254
10
0.0
20
0.0
30
0.0
70
128
71
2
72
15
73
49
74
32
0
VERTEX
8
Meshes
62
254
10
0.0
20
0.0
30
0.0
70
128
71
2
72
32
73
50
74
20
0
VERTEX
8
Meshes
62
254
10
0.0
20
0.0
30
0.0
70
128
71
3
72
23
73
44
74
16
0
VERTEX
8
Meshes
62
254
10
0.0
20
0.0
30
0.0
70
128
71
3
72
16
73
50
74
32
0
VERTEX
8
Meshes
62
254
10
0.0
20
0.0
30
0.0
70
128
71
3
72
32
73
49
74
17
0
VERTEX
8
Meshes
62
254
10
0.0
20
0.0
30
0.0
70
128
71
3
72
17
73
45
74
23
0
VERTEX
8
Meshes
62
254
10
0.0
20
0.0
30
0.0
70
128
71
4
72
35
73
45
74
17
0
VERTEX
8
Meshes
62
254
10
0.0
20
0.0
30
0.0
70
128
71
4
72
17
73
49
74
15
0
VERTEX
8
Meshes
62
254
10
0.0
20
0.0
30
0.0
70
128
71
4
72
15
73
48
74
30
0
VERTEX
8
Meshes
62
254
10
0.0
20
0.0
30
0.0
70
128
71
4
72
30
73
46
74
35
0
VERTEX
8
Meshes
62
254
10
0.0
20
0.0
30
0.0
70
128
71
5
72
31
73
47
74
21
0
VERTEX
8
Meshes
62
254
10
0.0
20
0.0
30
0.0
70
128
71
5
72
21
73
43
74
26
0
VERTEX
8
Meshes
62
254
10
0.0
20
0.0
30
0.0
70
128
71
5
72
26
73
46
74
30
0
VERTEX
8
Meshes
62
254
10
0.0
20
0.0
30
0.0
70
128
71
5
72
30
73
48
74
31
0
VERTEX
8
Meshes
62
254
10
0.0
20
0.0
30
0.0
70
128
71
6
72
42
73
51
74
22
0
VERTEX
8
Meshes
62
254
10
0.0
20
0.0
30
0.0
70
128
71
6
72
22
73
52
74
28
0
VERTEX
8
Meshes
62
254
10
0.0
20
0.0
30
0.0
70
128
71
6
72
28
73
53
74
18
0
VERTEX
8
Meshes
62
254
10
0.0
20
0.0
30
0.0
70
128
71
6
72
18
73
54
74
42
0
VERTEX
8
Meshes
62
254
10
0.0
20
0.0
30
0.0
70
128
71
7
72
42
73
54
74
34
0
VERTEX
8
Meshes
62
254
10
0.0
20
0.0
30
0.0
70
128
71
7
72
34
73
55
74
25
0
VERTEX
8
Meshes
62
254
10
0.0
20
0.0
30
0.0
70
128
71
7
72
25
73
56
74
27
0
VERTEX
8
Meshes
62
254
10
0.0
20
0.0
30
0.0
70
128
71
7
72
27
73
51
74
42
0
VERTEX
8
Meshes
62
254
10
0.0
20
0.0
30
0.0
70
128
71
8
72
37
73
44
74
39
0
VERTEX
8
Meshes
62
254
10
0.0
20
0.0
30
0.0
70
128
71
8
72
39
73
43
74
38
0
VERTEX
8
Meshes
62
254
10
0.0
20
0.0
30
0.0
70
128
71
8
72
38
73
55
74
19
0
VERTEX
8
Meshes
62
254
10
0.0
20
0.0
30
0.0
70
128
71
8
72
19
73
57
74
37
0
VERTEX
8
Meshes
62
254
10
0.0
20
0.0
30
0.0
70
128
71
9
72
18
73
53
74
33
0
VERTEX
8
Meshes
62
254
10
0.0
20
0.0
30
0.0
70
128
71
9
72
33
73
57
74
19
0
VERTEX
8
Meshes
62
254
10
0.0
20
0.0
30
0.0
70
128
71
9
72
19
73
55
74
34
0
VERTEX
8
Meshes
62
254
10
0.0
20
0.0
30
0.0
70
128
71
9
72
34
73
54
74
18
0
VERTEX
8
Meshes
62
254
10
0.0
20
0.0
30
0.0
70
128
71
10
72
37
73
57
74
41
0
VERTEX
8
Meshes
62
254
10
0.0
20
0.0
30
0.0
70
128
71
10
72
41
73
58
74
24
0
VERTEX
8
Meshes
62
254
10
0.0
20
0.0
30
0.0
70
128
71
10
72
24
73
50
74
16
0
VERTEX
8
Meshes
62
254
10
0.0
20
0.0
30
0.0
70
128
71
10
72
16
73
44
74
37
0
VERTEX
8
Meshes
62
254
10
0.0
20
0.0
30
0.0
70
128
71
11
72
28
73
52
74
40
0
VERTEX
8
Meshes
62
254
10
0.0
20
0.0
30
0.0
70
128
71
11
72
40
73
58
74
41
0
VERTEX
8
Meshes
62
254
10
0.0
20
0.0
30
0.0
70
128
71
11
72
41
73
57
74
33
0
VERTEX
8
Meshes
62
254
10
0.0
20
0.0
30
0.0
70
128
71
11
72
33
73
53
74
28
0
VERTEX
8
Meshes
62
254
10
0.0
20
0.0
30
0.0
70
128
71
12
72
25
73
55
74
38
0
VERTEX
8
Meshes
62
254
10
0.0
20
0.0
30
0.0
70
128
71
12
72
38
73
43
74
21
0
VERTEX
8
Meshes
62
254
10
0.0
20
0.0
30
0.0
70
128
71
12
72
21
73
47
74
29
0
VERTEX
8
Meshes
62
254
10
0.0
20
0.0
30
0.0
70
128
71
12
72
29
73
56
74
25
0
VERTEX
8
Meshes
62
254
10
0.0
20
0.0
30
0.0
70
128
71
13
72
24
73
58
74
36
0
VERTEX
8
Meshes
62
254
10
0.0
20
0.0
30
0.0
70
128
71
13
72
36
73
56
74
29
0
VERTEX
8
Meshes
62
254
10
0.0
20
0.0
30
0.0
70
128
71
13
72
29
73
47
74
20
0
VERTEX
8
Meshes
62
254
10
0.0
20
0.0
30
0.0
70
128
71
13
72
20
73
50
74
24
0
VERTEX
8
Meshes
62
254
10
0.0
20
0.0
30
0.0
70
128
71
14
72
27
73
56
74
36
0
VERTEX
8
Meshes
62
254
10
0.0
20
0.0
30
0.0
70
128
71
14
72
36
73
58
74
40
0
VERTEX
8
Meshes
62
254
10
0.0
20
0.0
30
0.0
70
128
71
14
72
40
73
52
74
22
0
VERTEX
8
Meshes
62
254
10
0.0
20
0.0
30
0.0
70
128
71
14
72
22
73
51
74
27
0
SEQEND
0
ENDBLK
0
ENDSEC
0
SECTION
2
ENTITIES
0
INSERT
8
1
2
Mesh_001
10
0.000000
20
0.000000
30
0.000000
41
1.000000
42
1.000000
43
1.000000
50
0.000000
0
ENDSEC
0
EOF
