0
SECTION
2
HEADER
0
ENDSEC
0
SECTION
2
BLOCKS
0
BLOCK
2
Mesh_006
8
Meshes
70
64
10
0.0
20
0.0
30
0.0
3
Mesh_006
0
POLYLINE
66
1
8
Meshes
70
64
71
48
72
32
0
VERTEX
8
Meshes
10
-1.013976
20
-0.206294
30
0.200000
70
192
0
VERTEX
8
Meshes
10
-1.013976
20
0.193706
30
0.200000
70
192
0
VERTEX
8
Meshes
10
-0.213976
20
0.193706
30
0.200000
70
192
0
VERTEX
8
Meshes
10
-0.213976
20
0.993706
30
0.200000
70
192
0
VERTEX
8
Meshes
10
0.186024
20
0.993706
30
0.200000
70
192
0
VERTEX
8
Meshes
10
0.186024
20
0.193706
30
0.200000
70
192
0
VERTEX
8
Meshes
10
0.986024
20
0.193706
30
0.200000
70
192
0
VERTEX
8
Meshes
10
0.986024
20
-0.206294
30
0.200000
70
192
0
VERTEX
8
Meshes
10
0.186024
20
-0.206294
30
0.200000
70
192
0
VERTEX
8
Meshes
10
0.186024
20
-1.006294
30
0.200000
70
192
0
VERTEX
8
Meshes
10
-0.213976
20
-1.006294
30
0.200000
70
192
0
VERTEX
8
Meshes
10
-0.213976
20
-0.206294
30
0.200000
70
192
0
VERTEX
8
Meshes
10
-1.013976
20
-0.206294
30
-0.200000
70
192
0
VERTEX
8
Meshes
10
-1.013976
20
0.193706
30
-0.200000
70
192
0
VERTEX
8
Meshes
10
-0.213976
20
0.193706
30
-0.200000
70
192
0
VERTEX
8
Meshes
10
-0.213976
20
0.993706
30
-0.200000
70
192
0
VERTEX
8
Meshes
10
0.186024
20
0.993706
30
-0.200000
70
192
0
VERTEX
8
Meshes
10
0.186024
20
0.193706
30
-0.200000
70
192
0
VERTEX
8
Meshes
10
0.986024
20
0.193706
30
-0.200000
70
192
0
VERTEX
8
Meshes
10
0.986024
20
-0.206294
30
-0.200000
70
192
0
VERTEX
8
Meshes
10
0.186024
20
-0.206294
30
-0.200000
70
192
0
VERTEX
8
Meshes
10
0.186024
20
-1.006294
30
-0.200000
70
192
0
VERTEX
8
Meshes
10
-0.213976
20
-1.006294
30
-0.200000
70
192
0
VERTEX
8
Meshes
10
-0.213976
20
-0.206294
30
-0.200000
70
192
0
VERTEX
8
Meshes
10
-1.013976
20
-0.206294
30
-0.200000
70
192
0
VERTEX
8
Meshes
10
-1.013976
20
-0.206294
30
0.200000
70
192
0
VERTEX
8
Meshes
10
-1.013976
20
0.193706
30
-0.200000
70
192
0
VERTEX
8
Meshes
10
-1.013976
20
0.193706
30
0.200000
70
192
0
VERTEX
8
Meshes
10
-0.213976
20
0.193706
30
-0.200000
70
192
0
VERTEX
8
Meshes
10
-0.213976
20
0.193706
30
0.200000
70
192
0
VERTEX
8
Meshes
10
-0.213976
20
0.993706
30
-0.200000
70
192
0
VERTEX
8
Meshes
10
-0.213976
20
0.993706
30
0.200000
70
192
0
VERTEX
8
Meshes
10
0.186024
20
0.993706
30
-0.200000
70
192
0
VERTEX
8
Meshes
10
0.186024
20
0.993706
30
0.200000
70
192
0
VERTEX
8
Meshes
10
0.186024
20
0.193706
30
-0.200000
70
192
0
VERTEX
8
Meshes
10
0.186024
20
0.193706
30
0.200000
70
192
0
VERTEX
8
Meshes
10
0.986024
20
0.193706
30
-0.200000
70
192
0
VERTEX
8
Meshes
10
0.986024
20
0.193706
30
0.200000
70
192
0
VERTEX
8
Meshes
10
0.986024
20
-0.206294
30
-0.200000
70
192
0
VERTEX
8
Meshes
10
0.986024
20
-0.206294
30
0.200000
70
192
0
VERTEX
8
Meshes
10
0.186024
20
-0.206294
30
-0.200000
70
192
0
VERTEX
8
Meshes
10
0.186024
20
-0.206294
30
0.200000
70
192
0
VERTEX
8
Meshes
10
0.186024
20
-1.006294
30
-0.200000
70
192
0
VERTEX
8
Meshes
10
0.186024
20
-1.006294
30
0.200000
70
192
0
VERTEX
8
Meshes
10
-0.213976
20
-1.006294
30
-0.200000
70
192
0
VERTEX
8
Meshes
10
-0.213976
20
-1.006294
30
0.200000
70
192
0
VERTEX
8
Meshes
10
-0.213976
20
-0.206294
30
-0.200000
70
192
0
VERTEX
8
Meshes
10
-0.213976
20
-0.206294
30
0.200000
70
192
0
VERTEX
8
Meshes
62
254
10
0.0
20
0.0
30
0.0
70
128
71
3
72
5
73
4
0
VERTEX
8
Meshes
62
254
10
0.0
20
0.0
30
0.0
70
128
71
3
72
6
73
5
0
VERTEX
8
Meshes
62
254
10
0.0
20
0.0
30
0.0
70
128
71
1
72
3
73
2
0
VERTEX
8
Meshes
62
254
10
0.0
20
0.0
30
0.0
70
128
71
1
72
6
73
3
0
VERTEX
8
Meshes
62
254
10
0.0
20
0.0
30
0.0
70
128
71
1
72
7
73
6
0
VERTEX
8
Meshes
62
254
10
0.0
20
0.0
30
0.0
70
128
71
1
72
8
73
7
0
VERTEX
8
Meshes
62
254
10
0.0
20
0.0
30
0.0
70
128
71
8
72
1
73
12
0
VERTEX
8
Meshes
62
254
10
0.0
20
0.0
30
0.0
70
128
71
11
72
9
73
12
0
VERTEX
8
Meshes
62
254
10
0.0
20
0.0
30
0.0
70
128
71
9
72
8
73
12
0
VERTEX
8
Meshes
62
254
10
0.0
20
0.0
30
0.0
70
128
71
11
72
10
73
9
0
VERTEX
8
Meshes
62
254
10
0.0
20
0.0
30
0.0
70
128
71
15
72
17
73
16
0
VERTEX
8
Meshes
62
254
10
0.0
20
0.0
30
0.0
70
128
71
15
72
18
73
17
0
VERTEX
8
Meshes
62
254
10
0.0
20
0.0
30
0.0
70
128
71
13
72
15
73
14
0
VERTEX
8
Meshes
62
254
10
0.0
20
0.0
30
0.0
70
128
71
13
72
18
73
15
0
VERTEX
8
Meshes
62
254
10
0.0
20
0.0
30
0.0
70
128
71
13
72
19
73
18
0
VERTEX
8
Meshes
62
254
10
0.0
20
0.0
30
0.0
70
128
71
13
72
20
73
19
0
VERTEX
8
Meshes
62
254
10
0.0
20
0.0
30
0.0
70
128
71
24
72
20
73
13
0
VERTEX
8
Meshes
62
254
10
0.0
20
0.0
30
0.0
70
128
71
23
72
21
73
24
0
VERTEX
8
Meshes
62
254
10
0.0
20
0.0
30
0.0
70
128
71
21
72
20
73
24
0
VERTEX
8
Meshes
62
254
10
0.0
20
0.0
30
0.0
70
128
71
23
72
22
73
21
0
VERTEX
8
Meshes
62
254
10
0.0
20
0.0
30
0.0
70
128
71
26
72
28
73
27
74
25
0
VERTEX
8
Meshes
62
254
10
0.0
20
0.0
30
0.0
70
128
71
28
72
30
73
29
74
27
0
VERTEX
8
Meshes
62
254
10
0.0
20
0.0
30
0.0
70
128
71
30
72
32
73
31
74
29
0
VERTEX
8
Meshes
62
254
10
0.0
20
0.0
30
0.0
70
128
71
32
72
34
73
33
74
31
0
VERTEX
8
Meshes
62
254
10
0.0
20
0.0
30
0.0
70
128
71
34
72
36
73
35
74
33
0
VERTEX
8
Meshes
62
254
10
0.0
20
0.0
30
0.0
70
128
71
36
72
38
73
37
74
35
0
VERTEX
8
Meshes
62
254
10
0.0
20
0.0
30
0.0
70
128
71
38
72
40
73
39
74
37
0
VERTEX
8
Meshes
62
254
10
0.0
20
0.0
30
0.0
70
128
71
40
72
42
73
41
74
39
0
VERTEX
8
Meshes
62
254
10
0.0
20
0.0
30
0.0
70
128
71
42
72
44
73
43
74
41
0
VERTEX
8
Meshes
62
254
10
0.0
20
0.0
30
0.0
70
128
71
44
72
46
73
45
74
43
0
VERTEX
8
Meshes
62
254
10
0.0
20
0.0
30
0.0
70
128
71
46
72
48
73
47
74
45
0
VERTEX
8
Meshes
62
254
10
0.0
20
0.0
30
0.0
70
128
71
48
72
26
73
25
74
47
0
SEQEND
0
ENDBLK
0
ENDSEC
0
SECTION
2
ENTITIES
0
INSERT
8
1
2
Mesh_006
10
-0.342948
20
0.793241
30
-1.113818
41
1.000000
42
1.000000
43
1.000000
50
0.000000
0
ENDSEC
0
EOF
