0
SECTION
2
HEADER
0
ENDSEC
0
SECTION
2
BLOCKS
0
BLOCK
2
Sphere
8
Meshes
70
64
10
0.0
20
0.0
30
0.0
3
Sphere
0
POLYLINE
66
1
8
Meshes
70
64
71
42
72
80
0
VERTEX
8
Meshes
10
0.000000
20
0.000000
30
-1.000000
70
192
0
VERTEX
8
Meshes
10
0.723600
20
-0.525720
30
-0.447215
70
192
0
VERTEX
8
Meshes
10
-0.276385
20
-0.850640
30
-0.447215
70
192
0
VERTEX
8
Meshes
10
-0.894425
20
0.000000
30
-0.447215
70
192
0
VERTEX
8
Meshes
10
-0.276385
20
0.850640
30
-0.447215
70
192
0
VERTEX
8
Meshes
10
0.723600
20
0.525720
30
-0.447215
70
192
0
VERTEX
8
Meshes
10
0.276385
20
-0.850640
30
0.447215
70
192
0
VERTEX
8
Meshes
10
-0.723600
20
-0.525720
30
0.447215
70
192
0
VERTEX
8
Meshes
10
-0.723600
20
0.525720
30
0.447215
70
192
0
VERTEX
8
Meshes
10
0.276385
20
0.850640
30
0.447215
70
192
0
VERTEX
8
Meshes
10
0.894425
20
0.000000
30
0.447215
70
192
0
VERTEX
8
Meshes
10
0.000000
20
0.000000
30
1.000000
70
192
0
VERTEX
8
Meshes
10
0.425323
20
-0.309011
30
-0.850654
70
192
0
VERTEX
8
Meshes
10
-0.162456
20
-0.499995
30
-0.850654
70
192
0
VERTEX
8
Meshes
10
0.262869
20
-0.809012
30
-0.525738
70
192
0
VERTEX
8
Meshes
10
0.425323
20
0.309011
30
-0.850654
70
192
0
VERTEX
8
Meshes
10
0.850648
20
0.000000
30
-0.525736
70
192
0
VERTEX
8
Meshes
10
-0.525730
20
0.000000
30
-0.850652
70
192
0
VERTEX
8
Meshes
10
-0.688189
20
-0.499997
30
-0.525736
70
192
0
VERTEX
8
Meshes
10
-0.162456
20
0.499995
30
-0.850654
70
192
0
VERTEX
8
Meshes
10
-0.688189
20
0.499997
30
-0.525736
70
192
0
VERTEX
8
Meshes
10
0.262869
20
0.809012
30
-0.525738
70
192
0
VERTEX
8
Meshes
10
0.951058
20
0.309013
30
0.000000
70
192
0
VERTEX
8
Meshes
10
0.951058
20
-0.309013
30
0.000000
70
192
0
VERTEX
8
Meshes
10
0.587786
20
-0.809017
30
0.000000
70
192
0
VERTEX
8
Meshes
10
0.000000
20
-1.000000
30
0.000000
70
192
0
VERTEX
8
Meshes
10
-0.587786
20
-0.809017
30
0.000000
70
192
0
VERTEX
8
Meshes
10
-0.951058
20
-0.309013
30
0.000000
70
192
0
VERTEX
8
Meshes
10
-0.951058
20
0.309013
30
0.000000
70
192
0
VERTEX
8
Meshes
10
-0.587786
20
0.809017
30
0.000000
70
192
0
VERTEX
8
Meshes
10
0.000000
20
1.000000
30
0.000000
70
192
0
VERTEX
8
Meshes
10
0.587786
20
0.809017
30
0.000000
70
192
0
VERTEX
8
Meshes
10
0.688189
20
-0.499997
30
0.525736
70
192
0
VERTEX
8
Meshes
10
-0.262869
20
-0.809012
30
0.525738
70
192
0
VERTEX
8
Meshes
10
-0.850648
20
0.000000
30
0.525736
70
192
0
VERTEX
8
Meshes
10
-0.262869
20
0.809012
30
0.525738
70
192
0
VERTEX
8
Meshes
10
0.688189
20
0.499997
30
0.525736
70
192
0
VERTEX
8
Meshes
10
0.525730
20
0.000000
30
0.850652
70
192
0
VERTEX
8
Meshes
10
0.162456
20
-0.499995
30
0.850654
70
192
0
VERTEX
8
Meshes
10
-0.425323
20
-0.309011
30
0.850654
70
192
0
VERTEX
8
Meshes
10
-0.425323
20
0.309011
30
0.850654
70
192
0
VERTEX
8
Meshes
10
0.162456
20
0.499995
30
0.850654
70
192
0
VERTEX
8
Meshes
62
254
10
0.0
20
0.0
30
0.0
70
128
71
15
72
13
73
2
0
VERTEX
8
Meshes
62
254
10
0.0
20
0.0
30
0.0
70
128
71
13
72
15
73
14
0
VERTEX
8
Meshes
62
254
10
0.0
20
0.0
30
0.0
70
128
71
3
72
14
73
15
0
VERTEX
8
Meshes
62
254
10
0.0
20
0.0
30
0.0
70
128
71
14
72
1
73
13
0
VERTEX
8
Meshes
62
254
10
0.0
20
0.0
30
0.0
70
128
71
17
72
2
73
13
0
VERTEX
8
Meshes
62
254
10
0.0
20
0.0
30
0.0
70
128
71
13
72
16
73
17
0
VERTEX
8
Meshes
62
254
10
0.0
20
0.0
30
0.0
70
128
71
6
72
17
73
16
0
VERTEX
8
Meshes
62
254
10
0.0
20
0.0
30
0.0
70
128
71
13
72
1
73
16
0
VERTEX
8
Meshes
62
254
10
0.0
20
0.0
30
0.0
70
128
71
19
72
14
73
3
0
VERTEX
8
Meshes
62
254
10
0.0
20
0.0
30
0.0
70
128
71
14
72
19
73
18
0
VERTEX
8
Meshes
62
254
10
0.0
20
0.0
30
0.0
70
128
71
4
72
18
73
19
0
VERTEX
8
Meshes
62
254
10
0.0
20
0.0
30
0.0
70
128
71
18
72
1
73
14
0
VERTEX
8
Meshes
62
254
10
0.0
20
0.0
30
0.0
70
128
71
21
72
18
73
4
0
VERTEX
8
Meshes
62
254
10
0.0
20
0.0
30
0.0
70
128
71
18
72
21
73
20
0
VERTEX
8
Meshes
62
254
10
0.0
20
0.0
30
0.0
70
128
71
5
72
20
73
21
0
VERTEX
8
Meshes
62
254
10
0.0
20
0.0
30
0.0
70
128
71
20
72
1
73
18
0
VERTEX
8
Meshes
62
254
10
0.0
20
0.0
30
0.0
70
128
71
22
72
20
73
5
0
VERTEX
8
Meshes
62
254
10
0.0
20
0.0
30
0.0
70
128
71
20
72
22
73
16
0
VERTEX
8
Meshes
62
254
10
0.0
20
0.0
30
0.0
70
128
71
6
72
16
73
22
0
VERTEX
8
Meshes
62
254
10
0.0
20
0.0
30
0.0
70
128
71
16
72
1
73
20
0
VERTEX
8
Meshes
62
254
10
0.0
20
0.0
30
0.0
70
128
71
24
72
2
73
17
0
VERTEX
8
Meshes
62
254
10
0.0
20
0.0
30
0.0
70
128
71
17
72
23
73
24
0
VERTEX
8
Meshes
62
254
10
0.0
20
0.0
30
0.0
70
128
71
11
72
24
73
23
0
VERTEX
8
Meshes
62
254
10
0.0
20
0.0
30
0.0
70
128
71
23
72
17
73
6
0
VERTEX
8
Meshes
62
254
10
0.0
20
0.0
30
0.0
70
128
71
26
72
3
73
15
0
VERTEX
8
Meshes
62
254
10
0.0
20
0.0
30
0.0
70
128
71
15
72
25
73
26
0
VERTEX
8
Meshes
62
254
10
0.0
20
0.0
30
0.0
70
128
71
7
72
26
73
25
0
VERTEX
8
Meshes
62
254
10
0.0
20
0.0
30
0.0
70
128
71
25
72
15
73
2
0
VERTEX
8
Meshes
62
254
10
0.0
20
0.0
30
0.0
70
128
71
28
72
4
73
19
0
VERTEX
8
Meshes
62
254
10
0.0
20
0.0
30
0.0
70
128
71
19
72
27
73
28
0
VERTEX
8
Meshes
62
254
10
0.0
20
0.0
30
0.0
70
128
71
8
72
28
73
27
0
VERTEX
8
Meshes
62
254
10
0.0
20
0.0
30
0.0
70
128
71
27
72
19
73
3
0
VERTEX
8
Meshes
62
254
10
0.0
20
0.0
30
0.0
70
128
71
30
72
5
73
21
0
VERTEX
8
Meshes
62
254
10
0.0
20
0.0
30
0.0
70
128
71
21
72
29
73
30
0
VERTEX
8
Meshes
62
254
10
0.0
20
0.0
30
0.0
70
128
71
9
72
30
73
29
0
VERTEX
8
Meshes
62
254
10
0.0
20
0.0
30
0.0
70
128
71
29
72
21
73
4
0
VERTEX
8
Meshes
62
254
10
0.0
20
0.0
30
0.0
70
128
71
32
72
6
73
22
0
VERTEX
8
Meshes
62
254
10
0.0
20
0.0
30
0.0
70
128
71
22
72
31
73
32
0
VERTEX
8
Meshes
62
254
10
0.0
20
0.0
30
0.0
70
128
71
10
72
32
73
31
0
VERTEX
8
Meshes
62
254
10
0.0
20
0.0
30
0.0
70
128
71
31
72
22
73
5
0
VERTEX
8
Meshes
62
254
10
0.0
20
0.0
30
0.0
70
128
71
33
72
24
73
11
0
VERTEX
8
Meshes
62
254
10
0.0
20
0.0
30
0.0
70
128
71
24
72
33
73
25
0
VERTEX
8
Meshes
62
254
10
0.0
20
0.0
30
0.0
70
128
71
7
72
25
73
33
0
VERTEX
8
Meshes
62
254
10
0.0
20
0.0
30
0.0
70
128
71
25
72
2
73
24
0
VERTEX
8
Meshes
62
254
10
0.0
20
0.0
30
0.0
70
128
71
34
72
26
73
7
0
VERTEX
8
Meshes
62
254
10
0.0
20
0.0
30
0.0
70
128
71
26
72
34
73
27
0
VERTEX
8
Meshes
62
254
10
0.0
20
0.0
30
0.0
70
128
71
8
72
27
73
34
0
VERTEX
8
Meshes
62
254
10
0.0
20
0.0
30
0.0
70
128
71
27
72
3
73
26
0
VERTEX
8
Meshes
62
254
10
0.0
20
0.0
30
0.0
70
128
71
35
72
28
73
8
0
VERTEX
8
Meshes
62
254
10
0.0
20
0.0
30
0.0
70
128
71
28
72
35
73
29
0
VERTEX
8
Meshes
62
254
10
0.0
20
0.0
30
0.0
70
128
71
9
72
29
73
35
0
VERTEX
8
Meshes
62
254
10
0.0
20
0.0
30
0.0
70
128
71
29
72
4
73
28
0
VERTEX
8
Meshes
62
254
10
0.0
20
0.0
30
0.0
70
128
71
36
72
30
73
9
0
VERTEX
8
Meshes
62
254
10
0.0
20
0.0
30
0.0
70
128
71
30
72
36
73
31
0
VERTEX
8
Meshes
62
254
10
0.0
20
0.0
30
0.0
70
128
71
10
72
31
73
36
0
VERTEX
8
Meshes
62
254
10
0.0
20
0.0
30
0.0
70
128
71
31
72
5
73
30
0
VERTEX
8
Meshes
62
254
10
0.0
20
0.0
30
0.0
70
128
71
37
72
32
73
10
0
VERTEX
8
Meshes
62
254
10
0.0
20
0.0
30
0.0
70
128
71
32
72
37
73
23
0
VERTEX
8
Meshes
62
254
10
0.0
20
0.0
30
0.0
70
128
71
11
72
23
73
37
0
VERTEX
8
Meshes
62
254
10
0.0
20
0.0
30
0.0
70
128
71
23
72
6
73
32
0
VERTEX
8
Meshes
62
254
10
0.0
20
0.0
30
0.0
70
128
71
39
72
7
73
33
0
VERTEX
8
Meshes
62
254
10
0.0
20
0.0
30
0.0
70
128
71
33
72
38
73
39
0
VERTEX
8
Meshes
62
254
10
0.0
20
0.0
30
0.0
70
128
71
12
72
39
73
38
0
VERTEX
8
Meshes
62
254
10
0.0
20
0.0
30
0.0
70
128
71
38
72
33
73
11
0
VERTEX
8
Meshes
62
254
10
0.0
20
0.0
30
0.0
70
128
71
40
72
8
73
34
0
VERTEX
8
Meshes
62
254
10
0.0
20
0.0
30
0.0
70
128
71
34
72
39
73
40
0
VERTEX
8
Meshes
62
254
10
0.0
20
0.0
30
0.0
70
128
71
12
72
40
73
39
0
VERTEX
8
Meshes
62
254
10
0.0
20
0.0
30
0.0
70
128
71
39
72
34
73
7
0
VERTEX
8
Meshes
62
254
10
0.0
20
0.0
30
0.0
70
128
71
41
72
9
73
35
0
VERTEX
8
Meshes
62
254
10
0.0
20
0.0
30
0.0
70
128
71
35
72
40
73
41
0
VERTEX
8
Meshes
62
254
10
0.0
20
0.0
30
0.0
70
128
71
12
72
41
73
40
0
VERTEX
8
Meshes
62
254
10
0.0
20
0.0
30
0.0
70
128
71
40
72
35
73
8
0
VERTEX
8
Meshes
62
254
10
0.0
20
0.0
30
0.0
70
128
71
42
72
10
73
36
0
VERTEX
8
Meshes
62
254
10
0.0
20
0.0
30
0.0
70
128
71
36
72
41
73
42
0
VERTEX
8
Meshes
62
254
10
0.0
20
0.0
30
0.0
70
128
71
12
72
42
73
41
0
VERTEX
8
Meshes
62
254
10
0.0
20
0.0
30
0.0
70
128
71
41
72
36
73
9
0
VERTEX
8
Meshes
62
254
10
0.0
20
0.0
30
0.0
70
128
71
38
72
11
73
37
0
VERTEX
8
Meshes
62
254
10
0.0
20
0.0
30
0.0
70
128
71
37
72
42
73
38
0
VERTEX
8
Meshes
62
254
10
0.0
20
0.0
30
0.0
70
128
71
12
72
38
73
42
0
VERTEX
8
Meshes
62
254
10
0.0
20
0.0
30
0.0
70
128
71
42
72
37
73
10
0
SEQEND
0
ENDBLK
0
ENDSEC
0
SECTION
2
ENTITIES
0
INSERT
8
1
2
Sphere
10
0.000000
20
0.000000
30
0.000000
41
1.000000
42
1.000000
43
1.000000
50
0.000000
0
ENDSEC
0
EOF
