0
SECTION
2
HEADER
0
ENDSEC
0
SECTION
2
BLOCKS
0
BLOCK
2
Mesh
8
Meshes
70
64
10
0.0
20
0.0
30
0.0
3
Mesh
0
POLYLINE
66
1
8
Meshes
62
254
70
64
71
36
72
30
0
VERTEX
8
Meshes
10
-0.294049
20
-1.176317
30
2.841456
70
192
0
VERTEX
8
Meshes
10
-2.294049
20
-1.176316
30
2.841456
70
192
0
VERTEX
8
Meshes
10
-2.294050
20
-3.176316
30
2.841456
70
192
0
VERTEX
8
Meshes
10
-0.294050
20
-3.176317
30
2.841456
70
192
0
VERTEX
8
Meshes
10
-2.294049
20
-3.176316
30
0.841456
70
192
0
VERTEX
8
Meshes
10
-2.294049
20
-1.176316
30
0.841456
70
192
0
VERTEX
8
Meshes
10
-0.294049
20
-1.176316
30
0.841456
70
192
0
VERTEX
8
Meshes
10
0.650878
20
-1.990003
30
0.027769
70
192
0
VERTEX
8
Meshes
10
0.650878
20
-3.990003
30
0.027769
70
192
0
VERTEX
8
Meshes
10
-1.349123
20
-3.990003
30
0.027769
70
192
0
VERTEX
8
Meshes
10
-1.349122
20
-1.990003
30
0.027769
70
192
0
VERTEX
8
Meshes
10
0.650878
20
-1.990004
30
2.027769
70
192
0
VERTEX
8
Meshes
10
0.650877
20
-3.990004
30
2.027769
70
192
0
VERTEX
8
Meshes
10
-1.349123
20
-3.990003
30
2.027769
70
192
0
VERTEX
8
Meshes
10
-1.349122
20
-1.990003
30
0.841456
70
192
0
VERTEX
8
Meshes
10
-0.294049
20
-1.990003
30
0.841456
70
192
0
VERTEX
8
Meshes
10
-0.294050
20
-3.176317
30
2.027769
70
192
0
VERTEX
8
Meshes
10
-1.349123
20
-3.176316
30
2.027769
70
192
0
VERTEX
8
Meshes
10
-0.294049
20
-1.990003
30
2.027769
70
192
0
VERTEX
8
Meshes
10
-1.349123
20
-3.176316
30
0.841456
70
192
0
VERTEX
8
Meshes
10
1.569556
20
-1.990004
30
0.513357
70
192
0
VERTEX
8
Meshes
10
1.569556
20
-3.990004
30
0.513357
70
192
0
VERTEX
8
Meshes
10
-0.430444
20
-3.990003
30
0.513357
70
192
0
VERTEX
8
Meshes
10
-0.430443
20
-1.990003
30
0.513357
70
192
0
VERTEX
8
Meshes
10
1.569557
20
-1.990004
30
2.513357
70
192
0
VERTEX
8
Meshes
10
1.569556
20
-3.990004
30
2.513357
70
192
0
VERTEX
8
Meshes
10
-0.430444
20
-3.990003
30
2.513357
70
192
0
VERTEX
8
Meshes
10
-0.430444
20
-1.990003
30
2.513357
70
192
0
VERTEX
8
Meshes
10
0.624630
20
-1.176317
30
1.327044
70
192
0
VERTEX
8
Meshes
10
0.624630
20
-3.176317
30
1.327044
70
192
0
VERTEX
8
Meshes
10
-1.375371
20
-3.176316
30
1.327044
70
192
0
VERTEX
8
Meshes
10
-1.375370
20
-1.176316
30
1.327044
70
192
0
VERTEX
8
Meshes
10
0.624630
20
-1.176317
30
3.327044
70
192
0
VERTEX
8
Meshes
10
0.624629
20
-3.176317
30
3.327044
70
192
0
VERTEX
8
Meshes
10
-1.375371
20
-3.176316
30
3.327044
70
192
0
VERTEX
8
Meshes
10
-1.375370
20
-1.176317
30
3.327044
70
192
0
VERTEX
8
Meshes
62
254
10
0.0
20
0.0
30
0.0
70
128
71
1
72
2
73
3
74
4
0
VERTEX
8
Meshes
62
254
10
0.0
20
0.0
30
0.0
70
128
71
5
72
3
73
2
74
6
0
VERTEX
8
Meshes
62
254
10
0.0
20
0.0
30
0.0
70
128
71
1
72
7
73
6
74
2
0
VERTEX
8
Meshes
62
254
10
0.0
20
0.0
30
0.0
70
128
71
8
72
9
73
10
74
11
0
VERTEX
8
Meshes
62
254
10
0.0
20
0.0
30
0.0
70
128
71
8
72
12
73
13
74
9
0
VERTEX
8
Meshes
62
254
10
0.0
20
0.0
30
0.0
70
128
71
9
72
13
73
14
74
10
0
VERTEX
8
Meshes
62
254
10
0.0
20
0.0
30
0.0
70
128
71
15
72
6
73
7
74
16
0
VERTEX
8
Meshes
62
254
10
0.0
20
0.0
30
0.0
70
128
71
17
72
4
73
3
74
18
0
VERTEX
8
Meshes
62
254
10
0.0
20
0.0
30
0.0
70
128
71
17
72
18
73
14
74
13
0
VERTEX
8
Meshes
62
254
10
0.0
20
0.0
30
0.0
70
128
71
19
72
1
73
4
74
17
0
VERTEX
8
Meshes
62
254
10
0.0
20
0.0
30
0.0
70
128
71
20
72
10
73
14
74
18
0
VERTEX
8
Meshes
62
254
10
0.0
20
0.0
30
0.0
70
128
71
16
72
8
73
11
74
15
0
VERTEX
8
Meshes
62
254
10
0.0
20
0.0
30
0.0
70
128
71
15
72
20
73
5
74
6
0
VERTEX
8
Meshes
62
254
10
0.0
20
0.0
30
0.0
70
128
71
10
72
20
73
15
74
11
0
VERTEX
8
Meshes
62
254
10
0.0
20
0.0
30
0.0
70
128
71
12
72
19
73
17
74
13
0
VERTEX
8
Meshes
62
254
10
0.0
20
0.0
30
0.0
70
128
71
7
72
1
73
19
74
16
0
VERTEX
8
Meshes
62
254
10
0.0
20
0.0
30
0.0
70
128
71
20
72
18
73
3
74
5
0
VERTEX
8
Meshes
62
254
10
0.0
20
0.0
30
0.0
70
128
71
16
72
19
73
12
74
8
0
VERTEX
8
Meshes
62
254
10
0.0
20
0.0
30
0.0
70
128
71
21
72
22
73
23
74
24
0
VERTEX
8
Meshes
62
254
10
0.0
20
0.0
30
0.0
70
128
71
25
72
28
73
27
74
26
0
VERTEX
8
Meshes
62
254
10
0.0
20
0.0
30
0.0
70
128
71
21
72
25
73
26
74
22
0
VERTEX
8
Meshes
62
254
10
0.0
20
0.0
30
0.0
70
128
71
22
72
26
73
27
74
23
0
VERTEX
8
Meshes
62
254
10
0.0
20
0.0
30
0.0
70
128
71
23
72
27
73
28
74
24
0
VERTEX
8
Meshes
62
254
10
0.0
20
0.0
30
0.0
70
128
71
25
72
21
73
24
74
28
0
VERTEX
8
Meshes
62
254
10
0.0
20
0.0
30
0.0
70
128
71
29
72
30
73
31
74
32
0
VERTEX
8
Meshes
62
254
10
0.0
20
0.0
30
0.0
70
128
71
33
72
36
73
35
74
34
0
VERTEX
8
Meshes
62
254
10
0.0
20
0.0
30
0.0
70
128
71
29
72
33
73
34
74
30
0
VERTEX
8
Meshes
62
254
10
0.0
20
0.0
30
0.0
70
128
71
30
72
34
73
35
74
31
0
VERTEX
8
Meshes
62
254
10
0.0
20
0.0
30
0.0
70
128
71
31
72
35
73
36
74
32
0
VERTEX
8
Meshes
62
254
10
0.0
20
0.0
30
0.0
70
128
71
33
72
29
73
32
74
36
0
SEQEND
0
ENDBLK
0
ENDSEC
0
SECTION
2
ENTITIES
0
INSERT
8
1
2
Mesh
10
-0.247189
20
0.301019
30
0.270609
41
1.000000
42
1.000000
43
1.000000
50
0.000000
0
ENDSEC
0
EOF
