0
SECTION
2
HEADER
0
ENDSEC
0
SECTION
2
BLOCKS
0
BLOCK
2
Torus_001
8
Meshes
70
64
10
0.0
20
0.0
30
0.0
3
Torus_001
0
POLYLINE
66
1
8
Meshes
70
64
71
48
72
48
0
VERTEX
8
Meshes
10
1.500000
20
0.000000
30
0.000000
70
192
0
VERTEX
8
Meshes
10
1.250000
20
0.000000
30
0.433013
70
192
0
VERTEX
8
Meshes
10
0.750000
20
0.000000
30
0.433013
70
192
0
VERTEX
8
Meshes
10
0.500000
20
0.000000
30
0.000000
70
192
0
VERTEX
8
Meshes
10
0.750000
20
0.000000
30
-0.433013
70
192
0
VERTEX
8
Meshes
10
1.250000
20
0.000000
30
-0.433013
70
192
0
VERTEX
8
Meshes
10
1.060660
20
1.060660
30
0.000000
70
192
0
VERTEX
8
Meshes
10
0.883883
20
0.883883
30
0.433013
70
192
0
VERTEX
8
Meshes
10
0.530330
20
0.530330
30
0.433013
70
192
0
VERTEX
8
Meshes
10
0.353553
20
0.353553
30
0.000000
70
192
0
VERTEX
8
Meshes
10
0.530330
20
0.530330
30
-0.433013
70
192
0
VERTEX
8
Meshes
10
0.883883
20
0.883883
30
-0.433013
70
192
0
VERTEX
8
Meshes
10
-0.000000
20
1.500000
30
0.000000
70
192
0
VERTEX
8
Meshes
10
-0.000000
20
1.250000
30
0.433013
70
192
0
VERTEX
8
Meshes
10
-0.000000
20
0.750000
30
0.433013
70
192
0
VERTEX
8
Meshes
10
-0.000000
20
0.500000
30
0.000000
70
192
0
VERTEX
8
Meshes
10
-0.000000
20
0.750000
30
-0.433013
70
192
0
VERTEX
8
Meshes
10
-0.000000
20
1.250000
30
-0.433013
70
192
0
VERTEX
8
Meshes
10
-1.060660
20
1.060660
30
0.000000
70
192
0
VERTEX
8
Meshes
10
-0.883883
20
0.883883
30
0.433013
70
192
0
VERTEX
8
Meshes
10
-0.530330
20
0.530330
30
0.433013
70
192
0
VERTEX
8
Meshes
10
-0.353553
20
0.353553
30
0.000000
70
192
0
VERTEX
8
Meshes
10
-0.530330
20
0.530330
30
-0.433013
70
192
0
VERTEX
8
Meshes
10
-0.883883
20
0.883883
30
-0.433013
70
192
0
VERTEX
8
Meshes
10
-1.500000
20
-0.000000
30
0.000000
70
192
0
VERTEX
8
Meshes
10
-1.250000
20
-0.000000
30
0.433013
70
192
0
VERTEX
8
Meshes
10
-0.750000
20
-0.000000
30
0.433013
70
192
0
VERTEX
8
Meshes
10
-0.500000
20
-0.000000
30
0.000000
70
192
0
VERTEX
8
Meshes
10
-0.750000
20
-0.000000
30
-0.433013
70
192
0
VERTEX
8
Meshes
10
-1.250000
20
-0.000000
30
-0.433013
70
192
0
VERTEX
8
Meshes
10
-1.060660
20
-1.060660
30
0.000000
70
192
0
VERTEX
8
Meshes
10
-0.883884
20
-0.883883
30
0.433013
70
192
0
VERTEX
8
Meshes
10
-0.530330
20
-0.530330
30
0.433013
70
192
0
VERTEX
8
Meshes
10
-0.353553
20
-0.353553
30
0.000000
70
192
0
VERTEX
8
Meshes
10
-0.530330
20
-0.530330
30
-0.433013
70
192
0
VERTEX
8
Meshes
10
-0.883884
20
-0.883883
30
-0.433013
70
192
0
VERTEX
8
Meshes
10
0.000000
20
-1.500000
30
0.000000
70
192
0
VERTEX
8
Meshes
10
0.000000
20
-1.250000
30
0.433013
70
192
0
VERTEX
8
Meshes
10
0.000000
20
-0.750000
30
0.433013
70
192
0
VERTEX
8
Meshes
10
0.000000
20
-0.500000
30
0.000000
70
192
0
VERTEX
8
Meshes
10
0.000000
20
-0.750000
30
-0.433013
70
192
0
VERTEX
8
Meshes
10
0.000000
20
-1.250000
30
-0.433013
70
192
0
VERTEX
8
Meshes
10
1.060660
20
-1.060660
30
0.000000
70
192
0
VERTEX
8
Meshes
10
0.883883
20
-0.883884
30
0.433013
70
192
0
VERTEX
8
Meshes
10
0.530330
20
-0.530330
30
0.433013
70
192
0
VERTEX
8
Meshes
10
0.353553
20
-0.353553
30
0.000000
70
192
0
VERTEX
8
Meshes
10
0.530330
20
-0.530330
30
-0.433013
70
192
0
VERTEX
8
Meshes
10
0.883883
20
-0.883884
30
-0.433013
70
192
0
VERTEX
8
Meshes
62
254
10
0.0
20
0.0
30
0.0
70
128
71
2
72
1
73
7
74
8
0
VERTEX
8
Meshes
62
254
10
0.0
20
0.0
30
0.0
70
128
71
8
72
9
73
3
74
2
0
VERTEX
8
Meshes
62
254
10
0.0
20
0.0
30
0.0
70
128
71
9
72
10
73
4
74
3
0
VERTEX
8
Meshes
62
254
10
0.0
20
0.0
30
0.0
70
128
71
10
72
11
73
5
74
4
0
VERTEX
8
Meshes
62
254
10
0.0
20
0.0
30
0.0
70
128
71
11
72
12
73
6
74
5
0
VERTEX
8
Meshes
62
254
10
0.0
20
0.0
30
0.0
70
128
71
1
72
6
73
12
74
7
0
VERTEX
8
Meshes
62
254
10
0.0
20
0.0
30
0.0
70
128
71
13
72
14
73
8
74
7
0
VERTEX
8
Meshes
62
254
10
0.0
20
0.0
30
0.0
70
128
71
14
72
15
73
9
74
8
0
VERTEX
8
Meshes
62
254
10
0.0
20
0.0
30
0.0
70
128
71
15
72
16
73
10
74
9
0
VERTEX
8
Meshes
62
254
10
0.0
20
0.0
30
0.0
70
128
71
16
72
17
73
11
74
10
0
VERTEX
8
Meshes
62
254
10
0.0
20
0.0
30
0.0
70
128
71
17
72
18
73
12
74
11
0
VERTEX
8
Meshes
62
254
10
0.0
20
0.0
30
0.0
70
128
71
18
72
13
73
7
74
12
0
VERTEX
8
Meshes
62
254
10
0.0
20
0.0
30
0.0
70
128
71
19
72
20
73
14
74
13
0
VERTEX
8
Meshes
62
254
10
0.0
20
0.0
30
0.0
70
128
71
20
72
21
73
15
74
14
0
VERTEX
8
Meshes
62
254
10
0.0
20
0.0
30
0.0
70
128
71
21
72
22
73
16
74
15
0
VERTEX
8
Meshes
62
254
10
0.0
20
0.0
30
0.0
70
128
71
22
72
23
73
17
74
16
0
VERTEX
8
Meshes
62
254
10
0.0
20
0.0
30
0.0
70
128
71
23
72
24
73
18
74
17
0
VERTEX
8
Meshes
62
254
10
0.0
20
0.0
30
0.0
70
128
71
24
72
19
73
13
74
18
0
VERTEX
8
Meshes
62
254
10
0.0
20
0.0
30
0.0
70
128
71
25
72
26
73
20
74
19
0
VERTEX
8
Meshes
62
254
10
0.0
20
0.0
30
0.0
70
128
71
26
72
27
73
21
74
20
0
VERTEX
8
Meshes
62
254
10
0.0
20
0.0
30
0.0
70
128
71
27
72
28
73
22
74
21
0
VERTEX
8
Meshes
62
254
10
0.0
20
0.0
30
0.0
70
128
71
28
72
29
73
23
74
22
0
VERTEX
8
Meshes
62
254
10
0.0
20
0.0
30
0.0
70
128
71
29
72
30
73
24
74
23
0
VERTEX
8
Meshes
62
254
10
0.0
20
0.0
30
0.0
70
128
71
30
72
25
73
19
74
24
0
VERTEX
8
Meshes
62
254
10
0.0
20
0.0
30
0.0
70
128
71
31
72
32
73
26
74
25
0
VERTEX
8
Meshes
62
254
10
0.0
20
0.0
30
0.0
70
128
71
32
72
33
73
27
74
26
0
VERTEX
8
Meshes
62
254
10
0.0
20
0.0
30
0.0
70
128
71
33
72
34
73
28
74
27
0
VERTEX
8
Meshes
62
254
10
0.0
20
0.0
30
0.0
70
128
71
34
72
35
73
29
74
28
0
VERTEX
8
Meshes
62
254
10
0.0
20
0.0
30
0.0
70
128
71
35
72
36
73
30
74
29
0
VERTEX
8
Meshes
62
254
10
0.0
20
0.0
30
0.0
70
128
71
36
72
31
73
25
74
30
0
VERTEX
8
Meshes
62
254
10
0.0
20
0.0
30
0.0
70
128
71
37
72
38
73
32
74
31
0
VERTEX
8
Meshes
62
254
10
0.0
20
0.0
30
0.0
70
128
71
38
72
39
73
33
74
32
0
VERTEX
8
Meshes
62
254
10
0.0
20
0.0
30
0.0
70
128
71
39
72
40
73
34
74
33
0
VERTEX
8
Meshes
62
254
10
0.0
20
0.0
30
0.0
70
128
71
40
72
41
73
35
74
34
0
VERTEX
8
Meshes
62
254
10
0.0
20
0.0
30
0.0
70
128
71
41
72
42
73
36
74
35
0
VERTEX
8
Meshes
62
254
10
0.0
20
0.0
30
0.0
70
128
71
42
72
37
73
31
74
36
0
VERTEX
8
Meshes
62
254
10
0.0
20
0.0
30
0.0
70
128
71
43
72
44
73
38
74
37
0
VERTEX
8
Meshes
62
254
10
0.0
20
0.0
30
0.0
70
128
71
44
72
45
73
39
74
38
0
VERTEX
8
Meshes
62
254
10
0.0
20
0.0
30
0.0
70
128
71
45
72
46
73
40
74
39
0
VERTEX
8
Meshes
62
254
10
0.0
20
0.0
30
0.0
70
128
71
46
72
47
73
41
74
40
0
VERTEX
8
Meshes
62
254
10
0.0
20
0.0
30
0.0
70
128
71
47
72
48
73
42
74
41
0
VERTEX
8
Meshes
62
254
10
0.0
20
0.0
30
0.0
70
128
71
48
72
43
73
37
74
42
0
VERTEX
8
Meshes
62
254
10
0.0
20
0.0
30
0.0
70
128
71
1
72
2
73
44
74
43
0
VERTEX
8
Meshes
62
254
10
0.0
20
0.0
30
0.0
70
128
71
2
72
3
73
45
74
44
0
VERTEX
8
Meshes
62
254
10
0.0
20
0.0
30
0.0
70
128
71
3
72
4
73
46
74
45
0
VERTEX
8
Meshes
62
254
10
0.0
20
0.0
30
0.0
70
128
71
4
72
5
73
47
74
46
0
VERTEX
8
Meshes
62
254
10
0.0
20
0.0
30
0.0
70
128
71
5
72
6
73
48
74
47
0
VERTEX
8
Meshes
62
254
10
0.0
20
0.0
30
0.0
70
128
71
6
72
1
73
43
74
48
0
SEQEND
0
ENDBLK
0
ENDSEC
0
SECTION
2
ENTITIES
0
INSERT
8
1
2
Torus_001
10
0.000000
20
0.000000
30
0.000000
41
1.000000
42
1.000000
43
1.000000
50
0.000000
0
ENDSEC
0
EOF
