<?xml version="1.0" encoding="UTF-8" standalone="no"?>
<svg
   width="800.00055"
   height="159.31839"
   viewBox="0 0 800.00055 159.31839"
   version="1.1"
   id="svg5"
   sodipodi:docname="000_Mightyscape.svg"
   inkscape:version="1.2.2 (b0a8486541, 2022-12-01)"
   xml:space="preserve"
   xmlns:inkscape="http://www.inkscape.org/namespaces/inkscape"
   xmlns:sodipodi="http://sodipodi.sourceforge.net/DTD/sodipodi-0.dtd"
   xmlns:xlink="http://www.w3.org/1999/xlink"
   xmlns="http://www.w3.org/2000/svg"
   xmlns:svg="http://www.w3.org/2000/svg"><sodipodi:namedview
     id="namedview7"
     pagecolor="#ffffff"
     bordercolor="#666666"
     borderopacity="1.0"
     objecttolerance="10.0"
     gridtolerance="10.0"
     guidetolerance="10.0"
     inkscape:pageshadow="2"
     inkscape:pageopacity="1"
     inkscape:pagecheckerboard="0"
     inkscape:document-units="px"
     showgrid="false"
     inkscape:zoom="0.65461596"
     inkscape:cx="171.85649"
     inkscape:cy="19.858972"
     inkscape:window-width="1920"
     inkscape:window-height="1014"
     inkscape:window-x="0"
     inkscape:window-y="0"
     inkscape:window-maximized="1"
     inkscape:current-layer="layer1"
     showborder="false"
     inkscape:showpageshadow="false"
     inkscape:deskcolor="#ffffff" /><defs
     id="defs2"><linearGradient
       inkscape:collect="always"
       id="linearGradient4294"><stop
         style="stop-color:#ffffff;stop-opacity:0.34238502;"
         offset="0"
         id="stop4290" /><stop
         style="stop-color:#ffffff;stop-opacity:0;"
         offset="1"
         id="stop4292" /></linearGradient><radialGradient
       inkscape:collect="always"
       xlink:href="#linearGradient4294"
       id="radialGradient4296"
       cx="4912.2227"
       cy="-5031.6021"
       fx="4912.2227"
       fy="-5031.6021"
       r="829.9809"
       gradientTransform="matrix(0.00432539,0.00378922,-0.0394166,0.04499379,-177.82735,225.67185)"
       gradientUnits="userSpaceOnUse" /></defs><g
     inkscape:label="Ebene 1"
     inkscape:groupmode="layer"
     id="layer1"
     transform="scale(3.77953)"><style
       type="text/css"
       id="style26">
	.specularity {opacity:0.5;}
	.low-specularity {opacity:0.25;}
	.full-specularity {opacity:1;}
	.black {fill:#000000;}
	.white {fill:#ffffff;}
	.outline-big {stroke-width:16;stroke:none;opacity:0.1;fill:none;}
	.outline-small {stroke-width:8;stroke:none;opacity:0.2;fill:none;}
	.stroke-highlight {fill:none;stroke:none;opacity:0.2;}
       	.base-shadow 	{fill:black;opacity:75;}
	</style><rect
       style="fill:#ffffff;fill-opacity:0.996078;fill-rule:evenodd;stroke:none;stroke-width:64.7486;stroke-linecap:square"
       id="rect910"
       width="211.66653"
       height="42.152866"
       x="0"
       y="0" /><path
       id="polygon1"
       clip-path="url(#clipPath2072)"
       style="fill:#00a0e1;fill-opacity:0.857143;stroke-width:0.721742;stroke-opacity:0.857143"
       d="m 14.134664,38.048697 -0.107487,0.136426 -0.323838,-0.0096 -0.107487,0.03514 -0.0062,0.0021 c 2.291789,1.001194 4.823401,1.557868 7.486864,1.557868 1.449882,0 2.860907,-0.164674 4.215408,-0.476111 l -0.05374,-0.0028 -0.323149,-0.02756 -0.108176,-0.0062 -0.323149,-0.01378 -0.108176,-0.02205 -0.323149,-0.02963 -0.108176,-0.02343 -0.323149,-0.06546 -0.107487,-0.04341 -0.323838,-0.146072 -0.107487,-0.03376 -0.323838,-0.124712 -0.107487,-0.02894 -0.323149,-0.09991 -0.108176,-0.02412 -0.323149,-0.05857 -0.108175,-0.0048 -0.32315,-0.01792 -0.107486,-0.0055 -0.323839,-0.02067 -0.107486,-0.01447 -0.323838,-0.02549 -0.107487,-0.01171 -0.323149,-0.01171 -0.108176,-0.009 -0.323149,-0.01723 -0.108176,-0.0048 -0.323149,-0.01033 -0.108176,0.0062 -0.323149,-0.0083 -0.107487,0.009 -0.323838,0.01792 -0.107487,0.0034 -0.323838,0.0069 -0.107487,0.0096 -0.323149,0.0055 -0.108176,-0.01722 -0.278363,0.0014 -0.476111,-0.179834 -0.107486,-0.02687 -0.323839,-0.06201 -0.107486,0.01723 -0.323838,0.05788 -0.740694,0.454062 -0.229443,-0.316259 -0.331417,0.06201 z"
       transform="matrix(0.75000133,0,0,0.75000133,26.458196,5.269093)"
       sodipodi:nodetypes="cccccscccccccccccccccccccccccccccccccccccccccccccccccc" /><path
       id="polygon2"
       clip-path="url(#clipPath2042)"
       style="fill:#00a0e1;fill-opacity:0.714286;stroke-width:0.721742;stroke-opacity:0.714286"
       d="m 12.841378,31.568488 -0.108176,0.04341 -0.323149,-0.02894 -0.108175,0.04341 -0.32315,0.17501 -0.107486,0.01998 -0.323839,0.16123 -0.107486,0.03583 -0.323838,0.151584 -0.107487,0.07855 -0.323838,0.08957 -0.107487,0.103353 -0.323149,0.25218 -0.108176,0.132291 -0.3231492,0.291455 -0.1081757,0.117133 -0.3231492,0.294899 -0.1074867,0.08062 -0.3327954,0.338308 -0.4223677,0.130224 -0.1074867,0.03238 -0.3231492,0.08613 -0.1081758,0.0124 -0.1825896,0.04203 c 3.3853002,3.409282 8.0779172,5.51903 13.2690982,5.51903 2.910453,0 5.664142,-0.663176 8.118692,-1.846567 h -0.07648 l -0.323149,0.0041 h -0.108176 l -0.323149,-0.0565 -0.107487,0.0048 -0.323838,-0.0096 -0.107487,0.0021 -0.323838,-0.01034 -0.107487,0.0021 -0.323149,0.0069 -0.108176,0.0034 -0.323149,0.0083 -0.108175,0.0034 -0.32315,0.009 -0.107486,-0.0014 -0.323839,0.0028 -0.107486,-0.01378 -0.323838,-0.01723 -0.107487,-0.01378 -0.323149,-0.02618 -0.108176,-0.01723 -0.323149,-0.05374 -0.108176,-0.03721 -0.323149,-0.128157 -0.108176,-0.05512 -0.323149,-0.144004 -0.107487,-0.03996 -0.323838,-0.108865 -0.107487,-0.03858 -0.323838,-0.09164 -0.107487,-0.03859 -0.323149,-0.11231 -0.108176,-0.03859 -0.323149,-0.116444 -0.108175,-0.03376 -0.32315,-0.08062 -0.107486,-0.03583 -0.323839,-0.102664 -0.107486,-0.0186 -0.323838,-0.06546 h -0.107487 l -0.323149,-0.0069 -0.108176,0.01998 -0.323149,0.06201 -0.108176,0.03583 -0.405831,0.101286 -0.808907,-0.358289 -0.402386,-0.506428 -0.107487,-0.07924 -0.323149,-0.336241 -0.108176,-0.102663 -0.323149,-0.312814 -0.108175,-0.164675 -0.394807,-0.361735 -0.359668,-0.959112 -1.139634,0.471288 -0.584976,-1.020435 -0.108176,-0.261826 -0.323149,-0.525721 -0.107487,-0.11162 -0.323838,-0.334174 -0.107487,0.01034 -0.353466,0.113688 z"
       transform="matrix(0.75000133,0,0,0.75000133,26.458196,5.269093)"
       sodipodi:nodetypes="ccccccccccccccccccccccccsccccccccccccccccccccccccccccccccccccccccccccccccccccccccccccccccc" /><path
       id="polygon3"
       clip-path="url(#clipPath2102)"
       style="fill:#00a0e1;fill-opacity:0.571429;stroke-width:0.721742;stroke-opacity:0.571429"
       d="m 13.272014,24.645241 -0.08957,0.106798 -0.664902,0.527787 -0.107487,0.125402 -0.323838,0.288698 -0.107487,0.0627 -0.323149,0.181901 -0.108176,0.09715 -0.323149,0.405143 -0.108175,0.07855 -0.32315,0.317637 -0.107486,0.151584 -0.323839,0.294899 -0.107486,0.08888 -0.4533737,0.325217 -0.3011007,0.03996 -0.1081757,0.03032 -0.3231492,0.225998 -0.1081757,0.101975 -0.3231492,0.341752 -0.1081757,0.19637 -0.3231492,0.309369 -0.1074867,0.0751 -0.4623307,0.440282 -0.7234683,-0.133669 -0.1081757,-0.05237 -0.3231492,-0.0751 -0.1081758,-0.04341 -0.3231491,-0.05719 -0.1074868,-0.02481 -0.3238381,-0.06683 -0.1074868,-0.02549 -0.3238382,-0.05236 -0.1074867,-0.01585 -0.3231492,-0.03032 -0.1081757,-0.01998 -0.3231492,-0.0041 -0.1081757,-0.0021 -0.1453827,0.0028 c 2.9488581,6.442667 9.4484837,10.912658 17.0049507,10.912658 5.092983,0 9.705285,-2.03123 13.074794,-5.327483 l -0.07372,0.0021 -0.107486,0.0379 -0.323839,0.04961 -0.107486,0.0124 -0.323149,0.09991 -0.108176,0.04823 -0.323149,0.132981 -0.108176,0.01722 -0.323149,0.163297 -0.107487,0.0441 -0.323838,0.127468 -0.107487,0.03445 -0.350021,0.09026 -0.405142,0.0096 h -0.107487 l -0.323149,-0.01998 -0.108176,-0.0034 -0.323149,-0.09026 -0.108176,-0.02067 -0.323149,-0.104731 -0.107486,-0.03927 -0.323839,-0.143315 -0.107486,-0.04548 -0.323839,-0.150205 -0.107486,-0.04961 -0.323149,-0.119889 -0.108176,-0.04134 -0.323149,-0.07097 -0.108176,-0.02205 -0.323149,-0.04272 -0.108176,-0.01792 -0.655256,-0.0813 -0.530543,-0.577396 -0.107487,-0.159163 -0.323149,-0.321082 -0.108176,-0.09164 -0.323149,-0.283875 -0.108175,-0.108176 -0.32315,-0.289387 -0.107486,-0.06684 -0.323839,-0.262515 -0.107486,-0.03996 -0.323838,-0.11231 -0.107487,0.01102 -0.815797,-0.131602 -0.370002,-1.103806 -0.108176,-0.223931 -0.323149,-0.278363 -0.107487,-0.121956 -0.323838,-0.197748 -0.107487,-0.0689 -0.323838,-0.06546 -0.107487,-0.0186 -0.323149,-0.03032 -0.108176,-0.04341 -0.323149,0.08268 -0.108175,0.04823 -0.830956,0.07648 -0.354843,-0.648366 -0.107487,-0.172254 -0.323149,-0.290766 -0.108176,-0.03721 -0.449928,-0.09095 -0.304546,-0.140559 -0.108176,-0.02756 -0.395496,-0.139871 -0.358978,-0.326594 -0.107487,-0.167431 -0.323838,-0.389295 -0.107487,-0.126779 -0.323149,-0.172255 -0.108176,0.0055 -0.323149,0.09784 -0.108175,0.01654 -0.838535,0.352088 -0.347264,-0.429257 -0.107487,-0.02618 -0.432703,-0.415478 -0.321771,-1.662599 -0.108176,-0.261826 -0.323149,0.128157 z"
       transform="matrix(0.75000133,0,0,0.75000133,26.458196,5.269093)"
       sodipodi:nodetypes="cccccccccccccccccccccccccccccccccccccccsccccccccccccccccccccccccccccccccccccccccccccccccccccccccccccccccccccccccccccccccccc" /><path
       id="polygon4"
       clip-path="url(#clipPath2057)"
       style="fill:#00a0e1;fill-opacity:0.428571;stroke-width:0.721742;stroke-opacity:0.428571"
       d="m 14.997314,16.833851 -0.108176,0.108175 -0.323149,0.292144 -0.108176,0.09164 -0.323149,0.279741 -0.107487,0.08957 -0.323838,0.292144 -0.107487,0.09302 -0.323838,0.261138 -0.107487,0.08061 -0.323149,0.294899 -0.108176,0.111621 -0.323149,0.239089 -0.108175,0.09577 -0.32315,0.297655 -0.107486,0.117133 -0.323839,0.311436 -0.107486,0.128157 -0.323838,0.372759 -0.107487,0.165364 -0.323149,0.521586 -0.108176,0.150206 -0.323149,0.491958 -0.108176,0.155029 -0.3231492,0.497471 -0.1081757,0.221174 -0.3231492,0.567751 -0.1074867,0.237711 -0.3238382,0.63114 -0.1074867,0.588421 -0.3238382,1.196823 -0.1074867,0.201882 -0.3231492,1.019057 -0.1081758,0.192925 -0.3231491,0.87643 -0.1081758,0.149517 -0.3231491,0.43477 -0.1074868,0.147449 -0.3238381,0.249425 -0.1074868,0.128846 -0.3238382,0.416855 -0.1074867,0.108176 -0.3231492,0.294211 -0.1081757,0.14676 -0.4864463,0.735182 -0.2239307,-0.08199 c 3.2839645,5.362356 9.1960421,8.935867 15.9528211,8.935867 5.627498,0 10.66848,-2.47925 14.093851,-6.405795 l -0.338308,-1.632282 -0.107486,-0.130914 -0.323149,-0.631829 -0.108176,-0.159852 -0.323149,-0.589799 -0.108176,-0.144693 -0.323149,-0.447173 -0.107487,-0.12609 -0.323838,-0.387917 -0.107487,-0.128157 -0.323838,-0.397563 -0.107487,-0.13298 -0.323149,-0.418923 -0.108176,-0.135047 -0.323149,-0.430636 -0.108176,-0.148828 -0.323149,-0.426502 -0.108176,-0.155718 -0.323149,-0.407209 -0.107486,-0.138493 -0.323839,-0.378959 -0.107486,-0.131602 -0.323839,0.273539 -0.107486,0.214285 -0.323149,0.341753 -0.345198,0.410654 -0.194303,-0.03652 -0.323149,0.268028 -0.108176,-0.04961 -0.680749,0.979093 -0.50505,-0.33624 -0.107487,0.101285 -1.278816,1.00321 -0.445794,-1.704629 -0.323838,-1.235409 -0.107487,-0.394807 -0.323149,-1.315334 -0.108176,-0.70142 -0.323149,-1.105873 -0.108176,-0.09991 -0.323149,-0.977027 -0.108176,0.0503 -0.323149,0.187413 -0.107487,0.06408 -0.323838,0.16123 -0.107487,0.0627 -0.323838,0.169499 -0.494025,0.11231 -0.04479,-0.02274 -0.332106,0.239778 -0.711066,-0.219107 -0.142627,-0.08751 -0.107486,-0.05857 -0.323838,-0.239089 -0.107487,0.06477 -0.323149,0.150206 -0.108176,-0.0076 -0.323149,0.09991 -0.108176,-0.0021 -0.320393,0.06546 -0.434081,-0.06959 -0.594622,0.01516 -0.268028,-0.389295 -0.107487,-0.06615 -0.323149,-0.808217 -0.108176,-0.543635 -0.323149,-1.404906 -0.108175,-0.295589 -0.390673,-0.13987 -0.363802,-0.542946 -0.107486,-0.09026 -0.323838,-0.518141 -0.107487,-0.07166 -0.323149,-0.228065 -0.108176,0.06683 z"
       transform="matrix(0.75000133,0,0,0.75000133,26.458196,5.269093)"
       sodipodi:nodetypes="ccccccccccccccccccccccccccccccccccccccccccccccsccccccccccccccccccccccccccccccccccccccccccccccccccccccccccccccccccccccccccccc" /><path
       id="polygon5"
       clip-path="url(#clipPath2087)"
       style="fill:#00a0e1;fill-opacity:0.285714;stroke-width:0.721742;stroke-opacity:0.285714"
       d="m 18.986036,14.172865 -0.108176,0.106109 -0.323149,0.388606 -0.108176,0.279052 -0.323149,0.562238 -0.108176,0.177078 -0.323149,0.521586 -0.107487,0.180522 -0.323838,0.46991 -0.107487,0.168121 -0.323838,0.304545 -0.107487,0.101286 -0.323149,0.611158 -0.108176,0.122645 -0.409965,0.693152 -0.344509,0.229443 -0.107486,0.125401 -0.323839,0.500227 -0.107486,0.123334 -0.323838,0.505049 -0.107487,0.141249 -0.323149,0.491958 -0.108176,0.168121 -0.323149,1.136189 -0.108176,0.263205 -0.323149,0.485757 -0.108176,0.22462 -0.323149,0.334863 -0.107487,0.13298 -0.323838,0.363112 -0.107487,0.132291 -0.323838,0.485758 -0.107487,0.141248 -0.323149,0.875741 -0.108176,0.226687 -0.323149,0.567062 -0.108175,0.215662 -0.32315,0.464398 -0.107486,0.172943 -0.323839,0.451996 -0.107486,0.173632 -0.3238385,0.51194 -0.1074867,0.18259 -0.3238382,0.522964 -0.1074867,0.177766 -0.3231492,0.580153 -0.1081757,0.183279 -0.3231492,0.589799 -0.1081757,0.204638 -0.3231492,0.58911 -0.1074867,0.16123 -0.3238382,0.431325 -0.1074867,0.133669 -0.3238382,0.360356 -0.1074867,0.108176 -0.3231492,0.333484 -0.1081757,0.07648 -0.00965,0.0069 c 3.4274648,4.053061 8.5506138,6.624903 14.2819538,6.624903 6.360191,0 11.971298,-3.167068 15.347174,-8.011206 l -0.190169,-0.06408 -0.107487,-0.04961 -0.323149,-0.132291 -0.108176,-0.05305 -0.323149,-0.198437 -0.108176,-0.07097 -0.429257,-0.435459 -0.325217,-0.721401 -0.107486,-0.18259 -0.323839,-0.405831 -0.107486,-0.139871 -0.323839,-0.367246 -0.107486,-0.14056 -0.323149,-0.361045 -0.108176,-0.132291 -0.323149,-0.418234 -0.108176,-0.106797 -0.323149,-0.342442 -0.107487,-0.124023 -0.323838,-0.363801 -0.107487,-0.124713 -0.323838,-0.372758 -0.107487,-0.123334 -0.323149,-0.418923 -0.108176,-0.129535 -0.323149,-0.420301 -0.108176,-0.137114 -0.323149,-0.416856 -0.108176,-0.137114 -0.323149,-0.317637 -0.107486,-0.13367 -0.323839,-0.390672 -0.107486,-0.124024 -0.323839,-0.393428 -0.107486,-0.125402 -0.323149,-0.367935 -0.108176,-0.130913 -0.323149,-0.413411 -0.108176,-0.148828 -0.323149,-0.500226 -0.108176,-0.15434 -0.323149,-0.48369 -0.107487,-0.139871 -0.323838,-0.485757 -0.107487,-0.149517 -0.323838,-0.370002 -0.107487,-0.152273 -0.323149,-0.377582 -0.108176,-0.130913 -0.323149,-0.509184 -0.108175,-0.137803 -0.32315,-0.454752 -0.107486,-0.126779 -0.323839,-0.443038 -0.107486,-0.127468 -0.323838,-0.432014 -0.107487,-0.145383 -0.323149,-0.394118 -0.108176,-0.179145 -0.323149,-0.361734 -0.108176,-0.181211 -0.323149,0.0248 -0.108176,-0.156407 -0.323149,-0.02894 -0.107487,-0.01723 -0.323838,-0.06959 -0.107487,-0.03445 -0.421678,-0.117133 -0.332796,-0.264583 -0.108176,-0.06339 -0.323149,-0.197059 -0.108175,-0.04961 -0.32315,-0.0751 -0.107486,-0.03032 -0.323839,-0.137803 -0.107486,-0.03032 -0.323838,-0.119889 -0.107487,-0.05443 z"
       transform="matrix(0.75000133,0,0,0.75000133,26.458196,5.269093)"
       sodipodi:nodetypes="ccccccccccccccccccccccccccccccccccccccccccccccccccccccccccscccccccccccccccccccccccccccccccccccccccccccccccccccccccccccccccccccccccccccccccc" /><path
       id="polygon6"
       clip-path="url(#clipPath2117)"
       style="fill:#00a0e1;fill-opacity:0.142857;stroke-width:0.721742;stroke-opacity:0.142857"
       d="m 14.889138,23.121824 -0.323149,0.43477 -0.108176,0.146071 -0.323149,0.435459 -0.107487,0.137804 -0.323838,0.414099 -0.107487,0.09646 -0.323838,0.326594 -0.107487,0.08819 -0.323149,0.274918 -0.108176,0.08819 -0.323149,0.254936 -0.108175,0.08475 -0.32315,0.232199 -0.107486,0.08957 -0.323839,0.243223 -0.107486,0.106798 -0.323838,0.279052 -0.107487,0.104042 -0.323838,0.334173 -0.107487,0.113688 -0.323149,0.359667 -0.108176,0.1192 -0.3231492,0.342442 -0.1081757,0.200504 -0.3231492,0.506428 -0.1074867,0.195681 -0.3238382,0.51194 -0.1074867,0.128157 -0.3238382,0.415477 -0.1074867,0.106109 -0.3231492,0.425813 -0.1081758,0.103353 -0.3231491,0.37138 -0.1081758,0.115066 -0.3231491,0.368624 -0.1074868,0.118511 -0.3238381,0.283186 -0.1074868,0.09577 -0.3238382,0.295588 -0.073725,0.06477 c 3.418111,4.404121 8.7629173,7.236061 14.7773573,7.236061 6.749231,0 12.655636,-3.56558 15.941796,-8.917953 l -0.02963,-0.04547 -0.108176,-0.141248 -0.323149,-0.724847 -0.108176,-0.118511 -0.323149,-0.397563 -0.108176,-0.106797 -0.323149,-0.332107 -0.107486,-0.03996 -0.323839,-0.336929 -0.107486,-0.0627 -0.323839,-0.327972 -0.107486,-0.0944 -0.323149,-0.423745 -0.108176,-0.04823 -0.323149,-0.268716 -0.108176,-0.06477 -0.323149,-0.240467 -0.107487,-0.05374 -0.323838,-0.125401 -0.107487,-0.03927 -0.323838,-0.09922 -0.107487,-0.07372 -0.327283,-0.05926 -0.427191,-0.431324 -0.108176,-0.0124 -0.323149,-0.09508 -0.108176,0.05512 -0.323149,0.121956 -0.107486,0.04548 -0.323839,0.167432 -0.107486,0.01791 -0.323839,0.08957 -0.107486,0.03169 -0.323149,0.09026 -0.108176,0.02549 -0.323149,0.07648 -0.108176,0.02618 -0.323149,0.07097 -0.108176,0.02343 -0.323149,0.08199 -0.107487,0.02067 -0.323838,0.08475 -0.107487,0.0186 -0.323838,0.08613 -0.107487,0.02825 -0.323149,0.08819 -0.108176,0.03445 -0.323149,0.09164 -0.108175,0.03927 -0.32315,0.08199 -0.107486,0.07028 -0.323839,0.05926 -0.107486,0.09577 -0.323838,0.347954 -0.107487,0.117133 -0.323149,0.373448 -0.108176,0.09991 -0.323149,0.379649 -0.108176,0.101285 -0.323149,0.332796 -0.108176,0.103352 -0.290076,0.25287 -0.411344,0.212217 -0.484379,0.08337 -0.107487,-0.0069 -0.367246,-0.01378 -0.387228,-0.378271 -0.108175,-0.03927 -0.32315,-0.307302 -0.107486,-0.03514 -0.323839,-0.300411 -0.107486,-0.07993 -0.323838,-0.211528 -0.107487,-0.0186 -0.323149,-0.258381 -0.108176,-0.167432 -0.323149,-0.300411 -0.108176,0.01791 -0.323149,-0.03858 -0.108176,-0.03652 -0.323149,-0.117133 -0.107487,-0.07786 -0.323838,-0.09853 -0.107487,-0.07579 -0.316259,-0.06132 -0.438215,-0.619426 -0.108176,-0.201882 -0.323149,-0.465776 -0.108175,-0.159852 -0.32315,-0.340375 -0.107486,-0.126779 -0.323839,-0.408587 -0.107486,-0.122646 -0.323838,-0.453373 -0.107487,-0.255625 -0.323149,-0.735182 -0.108176,-0.14745 -0.323149,-0.444416 z"
       transform="matrix(0.75000133,0,0,0.75000133,26.458196,5.269093)"
       sodipodi:nodetypes="cccccccccccccccccccccccccccccccccccccccccscccccccccccccccccccccccccccccccccccccccccccccccccccccccccccccccccccccccccccccccccccccccccccccccccccc" /><path
       id="polygon7"
       clip-path="url(#clipPath2132)"
       style="fill:#00a0e1;fill-opacity:0;stroke-width:0.721742;stroke-opacity:0"
       d="m 9.9302795,27.344123 -0.1074867,0.04754 -0.3231492,-0.0124 -0.1081757,0.09646 -0.3231492,0.382405 -0.1081757,0.137114 -0.3231492,0.345887 -0.1081757,0.11231 -0.3231492,0.305923 -0.1074867,0.08544 -0.3238382,0.292143 -0.1074867,0.09302 -0.3238382,0.225998 -0.1074867,0.08957 -0.3231492,0.21773 -0.1081757,0.09233 -0.3231492,0.249424 -0.1081758,0.06752 -0.3231491,0.202571 -0.1074868,0.07786 -0.3238381,0.164675 -0.1074868,0.05995 -0.3238382,0.152962 -0.050298,0.0248 c 3.2865161,5.350744 9.1917297,8.915197 15.9397297,8.915197 4.763705,0 9.106655,-1.776898 12.405758,-4.703922 l -0.266649,-0.421679 -0.108176,-0.0627 -0.323149,-0.499538 -0.108176,-0.01585 -0.323149,-0.08751 -0.107487,-0.0076 -0.323838,-0.0248 -0.107487,-0.0069 -0.323838,-0.02412 -0.107487,-0.01033 -0.323838,-0.01378 -0.107487,-0.01171 -0.323149,-0.0055 -0.108176,-0.0041 -0.323149,-0.0055 -0.108176,-0.0048 -0.323149,-0.01723 -0.107486,-0.009 -0.323839,-0.03101 -0.107486,-0.009 -0.323839,-0.03101 -0.107486,-0.0041 -0.323149,-0.0041 -0.108176,-0.0014 -0.323149,-0.0055 -0.108176,-0.0021 -0.323149,-0.0014 -0.108176,-0.0021 -0.323149,-0.0055 -0.107487,-0.0062 -0.323838,-0.02894 -0.107487,-0.009 -0.323838,-0.04272 -0.107487,-0.01447 -0.323149,-0.06821 -0.108176,-0.02205 -0.323149,-0.07441 -0.108175,-0.02549 -0.32315,-0.08337 -0.107486,-0.02687 -0.323839,-0.08888 -0.107486,-0.03514 -0.323838,-0.09439 -0.107487,-0.03307 -0.323149,-0.09233 -0.108176,-0.02343 -0.323149,-0.05788 -0.108176,-0.01998 -0.323149,-0.05305 -0.108176,-0.0186 -0.323149,-0.04892 -0.107487,-0.01309 -0.323838,-0.03858 -0.107487,-0.0124 -0.323838,-0.0503 -0.107487,-0.0124 -0.323149,-0.04892 -0.108176,-0.01998 -0.323149,-0.04685 -0.108175,-0.02343 -0.32315,-0.05443 -0.107486,-0.0124 -0.323839,-0.02825 -0.107486,0.0034 -0.323838,-0.02618 -0.107487,-0.0083 -0.323149,-0.03376 -0.108176,-0.0076 -0.323149,-0.01791 -0.108176,-0.0076 -0.323149,-0.03721 -0.108176,-0.01585 -0.323149,-0.05581 -0.107487,-0.02205 -0.323838,-0.07441 -0.107487,-0.02687 -0.323838,-0.129535 -0.107487,-0.04685 -0.323149,-0.176389 -0.108176,-0.07372 -0.323149,-0.275607 -0.108175,-0.117822 -0.32315,-0.271473 -0.107486,-0.08268 -0.323839,-0.25976 -0.107486,-0.09302 -0.323838,-0.256315 -0.107487,-0.09095 -0.323149,-0.237711 -0.108176,-0.09646 -0.323149,-0.277674 -0.108176,-0.0751 -0.323149,-0.200505 -0.108176,-0.07786 -0.323149,-0.222553 -0.107487,-0.07441 -0.323838,-0.207394 -0.107487,-0.07166 -0.323838,-0.198437 -0.107487,-0.0751 -0.323149,-0.174321 -0.108176,-0.06201 -0.323149,-0.169498 -0.108175,-0.05306 -0.32315,-0.169498 -0.108175,-0.05581 -0.32315,-0.146072 -0.107486,-0.07717 z"
       transform="matrix(0.75000133,0,0,0.75000133,26.458196,5.269093)"
       sodipodi:nodetypes="ccccccccccccccccccccccccscccccccccccccccccccccccccccccccccccccccccccccccccccccccccccccccccccccccccccccccccccccccccccccccccccccccccccccc" /><rect
       style="fill:url(#radialGradient4296);fill-opacity:1;fill-rule:evenodd;stroke:none;stroke-width:3.25882;stroke-linecap:square;stroke-dasharray:none;stroke-dashoffset:0;stroke-opacity:1"
       id="rect2221"
       width="31.614777"
       height="31.614777"
       x="26.458197"
       y="5.269093" /><path
       style="color:#000000;fill:#019ee1;fill-rule:evenodd;stroke-width:0.999999;stroke-linecap:square;-inkscape-stroke:none"
       d="m 42.265506,5.7680526 c -8.446926,0 -15.30835,6.8614244 -15.30835,15.3083504 0,8.446926 6.861424,15.30835 15.30835,15.30835 8.446926,0 15.30835,-6.861424 15.30835,-15.30835 0,-8.446926 -6.861424,-15.3083504 -15.30835,-15.3083504 z m 0,1.2877731 c 7.750985,0 14.020577,6.2695923 14.020577,14.0205773 0,7.750985 -6.269592,14.020577 -14.020577,14.020577 -7.750985,0 -14.020577,-6.269592 -14.020577,-14.020577 0,-7.750985 6.269592,-14.0205773 14.020577,-14.0205773 z"
       id="path307" /><path
       id="path1226"
       style="font-weight:bold;font-size:246.203px;line-height:1.25;font-family:'Avenir Next LT Pro';-inkscape-font-specification:'Avenir Next LT Pro, Bold';stroke-width:4.41509"
       d="m 98.614928,11.277227 v 15.953298 h 3.460802 v -5.676503 c 0,-1.245038 0.67528,-2.236851 1.8781,-2.236851 1.24504,0 1.54045,1.03402 1.54045,2.215744 v 5.69761 h 3.48187 V 20.73103 c 0,-0.475761 -0.051,-0.955633 -0.16176,-1.413859 h 1.28491 v 4.431491 c 0,2.23683 0.9285,3.735087 3.73509,3.735087 0.73857,0 1.54048,-0.147726 2.00473,-0.316543 l -0.0422,-2.532281 c -0.25322,0.105513 -0.67531,0.168842 -1.01294,0.168842 -0.9918,0 -1.30833,-0.506477 -1.30833,-1.477178 v -4.009418 h 2.36184 l 3.28745,7.744506 -0.33761,0.865204 c -0.33763,0.907395 -0.6964,1.413859 -1.77261,1.413859 -0.33764,0 -0.78079,-0.08439 -1.11842,-0.189907 l -0.37982,2.912106 c 0.50645,0.126609 1.24503,0.232114 1.89921,0.232114 2.63776,0 3.77731,-1.287239 4.6214,-3.481862 l 4.70577,-12.091578 h -3.67178 l -2.0891,6.752717 h -0.0633 l -2.34239,-6.752717 h -2.63164 -1.20893 -1.26005 v -2.764405 h -3.39744 v 2.764405 h -1.66708 v 1.51997 c -0.56666,-1.055297 -1.59941,-1.815406 -3.27558,-1.815406 -1.45605,0 -2.55339,0.780791 -3.01763,1.624876 h -0.0421 v -6.773826 z m -15.385456,0.189907 c -1.118413,0 -1.983623,0.886312 -1.983623,1.899204 0,1.034011 0.86521,1.899202 1.983623,1.899202 1.097316,0 1.983626,-0.822985 1.983626,-1.899202 0,-1.055098 -0.88631,-1.899204 -1.983626,-1.899204 z m 49.788328,0.329481 c -2.21092,0 -4.80452,1.233009 -4.80452,4.145469 0,2.721131 2.04085,3.592769 4.03919,4.209274 1.9133,0.595251 3.6778,1.126695 3.6778,3.231318 0,1.93455 -1.78576,2.91246 -3.33765,2.91246 -1.57318,0 -2.78492,-0.82907 -3.44395,-1.892018 l -1.31801,0.977912 c 1.0842,1.488117 2.91245,2.232165 4.74072,2.232165 2.38099,0 4.9108,-1.31804 4.9108,-4.336805 0,-3.018752 -2.33849,-3.699024 -4.46438,-4.400565 -1.67944,-0.552733 -3.27388,-1.041684 -3.27388,-2.954981 0,-1.934557 1.722,-2.827454 3.21013,-2.827454 1.42434,0 2.46602,0.595267 3.10379,1.509395 l 1.21172,-0.977914 c -0.72279,-0.977912 -2.23216,-1.828256 -4.25176,-1.828256 z m -69.878705,0.493509 v 14.940401 h 3.39744 l -0.08438,-10.57223 h 0.06332 l 3.777258,10.57223 h 2.532283 l 3.88283,-10.57223 h 0.06328 l -0.08437,10.57223 h 3.524076 V 12.290124 H 74.99856 l -3.249744,9.58044 h -0.08442 l -3.39744,-9.58044 z m 27.758317,4.136053 c -3.165325,0 -5.001211,2.595557 -5.001211,5.507658 0,2.912117 1.835886,5.402173 5.022317,5.402173 1.392743,0 2.532262,-0.548677 3.186433,-1.392754 h 0.06332 v 0.633086 c 0,1.751491 -0.949608,2.933202 -2.975414,2.933202 -1.181725,0 -2.46896,-0.443137 -3.481867,-1.329437 l -1.730358,2.46897 c 1.413849,1.0551 3.566288,1.645978 5.402177,1.645978 3.735082,0 6.182954,-1.941455 6.182954,-6.056362 v -9.517078 h -3.270857 v 1.350545 h -0.04221 c -0.738573,-1.118417 -2.046938,-1.645981 -3.355275,-1.645981 z m -9.398343,0.295436 v 10.508912 h 3.46081 V 16.721613 Z m 63.763821,0.304672 c -3.2101,0 -5.31473,2.232176 -5.31473,5.229671 0,2.997493 2.10463,5.229711 5.31473,5.229711 1.72202,0 2.93385,-0.680287 3.78427,-1.721966 l -1.08429,-0.807865 c -0.57401,0.765316 -1.44569,1.296821 -2.69998,1.296821 -2.31723,0 -3.78409,-1.743267 -3.78409,-3.996701 0,-2.274695 1.48816,-4.017899 3.80538,-4.017899 1.0842,0 2.08345,0.552697 2.55116,1.318015 l 1.12678,-0.807822 c -0.85039,-1.147977 -2.35991,-1.721965 -3.69923,-1.721965 z m 9.80049,0 c -1.70069,0 -3.10376,0.616503 -3.9116,1.424346 l 0.80782,0.956627 c 0.70154,-0.701539 1.78574,-1.169201 2.95498,-1.169201 1.72196,0 2.65736,0.850338 2.65736,2.572309 v 0.318863 c -3.63528,0 -7.0154,0.276378 -7.0154,3.337651 0,2.210916 1.93456,3.018787 3.44393,3.018787 1.5944,0 2.69985,-0.552727 3.61399,-1.870779 h 0.0425 c 0,0.531465 0.0637,1.126679 0.1488,1.615637 h 1.29677 c -0.10628,-0.552729 -0.17003,-1.466848 -0.17003,-2.232167 V 20.64032 c 0,-2.423518 -1.72199,-3.614035 -3.86914,-3.614035 z m 12.84042,0 c -1.42434,0 -2.9125,0.680283 -3.74161,1.977068 h -0.0637 v -1.72197 h -1.44557 v 15.051284 h 1.44557 V 25.55108 h 0.0637 c 0.82911,1.233006 2.31727,1.934587 3.74161,1.934587 3.10379,0 5.14462,-2.295993 5.14462,-5.229711 0,-2.933723 -2.04083,-5.229671 -5.14462,-5.229671 z m 12.5427,0 c -2.82744,0 -5.01706,2.232176 -5.01706,5.229671 0,2.997493 2.18964,5.229711 5.14462,5.229711 1.63693,0 3.1038,-0.61652 4.27305,-2.104637 l -1.08422,-0.850344 c -0.55271,0.892871 -1.70071,1.721971 -3.18883,1.721971 -2.04085,0 -3.59275,-1.615707 -3.63527,-3.614035 h 8.24846 c 0.0212,-0.255108 0.0212,-0.488961 0.0212,-0.680291 0,-2.721133 -1.63694,-4.932046 -4.76198,-4.932046 z m -12.69155,1.211772 c 2.40225,0 3.76283,1.806976 3.76283,4.017899 0,2.210919 -1.36058,3.996701 -3.76283,3.996701 -2.23218,0 -3.82659,-1.722007 -3.82659,-3.996701 0,-2.274695 1.59441,-4.017899 3.82659,-4.017899 z m 12.69154,0 c 2.0621,0 3.21009,1.381822 3.29513,3.252601 h -6.78156 c 0.12756,-1.700713 1.55187,-3.252601 3.48643,-3.252601 z m -88.726085,1.015796 c 1.561559,0 2.553388,1.223931 2.553388,2.658877 0,1.434944 -0.970727,2.679982 -2.553388,2.679982 -1.561566,0 -2.468971,-1.287233 -2.468971,-2.679982 0,-1.456051 0.907405,-2.658877 2.468971,-2.658877 z m 65.426365,3.002103 h 0.42515 v 0.744053 c 0,1.764489 -1.14794,3.295127 -3.18879,3.295127 -1.1267,0 -2.3385,-0.467678 -2.3385,-1.892018 0,-1.892039 2.74242,-2.147162 5.10214,-2.147162 z" /></g></svg>
