<?xml version="1.0" encoding="UTF-8" standalone="no"?>
<svg
   width="70"
   height="60"
   viewBox="0 0 70 60"
   version="1.1"
   id="svg1"
   sodipodi:docname="org.ekips.filter.gears.svg"
   inkscape:version="1.4-dev (de72ba3c18, 2023-06-27, custom)"
   xmlns:inkscape="http://www.inkscape.org/namespaces/inkscape"
   xmlns:sodipodi="http://sodipodi.sourceforge.net/DTD/sodipodi-0.dtd"
   xmlns="http://www.w3.org/2000/svg"
   xmlns:svg="http://www.w3.org/2000/svg">
  <sodipodi:namedview
     id="namedview1"
     pagecolor="#ffffff"
     bordercolor="#000000"
     borderopacity="0.25"
     inkscape:showpageshadow="2"
     inkscape:pageopacity="0.0"
     inkscape:pagecheckerboard="0"
     inkscape:deskcolor="#d1d1d1"
     showgrid="true"
     inkscape:zoom="2.4483215"
     inkscape:cx="142.54664"
     inkscape:cy="42.069638"
     inkscape:current-layer="layer1">
    <inkscape:grid
       id="grid1"
       units="px"
       originx="0"
       originy="0"
       spacingx="1"
       spacingy="1"
       empcolor="#0099e5"
       empopacity="0.30196078"
       color="#3f84a6"
       opacity="0.14901961"
       empspacing="5"
       dotted="false"
       gridanglex="30"
       gridanglez="30"
       visible="true" />
  </sodipodi:namedview>
  <defs
     id="defs1" />
  <g
     inkscape:label="org.ekips.filter.gears"
     inkscape:groupmode="layer"
     id="layer1">
    <path
       id="path3428"
       style="fill:#f0f0f0;stroke:#000000;stroke-width:0.999998;fill-rule:evenodd"
       d="m 38.082235,30.00017 a 3.082334,3.082366 0 0 1 -3.082334,3.082366 3.082334,3.082366 0 0 1 -3.082334,-3.082366 3.082334,3.082366 0 0 1 3.082334,-3.082366 3.082334,3.082366 0 0 1 3.082334,3.082366 z m 18.433034,-1.732601 0.540457,-0.04352 1.441053,0.236038 2.003024,0.838111 v 1.403944 l -2.003024,0.838111 -1.441053,0.236038 -0.540457,-0.04352 -0.284684,2.162492 0.533305,0.09784 1.33086,0.600969 1.717846,1.327975 -0.363345,1.356118 -2.151716,0.29113 -1.453043,-0.144995 -0.510774,-0.181921 -0.834665,2.015127 0.489814,0.232534 1.129953,0.924957 1.315632,1.727357 -0.70197,1.21584 -2.15372,-0.275718 -1.365998,-0.516111 -0.446291,-0.307929 -1.327777,1.730441 0.41291,0.351389 0.85208,1.185879 0.823754,2.008994 -0.992758,0.992768 -2.008973,-0.823762 -1.185867,-0.852089 -0.351386,-0.412914 -1.730422,1.327791 0.307925,0.446295 0.516106,1.366013 0.275715,2.153741 -1.215827,0.701978 -1.72734,-1.315646 -0.924946,-1.129965 -0.232532,-0.489818 -2.015106,0.834673 0.181919,0.510779 0.144993,1.453058 -0.291126,2.151739 -1.356104,0.363349 -1.327962,-1.717864 -0.600963,-1.330874 -0.09783,-0.533311 -2.16247,0.284688 0.04352,0.540462 -0.236035,1.441068 -0.838102,2.003044 h -1.40393 l -0.838102,-2.003044 -0.236035,-1.441068 0.04352,-0.540462 -2.16247,-0.284688 -0.09783,0.533311 -0.600963,1.330874 -1.327962,1.717864 -1.356104,-0.363349 -0.291126,-2.151739 0.144993,-1.453058 0.181919,-0.510779 -2.015106,-0.834673 -0.232532,0.489818 -0.924946,1.129965 -1.72734,1.315646 -1.215827,-0.701978 0.275715,-2.153741 0.516106,-1.366013 0.307925,-0.446295 -1.730422,-1.327791 -0.351386,0.412914 -1.185867,0.852089 -2.008973,0.823762 -0.992758,-0.992768 0.823754,-2.008994 0.85208,-1.185879 0.41291,-0.351389 -1.327777,-1.730441 -0.446291,0.307929 -1.365998,0.516111 -2.15372,0.275718 -0.70197,-1.21584 1.315632,-1.727357 1.129953,-0.924957 0.489814,-0.232534 -0.834665,-2.015127 -0.510774,0.181921 -1.453043,0.144995 -2.151716,-0.29113 -0.363345,-1.356118 1.717846,-1.327975 1.33086,-0.600969 0.533305,-0.09784 -0.284684,-2.162492 -0.540457,0.04352 -1.441053,-0.236038 -2.0030236,-0.838111 v -1.403944 l 2.0030236,-0.838111 1.441053,-0.236038 0.540457,0.04352 0.284684,-2.162492 -0.533305,-0.09783 -1.33086,-0.600969 -1.717846,-1.327975 0.363345,-1.356118 2.151716,-0.29113 1.453043,0.144995 0.510774,0.181921 0.834665,-2.015127 -0.489814,-0.232534 -1.129953,-0.924957 -1.315632,-1.727357 0.70197,-1.21584 2.15372,0.275718 1.365998,0.516111 0.446291,0.307929 1.327777,-1.730441 -0.41291,-0.351389 -0.85208,-1.185879 -0.823754,-2.008994 0.992758,-0.992768 2.008973,0.823762 1.185867,0.852089 0.351386,0.412914 1.730422,-1.327791 -0.307925,-0.446295 -0.516106,-1.366013 -0.275715,-2.1537411 1.215827,-0.7019781 1.72734,1.3156463 0.924946,1.1299649 0.232532,0.489818 2.015106,-0.8346734 -0.181919,-0.5107789 -0.144993,-1.4530582 0.291126,-2.151738 1.356104,-0.3633493 1.327962,1.7178642 0.600963,1.3308732 0.09783,0.5333109 2.16247,-0.2846873 -0.04352,-0.5404621 0.236035,-1.4410677 0.838102,-2.0030447 h 1.40393 l 0.838102,2.0030447 0.236035,1.4410677 -0.04352,0.5404621 2.16247,0.2846873 0.09783,-0.5333109 0.600963,-1.3308732 1.327962,-1.7178642 1.356104,0.3633493 0.291126,2.151738 -0.144993,1.4530582 -0.181919,0.5107789 2.015106,0.8346734 0.232532,-0.489818 0.924946,-1.1299649 1.72734,-1.3156463 1.215827,0.7019781 -0.275715,2.1537411 -0.516106,1.366013 -0.307925,0.446295 1.730422,1.327791 0.351386,-0.412914 1.185867,-0.852089 2.008973,-0.823762 0.992758,0.992768 -0.823754,2.008994 -0.85208,1.185879 -0.41291,0.351389 1.327777,1.730441 0.446291,-0.307929 1.365998,-0.516111 2.15372,-0.275718 0.70197,1.21584 -1.315632,1.727357 -1.129953,0.924957 -0.489814,0.232534 0.834665,2.015127 0.510774,-0.181921 1.453043,-0.144995 2.151716,0.29113 0.363345,1.356118 -1.717846,1.327975 -1.33086,0.600969 -0.533305,0.09783 z" />
  </g>
</svg>
