<?xml version="1.0" encoding="UTF-8" standalone="no"?>
<!-- Created with Inkscape (http://www.inkscape.org/) -->

<svg
   width="100.0px"
   height="100.0px"
   viewBox="0 0 100.0 100.0"
   version="1.1"
   id="svg2051"
   inkscape:version="1.4.2 (1:1.4.2+202505120737+ebf0e940d0)"
   sodipodi:docname="icon.svg"
   xml:space="preserve"
   inkscape:export-filename="icon.png"
   inkscape:export-xdpi="96"
   inkscape:export-ydpi="96"
   xmlns:inkscape="http://www.inkscape.org/namespaces/inkscape"
   xmlns:sodipodi="http://sodipodi.sourceforge.net/DTD/sodipodi-0.dtd"
   xmlns="http://www.w3.org/2000/svg"
   xmlns:svg="http://www.w3.org/2000/svg"
   xmlns:rdf="http://www.w3.org/1999/02/22-rdf-syntax-ns#"
   xmlns:cc="http://creativecommons.org/ns#"><sodipodi:namedview
     id="namedview2053"
     pagecolor="#ffffff"
     bordercolor="#666666"
     borderopacity="1.0"
     inkscape:pageshadow="2"
     inkscape:pageopacity="0.0"
     inkscape:pagecheckerboard="false"
     inkscape:document-units="px"
     showgrid="false"
     inkscape:showpageshadow="false"
     inkscape:snap-tangential="true"
     inkscape:snap-perpendicular="true"
     inkscape:deskcolor="#ffffff"
     inkscape:lockguides="true"
     inkscape:zoom="2"
     inkscape:cx="-136"
     inkscape:cy="114"
     inkscape:window-width="1920"
     inkscape:window-height="1008"
     inkscape:window-x="0"
     inkscape:window-y="0"
     inkscape:window-maximized="1"
     inkscape:current-layer="layer1"
     inkscape:export-bgcolor="#ffffffff" /><defs
     id="defs2048" /><g
     inkscape:label="Layer 1"
     inkscape:groupmode="layer"
     id="layer1"
     transform="scale(3.77953, 3.77953)"><path
       id="path18"
       style="fill:#000000;stroke-width:0.0884788"
       d="M 7.82329,2.0709287 C 7.0613098,2.0813668 6.6807249,2.336451 6.6807249,2.8357394 v 0.8686803 c 0,0.3287997 -0.294104,0.4935096 -0.8821162,0.4935096 v 0.4041094 c 0.5880122,0 0.8821162,0.1647099 0.8821162,0.4935096 v 0.8712641 c 0,0.4992884 0.3805849,0.7543726 1.1425651,0.7648107 V 6.339916 C 7.572776,6.3364367 7.3992973,6.3016376 7.3018752,6.2355297 7.204453,6.1711615 7.155631,6.0689693 7.155631,5.9280551 V 5.0640257 c 0,-0.3601139 -0.2028856,-0.5756616 -0.6082313,-0.6469885 V 4.3855146 C 6.9527454,4.3141877 7.155631,4.09864 7.155631,3.7385261 V 2.8719129 c 0,-0.1409142 0.048822,-0.2436232 0.1462442,-0.3079914 C 7.3992973,2.4978137 7.572776,2.4630146 7.82329,2.4595352 Z m 10.808636,0 v 0.3886065 c 0.248774,0.00174 0.421925,0.035695 0.519347,0.1018025 0.09916,0.066108 0.148828,0.169661 0.148828,0.3105752 v 0.8666132 c 0,0.3601139 0.20373,0.5756616 0.610816,0.6469885 v 0.031523 c -0.407086,0.071327 -0.610816,0.2868742 -0.610816,0.6469881 v 0.8640294 c 0,0.1409142 -0.04967,0.2439505 -0.148828,0.3100584 -0.09742,0.066108 -0.270573,0.1000628 -0.519347,0.1018025 v 0.3917071 c 0.76372,-0.010438 1.145665,-0.2655223 1.145665,-0.7648107 V 5.0955483 c 0,-0.3287997 0.294104,-0.4935096 0.882117,-0.4935096 V 4.1979293 c -0.588013,0 -0.882117,-0.1647099 -0.882117,-0.4935096 V 2.8357394 c 0,-0.4992884 -0.381945,-0.7543726 -1.145665,-0.7648107 z M 10.020571,5.100716 c -0.2626923,0 -0.3937746,0.1442612 -0.3937746,0.4330482 0,0.288787 0.1310823,0.4330482 0.3937746,0.4330482 0.264431,0 0.396874,-0.1442612 0.396874,-0.4330482 0,-0.288787 -0.132443,-0.4330482 -0.396874,-0.4330482 z m 3.207037,0 c -0.262692,0 -0.393774,0.1442612 -0.393774,0.4330482 0,0.288787 0.131082,0.4330482 0.393774,0.4330482 0.264431,0 0.396875,-0.1442612 0.396875,-0.4330482 0,-0.288787 -0.132444,-0.4330482 -0.396875,-0.4330482 z m 3.207554,0 c -0.262692,0 -0.394291,0.1442612 -0.394291,0.4330482 0,0.288787 0.131599,0.4330482 0.394291,0.4330482 0.264431,0 0.396358,-0.1442612 0.396358,-0.4330482 0,-0.288787 -0.131927,-0.4330482 -0.396358,-0.4330482 z M 9.4753845,7.6783347 C 8.8230814,7.6792669 8.1682277,7.749891 7.5680086,7.8907247 6.8119436,8.0681267 6.4003412,8.2197257 5.6663171,8.5904232 5.1499851,8.8511895 5.0755209,8.8949389 4.7878184,9.1056369 3.4247088,10.103925 2.3782493,11.445735 1.9456164,12.749856 c -0.2240905,0.675508 -0.2667441,1.309173 -0.1307413,1.932697 0.050554,0.230156 0.072811,0.290383 0.2340941,0.610815 0.1916904,0.380803 0.305859,0.549127 0.5301999,0.781348 0.4048897,0.419093 0.9876905,0.698735 1.7172067,0.824238 0.8417075,0.144806 1.0141184,0.189166 1.2485018,0.321427 0.2617335,0.147711 0.3582742,0.254533 0.5177975,0.570508 0.265387,0.525665 0.2286023,0.812636 -0.2201414,1.71979 -0.3787088,0.765565 -0.5360089,1.333548 -0.5022946,1.815392 0.041329,0.590389 0.2876748,1.213037 0.6573238,1.66398 0.4251907,0.518695 0.9188709,0.839889 1.6820667,1.094506 0.9774762,0.326109 2.0798096,0.388316 3.3543154,0.189136 0.562217,-0.08786 1.062936,-0.220277 1.683617,-0.444417 0.145687,-0.0526 1.219063,-0.621921 1.364773,-0.723986 0.44859,-0.314214 0.8468,-0.636366 1.203027,-0.974617 0.837176,0.482009 1.904299,0.281571 2.502688,-0.517798 0.700864,-0.93635 1.679604,-2.436033 1.944583,-3.873146 0.120023,-0.409578 0.143022,-0.816748 0.08527,-1.203026 l 4.449338,-4.684466 C 24.937375,11.146649 24.855059,10.017654 24.089987,9.416212 23.419736,8.889286 22.45855,8.9591364 21.871519,9.5774424 L 17.639222,14.034015 C 17.503693,13.480986 17.321577,12.950983 17.121941,12.555553 16.5482,11.419114 14.845885,8.7052947 11.367774,7.8855571 10.777425,7.7464235 10.127687,7.6774026 9.4753845,7.6783347 Z M 9.2924501,8.3645973 c 0.8800679,-0.021043 1.7489769,0.1101324 2.6086249,0.3932574 2.819668,0.928684 4.423894,3.0646993 5.015711,5.3200853 -0.247202,0.0011 -0.499723,0.03428 -0.753442,0.102319 -0.207628,0.0557 -0.408412,0.107149 -0.597896,0.153996 -0.612219,0.151371 -1.093636,0.352526 -1.512568,0.527616 l -0.0088,0.0036 c -0.797025,0.333113 -1.399952,0.585023 -2.556948,0.425813 -0.448079,-0.06173 -0.939324,0.305873 -0.853694,0.853695 0.200352,1.282287 0.972823,2.476419 1.831411,3.460768 0.808671,0.926997 1.735907,1.715164 2.46083,2.272211 -0.06658,-0.05105 -0.134947,-0.104218 -0.204638,-0.159163 -0.396621,0.367902 -0.836368,0.699321 -1.319299,0.993737 -0.433013,0.263988 -0.779401,0.424253 -1.288292,0.596346 C 11.130839,23.641191 9.9027201,23.77225 8.9048771,23.651509 8.4494272,23.596357 8.2345598,23.547055 7.8165721,23.401395 7.2234407,23.194709 6.7865193,22.897342 6.4859048,22.496025 6.3466677,22.310216 6.1547739,21.905788 6.093681,21.669719 6.0175018,21.375307 6.0185922,21.002453 6.0972983,20.706988 6.1734217,20.421211 6.223634,20.301439 6.4859048,19.771645 6.9238996,18.886898 7.0086814,18.391219 6.8259355,17.789339 6.7168742,17.430109 6.4591889,17.042853 6.1737794,16.809037 5.8583778,16.550656 5.4404401,16.399917 4.646225,16.258167 3.9132516,16.127352 3.6126322,16.022593 3.2943704,15.785845 3.091787,15.635202 2.926689,15.442038 2.7497012,15.149708 2.5237317,14.776453 2.4263202,14.437437 2.4236231,14.014894 2.4218931,13.743664 2.4393642,13.591958 2.5088892,13.286257 2.8638214,11.725587 4.5233465,9.8343362 6.2011679,9.0787652 7.2053992,8.6265292 8.2290387,8.3900236 9.2924501,8.3645973 Z M 8.5581284,9.8368579 C 8.3350353,9.8254279 8.1188103,9.8734909 7.8770335,9.9836194 7.5840744,10.117055 7.4563368,10.218961 7.269319,10.466793 c -0.3875848,0.51362 -0.3893843,1.249317 -0.00362,1.768883 0.357847,0.481962 0.9615161,0.707138 1.5477081,0.577225 0.1302598,-0.02885 0.2255915,-0.06783 0.3973915,-0.161747 0.366706,-0.200418 0.5831431,-0.458138 0.7115841,-0.848526 C 10.034115,11.463056 10.029941,11.174465 9.907916,10.82336 9.759746,10.397058 9.4274994,10.076272 8.9741234,9.9216072 8.8287687,9.8720172 8.6919842,9.8437179 8.5581284,9.8368579 Z M 23.079197,10.144849 c 0.120342,0.0021 0.241465,0.04244 0.342614,0.121956 0.263817,0.207411 0.291662,0.596924 0.06046,0.840258 l -4.643124,4.888588 -0.144694,0.152445 c -0.324735,-0.219893 -0.6087,-0.495935 -0.832507,-0.777213 l 0.236161,-0.248563 4.557859,-4.800221 c 0.113887,-0.119951 0.268506,-0.179967 0.42323,-0.17725 z m -10.483075,0.303857 c -0.78159,0.01854 -1.469366,0.647802 -1.476394,1.483113 -0.0022,0.256618 0.04593,0.46155 0.16278,0.69298 0.116906,0.231561 0.25407,0.392216 0.460437,0.541052 0.376117,0.27127 0.88747,0.356872 1.322916,0.221175 0.526444,-0.164057 0.949938,-0.634426 1.046447,-1.162719 0.134244,-0.734755 -0.267976,-1.434713 -0.967382,-1.685684 -0.183106,-0.06571 -0.368437,-0.0942 -0.548804,-0.08992 z m -4.0963879,0.07906 c 0.1636896,0.0016 0.3290805,0.05386 0.481624,0.157613 0.106785,0.07246 0.1249118,0.09614 0.2216918,0.287838 0.09047,0.179203 0.1059989,0.227816 0.1074869,0.339513 0.0024,0.183283 -0.088364,0.434461 -0.2010212,0.556555 -0.3352259,0.363289 -0.8377046,0.388539 -1.1952751,0.06046 -0.1450388,-0.13312 -0.2470487,-0.365035 -0.249597,-0.568441 -0.00272,-0.216732 0.092153,-0.443302 0.2475299,-0.591694 0.1698468,-0.162212 0.3771025,-0.243886 0.5875607,-0.241846 z m 4.1155089,0.609781 c 0.179831,-0.002 0.383888,0.06079 0.510562,0.157614 0.352068,0.268985 0.428598,0.772073 0.170016,1.120344 -0.31487,0.424072 -0.923839,0.460187 -1.282092,0.07596 -0.259557,-0.278368 -0.275317,-0.712297 -0.03824,-1.031461 0.07805,-0.105072 0.111129,-0.130949 0.286287,-0.220141 0.177609,-0.09045 0.21423,-0.100739 0.353467,-0.10232 z m -7.1659667,1.547192 c -0.2692203,-0.0092 -0.5218381,0.05849 -0.7844478,0.207222 -0.3447159,0.195237 -0.5609757,0.457608 -0.6914302,0.839742 -0.1313142,0.384638 -0.099518,0.75812 0.096635,1.144632 0.098996,0.194872 0.1385262,0.250634 0.2588987,0.367936 0.3902699,0.380428 0.9066901,0.528325 1.4226513,0.407727 0.1862428,-0.04362 0.5037809,-0.205178 0.6495723,-0.330212 0.2733482,-0.234424 0.4643393,-0.59518 0.5095293,-0.963765 0.037616,-0.306585 -0.0054,-0.547508 -0.1508951,-0.839742 C 6.5419985,13.080702 6.2053207,12.82104 5.7247116,12.719362 5.6302846,12.699382 5.5390165,12.687812 5.4492764,12.684742 Z m 0.00258,0.690397 c 0.1652199,0.0029 0.3238722,0.05654 0.4604367,0.15968 0.1050614,0.07889 0.1301699,0.112697 0.2185912,0.287837 0.088164,0.174631 0.1003702,0.215784 0.1018025,0.345199 0.00198,0.179804 -0.069817,0.381574 -0.1901692,0.532266 C 5.76655,15.045655 5.254307,15.102335 4.8942679,14.827242 4.7457279,14.7138 4.6114592,14.471104 4.5909275,14.279989 c -0.021039,-0.196146 0.043104,-0.414337 0.1720824,-0.585493 0.093038,-0.123485 0.1235654,-0.147958 0.2733681,-0.221692 0.113932,-0.05611 0.2303084,-0.08762 0.3446816,-0.0956 0.023828,-0.0017 0.047194,-0.0025 0.070797,-0.0021 z m 11.0380787,1.837612 h 5.17e-4 c 0.374293,0.795802 1.184845,1.71495 2.2164,2.178161 -0.0059,0.02156 -0.01198,0.04342 -0.0186,0.06511 l -0.0098,0.03101 -0.0057,0.03256 c -0.208265,1.175261 -1.053645,2.51326 -1.750796,3.444749 -0.286725,0.382925 -0.806327,0.457106 -1.192692,0.165881 -0.207508,-0.156521 -0.433911,-0.333811 -0.670759,-0.529167 0.374697,-0.445297 0.992558,-1.231165 1.288809,-1.89394 -0.776892,0.84737 -1.578083,1.14998 -2.02003,1.257287 -0.35567,-0.327999 -0.713375,-0.68773 -1.046964,-1.070218 -0.06229,-0.07133 -0.123558,-0.142689 -0.183451,-0.214974 0.470267,-0.266868 1.268759,-0.841182 1.71669,-1.843297 -0.73315,0.799599 -1.686486,1.024565 -2.285648,1.082104 -0.329303,-0.495069 -0.584382,-1.002407 -0.729154,-1.507918 1.173474,0.07625 1.908983,-0.231281 2.661335,-0.545702 h 0.0015 c 0.421536,-0.176167 0.836673,-0.349245 1.36374,-0.479557 0.19764,-0.04886 0.404997,-0.102533 0.61805,-0.15968 0.01561,-0.0042 0.03096,-0.0086 0.04651,-0.0124 z M 9.2082137,19.17116 c -0.304211,-0.0062 -0.6106389,0.07669 -0.8697138,0.249597 -0.2734598,0.182511 -0.4085016,0.343642 -0.5565548,0.665076 -0.098372,0.213561 -0.1331986,0.398052 -0.1235066,0.654223 0.00898,0.238416 0.048917,0.385795 0.1648477,0.614432 0.1182882,0.233309 0.2488516,0.388283 0.4526853,0.534851 0.3707892,0.266619 0.8299248,0.352994 1.2660718,0.238745 C 10.162206,21.96564 10.634834,21.393553 10.67531,20.757114 10.70687,20.260221 10.46917,19.756101 10.062428,19.455902 9.8140729,19.272599 9.5124285,19.177394 9.2082175,19.171165 Z m -0.036174,0.68988 c 0.326299,-0.0035 0.5782743,0.152966 0.7307043,0.453719 0.07007,0.138396 0.081092,0.183532 0.082682,0.330729 0.0019,0.185339 -0.060772,0.377712 -0.1694986,0.519348 C 9.6789654,21.343291 9.4245445,21.474988 9.1937435,21.48678 9.0273925,21.49528 8.787025,21.41887 8.6490743,21.313664 8.5489296,21.237039 8.5196297,21.199317 8.4377224,21.0372 8.3539364,20.871443 8.3424871,20.831064 8.3421211,20.697686 8.341581,20.51796 8.4179424,20.292774 8.5245388,20.161285 c 0.06013,-0.07417 0.1202243,-0.116609 0.2749184,-0.19637 0.1833183,-0.09454 0.2109488,-0.102103 0.3725868,-0.10387 z" /></g><metadata
     id="metadata2118"><rdf:RDF><cc:Work
         rdf:about="" /></rdf:RDF></metadata></svg>
