<?xml version="1.0" encoding="UTF-8" standalone="no"?>
<svg
   width="160.00143mm"
   height="40.75mm"
   viewBox="0 0 160.00144 40.75"
   version="1.1"
   id="svg5"
   sodipodi:docname="vpype_logo.svg"
   inkscape:version="1.2-dev (8ea702d, 2021-04-07)"
   xmlns:inkscape="http://www.inkscape.org/namespaces/inkscape"
   xmlns:sodipodi="http://sodipodi.sourceforge.net/DTD/sodipodi-0.dtd"
   xmlns="http://www.w3.org/2000/svg"
   xmlns:svg="http://www.w3.org/2000/svg">
  <sodipodi:namedview
     id="namedview7"
     pagecolor="#ffffff"
     bordercolor="#666666"
     borderopacity="1.0"
     objecttolerance="10.0"
     gridtolerance="10.0"
     guidetolerance="10.0"
     inkscape:pageshadow="2"
     inkscape:pageopacity="0.0"
     inkscape:pagecheckerboard="0"
     inkscape:document-units="mm"
     showgrid="false"
     inkscape:zoom="0.95875069"
     inkscape:cx="500.13002"
     inkscape:cy="154.36756"
     inkscape:window-width="1920"
     inkscape:window-height="950"
     inkscape:window-x="-9"
     inkscape:window-y="-9"
     inkscape:window-maximized="1"
     inkscape:current-layer="g7907"
     fit-margin-left="5"
     fit-margin-top="5"
     fit-margin-right="5"
     fit-margin-bottom="5" />
  <defs
     id="defs2" />
  <g
     inkscape:label="fill-hexval-#000000"
     inkscape:groupmode="layer"
     id="g7855"
     transform="translate(5.3677085,5.3677085)" />
  <g
     inkscape:label="fill-hexval-#008000"
     inkscape:groupmode="layer"
     id="g7864"
     transform="translate(5.3677085,5.3677085)" />
  <g
     inkscape:label="fill-hexval-#00e000"
     inkscape:groupmode="layer"
     id="g7880"
     transform="translate(5.3677085,5.3677085)" />
  <g
     inkscape:label="fill-hexval-#9b009b"
     inkscape:groupmode="layer"
     id="g7887"
     transform="translate(5.3677085,5.3677085)" />
  <g
     inkscape:label="fill-hexval-#f1f5fa"
     inkscape:groupmode="layer"
     id="g7907"
     transform="translate(5.3677085,5.3677085)">
    <g
       id="g999"
       transform="matrix(0.70424172,0,0,0.70424172,-0.10875285,-0.10875285)">
      <path
         opacity="0.996078"
         d="M 1.62057,0.297656 H 20.0091 L 20.2737,1.62057 H 193.443 l 0.133,-1.322914 h 17.065 V 1.62057 l 1.323,0.13229 V 41.308 h -1.323 l -0.132,1.3229 H 193.443 L 193.311,41.308 H 20.1414 l -0.1323,1.3229 H 1.62057 V 41.308 L 0.297656,41.1757 V 1.62057 c 1.322914,0.44097 1.763884,0 1.322914,-1.322914 z m 0,1.322914 V 41.308 H 17.4956 V 39.9851 H 2.94349 V 37.6039 L 3.20807,37.3393 H 17.4956 v -3.9688 h 1.3229 V 5.8539 L 17.4956,5.58932 V 1.62057 Z m 191.82243,0 V 41.308 h 15.875 v -1.3229 h -14.552 v -2.3812 l 0.265,-0.2646 h 14.287 v -3.9688 h 1.323 V 5.8539 L 209.318,5.58932 V 1.62057 Z M 21.4643,2.94349 V 34.6934 H 21.7289 190.797 V 3.20807 2.94349 Z m 0,34.39581 v 2.6458 h 0.2646 169.0681 v -2.3812 -0.2646 z"
         id="path6810"
         style="fill:#000000;stroke:#000000;stroke-width:1" />
      <path
         opacity="0.996078"
         d="m 61.1517,12.2039 1.323,0.1323 v 6.4823 l -1.323,-0.1323 z"
         id="path6812"
         style="fill:#000000;stroke:#000000;stroke-width:1" />
      <path
         opacity="0.996078"
         d="m 74.3809,12.2039 1.3229,0.1323 v 10.451 H 73.058 v 2.6458 h -2.6458 v 2.6459 h -2.6459 v 2.6458 h -2.6458 c -0.441,-1.3229 0,-1.7639 1.3229,-1.3229 V 26.756 h 2.6458 v -2.6459 h 2.6459 v -2.6458 h 2.6458 z"
         id="path6814"
         style="fill:#000000;stroke:#000000;stroke-width:1" />
      <path
         opacity="0.996078"
         d="m 92.9017,12.2039 c 1.3229,-0.441 1.7639,0 1.3229,1.3229 -1.3229,0.441 -1.7639,0 -1.3229,-1.3229 z"
         id="path6816"
         style="fill:#000000;stroke:#000000;stroke-width:1" />
      <path
         opacity="0.996078"
         d="m 103.485,12.2039 1.323,0.1323 v 6.4823 l -1.323,-0.1323 z"
         id="path6818"
         style="fill:#000000;stroke:#000000;stroke-width:1" />
      <path
         opacity="0.996078"
         d="m 114.068,12.2039 1.323,0.1323 v 7.8052 h -2.646 v 2.6458 H 110.1 v 7.9375 h -5.292 v -1.3229 h 3.969 v -7.8052 l 0.132,-0.1323 h 2.514 v -2.6458 h 2.645 z"
         id="path6820"
         style="fill:#000000;stroke:#000000;stroke-width:1" />
      <path
         opacity="0.996078"
         d="m 132.589,12.2039 c 1.323,-0.441 1.764,0 1.323,1.3229 -1.323,0.441 -1.764,0 -1.323,-1.3229 z"
         id="path6822"
         style="fill:#000000;stroke:#000000;stroke-width:1" />
      <path
         opacity="0.996078"
         d="m 153.756,12.2039 h 1.323 v 2.6458 h -10.451 l -0.133,0.1323 v 3.8365 h -1.323 v -5.2917 h 10.452 z"
         id="path6824"
         style="fill:#000000;stroke:#000000;stroke-width:1" />
      <path
         opacity="0.996078"
         d="m 82.3184,13.5268 h 7.8052 l 0.1323,1.3229 h -6.6146 v 6.4823 l -1.3229,0.1323 z"
         id="path6826"
         style="fill:#000000;stroke:#000000;stroke-width:1" />
      <path
         opacity="0.996078"
         d="m 122.006,13.5268 h 7.805 l 0.132,1.3229 h -6.614 v 6.4823 l -1.323,0.1323 z"
         id="path6828"
         style="fill:#000000;stroke:#000000;stroke-width:1" />
      <path
         opacity="0.996078"
         d="m 95.5475,14.8497 1.323,0.1323 v 7.8052 h -2.6459 v 2.5135 l -0.1323,0.1323 h -10.451 v 5.2917 h -5.2917 v -1.3229 h 3.9688 v -5.2917 h 10.5833 v -2.6458 h 2.5135 l 0.1323,-0.1323 z"
         id="path6830"
         style="fill:#000000;stroke:#000000;stroke-width:1" />
      <path
         opacity="0.996078"
         d="m 135.235,14.8497 1.323,0.1323 v 7.8052 h -2.646 v 2.5135 l -0.132,0.1323 h -10.451 v 5.2917 h -5.292 v -1.3229 h 3.969 v -5.2917 h 10.583 v -2.6458 h 2.514 l 0.132,-0.1323 z"
         id="path6832"
         style="fill:#000000;stroke:#000000;stroke-width:1" />
      <path
         opacity="0.996078"
         d="m 99.5163,18.8185 c 1.3227,-0.441 1.7637,0 1.3227,1.3229 -1.3227,0.441 -1.7637,0 -1.3227,-1.3229 z"
         id="path6834"
         style="fill:#000000;stroke:#000000;stroke-width:1" />
      <path
         opacity="0.996078"
         d="m 63.7976,20.1414 c 1.3229,-0.441 1.7639,0 1.3229,1.3229 -1.3229,0.441 -1.7639,0 -1.3229,-1.3229 z"
         id="path6836"
         style="fill:#000000;stroke:#000000;stroke-width:1" />
      <path
         opacity="0.996078"
         d="m 153.756,20.1414 h 1.323 v 2.6458 h -10.451 l -0.133,0.1323 v 3.8365 h -1.323 v -5.2917 h 10.452 z"
         id="path6838"
         style="fill:#000000;stroke:#000000;stroke-width:1" />
      <path
         opacity="0.996078"
         d="m 57.183,21.4643 c 1.3229,-0.441 1.7639,0 1.3229,1.3229 -1.3229,0.441 -1.7639,0 -1.3229,-1.3229 z"
         id="path6840"
         style="fill:#000000;stroke:#000000;stroke-width:1" />
      <path
         opacity="0.996078"
         d="m 102.162,21.4643 c 1.323,-0.441 1.764,0 1.323,1.3229 -1.323,0.441 -1.764,0 -1.323,-1.3229 z"
         id="path6842"
         style="fill:#000000;stroke:#000000;stroke-width:1" />
      <path
         opacity="0.996078"
         d="m 59.8288,24.1101 c 1.3229,-0.4409 1.7639,0 1.3229,1.3229 -1.3229,0.441 -1.7638,0 -1.3229,-1.3229 z"
         id="path6844"
         style="fill:#000000;stroke:#000000;stroke-width:1" />
      <path
         opacity="0.996078"
         d="m 62.4747,26.756 c 1.3229,-0.441 1.7638,0 1.3229,1.3229 -1.3229,0.4409 -1.7639,0 -1.3229,-1.3229 z"
         id="path6846"
         style="fill:#000000;stroke:#000000;stroke-width:1" />
      <path
         opacity="0.996078"
         d="m 153.756,28.0789 h 1.323 v 2.6458 h -15.743 l -0.132,-1.3229 h 14.42 z"
         id="path6848"
         style="fill:#000000;stroke:#000000;stroke-width:1" />
      <path
         opacity="0.996078"
         d="M 2.94349,1.62057 H 17.4956 v 3.83645 l 1.3229,0.26459 V 9.55806 H 17.4956 V 5.72161 L 17.3633,5.58932 H 2.94349 Z"
         id="path6850"
         style="fill:#008000;stroke:#008000;stroke-width:1" />
      <path
         opacity="0.996078"
         d="m 194.766,1.62057 h 14.552 v 3.83645 l 1.323,0.26459 v 3.83645 h -1.323 V 5.72161 l -0.132,-0.13229 h -14.42 z"
         id="path6852"
         style="fill:#008000;stroke:#008000;stroke-width:1" />
      <path
         opacity="0.996078"
         d="M 21.4643,2.94349 H 190.665 l 0.132,0.13229 V 8.23515 H 21.5966 l -0.1323,-0.1323 z"
         id="path6854"
         style="fill:#008000;stroke:#008000;stroke-width:1" />
      <path
         opacity="0.996078"
         d="m 17.4956,29.4018 h 1.3229 v 3.9687 h -1.3229 v 3.9688 H 3.07578 l -0.13229,0.1323 v 2.5135 H 17.3633 l 0.1323,1.3229 H 3.07578 L 2.94349,39.9851 H 1.62057 V 37.3393 H 2.94349 V 33.5028 L 3.07578,33.3705 H 17.4956 Z"
         id="path6856"
         style="fill:#008000;stroke:#008000;stroke-width:1" />
      <path
         opacity="0.996078"
         d="m 209.318,29.4018 h 1.323 v 3.9687 h -1.323 v 3.9688 h -14.42 l -0.132,0.1323 v 2.5135 h 14.42 l 0.132,1.3229 h -14.42 l -0.132,-1.3229 h -1.323 v -2.6458 h 1.323 v -3.8365 l 0.132,-0.1323 h 14.42 z"
         id="path6858"
         style="fill:#008000;stroke:#008000;stroke-width:1" />
      <path
         opacity="0.996078"
         d="M 21.4643,30.7247 H 190.665 l 0.132,0.1323 v 3.8364 H 21.5966 l -0.1323,-0.1322 z"
         id="path6860"
         style="fill:#008000;stroke:#008000;stroke-width:1" />
      <path
         opacity="0.996078"
         d="M 21.4643,37.3393 H 190.665 l 0.132,0.1323 v 2.5135 H 21.5966 l -0.1323,-0.1323 z"
         id="path6862"
         style="fill:#008000;stroke:#008000;stroke-width:1" />
      <path
         opacity="0.996078"
         d="m 1.62057,1.62057 h 1.32292 v 3.83645 l 0.13229,0.1323 H 17.4956 v 3.83645 l 1.3229,0.26458 V 29.4018 h -1.3229 v 3.9687 H 3.07578 l -0.13229,0.1323 v 3.8365 H 1.62057 V 29.5341 L 2.94349,29.2695 V 18.8185 H 17.4956 V 13.5268 H 2.94349 V 9.69035 L 1.62057,9.42577 Z"
         id="path6864"
         style="fill:#00e000;stroke:#00e000;stroke-width:1" />
      <path
         opacity="0.996078"
         d="m 193.443,1.62057 h 1.323 v 3.83645 l 0.132,0.1323 h 14.42 v 3.83645 l 1.323,0.26458 V 29.4018 h -1.323 v 3.9687 h -14.42 l -0.132,0.1323 v 3.8365 h -1.323 v -7.8052 l 1.323,-0.2646 v -10.451 h 14.552 V 13.5268 H 194.766 V 9.69035 l -1.323,-0.26458 z"
         id="path6866"
         style="fill:#00e000;stroke:#00e000;stroke-width:1" />
      <path
         opacity="0.996078"
         d="M 21.4643,8.23515 H 190.665 l 0.132,0.13229 v 6.48226 h -35.586 l -0.132,-0.1323 v -2.5135 h -1.323 l -0.132,-1.3229 h -15.743 v 3.9687 h -2.646 v -1.3229 h -1.323 v -1.3229 h -1.323 l -0.132,-1.3229 h -15.743 v 3.9687 h -1.323 v -2.6458 c -1.323,0.441 -1.764,0 -1.323,-1.3229 h -5.291 v 3.9687 h -3.969 v -2.6458 c -1.323,0.441 -1.764,0 -1.323,-1.3229 h -5.2916 v 3.9687 H 95.5475 V 13.5268 H 94.2246 V 12.2039 H 92.9017 L 92.7694,10.881 H 77.0267 v 3.9687 h -1.3229 v -2.6458 c -1.3229,0.441 -1.7639,0 -1.3229,-1.3229 h -5.2917 v 3.9687 h -6.6145 v -2.6458 c -1.323,0.441 -1.7639,0 -1.323,-1.3229 h -5.2916 v 3.8364 l -0.1323,0.1323 H 21.4643 Z"
         id="path6868"
         style="fill:#00e000;stroke:#00e000;stroke-width:1" />
      <path
         opacity="0.996078"
         d="m 21.4643,18.8185 h 34.2635 l 0.1323,0.1323 v 2.5135 h 1.3229 v 1.3229 h 1.3229 v 1.3229 h 1.3229 v 1.3229 h 1.3229 v 1.323 h 1.323 v 1.3229 h 1.3229 c -0.441,1.3229 0,1.7639 1.3229,1.3229 v 1.3229 H 21.5966 l -0.1323,-0.1323 z"
         id="path6870"
         style="fill:#00e000;stroke:#00e000;stroke-width:1" />
      <path
         opacity="0.996078"
         d="m 63.7976,18.8185 h 2.6458 v 2.6458 h -1.3229 v -1.3229 c -1.3229,0.441 -1.7639,0 -1.3229,-1.3229 z"
         id="path6872"
         style="fill:#00e000;stroke:#00e000;stroke-width:1" />
      <path
         opacity="0.996078"
         d="m 75.7038,18.8185 1.3229,0.1323 v 10.3187 l 1.3229,0.1323 v 1.3229 h -10.451 l -0.1323,-0.1323 v -2.5135 h 2.6459 V 25.433 h 2.6458 v -2.6458 h 2.6458 z"
         id="path6874"
         style="fill:#00e000;stroke:#00e000;stroke-width:1" />
      <path
         opacity="0.996078"
         d="m 83.6413,18.8185 h 6.6146 v 2.6458 h -6.6146 z"
         id="path6876"
         style="fill:#00e000;stroke:#00e000;stroke-width:1" />
      <path
         opacity="0.996078"
         d="m 96.8705,18.8185 h 2.6458 v 1.3229 h 1.3227 v 1.3229 h 1.323 c -0.441,1.3229 0,1.7639 1.323,1.3229 v 6.4823 l 1.323,0.1323 v 1.3229 H 83.7736 L 83.6413,30.5924 V 25.433 h 10.5833 v -2.6458 h 2.6459 z"
         id="path6878"
         style="fill:#00e000;stroke:#00e000;stroke-width:1" />
      <path
         opacity="0.996078"
         d="m 115.391,18.8185 1.323,0.1323 v 10.3187 l 1.323,0.1323 v 1.3229 H 110.1 v -7.9375 h 2.645 v -2.6458 h 2.646 z"
         id="path6880"
         style="fill:#00e000;stroke:#00e000;stroke-width:1" />
      <path
         opacity="0.996078"
         d="m 123.329,18.8185 h 6.614 v 2.6458 h -6.614 z"
         id="path6882"
         style="fill:#00e000;stroke:#00e000;stroke-width:1" />
      <path
         opacity="0.996078"
         d="m 136.558,18.8185 1.323,0.1323 v 10.3187 l 1.323,0.1323 v 1.3229 H 123.329 V 25.433 h 10.583 v -2.6458 h 2.646 z"
         id="path6884"
         style="fill:#00e000;stroke:#00e000;stroke-width:1" />
      <path
         opacity="0.996078"
         d="m 153.756,18.8185 h 36.909 l 0.132,0.1323 v 11.7739 h -35.586 l -0.132,-0.1323 v -2.5135 c -1.323,0.4409 -1.764,0 -1.323,-1.3229 h -9.261 v -3.9688 h 10.451 l 0.133,-0.1323 v -2.5135 c -1.323,0.441 -1.764,0 -1.323,-1.3229 z"
         id="path6886"
         style="fill:#00e000;stroke:#00e000;stroke-width:1" />
      <path
         opacity="0.996078"
         d="m 1.62057,39.9851 c 1.32292,-0.441 1.76389,0 1.32292,1.3229 -1.32292,0.441 -1.76389,0 -1.32292,-1.3229 z"
         id="path6888"
         style="fill:#00e000;stroke:#00e000;stroke-width:1" />
      <path
         opacity="0.996078"
         d="m 193.443,39.9851 c 1.323,-0.441 1.764,0 1.323,1.3229 -1.323,0.441 -1.764,0 -1.323,-1.3229 z"
         id="path6890"
         style="fill:#00e000;stroke:#00e000;stroke-width:1" />
      <path
         opacity="0.996078"
         d="m 55.8601,10.881 h 5.2916 v 7.9375 h 2.6459 v 2.6458 h 2.6458 v -2.6458 h 2.5135 l 0.1323,-0.1323 V 10.881 h 5.2917 v 10.5833 h -2.6458 v 2.6458 h -2.6459 v 2.6459 h -2.6458 v 2.6458 H 63.7976 V 26.756 h -2.6459 v -2.6459 h -2.6458 v -2.6458 h -2.6458 z"
         id="path6892"
         style="fill:#9b009b;stroke:#9b009b;stroke-width:1" />
      <path
         opacity="0.996078"
         d="m 77.0267,10.881 h 15.875 v 2.6458 h 2.5135 l 0.1323,0.1323 v 7.8052 h -2.6458 v 2.5135 l -0.1323,0.1323 h -10.451 v 5.2917 h -5.2917 z m 5.2917,2.6458 v 7.9375 h 7.9375 v -7.9375 z"
         id="path6894"
         style="fill:#9b009b;stroke:#9b009b;stroke-width:1" />
      <path
         opacity="0.996078"
         d="m 98.1934,10.881 h 5.2916 v 7.9375 h 5.292 V 10.881 h 5.291 v 7.8052 l -0.132,0.1323 h -2.513 v 2.6458 h -2.646 v 7.9375 h -5.292 v -7.8052 l -0.132,-0.1323 h -2.514 v -2.6458 h -2.6456 z"
         id="path6896"
         style="fill:#9b009b;stroke:#9b009b;stroke-width:1" />
      <path
         opacity="0.996078"
         d="m 116.714,10.881 h 15.875 v 2.6458 h 2.514 l 0.132,0.1323 v 7.8052 h -2.646 v 2.5135 l -0.132,0.1323 h -10.451 v 5.2917 h -5.292 z m 5.292,2.6458 v 7.9375 h 7.937 v -7.9375 z"
         id="path6898"
         style="fill:#9b009b;stroke:#9b009b;stroke-width:1" />
      <path
         opacity="0.996078"
         d="m 137.881,10.881 h 15.743 l 0.132,0.1323 v 2.5135 h -10.584 v 5.2917 h 10.452 l 0.132,0.1323 v 2.5135 h -10.584 v 5.2917 h 10.452 l 0.132,0.1322 v 2.5136 h -15.875 z"
         id="path6900"
         style="fill:#9b009b;stroke:#9b009b;stroke-width:1" />
      <path
         opacity="0.996078"
         d="m 0.297656,0.297656 c 1.322914,-0.440972 1.763884,0 1.322914,1.322914 -1.322914,0.44097 -1.763886,0 -1.322914,-1.322914 z"
         id="path6902"
         style="fill:#f1f5fa;stroke:#f1f5fa;stroke-width:1" />
      <path
         opacity="0.996078"
         d="M 20.1414,0.297656 H 193.311 l 0.132,1.322914 H 20.2737 Z"
         id="path6904"
         style="fill:#f1f5fa;stroke:#f1f5fa;stroke-width:1" />
      <path
         opacity="0.996078"
         d="m 210.641,0.297656 c 1.323,-0.440972 1.764,0 1.323,1.322914 -1.323,0.44097 -1.764,0 -1.323,-1.322914 z"
         id="path6906"
         style="fill:#f1f5fa;stroke:#f1f5fa;stroke-width:1" />
      <path
         opacity="0.996078"
         d="m 1.62057,9.55806 h 1.32292 v 3.83644 l 0.13229,0.1323 H 17.4956 v 5.2917 H 2.94349 v 10.451 l -1.32292,0.1323 z"
         id="path6908"
         style="fill:#f1f5fa;stroke:#f1f5fa;stroke-width:1" />
      <path
         opacity="0.996078"
         d="m 193.443,9.55806 h 1.323 v 3.83644 l 0.132,0.1323 h 14.42 v 5.2917 h -14.552 v 10.451 l -1.323,0.1323 z"
         id="path6910"
         style="fill:#f1f5fa;stroke:#f1f5fa;stroke-width:1" />
      <path
         opacity="0.996078"
         d="m 21.4643,14.8497 h 34.2635 l 0.1323,0.1323 v 3.8365 H 21.5966 l -0.1323,-0.1323 z"
         id="path6912"
         style="fill:#f1f5fa;stroke:#f1f5fa;stroke-width:1" />
      <path
         opacity="0.996078"
         d="m 62.4747,14.8497 h 6.6145 v 3.9688 h -6.6145 z"
         id="path6914"
         style="fill:#f1f5fa;stroke:#f1f5fa;stroke-width:1" />
      <path
         opacity="0.996078"
         d="m 75.7038,14.8497 h 1.3229 v 3.9688 h -1.3229 z"
         id="path6916"
         style="fill:#f1f5fa;stroke:#f1f5fa;stroke-width:1" />
      <path
         opacity="0.996078"
         d="m 83.6413,14.8497 h 6.6146 v 3.9688 h -6.6146 z"
         id="path6918"
         style="fill:#f1f5fa;stroke:#f1f5fa;stroke-width:1" />
      <path
         opacity="0.996078"
         d="m 96.8705,14.8497 h 1.3229 v 3.9688 h -1.3229 z"
         id="path6920"
         style="fill:#f1f5fa;stroke:#f1f5fa;stroke-width:1" />
      <path
         opacity="0.996078"
         d="m 104.808,14.8497 h 3.969 v 3.9688 h -3.969 z"
         id="path6922"
         style="fill:#f1f5fa;stroke:#f1f5fa;stroke-width:1" />
      <path
         opacity="0.996078"
         d="m 115.391,14.8497 h 1.323 v 3.9688 h -1.323 z"
         id="path6924"
         style="fill:#f1f5fa;stroke:#f1f5fa;stroke-width:1" />
      <path
         opacity="0.996078"
         d="m 123.329,14.8497 h 6.614 v 3.9688 h -6.614 z"
         id="path6926"
         style="fill:#f1f5fa;stroke:#f1f5fa;stroke-width:1" />
      <path
         opacity="0.996078"
         d="m 136.558,14.8497 h 1.323 v 3.9688 h -1.323 z"
         id="path6928"
         style="fill:#f1f5fa;stroke:#f1f5fa;stroke-width:1" />
      <path
         opacity="0.996078"
         d="m 144.495,14.8497 h 46.17 l 0.132,0.1323 v 3.8365 h -46.169 l -0.133,-0.1323 z"
         id="path6930"
         style="fill:#f1f5fa;stroke:#f1f5fa;stroke-width:1" />
      <path
         opacity="0.996078"
         d="m 0.297656,41.308 c 1.322914,-0.441 1.763884,0 1.322914,1.3229 -1.322914,0.441 -1.763886,0 -1.322914,-1.3229 z"
         id="path6932"
         style="fill:#f1f5fa;stroke:#f1f5fa;stroke-width:1" />
      <path
         opacity="0.996078"
         d="M 20.1414,41.308 H 193.311 l 0.132,1.3229 H 20.2737 Z"
         id="path6934"
         style="fill:#f1f5fa;stroke:#f1f5fa;stroke-width:1" />
      <path
         opacity="0.996078"
         d="m 210.641,41.308 c 1.323,-0.441 1.764,0 1.323,1.3229 -1.323,0.441 -1.764,0 -1.323,-1.3229 z"
         id="path6936"
         style="fill:#f1f5fa;stroke:#f1f5fa;stroke-width:1" />
    </g>
  </g>
</svg>
