<?xml version="1.0" encoding="UTF-8" standalone="no"?>
<!-- Created with Inkscape (http://www.inkscape.org/) -->

<svg
   width="100.0px"
   height="100.0px"
   viewBox="0 0 100.0 100.0"
   version="1.1"
   id="svg2051"
   inkscape:version="1.4.2 (1:1.4.2+202505120737+ebf0e940d0)"
   sodipodi:docname="icon.svg"
   inkscape:export-filename="icon.png"
   inkscape:export-xdpi="96"
   inkscape:export-ydpi="96"
   xmlns:inkscape="http://www.inkscape.org/namespaces/inkscape"
   xmlns:sodipodi="http://sodipodi.sourceforge.net/DTD/sodipodi-0.dtd"
   xmlns="http://www.w3.org/2000/svg"
   xmlns:svg="http://www.w3.org/2000/svg"
   xmlns:rdf="http://www.w3.org/1999/02/22-rdf-syntax-ns#"
   xmlns:cc="http://creativecommons.org/ns#">
  <sodipodi:namedview
     id="namedview2053"
     pagecolor="#ffffff"
     bordercolor="#666666"
     borderopacity="1.0"
     inkscape:pageshadow="2"
     inkscape:pageopacity="0.0"
     inkscape:pagecheckerboard="false"
     inkscape:document-units="px"
     showgrid="false"
     inkscape:showpageshadow="false"
     inkscape:snap-tangential="true"
     inkscape:snap-perpendicular="true"
     inkscape:deskcolor="#ffffff"
     inkscape:lockguides="true"
     inkscape:zoom="1.8314686"
     inkscape:cx="-0.81901486"
     inkscape:cy="66.340204"
     inkscape:window-width="1920"
     inkscape:window-height="1008"
     inkscape:window-x="0"
     inkscape:window-y="0"
     inkscape:window-maximized="1"
     inkscape:current-layer="g2"
     inkscape:export-bgcolor="#ffffffff" />
  <defs
     id="defs2048" />
  <g
     inkscape:label="Layer 1"
     inkscape:groupmode="layer"
     id="layer1"
     transform="scale(3.77953, 3.77953)" />
  <metadata
     id="metadata2118">
    <rdf:RDF>
      <cc:Work
         rdf:about="" />
    </rdf:RDF>
  </metadata>
  <g
     id="g2"
     transform="matrix(1.3725071,0,0,1.3725071,47.855292,47.845218)"
     style="stroke:#006599;stroke-opacity:1">
    <path
       d="m 14.135797,-3.4243546 a 15.125664,15.125664 0 0 0 -0.484474,-1.8328086 15.251327,15.251327 0 0 0 -0.71724,-1.7718414 15.376991,15.376991 0 0 0 -0.94225,-1.6812108 15.502655,15.502655 0 0 0 -1.155717,-1.5619116 15.628319,15.628319 0 0 0 -1.3539807,-1.415428 15.753982,15.753982 0 0 0 -1.5335668,-1.24371 15.879646,15.879646 0 0 0 -1.691261,-1.049153 16.00531,16.00531 0 0 0 -1.8241509,-0.834565 16.130973,16.130973 0 0 0 -1.9296913,-0.603121 16.256637,16.256637 0 0 0 -2.00574269,-0.358325 16.382301,16.382301 0 0 0 -2.05061661,-0.103947 16.507964,16.507964 0 0 0 -2.0631103,0.156023 16.633628,16.633628 0 0 0 -2.0425303,0.417455 16.759292,16.759292 0 0 0 -1.9887144,0.676122 16.884956,16.884956 0 0 0 -1.9020408,0.92779 17.010619,17.010619 0 0 0 -1.7834292,1.168271 17.136283,17.136283 0 0 0 -1.634333,1.393506 17.261947,17.261947 0 0 0 -1.456725,1.5996172 17.38761,17.38761 45 0 0 -1.253067,1.7829928 17.513274,17.513274 0 0 0 -1.026289,1.9403323 17.638938,17.638938 0 0 0 -0.779728,2.0687192 17.764602,17.764602 0 0 0 -0.517094,2.1656642 17.890265,17.890265 0 0 0 -0.242414,2.22915574 18.015929,18.015929 0 0 0 0.04004,2.25769906 18.141593,18.141593 0 0 0 0.325803,2.2503494 18.267256,18.267256 0 0 0 0.610319,2.2067246 18.39292,18.39292 0 0 0 0.888949,2.1270389 18.518584,18.518584 0 0 0 1.157123,2.0120866 18.644247,18.644247 0 0 0 1.410367,1.863249 18.769911,18.769911 0 0 0 1.644389,1.682472 18.895575,18.895575 0 0 0 1.855155,1.47225 19.021239,19.021239 0 0 0 2.0389558,1.235586 19.146902,19.146902 0 0 0 2.1924719,0.975949 19.272566,19.272566 0 0 0 2.3128272,0.697229 19.39823,19.39823 0 0 0 2.3976526,0.40367 19.523893,19.523893 0 0 0 2.4451197,0.09982 19.649557,19.649557 0 0 0 2.4539842,-0.209568 19.775221,19.775221 0 0 0 2.4236117,-0.519564 19.900885,19.900885 0 0 0 2.353993,-0.82519 20.026548,20.026548 0 0 0 2.2457559,-1.121464 20.152212,20.152212 0 0 0 2.100161,-1.403496 20.277876,20.277876 0 0 0 1.919084,-1.666573 20.403539,20.403539 0 0 0 1.705007,-1.906221 20.529203,20.529203 0 0 0 1.460966,-2.118295 20.654867,20.654867 0 0 0 1.190521,-2.2990489 20.78053,20.78053 0 0 0 0.897707,-2.4451904 20.906194,20.906194 0 0 0 0.586958,-2.5539535 21.031858,21.031858 0 0 0 0.263061,-2.62313927 21.157522,21.157522 0 0 0 -0.06894,-2.65116393 21.283185,21.283185 0 0 0 -0.403791,-2.6370885 21.408849,21.408849 0 0 0 -0.736153,-2.5806431 21.534513,21.534513 0 0 0 -1.060659,-2.4822364 21.660176,21.660176 0 0 0 -1.371996,-2.342963 21.78584,21.78584 0 0 0 -1.665016,-2.164585 21.911504,21.911504 0 0 0 -1.934797,-1.949516 22.037168,22.037168 0 0 0 -2.176742,-1.700791 22.162831,22.162831 0 0 0 -2.3866531,-1.422019 22.288495,22.288495 0 0 0 -2.5607913,-1.117334 22.414159,22.414159 0 0 0 -2.6959638,-0.791336 22.539822,22.539822 0 0 0 -2.78956233,-0.449016 22.665486,22.665486 0 0 0 -2.83962247,-0.09568 22.79115,22.79115 0 0 0 -2.8448589,0.26311 22.916813,22.916813 0 0 0 -2.8046927,0.621676 23.042477,23.042477 0 0 0 -2.7192724,0.974257 23.168141,23.168141 0 0 0 -2.589471,1.315137 23.293805,23.293805 0 0 0 -2.416891,1.638722 23.419468,23.419468 0 0 0 -2.203837,1.939641 23.545132,23.545132 0 0 0 -1.953289,2.212823 23.670796,23.670796 0 0 0 -1.668862,2.453599 23.796459,23.796459 0 0 0 -1.354755,2.6577644 23.922123,23.922123 0 0 0 -1.015685,2.8216614 24.047787,24.047787 0 0 0 -0.656823,2.942243 24.173451,24.173451 0 0 0 -0.283709,3.01712317 24.299114,24.299114 0 0 0 0.09783,3.04462893 24.424778,24.424778 0 0 0 0.481769,3.0238299 24.550442,24.550442 0 0 0 0.861989,2.9545615 24.676105,24.676105 0 0 0 1.232368,2.8374347 24.801769,24.801769 0 0 0 1.58687,2.673839 24.927433,24.927433 0 0 0 1.919664,2.46592 25.053096,25.053096 45 0 0 2.225205,2.216561 25.17876,25.17876 0 0 0 2.498331,1.929331 25.304424,25.304424 45 0 0 2.734348,1.608452 25.430088,25.430088 0 0 0 2.9291122,1.258719 25.555751,25.555751 0 0 0 3.0790993,0.885443 25.681415,25.681415 0 0 0 3.1814725,0.494362 25.807079,25.807079 0 0 0 3.2341253,0.09155 25.932742,25.932742 0 0 0 3.235733,-0.316653 26.058406,26.058406 45 0 0 3.1857745,-0.723786 26.18407,26.18407 0 0 0 3.0845502,-1.123324 26.309734,26.309734 0 0 0 2.933186,-1.50881 26.435397,26.435397 0 0 0 2.733623,-1.873948 26.561061,26.561061 0 0 0 2.488589,-2.212707 26.686725,26.686725 0 0 0 2.201572,-2.519428 26.812388,26.812388 0 0 0 1.876759,-2.788902 26.938052,26.938052 0 0 0 1.518988,-3.01648 27.063716,27.063716 0 0 0 1.133664,-3.1981327 27.189379,27.189379 0 0 0 0.726687,-3.3305326 27.315043,27.315043 0 0 0 0.30436,-3.41110785 27.440707,27.440707 0 0 0 -0.126724,-3.43809405 27.566371,27.566371 0 0 0 -0.559752,-3.4105705 27.692034,27.692034 0 0 0 -0.987833,-3.3284773 27.817698,27.817698 0 0 0 -1.404077,-3.192633 27.943362,27.943362 0 0 0 -1.801743,-3.004715 28.069025,28.069025 0 0 0 -2.174314,-2.767256 28.194689,28.194689 0 0 0 -2.515612,-2.483605 28.320353,28.320353 0 0 0 -2.819919,-2.157873 28.446017,28.446017 0 0 0 -3.082044,-1.794883 28.57168,28.57168 0 0 0 -3.2974327,-1.400105 28.697344,28.697344 0 0 0 -3.4622359,-0.97955 28.823008,28.823008 0 0 0 -3.5733822,-0.539707 28.948671,28.948671 0 0 0 -3.6286283,-0.08742 29.074335,29.074335 0 0 0 -3.6266073,0.370196 29.199999,29.199999 0 0 0 -3.5668556,0.825897 29.325663,29.325663 0 0 0 -3.449829,1.272392 29.451326,29.451326 0 0 0 -3.276902,1.702483 29.57699,29.57699 0 0 0 -3.050353,2.109173 29.702654,29.702654 0 0 0 -2.773342,2.485775 29.828317,29.828317 0 0 0 -2.449853,2.82603 29.953981,29.953981 0 0 0 -2.084656,3.124206 30.079645,30.079645 0 0 0 -1.683221,3.375196 30.205308,30.205308 0 0 0 -1.251643,3.5746047 30.330972,30.330972 0 0 0 -0.796552,3.7188203 30.456636,30.456636 0 0 0 -0.325004,3.80509134 30.5823,30.5823 0 0 0 0.155619,3.83155886 30.707963,30.707963 0 0 0 0.637736,3.7973106 30.833627,30.833627 0 0 0 1.113666,3.7023962 30.959291,30.959291 0 0 0 1.575786,3.54783 31.084954,31.084954 0 0 0 2.016617,3.335591 31.210618,31.210618 0 0 0 2.428963,3.068593 31.336282,31.336282 0 0 0 2.806021,2.750649 31.461946,31.461946 0 0 0 3.141507,2.386413 31.587609,31.587609 0 0 0 3.429739,1.981317 31.713273,31.713273 0 0 0 3.6657535,1.541489 31.838937,31.838937 0 0 0 3.8453718,1.073658 31.9646,31.9646 0 0 0 3.965292,0.585052 32.090264,32.090264 0 0 0 4.023131,0.08329 32.215928,32.215928 0 0 0 4.0174817,-0.42374 32.341591,32.341591 45 0 0 3.947937,-0.928006 32.467255,32.467255 0 0 0 3.815108,-1.421459 32.592919,32.592919 0 0 0 3.620616,-1.896158 32.718583,32.718583 0 0 0 3.367085,-2.344398 32.844246,32.844246 0 0 0 3.058093,-2.758843 32.96991,32.96991 0 0 0 2.698137,-3.132633 33.095574,33.095574 0 0 0 2.292553,-3.459509 33.221237,33.221237 0 0 0 1.847454,-3.733913 33.346901,33.346901 0 0 0 1.369621,-3.9510743 33.472565,33.472565 0 0 0 0.866416,-4.1071104 33.598229,33.598229 0 0 0 0.345651,-4.19907443 33.723892,33.723892 0 0 0 -0.184513,-4.22502397 33.849556,33.849556 0 0 0 -0.715712,-4.1840525"
       style="fill:none;stroke:#006599;stroke-width:1px;stroke-opacity:1"
       id="path2" />
  </g>
  <path
     id="path9"
     style="font-size:28.5777px;font-family:'No Continue';-inkscape-font-specification:'No Continue, Normal';text-align:justify;letter-spacing:0px;fill:#000000;fill-opacity:1;fill-rule:evenodd;stroke:none;stroke-width:0.609074;stroke-dasharray:none;stroke-opacity:1"
     d="m 29.524914,44.208053 v 3.857258 l 4.123883,4.07761 v 1.354061 h -1.354061 v -1.763915 h -2.769822 v 4.030234 h 6.894806 v -3.872683 l -4.124984,-4.061083 v -1.354061 h 1.354061 v 1.762814 h 2.770923 v -4.030235 z m 8.125471,2.802876 v 8.781018 h 2.105462 v -3.541054 h 1.244987 l 1.889517,-2.058085 v -3.181879 z m 6.197394,0 v 8.781018 h 2.105461 v -8.781018 z m 3.061789,0 v 8.781018 h 2.105461 v -3.541054 h 0.64563 l 0.383412,0.38231 v 3.158744 h 2.10436 v -3.182981 l -1.123793,-1.19541 1.123793,-1.220748 v -3.181879 z m 6.459612,0 -0.382311,8.781018 h 2.10436 l 0.06059,-2.572607 h 0.884712 l 0.06059,2.572607 h 2.105462 l -0.395527,-8.781018 z m 5.670753,0 v 8.781018 h 5.238863 v -1.722049 h -3.133401 v -7.058969 z m 6.195191,0 v 2.930678 l 3.134504,3.099247 v 1.029044 h -1.029043 v -1.340842 h -2.105461 v 3.062891 h 5.239962 v -2.942799 l -3.134501,-3.086027 v -1.029042 h 1.029043 v 1.339738 h 2.105458 v -3.062888 z m -25.479277,1.72315 h 1.029043 v 1.172271 l -0.598256,0.621393 h -0.430787 z m 9.259182,0 h 1.029042 v 1.411353 l -0.383412,0.382311 h -0.64563 z m 6.292145,0 h 0.550879 l 0.09475,2.751092 h -0.741484 z" />
</svg>
