<?xml version="1.0" encoding="UTF-8" standalone="no"?>
<!-- Created with Inkscape (http://www.inkscape.org/) -->

<svg
   width="100"
   height="100"
   viewBox="0 0 100 100"
   version="1.1"
   id="svg2051"
   inkscape:version="1.4.2 (1:1.4.2+202505120737+ebf0e940d0)"
   sodipodi:docname="remove.svg"
   inkscape:export-filename="bitmap.webp"
   inkscape:export-xdpi="96"
   inkscape:export-ydpi="96"
   xml:space="preserve"
   xmlns:inkscape="http://www.inkscape.org/namespaces/inkscape"
   xmlns:sodipodi="http://sodipodi.sourceforge.net/DTD/sodipodi-0.dtd"
   xmlns="http://www.w3.org/2000/svg"
   xmlns:svg="http://www.w3.org/2000/svg"
   xmlns:rdf="http://www.w3.org/1999/02/22-rdf-syntax-ns#"
   xmlns:cc="http://creativecommons.org/ns#"><sodipodi:namedview
     id="namedview2053"
     pagecolor="#ffffff"
     bordercolor="#666666"
     borderopacity="1.0"
     inkscape:pageshadow="2"
     inkscape:pageopacity="0.0"
     inkscape:pagecheckerboard="false"
     inkscape:document-units="px"
     showgrid="false"
     inkscape:showpageshadow="false"
     inkscape:snap-tangential="true"
     inkscape:snap-perpendicular="true"
     inkscape:deskcolor="#ffffff"
     inkscape:lockguides="true"
     inkscape:zoom="3.6629371"
     inkscape:cx="39.722222"
     inkscape:cy="70.844787"
     inkscape:window-width="1920"
     inkscape:window-height="1008"
     inkscape:window-x="0"
     inkscape:window-y="0"
     inkscape:window-maximized="1"
     inkscape:current-layer="layer1" /><defs
     id="defs2048"><inkscape:perspective
       sodipodi:type="inkscape:persp3d"
       inkscape:vp_x="0 : -860.00001 : 1"
       inkscape:vp_y="0 : 3779.5275 : 0"
       inkscape:vp_z="3068.9763 : -860.00001 : 1"
       inkscape:persp3d-origin="1534.4882 : -1180 : 1"
       id="perspective1" /></defs><g
     inkscape:label="Layer 1"
     inkscape:groupmode="layer"
     id="layer1"
     transform="matrix(3.77953,0,0,3.77953,-849.592,-255.127)"><g
       id="g68"
       transform="matrix(0.15885264,0,0,0.15885264,190.40252,61.206686)"><path
         d="m 273.51531,85.567845 q 1.48422,0 2.25984,-0.938407 0.77562,-0.928832 0.77562,-2.719466 v -0.335146 l -0.01,0.0096 q -1.06289,1.359733 -2.77692,1.359733 -2.05875,0 -3.27485,-1.532094 -1.2161,-1.541669 -1.2161,-4.155804 0,-2.307716 1.19694,-3.724903 1.19695,-1.417187 3.13122,-1.417187 1.84809,0 2.93013,1.599123 l 0.12448,0.181936 v 0 -1.47464 0 h 1.61828 v 9.489406 q -0.01,2.594983 -1.16822,3.83981 -1.15865,1.244826 -3.56212,1.244826 -1.74276,0 -2.76735,-0.80435 -1.02458,-0.804349 -1.23525,-2.336442 v 0 h 1.76191 v 0 q 0.15321,0.8235 0.72775,1.263977 0.58411,0.450052 1.48421,0.450052 z m 0.33515,-11.883302 q -1.44592,0 -2.11621,0.919257 -0.66071,0.919256 -0.66071,2.920553 0,1.886391 0.71817,2.910978 0.72774,1.015012 2.05875,1.015012 1.2544,0 2.02045,-0.938407 0.76604,-0.938407 0.76604,-2.480077 0,-2.173658 -0.69902,-3.255699 -0.68944,-1.091617 -2.08747,-1.091617 z"
         id="text15"
         style="font-size:19.6108px;font-family:Helvetica;-inkscape-font-specification:'Helvetica, Normal';text-align:justify;letter-spacing:0px;fill:#3468e0;fill-rule:evenodd;stroke-width:0.264583"
         aria-label="g" /><path
         d="m 312.62807,73.55849 v -4.98888 h 1.42676 v 4.98888 z m 2.79607,0 v -4.98888 h 1.42676 v 4.98888 z m 7.82325,11.988634 q 1.48422,0 2.25984,-0.938407 0.77562,-0.928832 0.77562,-2.719467 v -0.335145 l -0.01,0.0096 q -1.06289,1.359733 -2.77692,1.359733 -2.05875,0 -3.27485,-1.532093 -1.2161,-1.54167 -1.2161,-4.155805 0,-2.307716 1.19695,-3.724902 1.19694,-1.417187 3.13121,-1.417187 1.84809,0 2.93013,1.599123 l 0.12448,0.181936 v 0 -1.47464 0 h 1.61828 v 9.489405 q -0.01,2.594984 -1.16822,3.83981 -1.15865,1.244826 -3.56212,1.244826 -1.74276,0 -2.76735,-0.804349 -1.02458,-0.804349 -1.23525,-2.336443 v 0 h 1.76191 v 0 q 0.15321,0.8235 0.72775,1.263977 0.58411,0.450053 1.48421,0.450053 z m 0.33515,-11.883302 q -1.44592,0 -2.11621,0.919256 -0.66071,0.919256 -0.66071,2.920554 0,1.88639 0.71817,2.910978 0.72774,1.015012 2.05875,1.015012 1.2544,0 2.02045,-0.938407 0.76604,-0.938408 0.76604,-2.480077 0,-2.173658 -0.69901,-3.255699 -0.68945,-1.091617 -2.08748,-1.091617 z m 10.75338,8.981899 v -9.786248 0 h -3.22697 v -1.378885 q 1.42676,0.02873 2.31729,-0.612837 0.90011,-0.65114 1.33101,-2.010873 h 1.40761 v 0 13.788843 0 h -0.90968 z m 7.06678,-9.087231 v -4.98888 h 1.42676 v 4.98888 z m 2.79607,0 v -4.98888 h 1.42677 v 4.98888 z"
         id="text18"
         style="font-size:19.6108px;font-family:Helvetica;-inkscape-font-specification:'Helvetica, Normal';text-align:justify;letter-spacing:0px;fill:#b9894a;fill-rule:evenodd;stroke-width:0.264583"
         aria-label="&quot;g1&quot;" /><path
         d="m 257.58111,77.610534 v -0.718169 -0.718169 l 9.57558,-4.060049 v 1.560821 l -7.58386,3.217397 v 0 l 7.58386,3.217397 v 1.56082 z"
         id="text14"
         style="font-size:19.6108px;font-family:Helvetica;-inkscape-font-specification:'Helvetica, Normal';text-align:justify;letter-spacing:0px;fill:#c5cedf;fill-rule:evenodd;stroke-width:0.264583"
         aria-label="&lt;" /><path
         d="m 356.13954,77.610534 -9.57558,4.060048 v -1.56082 l 7.58386,-3.217397 v 0 l -7.58386,-3.217397 v -1.560821 l 9.57558,4.060049 v 0.718169 z"
         id="text16"
         style="font-size:19.6108px;font-family:Helvetica;-inkscape-font-specification:'Helvetica, Normal';text-align:justify;letter-spacing:0px;fill:#c5cedf;fill-rule:evenodd;stroke-width:0.264583"
         aria-label="&gt;" /><path
         d="m 285.18394,82.666443 v -10.245877 0 h 0.8618 0.86181 v 0 10.245877 0 h -0.86181 z m -0.0192,-14.076111 h 1.76191 v 1.953419 h -1.76191 z m 8.22543,14.353803 q -2.05875,0 -3.27485,-1.532094 -1.2161,-1.541669 -1.2161,-4.155804 0,-2.307716 1.1778,-3.724903 1.17779,-1.417187 3.07376,-1.417187 1.88639,0 2.98758,1.599123 l 0.13406,0.191512 v 0 -5.31445 0 h 0.8618 0.86181 v 0 14.076111 0 h -0.79478 -0.80435 v 0 -1.398036 0 l -0.22024,0.315995 q -1.06289,1.359733 -2.78649,1.359733 z m 0.0958,-9.278743 q -1.44592,0 -2.11621,0.928832 -0.67029,0.919256 -0.67029,2.930129 0,1.895966 0.71817,2.920554 0.72774,1.024588 2.06833,1.024588 1.2544,0 2.02044,-0.938408 0.76605,-0.947983 0.76605,-2.499228 0,-2.097053 -0.72774,-3.226972 -0.71817,-1.139495 -2.05875,-1.139495 z"
         id="text17"
         style="font-size:19.6108px;font-family:Helvetica;-inkscape-font-specification:'Helvetica, Normal';text-align:justify;letter-spacing:0px;fill:#e4467a;fill-rule:evenodd;stroke-width:0.264583"
         aria-label="id" /><path
         d="m 300.66958,78.209297 h 9.92031 v 1.445914 h -9.92031 z m 0,-3.964292 h 9.92031 v 1.445913 h -9.92031 z"
         id="text19"
         style="font-size:19.6108px;font-family:Helvetica;-inkscape-font-specification:'Helvetica, Normal';text-align:justify;letter-spacing:0px;fill:#c5cedf;fill-rule:evenodd;stroke-width:0.264583"
         aria-label="=" /><path
         d="m 257.58111,108.82278 v -0.71817 -0.71817 l 9.57558,-4.06005 v 1.56082 l -7.58386,3.2174 v 0 l 7.58386,3.21739 v 1.56082 z"
         id="text20"
         style="font-size:19.6108px;font-family:Helvetica;-inkscape-font-specification:'Helvetica, Normal';text-align:justify;letter-spacing:0px;fill:#c5cedf;fill-rule:evenodd;stroke-width:0.264583"
         aria-label="&lt;" /><path
         d="m 273.51531,116.78008 q 1.48422,0 2.25984,-0.93841 0.77562,-0.92883 0.77562,-2.71946 v -0.33515 l -0.01,0.01 q -1.06289,1.35973 -2.77692,1.35973 -2.05875,0 -3.27485,-1.53209 -1.2161,-1.54167 -1.2161,-4.15581 0,-2.30771 1.19694,-3.7249 1.19695,-1.41719 3.13122,-1.41719 1.84809,0 2.93013,1.59912 l 0.12448,0.18194 v 0 -1.47464 0 h 1.61828 v 9.48941 q -0.01,2.59498 -1.16822,3.83981 -1.15865,1.24482 -3.56212,1.24482 -1.74276,0 -2.76735,-0.80435 -1.02458,-0.80435 -1.23525,-2.33644 v 0 h 1.76191 v 0 q 0.15321,0.8235 0.72775,1.26398 0.58411,0.45005 1.48421,0.45005 z m 0.33515,-11.8833 q -1.44592,0 -2.11621,0.91925 -0.66071,0.91926 -0.66071,2.92056 0,1.88639 0.71817,2.91098 0.72774,1.01501 2.05875,1.01501 1.2544,0 2.02045,-0.93841 0.76604,-0.93841 0.76604,-2.48008 0,-2.17365 -0.69902,-3.2557 -0.68944,-1.09161 -2.08747,-1.09161 z"
         id="text21"
         style="font-size:19.6108px;font-family:Helvetica;-inkscape-font-specification:'Helvetica, Normal';text-align:justify;letter-spacing:0px;fill:#3468e0;fill-rule:evenodd;stroke-width:0.264583"
         aria-label="g" /><path
         d="m 356.13954,108.82278 -9.57558,4.06004 V 111.322 l 7.58386,-3.21739 v 0 l -7.58386,-3.2174 v -1.56082 l 9.57558,4.06005 v 0.71817 z"
         id="text22"
         style="font-size:19.6108px;font-family:Helvetica;-inkscape-font-specification:'Helvetica, Normal';text-align:justify;letter-spacing:0px;fill:#c5cedf;fill-rule:evenodd;stroke-width:0.264583"
         aria-label="&gt;" /><path
         d="m 285.18394,113.87868 v -10.24588 0 h 0.8618 0.86181 v 0 10.24588 0 h -0.86181 z m -0.0192,-14.076114 h 1.76191 v 1.953424 h -1.76191 z m 8.22543,14.353804 q -2.05875,0 -3.27485,-1.53209 -1.2161,-1.54167 -1.2161,-4.15581 0,-2.30771 1.1778,-3.7249 1.17779,-1.41719 3.07376,-1.41719 1.88639,0 2.98758,1.59912 l 0.13406,0.19152 v 0 -5.314454 0 h 0.8618 0.86181 v 0 14.076114 0 h -0.79478 -0.80435 v 0 -1.39804 0 l -0.22024,0.316 q -1.06289,1.35973 -2.78649,1.35973 z m 0.0958,-9.27874 q -1.44592,0 -2.11621,0.92883 -0.67029,0.91925 -0.67029,2.93013 0,1.89596 0.71817,2.92055 0.72774,1.02459 2.06833,1.02459 1.2544,0 2.02044,-0.93841 0.76605,-0.94798 0.76605,-2.49923 0,-2.09705 -0.72774,-3.22697 -0.71817,-1.13949 -2.05875,-1.13949 z"
         id="text23"
         style="font-size:19.6108px;font-family:Helvetica;-inkscape-font-specification:'Helvetica, Normal';text-align:justify;letter-spacing:0px;fill:#e4467a;fill-rule:evenodd;stroke-width:0.264583"
         aria-label="id" /><path
         d="m 312.62807,104.77073 v -4.988878 h 1.42676 v 4.988878 z m 2.79607,0 v -4.988878 h 1.42676 v 4.988878 z m 7.82325,11.98864 q 1.48422,0 2.25984,-0.93841 0.77562,-0.92883 0.77562,-2.71947 v -0.33514 l -0.01,0.01 q -1.06289,1.35974 -2.77692,1.35974 -2.05875,0 -3.27485,-1.5321 -1.2161,-1.54167 -1.2161,-4.1558 0,-2.30772 1.19695,-3.72491 1.19694,-1.41718 3.13121,-1.41718 1.84809,0 2.93013,1.59912 l 0.12448,0.18194 v 0 -1.47464 0 h 1.61828 v 9.4894 q -0.01,2.59499 -1.16822,3.83981 -1.15865,1.24483 -3.56212,1.24483 -1.74276,0 -2.76735,-0.80435 -1.02458,-0.80435 -1.23525,-2.33644 v 0 h 1.76191 v 0 q 0.15321,0.8235 0.72775,1.26397 0.58411,0.45006 1.48421,0.45006 z m 0.33515,-11.88331 q -1.44592,0 -2.11621,0.91926 -0.66071,0.91926 -0.66071,2.92055 0,1.88639 0.71817,2.91098 0.72774,1.01501 2.05875,1.01501 1.2544,0 2.02045,-0.9384 0.76604,-0.93841 0.76604,-2.48008 0,-2.17366 -0.69901,-3.2557 -0.68945,-1.09162 -2.08748,-1.09162 z m 15.4933,-0.74689 q 0,1.52252 -0.7852,2.5088 -0.77562,0.97671 -2.93013,2.16408 -2.33644,1.28313 -3.18867,2.34602 -0.3543,0.45963 -0.58411,1.03417 v 0 h 7.48811 v 1.67572 h -9.44153 v 0 q 0,-2.17365 1.08204,-3.55254 1.08204,-1.38846 4.06005,-3.02588 1.44591,-0.80435 1.97257,-1.47464 0.52666,-0.6703 0.52666,-1.72361 0,-1.10119 -0.7852,-1.80021 -0.7852,-0.69902 -2.01088,-0.69902 -1.28312,0 -2.02044,0.88096 -0.72775,0.87137 -0.77563,2.48007 v 0 h -1.67572 v 0 q -0.0383,-2.27899 1.2161,-3.57169 1.2544,-1.30228 3.49508,-1.30228 1.91512,0 3.1408,1.13949 1.2161,1.12992 1.2161,2.92056 z m 2.32686,0.64156 v -4.988878 h 1.42676 v 4.988878 z m 2.79607,0 v -4.988878 h 1.42677 v 4.988878 z"
         id="text24"
         style="font-size:19.6108px;font-family:Helvetica;-inkscape-font-specification:'Helvetica, Normal';text-align:justify;letter-spacing:0px;fill:#b9894a;fill-rule:evenodd;stroke-width:0.264583"
         aria-label="&quot;g2&quot;" /><path
         d="m 300.66958,109.42153 h 9.92031 v 1.44592 h -9.92031 z m 0,-3.96429 h 9.92031 v 1.44591 h -9.92031 z"
         id="text25"
         style="font-size:19.6108px;font-family:Helvetica;-inkscape-font-specification:'Helvetica, Normal';text-align:justify;letter-spacing:0px;fill:#c5cedf;fill-rule:evenodd;stroke-width:0.264583"
         aria-label="=" /><path
         d="m 273.51531,146.98107 q 1.48422,0 2.25984,-0.93841 0.77562,-0.92883 0.77562,-2.71947 v -0.33514 l -0.01,0.01 q -1.06289,1.35974 -2.77692,1.35974 -2.05875,0 -3.27485,-1.5321 -1.2161,-1.54166 -1.2161,-4.1558 0,-2.30772 1.19694,-3.7249 1.19695,-1.41719 3.13122,-1.41719 1.84809,0 2.93013,1.59912 l 0.12448,0.18194 v 0 -1.47464 0 h 1.61828 v 9.4894 q -0.01,2.59499 -1.16822,3.83981 -1.15865,1.24483 -3.56212,1.24483 -1.74276,0 -2.76735,-0.80435 -1.02458,-0.80435 -1.23525,-2.33644 v 0 h 1.76191 v 0 q 0.15321,0.8235 0.72775,1.26398 0.58411,0.45005 1.48421,0.45005 z m 0.33515,-11.8833 q -1.44592,0 -2.11621,0.91925 -0.66071,0.91926 -0.66071,2.92056 0,1.88639 0.71817,2.91097 0.72774,1.01502 2.05875,1.01502 1.2544,0 2.02045,-0.93841 0.76604,-0.93841 0.76604,-2.48008 0,-2.17366 -0.69902,-3.2557 -0.68944,-1.09161 -2.08747,-1.09161 z"
         id="text27"
         style="font-size:19.6108px;font-family:Helvetica;-inkscape-font-specification:'Helvetica, Normal';text-align:justify;letter-spacing:0px;fill:#3468e0;fill-rule:evenodd;stroke-width:0.264583"
         aria-label="g" /><path
         d="m 312.62807,134.97171 v -4.98888 h 1.42676 v 4.98888 z m 2.79607,0 v -4.98888 h 1.42676 v 4.98888 z m 7.82325,11.98864 q 1.48422,0 2.25984,-0.93841 0.77562,-0.92883 0.77562,-2.71947 v -0.33514 l -0.01,0.01 q -1.06289,1.35974 -2.77692,1.35974 -2.05875,0 -3.27485,-1.5321 -1.2161,-1.54167 -1.2161,-4.1558 0,-2.30772 1.19695,-3.7249 1.19694,-1.41719 3.13121,-1.41719 1.84809,0 2.93013,1.59912 l 0.12448,0.18194 v 0 -1.47464 0 h 1.61828 v 9.4894 q -0.01,2.59499 -1.16822,3.83981 -1.15865,1.24483 -3.56212,1.24483 -1.74276,0 -2.76735,-0.80435 -1.02458,-0.80435 -1.23525,-2.33644 v 0 h 1.76191 v 0 q 0.15321,0.8235 0.72775,1.26397 0.58411,0.45006 1.48421,0.45006 z m 0.33515,-11.8833 q -1.44592,0 -2.11621,0.91925 -0.66071,0.91926 -0.66071,2.92056 0,1.88639 0.71817,2.91097 0.72774,1.01502 2.05875,1.01502 1.2544,0 2.02045,-0.93841 0.76604,-0.93841 0.76604,-2.48008 0,-2.17366 -0.69901,-3.2557 -0.68945,-1.09161 -2.08748,-1.09161 z m 13.51115,-1.06289 q 0,-0.97671 -0.7469,-1.58955 -0.73732,-0.62242 -1.89596,-0.62242 -1.22568,0 -1.87682,0.75648 -0.65114,0.74689 -0.71817,2.24068 v 0 h -1.67572 v 0 q 0,-2.16408 1.12992,-3.34188 1.13949,-1.18737 3.21739,-1.18737 1.963,0 3.15995,0.98629 1.20652,0.97671 1.20652,2.5854 0,1.59913 -1.20652,2.58541 -0.22982,0.19151 -0.49793,0.34472 v 0 q 0.49793,0.22024 0.88095,0.52666 1.2927,1.01501 1.2927,2.73862 0,1.93427 -1.34058,3.16952 -1.34058,1.22567 -3.44721,1.22567 -2.31729,0 -3.49509,-1.11077 -1.1778,-1.12034 -1.28313,-3.41848 v 0 h 1.80979 v 0 q 0.15321,1.6087 0.85223,2.30772 0.69901,0.68944 2.17365,0.68944 1.27356,0 2.08748,-0.72775 0.81393,-0.73732 0.81393,-1.88639 0,-1.20652 -0.7852,-1.91511 -0.67029,-0.61284 -1.72361,-0.68945 -0.48835,-0.0287 -0.92883,-0.0287 -0.4309,0 -0.57453,0.0383 v -1.51294 q 0.21066,0.0479 0.65114,0.0479 0.44047,0 0.87137,-0.0575 0.83308,-0.10533 1.35016,-0.54581 0.69902,-0.57453 0.69902,-1.60869 z m 4.30901,0.95755 v -4.98888 h 1.42676 v 4.98888 z m 2.79607,0 v -4.98888 h 1.42677 v 4.98888 z"
         id="text30"
         style="font-size:19.6108px;font-family:Helvetica;-inkscape-font-specification:'Helvetica, Normal';text-align:justify;letter-spacing:0px;fill:#b9894a;fill-rule:evenodd;stroke-width:0.264583"
         aria-label="&quot;g3&quot;" /><path
         d="m 257.58111,139.02376 v -0.71817 -0.71817 l 9.57558,-4.06005 v 1.56082 l -7.58386,3.2174 v 0 l 7.58386,3.21739 v 1.56083 z"
         id="text26"
         style="font-size:19.6108px;font-family:Helvetica;-inkscape-font-specification:'Helvetica, Normal';text-align:justify;letter-spacing:0px;fill:#c5cedf;fill-rule:evenodd;stroke-width:0.264583"
         aria-label="&lt;" /><path
         d="m 356.13954,139.02376 -9.57558,4.06005 v -1.56083 l 7.58386,-3.21739 v 0 l -7.58386,-3.2174 v -1.56082 l 9.57558,4.06005 v 0.71817 z"
         id="text28"
         style="font-size:19.6108px;font-family:Helvetica;-inkscape-font-specification:'Helvetica, Normal';text-align:justify;letter-spacing:0px;fill:#c5cedf;fill-rule:evenodd;stroke-width:0.264583"
         aria-label="&gt;" /><path
         d="m 285.18394,144.07967 v -10.24588 0 h 0.8618 0.86181 v 0 10.24588 0 h -0.86181 z m -0.0192,-14.07612 h 1.76191 v 1.95342 h -1.76191 z m 8.22543,14.35381 q -2.05875,0 -3.27485,-1.5321 -1.2161,-1.54166 -1.2161,-4.1558 0,-2.30772 1.1778,-3.7249 1.17779,-1.41719 3.07376,-1.41719 1.88639,0 2.98758,1.59912 l 0.13406,0.19152 v 0 -5.31446 0 h 0.8618 0.86181 v 0 14.07612 0 h -0.79478 -0.80435 v 0 -1.39804 0 l -0.22024,0.31599 q -1.06289,1.35974 -2.78649,1.35974 z m 0.0958,-9.27874 q -1.44592,0 -2.11621,0.92883 -0.67029,0.91925 -0.67029,2.93013 0,1.89596 0.71817,2.92055 0.72774,1.02459 2.06833,1.02459 1.2544,0 2.02044,-0.93841 0.76605,-0.94798 0.76605,-2.49923 0,-2.09705 -0.72774,-3.22697 -0.71817,-1.13949 -2.05875,-1.13949 z"
         id="text29"
         style="font-size:19.6108px;font-family:Helvetica;-inkscape-font-specification:'Helvetica, Normal';text-align:justify;letter-spacing:0px;fill:#e4467a;fill-rule:evenodd;stroke-width:0.264583"
         aria-label="id" /><path
         d="m 300.66958,139.62252 h 9.92031 v 1.44591 h -9.92031 z m 0,-3.96429 h 9.92031 v 1.44591 h -9.92031 z"
         id="text31"
         style="font-size:19.6108px;font-family:Helvetica;-inkscape-font-specification:'Helvetica, Normal';text-align:justify;letter-spacing:0px;fill:#c5cedf;fill-rule:evenodd;stroke-width:0.264583"
         aria-label="=" /><path
         d="m 292.06657,176.89313 q 1.48422,0 2.25984,-0.93841 0.77562,-0.92883 0.77562,-2.71946 v -0.33515 l -0.01,0.01 q -1.06289,1.35973 -2.77692,1.35973 -2.05875,0 -3.27485,-1.53209 -1.2161,-1.54167 -1.2161,-4.15581 0,-2.30771 1.19694,-3.7249 1.19695,-1.41719 3.13122,-1.41719 1.84809,0 2.93013,1.59913 l 0.12448,0.18193 v 0 -1.47464 0 h 1.61828 v 9.48941 q -0.01,2.59498 -1.16822,3.83981 -1.15865,1.24482 -3.56212,1.24482 -1.74276,0 -2.76735,-0.80434 -1.02458,-0.80435 -1.23525,-2.33645 v 0 h 1.76191 v 0 q 0.15321,0.8235 0.72775,1.26398 0.58411,0.45005 1.48421,0.45005 z m 0.33515,-11.8833 q -1.44592,0 -2.11621,0.91926 -0.66071,0.91925 -0.66071,2.92055 0,1.88639 0.71817,2.91098 0.72774,1.01501 2.05875,1.01501 1.2544,0 2.02045,-0.93841 0.76604,-0.9384 0.76604,-2.48007 0,-2.17366 -0.69902,-3.2557 -0.68944,-1.09162 -2.08747,-1.09162 z"
         id="path57"
         style="font-size:19.6108px;font-family:Helvetica;-inkscape-font-specification:'Helvetica, Normal';text-align:justify;letter-spacing:0px;fill:#3468e0;fill-rule:evenodd;stroke-width:0.264583"
         aria-label="g" /><path
         d="m 331.17933,164.88378 v -4.98888 h 1.42676 v 4.98888 z m 2.79607,0 v -4.98888 h 1.42676 v 4.98888 z m 7.82325,11.98863 q 1.48422,0 2.25984,-0.93841 0.77562,-0.92883 0.77562,-2.71946 v -0.33515 l -0.01,0.01 q -1.06289,1.35973 -2.77692,1.35973 -2.05875,0 -3.27485,-1.53209 -1.2161,-1.54167 -1.2161,-4.15581 0,-2.30771 1.19695,-3.7249 1.19694,-1.41719 3.13121,-1.41719 1.84809,0 2.93013,1.59913 l 0.12448,0.18193 v 0 -1.47464 0 h 1.61828 v 9.48941 q -0.01,2.59498 -1.16822,3.83981 -1.15865,1.24482 -3.56212,1.24482 -1.74276,0 -2.76735,-0.80435 -1.02458,-0.80435 -1.23525,-2.33644 v 0 h 1.76191 v 0 q 0.15321,0.8235 0.72775,1.26398 0.58411,0.45005 1.48421,0.45005 z m 0.33515,-11.8833 q -1.44592,0 -2.11621,0.91926 -0.66071,0.91925 -0.66071,2.92055 0,1.88639 0.71817,2.91098 0.72774,1.01501 2.05875,1.01501 1.2544,0 2.02045,-0.93841 0.76604,-0.93841 0.76604,-2.48008 0,-2.17365 -0.69901,-3.25569 -0.68945,-1.09162 -2.08748,-1.09162 z m 12.11311,5.67832 h -6.08049 v -0.80435 -0.80435 l 6.37734,-8.86699 h 0.71817 0.71817 v 9.00105 0 h 1.95341 v 1.47464 h -1.95341 v 0 3.30358 h -1.73319 z m 0,-1.47464 v 0 -6.29116 0 0 l -4.39519,6.1571 -0.0958,0.13406 v 0 z m 5.70705,-4.30901 v -4.98888 h 1.42676 v 4.98888 z m 2.79607,0 v -4.98888 h 1.42677 v 4.98888 z"
         id="path58"
         style="font-size:19.6108px;font-family:Helvetica;-inkscape-font-specification:'Helvetica, Normal';text-align:justify;letter-spacing:0px;fill:#b9894a;fill-rule:evenodd;stroke-width:0.264583"
         aria-label="&quot;g4&quot;" /><path
         d="m 276.13237,168.93582 v -0.71817 -0.71817 l 9.57558,-4.06005 v 1.56082 l -7.58386,3.2174 v 0 l 7.58386,3.2174 v 1.56082 z"
         id="path59"
         style="font-size:19.6108px;font-family:Helvetica;-inkscape-font-specification:'Helvetica, Normal';text-align:justify;letter-spacing:0px;fill:#c5cedf;fill-rule:evenodd;stroke-width:0.264583"
         aria-label="&lt;" /><path
         d="m 374.6908,168.93582 -9.57558,4.06005 v -1.56082 l 7.58386,-3.2174 v 0 l -7.58386,-3.2174 v -1.56082 l 9.57558,4.06005 v 0.71817 z"
         id="path60"
         style="font-size:19.6108px;font-family:Helvetica;-inkscape-font-specification:'Helvetica, Normal';text-align:justify;letter-spacing:0px;fill:#c5cedf;fill-rule:evenodd;stroke-width:0.264583"
         aria-label="&gt;" /><path
         d="m 303.7352,173.99173 v -10.24588 0 h 0.8618 0.86181 v 0 10.24588 0 H 304.597 Z m -0.0192,-14.07611 h 1.76191 v 1.95342 H 303.716 Z m 8.22543,14.3538 q -2.05875,0 -3.27485,-1.53209 -1.2161,-1.54167 -1.2161,-4.15581 0,-2.30771 1.1778,-3.7249 1.17779,-1.41719 3.07376,-1.41719 1.88639,0 2.98758,1.59913 l 0.13406,0.19151 v 0 -5.31445 0 h 0.8618 0.86181 v 0 14.07611 0 h -0.79478 -0.80435 v 0 -1.39804 0 l -0.22024,0.316 q -1.06289,1.35973 -2.78649,1.35973 z m 0.0958,-9.27874 q -1.44592,0 -2.11621,0.92883 -0.67029,0.91926 -0.67029,2.93013 0,1.89597 0.71817,2.92055 0.72774,1.02459 2.06833,1.02459 1.2544,0 2.02044,-0.93841 0.76605,-0.94798 0.76605,-2.49922 0,-2.09706 -0.72774,-3.22698 -0.71817,-1.13949 -2.05875,-1.13949 z"
         id="path61"
         style="font-size:19.6108px;font-family:Helvetica;-inkscape-font-specification:'Helvetica, Normal';text-align:justify;letter-spacing:0px;fill:#e4467a;fill-rule:evenodd;stroke-width:0.264583"
         aria-label="id" /><path
         d="m 319.22084,169.53458 h 9.92031 v 1.44592 h -9.92031 z m 0,-3.96429 h 9.92031 v 1.44591 h -9.92031 z"
         id="path62"
         style="font-size:19.6108px;font-family:Helvetica;-inkscape-font-specification:'Helvetica, Normal';text-align:justify;letter-spacing:0px;fill:#c5cedf;fill-rule:evenodd;stroke-width:0.264583"
         aria-label="=" /><path
         id="path38"
         style="vector-effect:non-scaling-stroke;fill:#c5cedf;fill-opacity:1;fill-rule:evenodd;stroke-width:0.264583;-inkscape-stroke:hairline"
         d="m 234.17795,67.502243 v 18.78025 l 8.97568,-9.39013 z"
         sodipodi:nodetypes="cccc" /><path
         d="m 257.58111,108.82278 v -0.71817 -0.71817 l 9.57558,-4.06005 v 1.56082 l -7.58386,3.2174 v 0 l 7.58386,3.21739 v 1.56082 z"
         id="path39"
         style="font-size:19.6108px;font-family:Helvetica;-inkscape-font-specification:'Helvetica, Normal';text-align:justify;letter-spacing:0px;fill:#c5cedf;fill-rule:evenodd;stroke-width:0.264583"
         aria-label="&lt;" /><path
         d="m 273.51531,116.78008 q 1.48422,0 2.25984,-0.93841 0.77562,-0.92883 0.77562,-2.71946 v -0.33515 l -0.01,0.01 q -1.06289,1.35973 -2.77692,1.35973 -2.05875,0 -3.27485,-1.53209 -1.2161,-1.54167 -1.2161,-4.15581 0,-2.30771 1.19694,-3.7249 1.19695,-1.41719 3.13122,-1.41719 1.84809,0 2.93013,1.59912 l 0.12448,0.18194 v 0 -1.47464 0 h 1.61828 v 9.48941 q -0.01,2.59498 -1.16822,3.83981 -1.15865,1.24482 -3.56212,1.24482 -1.74276,0 -2.76735,-0.80435 -1.02458,-0.80435 -1.23525,-2.33644 v 0 h 1.76191 v 0 q 0.15321,0.8235 0.72775,1.26398 0.58411,0.45005 1.48421,0.45005 z m 0.33515,-11.8833 q -1.44592,0 -2.11621,0.91925 -0.66071,0.91926 -0.66071,2.92056 0,1.88639 0.71817,2.91098 0.72774,1.01501 2.05875,1.01501 1.2544,0 2.02045,-0.93841 0.76604,-0.93841 0.76604,-2.48008 0,-2.17365 -0.69902,-3.2557 -0.68944,-1.09161 -2.08747,-1.09161 z"
         id="path40"
         style="font-size:19.6108px;font-family:Helvetica;-inkscape-font-specification:'Helvetica, Normal';text-align:justify;letter-spacing:0px;fill:#3468e0;fill-rule:evenodd;stroke-width:0.264583"
         aria-label="g" /><path
         d="m 356.13954,108.82278 -9.57558,4.06004 V 111.322 l 7.58386,-3.21739 v 0 l -7.58386,-3.2174 v -1.56082 l 9.57558,4.06005 v 0.71817 z"
         id="path41"
         style="font-size:19.6108px;font-family:Helvetica;-inkscape-font-specification:'Helvetica, Normal';text-align:justify;letter-spacing:0px;fill:#c5cedf;fill-rule:evenodd;stroke-width:0.264583"
         aria-label="&gt;" /><path
         d="m 285.18394,113.87868 v -10.24588 0 h 0.8618 0.86181 v 0 10.24588 0 h -0.86181 z m -0.0192,-14.076114 h 1.76191 v 1.953424 h -1.76191 z m 8.22543,14.353804 q -2.05875,0 -3.27485,-1.53209 -1.2161,-1.54167 -1.2161,-4.15581 0,-2.30771 1.1778,-3.7249 1.17779,-1.41719 3.07376,-1.41719 1.88639,0 2.98758,1.59912 l 0.13406,0.19152 v 0 -5.314454 0 h 0.8618 0.86181 v 0 14.076114 0 h -0.79478 -0.80435 v 0 -1.39804 0 l -0.22024,0.316 q -1.06289,1.35973 -2.78649,1.35973 z m 0.0958,-9.27874 q -1.44592,0 -2.11621,0.92883 -0.67029,0.91925 -0.67029,2.93013 0,1.89596 0.71817,2.92055 0.72774,1.02459 2.06833,1.02459 1.2544,0 2.02044,-0.93841 0.76605,-0.94798 0.76605,-2.49923 0,-2.09705 -0.72774,-3.22697 -0.71817,-1.13949 -2.05875,-1.13949 z"
         id="path42"
         style="font-size:19.6108px;font-family:Helvetica;-inkscape-font-specification:'Helvetica, Normal';text-align:justify;letter-spacing:0px;fill:#e4467a;fill-rule:evenodd;stroke-width:0.264583"
         aria-label="id" /><path
         d="m 312.62807,104.77073 v -4.988878 h 1.42676 v 4.988878 z m 2.79607,0 v -4.988878 h 1.42676 v 4.988878 z m 7.82325,11.98864 q 1.48422,0 2.25984,-0.93841 0.77562,-0.92883 0.77562,-2.71947 v -0.33514 l -0.01,0.01 q -1.06289,1.35974 -2.77692,1.35974 -2.05875,0 -3.27485,-1.5321 -1.2161,-1.54167 -1.2161,-4.1558 0,-2.30772 1.19695,-3.72491 1.19694,-1.41718 3.13121,-1.41718 1.84809,0 2.93013,1.59912 l 0.12448,0.18194 v 0 -1.47464 0 h 1.61828 v 9.4894 q -0.01,2.59499 -1.16822,3.83981 -1.15865,1.24483 -3.56212,1.24483 -1.74276,0 -2.76735,-0.80435 -1.02458,-0.80435 -1.23525,-2.33644 v 0 h 1.76191 v 0 q 0.15321,0.8235 0.72775,1.26397 0.58411,0.45006 1.48421,0.45006 z m 0.33515,-11.88331 q -1.44592,0 -2.11621,0.91926 -0.66071,0.91926 -0.66071,2.92055 0,1.88639 0.71817,2.91098 0.72774,1.01501 2.05875,1.01501 1.2544,0 2.02045,-0.9384 0.76604,-0.93841 0.76604,-2.48008 0,-2.17366 -0.69901,-3.2557 -0.68945,-1.09162 -2.08748,-1.09162 z m 15.4933,-0.74689 q 0,1.52252 -0.7852,2.5088 -0.77562,0.97671 -2.93013,2.16408 -2.33644,1.28313 -3.18867,2.34602 -0.3543,0.45963 -0.58411,1.03417 v 0 h 7.48811 v 1.67572 h -9.44153 v 0 q 0,-2.17365 1.08204,-3.55254 1.08204,-1.38846 4.06005,-3.02588 1.44591,-0.80435 1.97257,-1.47464 0.52666,-0.6703 0.52666,-1.72361 0,-1.10119 -0.7852,-1.80021 -0.7852,-0.69902 -2.01088,-0.69902 -1.28312,0 -2.02044,0.88096 -0.72775,0.87137 -0.77563,2.48007 v 0 h -1.67572 v 0 q -0.0383,-2.27899 1.2161,-3.57169 1.2544,-1.30228 3.49508,-1.30228 1.91512,0 3.1408,1.13949 1.2161,1.12992 1.2161,2.92056 z m 2.32686,0.64156 v -4.988878 h 1.42676 v 4.988878 z m 2.79607,0 v -4.988878 h 1.42677 v 4.988878 z"
         id="path43"
         style="font-size:19.6108px;font-family:Helvetica;-inkscape-font-specification:'Helvetica, Normal';text-align:justify;letter-spacing:0px;fill:#b9894a;fill-rule:evenodd;stroke-width:0.264583"
         aria-label="&quot;g2&quot;" /><path
         d="m 300.66958,109.42153 h 9.92031 v 1.44592 h -9.92031 z m 0,-3.96429 h 9.92031 v 1.44591 h -9.92031 z"
         id="path44"
         style="font-size:19.6108px;font-family:Helvetica;-inkscape-font-specification:'Helvetica, Normal';text-align:justify;letter-spacing:0px;fill:#c5cedf;fill-rule:evenodd;stroke-width:0.264583"
         aria-label="=" /><path
         id="path55"
         style="vector-effect:non-scaling-stroke;fill:#c5cedf;fill-opacity:1;fill-rule:evenodd;stroke-width:0.264583;-inkscape-stroke:hairline"
         d="m 257.88106,158.82753 v 18.78025 l 8.97568,-9.39013 z"
         sodipodi:nodetypes="cccc" /><path
         id="path56"
         style="vector-effect:non-scaling-stroke;fill:#c5cedf;fill-opacity:1;fill-rule:evenodd;stroke-width:0.264583;-inkscape-stroke:hairline"
         d="m 243.56807,133.45866 h -18.78025 l 9.39013,8.97568 z"
         sodipodi:nodetypes="cccc" /></g></g><metadata
     id="metadata2118"><rdf:RDF><cc:Work
         rdf:about="" /></rdf:RDF></metadata></svg>
