<?xml version="1.0" encoding="UTF-8" standalone="no"?>
<svg
   xml:space="preserve"
   inkscape:version="1.2.2 (b0a8486541, 2022-12-01)"
   sodipodi:docname="000_Mightyscape.svg"
   id="svg5"
   version="1.1"
   viewBox="0 0 1328.578 264.58301"
   height="264.58301mm"
   width="1328.578mm"
   xmlns:inkscape="http://www.inkscape.org/namespaces/inkscape"
   xmlns:sodipodi="http://sodipodi.sourceforge.net/DTD/sodipodi-0.dtd"
   xmlns:xlink="http://www.w3.org/1999/xlink"
   xmlns="http://www.w3.org/2000/svg"
   xmlns:svg="http://www.w3.org/2000/svg"><sodipodi:namedview
     id="namedview7"
     pagecolor="#ffffff"
     bordercolor="#666666"
     borderopacity="1.0"
     objecttolerance="10.0"
     gridtolerance="10.0"
     guidetolerance="10.0"
     inkscape:pageshadow="2"
     inkscape:pageopacity="1"
     inkscape:pagecheckerboard="0"
     inkscape:document-units="mm"
     showgrid="false"
     inkscape:zoom="0.1450088"
     inkscape:cx="2010.2229"
     inkscape:cy="913.73767"
     inkscape:window-width="1920"
     inkscape:window-height="1024"
     inkscape:window-x="0"
     inkscape:window-y="0"
     inkscape:window-maximized="1"
     inkscape:current-layer="layer1"
     showborder="false"
     inkscape:showpageshadow="false"
     inkscape:deskcolor="#ffffff" /><defs
     id="defs2"><linearGradient
       inkscape:collect="always"
       id="linearGradient4294"><stop
         style="stop-color:#ffffff;stop-opacity:0.34238502;"
         offset="0"
         id="stop4290" /><stop
         style="stop-color:#ffffff;stop-opacity:0;"
         offset="1"
         id="stop4292" /></linearGradient><clipPath
       clipPathUnits="userSpaceOnUse"
       id="clipPath929"><circle
         style="fill:none;fill-rule:evenodd;stroke:#01a5d1;stroke-width:11.6564;stroke-linecap:square;stroke-dasharray:none;stroke-dashoffset:0;stroke-opacity:1"
         id="circle931"
         cx="821.97205"
         cy="413.35864"
         r="906.89026" /></clipPath><radialGradient
       inkscape:collect="always"
       xlink:href="#linearGradient4294"
       id="radialGradient4296"
       cx="903.97827"
       cy="918.08154"
       fx="903.97827"
       fy="918.08154"
       r="829.9809"
       gradientTransform="matrix(0.11395053,-0.13174719,0.02460436,0.02128075,6.6940648,231.85076)"
       gradientUnits="userSpaceOnUse" /></defs><g
     inkscape:label="Ebene 1"
     inkscape:groupmode="layer"
     id="layer1"><style
       type="text/css"
       id="style26">
	.specularity {opacity:0.5;}
	.low-specularity {opacity:0.25;}
	.full-specularity {opacity:1;}
	.black {fill:#000000;}
	.white {fill:#ffffff;}
	.outline-big {stroke-width:16;stroke:none;opacity:0.1;fill:none;}
	.outline-small {stroke-width:8;stroke:none;opacity:0.2;fill:none;}
	.stroke-highlight {fill:none;stroke:none;opacity:0.2;}
       	.base-shadow 	{fill:black;opacity:75;}
	</style><rect
       style="fill:#ffffff;fill-opacity:0.996078;fill-rule:evenodd;stroke:none;stroke-width:64.7487;stroke-linecap:square"
       id="rect910"
       width="1328.578"
       height="264.58301"
       x="0"
       y="0" /><g
       id="g6414"><g
         id="slic3r-stl-input-1049"
         transform="matrix(0.13532688,0,0,0.13532688,21.056758,76.35313)"
         clip-path="url(#clipPath929)"><g
           id="layer0"
           inkscape:label="layer0 slic3r:z=5e-008"><path
             style="fill:#00a0e1;fill-opacity:0.857143;stroke-width:4;stroke-opacity:0.857143"
             id="polygon1"
             inkscape:connector-curvature="0"
             d="m 14.9985,1115.2314 5.0004,0.9504 15.0003,2.6595 4.9995,2.1321 15.0003,17.8875 4.9995,3.9969 21.5991,20.4957 13.4001,3.9816 5.0004,3.231 21.8574,4.5189 13.1436,-1.3356 4.9995,0.4158 14.9994,-4.8726 5.0004,-2.5749 15.0003,-6.093 4.9995,-1.0971 14.9994,-1.3293 5.0013,-1.4778 14.9994,-0.3042 5.0004,0.2772 15.0003,1.2456 4.9995,0.3321 16.7769,8.2377 18.2232,-9.7884 4.9995,-0.8676 15.0003,-1.6326 5.0004,-2.511 15.0003,2.0763 4.9995,-0.2583 17.6247,5.4981 17.3745,-6.7347 5.0013,0.6912 14.9985,10.827 5.0013,5.0688 15.0003,19.827 4.9995,8.685 14.9994,8.1954 4.9995,2.529 17.1873,5.3613 25.4169,-1.3158 12.3957,-4.0734 5.0013,-1.6533 15.0003,0.4437 4.9995,-6.3126 19.611,17.739 15.3891,-2.8683 10.6371,14.6466 34.3629,-21.0627 14.9994,-2.6586 5.0004,-0.8028 15.0003,2.853 4.9995,1.2726 22.0878,8.3178 12.9114,-0.046 5.0004,0.8028 15.0012,-0.2502 4.9986,-0.4617 15.0003,-0.3312 5.0004,-0.1476 15.0003,-0.8316 4.9995,-0.4239 15.0003,0.3879 5.0004,-0.2952 14.9994,0.4968 5.0004,0.2313 15.0003,0.7758 4.9995,0.4059 15.0003,0.5544 5.0004,0.5625 14.9994,1.1637 5.0004,0.6831 14.9994,0.9396 4.9995,0.2493 15.0003,0.8307 5.0004,0.2322 14.9994,2.7135 5.0004,1.1439 14.9994,4.6233 5.0004,1.3482 14.9994,5.7609 5.0013,1.5687 14.9994,6.7842 4.9995,2.0025 15.0003,3.0447 5.0004,1.0809 15.0003,1.3851 5.0004,1.0152 14.9985,0.6354 5.0004,0.2952 15.0012,1.2753 4.9995,0.2493 15.0003,1.4679 4.9995,0.3591 14.9994,-1.854 5.0004,-0.4428 15.0003,-3.7404 5.0004,-0.7569 14.9985,-3.5973 5.0013,-1.0998 15.0003,-2.9898 4.9986,-1.1898 15.0012,-1.1934 4.9995,-0.6912 14.9994,1.1907 5.0004,0.2772 14.9994,2.6019 5.0004,0.7389 15.0003,2.0214 4.9995,1.0143 15.0003,1.4688 4.9995,0.7389 15.0012,0.4437 4.9995,-0.2124 14.9994,-0.3051 5.0004,-0.064 14.9994,-1.8009 5.0013,-0.2124 h 15.0003 l 4.9995,-0.5265 15.0003,2.9907 4.9995,1.1628 14.9994,2.16 5.0013,0.8577 14.9994,-0.1926 4.9995,0.092 15.0012,-1.9656 4.9995,-0.2592 15.0003,-3.5991 4.9995,-1.1988 14.9994,-5.2065 4.9995,-2.4093 15.0003,-4.7637 5.0013,-1.8009 14.9994,-4.2921 4.9995,-1.6596 15.0012,-6.1479 4.9986,-1.8999 15.0012,-6.0921 4.9995,-1.5048 14.9994,-7.227 5.0013,-2.3175 14.9994,-7.8372 4.9995,-2.7864 15.0012,-8.694 4.9995,-2.3922 15.0003,-9.6921 4.9995,-3.5244 v 144.4365 H 0 v -204.867 z" /><desc
             id="descl0">Depth: 90.00mm
Raise: 0.00mm
</desc></g><g
           id="g1754"
           inkscape:label="layer1 slic3r:z=2.5e-007"><path
             style="fill:#00a0e1;fill-opacity:0.714286;stroke-width:4;stroke-opacity:0.714286"
             id="polygon2"
             inkscape:connector-curvature="0"
             d="m 458.5995,912.4605 16.398,-5.2677 5.0013,-0.4797 14.9994,15.5061 5.0004,5.1696 15.0003,24.3954 4.9995,12.1293 27.1341,47.3328 52.866,-21.8592 16.6878,44.4834 18.3114,16.7679 5.0013,7.6518 14.9985,14.5098 5.0013,4.7547 15.0003,15.5898 4.9995,3.6918 18.6543,23.4837 37.5165,16.6239 18.8298,-4.6926 4.9986,-1.6875 15.0012,-2.8539 4.9995,-0.9306 15.0003,0.3042 h 4.9995 l 15.0003,3.0456 5.0004,0.8487 14.9994,4.7628 5.0004,1.6893 15.0003,3.7377 4.9986,1.5408 15.0003,5.4279 5.0013,1.773 14.9994,5.2056 5.0004,1.8 14.9985,4.2354 5.0013,1.7919 15.0003,5.0679 4.9986,1.8351 15.0012,6.6744 4.9995,2.5749 14.9994,5.9526 5.0004,1.6983 14.9994,2.52 5.0013,0.7767 15.0003,1.2186 4.9995,0.6363 14.9994,0.8019 4.9995,0.6291 15.0012,-0.1116 4.9995,0.047 15.0003,-0.387 4.9995,-0.1665 15.0003,-0.3888 4.9995,-0.1746 15.0012,-0.3051 4.9986,-0.1 15.0012,0.4968 4.9986,-0.1008 15.0012,0.4428 4.9995,-0.2124 14.9994,2.6028 5.0013,0.02 14.9985,-0.1944 h 5.0013 l 14.9994,-0.6921 4.9995,-0.083 15.0003,1.1898 5.0013,0.4428 14.9994,0.9135 5.0004,0.9045 14.9985,-0.387 5.0013,0.066 14.9994,-0.5265 5.0004,-0.3141 h 15.0003 l 4.9986,-0.1296 h 20.0007 l 15.0003,-0.8037 5.0004,-0.6093 15.0003,-2.6028 4.9995,-0.6552 15.0003,-6.2037 4.9995,-1.3752 15.0003,-6.2298 4.9995,-1.9017 15.0003,-5.9535 4.9995,-1.8171 14.9994,-7.974 5.0004,-3.4164 15.0003,-8.1126 4.9995,-3.9321 15.0003,-10.8279 5.0004,-2.2149 15.0003,-4.8186 4.9995,-1.476 14.9994,-3.5442 5.0004,-1.5048 15.0012,-6.4809 4.9995,-1.8369 15.0003,-5.5098 4.9995,-1.7073 v 209.6667 H 0 v -320.013 l 14.9976,8.1126 5.0004,3.4992 15.0003,4.2363 4.9995,0.9774 15.0012,1.1637 4.9986,0.693 15.0012,1.08 4.9995,0.5067 15.0003,-0.3321 4.9995,-0.1656 15.0003,0.4986 5.0004,-0.084 14.9994,3.4335 4.9995,0.6282 15.0003,3.1563 5.0004,0.2403 15.0003,3.2958 5.0004,0.3492 21.7962,-0.078 13.2039,-3.0222 4.9995,-0.5904 14.9994,-3.9879 4.9995,-1.5039 19.5858,-6.0381 15.4152,-15.6798 5.0004,-3.7395 14.9994,-13.6791 5.0004,-5.4459 15.0003,-13.5117 4.9995,-6.129 14.9994,-11.7135 4.9995,-4.7718 15.0012,-4.1805 5.0004,-3.6378 14.9985,-7.0326 5.0013,-1.6434 15.0003,-7.4772 4.9995,-0.9324 15.0003,-8.1126 4.9986,-2.0205 15.0012,1.3284 5.0004,-1.9845 z" /><desc
             id="descl1">Depth: 90.00mm
Raise: 90.00mm
</desc></g><g
           id="layer2"
           inkscape:label="layer2 slic3r:z=5.5e-007"><path
             style="fill:#00a0e1;fill-opacity:0.571429;stroke-width:4;stroke-opacity:0.571429"
             id="polygon3"
             inkscape:connector-curvature="0"
             d="m 464.9976,592.8615 15.0012,-5.9535 5.0004,12.1284 14.931,77.1246 20.0673,19.2645 5.0004,1.2285 16.0893,19.8981 38.9106,-16.308 5.0004,-0.7659 14.9994,-4.5414 5.0013,-0.2682 15.0003,7.9758 4.9986,5.8878 15.0012,18.0549 4.9995,7.7904 16.65,15.1218 18.3501,6.5052 5.0004,1.2645 14.112,6.5124 20.8872,4.2399 5.0004,1.7253 14.9994,13.4847 5.0004,7.9848 16.4421,30.0789 38.5578,-3.5604 4.9995,-2.2428 15.0012,-3.8214 4.9995,2.0034 15.0003,1.4121 4.9995,0.8667 15.0003,3.0474 5.0004,3.1941 15.0003,9.1647 4.9986,5.6385 15.0003,12.9312 5.0004,10.3941 17.1612,51.1965 37.8387,6.075 4.9995,-0.5067 15.0012,5.2335 4.9995,1.8369 14.9994,12.1833 4.9995,3.1014 15.0012,13.4316 4.9995,5.0013 15.0003,13.1814 4.9995,4.2462 15.0012,14.8968 4.9986,7.3737 24.579,26.7714 30.4218,3.7629 4.9995,0.8478 14.9994,1.9665 5.0013,1.035 14.9994,3.2949 4.9995,1.9188 15.0003,5.5665 5.0004,2.2806 14.9994,6.9768 5.0013,2.115 14.9985,6.6447 5.0013,1.8009 14.9994,4.8726 4.9995,0.9693 15.0003,4.1814 4.9995,0.1476 15.0012,0.9423 h 4.9995 l 18.7812,-0.4509 16.218,-4.1913 5.0013,-1.6065 14.9994,-5.8977 4.9995,-2.0403 15.0012,-7.5888 4.9986,-0.8019 15.0012,-6.1479 5.0004,-2.2608 14.9985,-4.6242 5.0013,-0.5913 14.9985,-2.2977 5.0004,-1.7352 13.8258,-0.4077 21.1752,-9.1089 5.0004,-2.5119 14.9985,-9.7452 5.0004,-3.8673 15.0003,-14.4558 4.9995,-5.3802 15.0012,-18.1926 4.9995,-2.5749 14.9994,17.5005 5.0004,2.9349 15.0003,12.1554 5.0004,2.5749 14.9994,7.4223 v 304.5609 H 0 V 775.2663 l 4.9977,1.1169 15.0012,-1.9656 h 4.9986 l 15.0012,-0.2772 5.0004,0.1017 14.9985,0.1944 5.0013,0.9324 15.0003,1.4121 4.9986,0.738 15.0012,2.4093 4.9986,1.1988 15.0012,3.1023 5.0004,1.1448 14.9985,2.6577 5.0004,2.0034 15.0003,3.4875 4.9995,2.4381 33.5745,6.1983 21.4263,-20.4498 4.9995,-3.4605 15.0003,-14.373 4.9995,-9.0999 15.0012,-15.84 4.9995,-4.7349 14.9994,-10.4661 5.0004,-1.431 13.9941,-1.8342 21.0051,-15.0849 5.0013,-4.1175 14.9994,-13.6782 5.0004,-7.0326 15.0003,-14.76 4.9995,-3.636 15.0003,-18.774 4.9995,-4.5225 14.9994,-8.4177 5.0013,-2.9358 14.9985,-13.3749 5.0004,-5.8239 30.8376,-24.4782 4.1625,-4.9563 z" /><desc
             id="descl2">Depth: 90.00mm
Raise: 180.00mm
</desc></g><g
           id="layer3"
           inkscape:label="layer3 slic3r:z=8.5e-007"><path
             style="fill:#00a0e1;fill-opacity:0.428571;stroke-width:4;stroke-opacity:0.428571"
             id="polygon4"
             inkscape:connector-curvature="0"
             d="m 554.9976,225.3807 5.0004,-3.1014 15.0012,10.5786 4.9995,3.2949 15.0003,24.0624 4.9986,4.1805 16.8813,25.1793 18.1197,6.4908 4.9995,13.7061 15.0012,65.1564 4.9986,25.2153 15.0003,37.4931 4.9995,3.0645 12.4236,18.0504 27.5778,-0.7146 20.1249,3.2319 14.8743,-3.0204 4.9995,0.0828 15.0003,-4.6233 4.9995,0.36 15.0012,-6.9786 5.0004,-2.9997 14.9994,11.0754 4.9995,2.7225 6.6087,4.05 32.9877,10.17 15.4044,-11.1168 2.0682,1.053 22.9311,-5.2083 14.9994,-7.8624 5.0004,-2.8989 15.0003,-7.4772 5.0004,-2.9727 15.0003,-8.694 4.9995,-2.3256 15.0003,45.3015 5.0004,4.6422 14.9994,51.2838 5.0004,32.5449 15.0003,61.0029 4.9986,18.3114 15.0012,57.2922 20.6793,79.0668 59.3208,-46.5399 4.9986,-4.6881 23.3955,15.5871 31.6053,-45.3924 5.0004,2.2986 15.0003,-12.4335 9.0018,1.6785 15.9966,-19.0494 15.0012,-15.8391 5.0004,-9.9495 14.9994,-12.6819 4.9995,6.1191 15.0003,17.5554 4.9995,6.4422 15.0003,18.8838 4.9995,7.2279 15.0012,19.7721 4.9995,6.9039 15.0003,19.9656 5.0004,6.2766 14.9994,19.4382 5.0004,6.147 14.9994,18.441 5.0004,5.9544 14.9994,17.9973 5.0004,5.8527 14.9994,20.7126 4.9995,6.7104 15.0003,27.3861 5.0013,7.3926 14.9994,29.3238 4.9995,6.0462 16.5438,79.8003 18.4572,11.3121 4.2876,17.8974 35.7111,17.9325 5.0013,2.6595 15.0003,6.0912 4.9986,3.0645 15.0012,3.9321 4.9995,1.9557 v 262.1034 H 0 V 910.6353 l 14.9976,-16.974 5.0013,-8.2611 15.0003,-13.1238 4.9986,-1.3293 15.0003,-11.907 5.0004,-1.2006 32.4513,11.9214 22.5477,-34.092 5.0013,-6.8211 14.9994,-13.6233 5.0004,-5.022 14.9994,-19.3284 5.0013,-5.9805 14.9994,-11.5758 4.9995,-6.8382 14.9994,-20.1582 5.0004,-6.9327 15.0012,-40.6773 4.9995,-8.9343 14.9994,-47.268 5.0004,-9.378 14.9994,-55.4913 5.0004,-27.2844 14.9994,-29.2959 5.0004,-11.0025 15.0012,-26.334 4.9995,-10.2636 14.9994,-23.0652 4.9995,-7.2 15.0012,-22.8186 4.9995,-6.9687 14.9994,-24.1992 5.0004,-7.6518 14.9994,-17.3079 5.0013,-5.9355 14.9994,-14.4531 4.9995,-5.4279 15.0003,-13.7889 5.0004,-4.4595 14.9994,-11.1033 5.0013,-5.1696 14.9985,-13.6782 5.0013,-3.7395 15.0003,-12.0996 4.9986,-4.3101 15.0003,-13.5684 5.0004,-4.1364 15.0003,-12.9861 4.9986,-4.2453 15.0012,-13.5405 5.0004,-5.0301 z" /><desc
             id="descl3">Depth: 90.00mm
Raise: 270.00mm
</desc></g><g
           id="layer4"
           inkscape:label="layer4 slic3r:z=1.15e-006"><path
             style="fill:#00a0e1;fill-opacity:0.285714;stroke-width:4;stroke-opacity:0.285714"
             id="polygon5"
             inkscape:connector-curvature="0"
             d="m 739.998,97.4043 4.9995,2.5119 15.0012,5.5647 5.0004,1.4121 14.9994,6.3972 5.0004,1.3941 15.0003,3.4884 4.9995,2.3076 15.0003,9.1386 4.9986,2.934 15.4485,12.2634 19.5516,5.4486 5.0004,1.5876 15.0003,3.2418 5.0004,0.8028 15.0003,1.3293 4.9995,7.2441 15.0003,-1.134 4.9986,8.3979 15.0012,16.7814 5.0004,8.298 14.9985,18.3024 5.0013,6.7383 14.9994,20.0205 5.0004,5.9166 14.9994,20.5461 4.9995,5.8887 15.0012,21.1005 5.0004,6.3783 14.9994,23.6205 5.0004,6.0822 14.9994,17.4996 5.0004,7.0614 14.9994,17.1675 4.9995,6.9228 15.0012,22.5414 4.9995,6.4881 15.0003,22.4289 5.0004,7.1532 14.9994,23.2056 4.9995,6.912 15.0012,19.1907 4.9995,6.0552 15.0003,17.0577 4.9986,5.814 15.0003,18.2484 5.0013,5.76 14.9994,18.1089 5.0004,6.2307 15.0003,14.7033 4.9995,6.3774 14.9994,19.3284 4.9995,6.3774 15.0003,19.494 5.0013,6.0003 14.9994,19.4112 4.9995,5.7402 14.9994,17.2791 5.0004,5.787 15.0003,16.8633 5.0004,5.751 14.9994,15.8949 5.0004,4.9653 14.9994,19.3824 5.0004,6.138 14.9994,16.7526 5.0013,6.5079 14.9994,17.0298 5.0004,6.489 15.0003,18.8298 4.9995,8.4825 15.0912,33.4575 19.9089,20.178 5.0004,3.3138 14.9985,9.1926 5.0013,2.4561 15.0003,6.1479 4.9986,2.2797 15.0012,5.0679 4.9986,2.6199 15.0003,6.84 5.0004,2.9538 15.0003,7.7256 v 383.2668 H 0 v -171.0927 l 4.9986,-3.0195 15.0003,-9.6354 4.9995,-6.1839 15.0003,-12.1023 5.0004,-8.5104 14.9994,-20.4624 4.9995,-5.7033 15.0003,-20.7126 5.0004,-6.0651 14.9994,-15.6447 4.9995,-7.9011 15.0003,-16.0317 5.0013,-5.2164 14.9985,-18.3861 5.0013,-4.2192 15.0003,-10.6326 4.9995,-3.5253 14.9994,-15.4782 4.9995,-5.0121 15.0012,-16.7265 4.9995,-6.1839 14.9994,-20.0205 5.0013,-7.4772 14.9985,-27.3015 5.0004,-9.5067 15.0003,-27.3582 5.0004,-8.5113 15.0003,-26.8875 4.9986,-8.2602 15.0012,-24.2577 4.9995,-8.4627 15.0003,-23.7591 5.0004,-8.0487 14.9994,-20.9619 5.0004,-8.0208 15.0003,-21.5424 4.9995,-9.9972 14.9994,-26.3043 5.0004,-10.4958 15.0003,-40.6206 5.0004,-6.5457 14.9985,-22.5387 5.0013,-6.1299 15.0003,-16.8642 4.9995,-6.147 15.0003,-15.5331 4.9986,-10.4292 15.0012,-22.5414 5.0004,-12.1842 14.9994,-52.722 5.0004,-7.7724 14.9985,-22.8168 5.0004,-6.5529 15.0012,-23.427 4.9995,-5.7222 15.0003,-23.2047 4.9995,-5.823 15.9669,-10.6425 19.0323,-32.148 5.0013,-5.7051 14.9994,-28.3266 5.0004,-4.6899 14.9994,-14.1489 5.0004,-7.7913 14.9994,-21.7917 5.0013,-8.3628 14.9985,-24.2019 5.0004,-8.2143 15.0003,-26.0856 4.9995,-12.9483 15.0012,-17.9982 4.9995,-4.9212 z" /><desc
             id="descl4">Depth: 90.00mm
Raise: 360.00mm
</desc></g><g
           id="layer5"
           inkscape:label="layer5 slic3r:z=1.45e-006"><path
             style="fill:#00a0e1;fill-opacity:0.142857;stroke-width:4;stroke-opacity:0.142857"
             id="polygon6"
             inkscape:connector-curvature="0"
             d="m 539.9991,508.5891 14.9985,20.6019 5.0013,6.8499 14.9994,34.0848 5.0004,11.8701 14.9994,21.0186 5.0004,5.6943 14.9994,18.9387 5.0004,5.8986 15.0003,15.7851 4.9995,7.4106 15.0003,21.5991 4.9995,9.3771 20.3256,28.7055 14.6754,2.844 4.9995,3.5262 14.9994,4.5684 5.0004,3.6279 15.0003,5.4279 5.0004,1.6704 15.0003,1.7991 4.9986,-0.8199 15.0012,13.9275 4.9995,7.7715 15.0003,11.9619 5.0004,0.8676 14.9994,9.8316 5.0004,3.6918 14.9994,13.9257 4.9995,1.6434 15.0003,14.2623 5.0004,1.8 17.9766,17.5545 17.0235,0.6282 5.0004,0.3312 22.4352,-3.852 19.08,-9.8613 13.4838,-11.7243 4.9995,-4.7898 15.0012,-15.4521 5.0004,-4.689 14.9994,-17.6103 4.9995,-4.6332 15.0012,-17.307 4.9995,-5.4459 14.9994,-16.1424 5.0004,-4.4316 14.9994,-2.7423 5.0004,-3.276 15.0003,-3.7944 4.9995,-1.8351 14.9994,-4.2363 5.0013,-1.6074 15.0003,-4.0698 4.9995,-1.3302 14.9994,-3.9861 4.9995,-0.8676 15.0012,-3.9321 4.9995,-0.9504 14.9994,-3.7944 5.0013,-1.0998 14.9985,-3.2931 5.0013,-1.2006 14.9994,-3.5433 5.0004,-1.2105 14.9994,-4.1814 5.0004,-1.4769 14.9994,-4.1256 5.0004,-0.8397 15.0003,-7.7814 5.0004,-2.0961 14.9994,-5.6475 5.0004,-2.5749 15.0003,4.4307 4.9995,0.5724 19.8099,20.0034 15.1902,2.7486 5.0004,3.4065 14.9994,4.6224 4.9995,1.7901 15.0012,5.8446 4.9995,2.4741 15.0003,11.1582 4.9986,2.9988 15.0012,12.4623 5.0004,2.2428 14.9994,19.6596 4.9995,4.3839 15.0012,15.2037 4.9986,2.8971 15.0012,15.6447 4.9995,1.8558 15.0003,15.3972 5.0004,4.9653 14.9985,18.441 5.0013,5.4747 15.0003,33.642 4.9995,6.5259 15.0003,23.0661 4.9995,7.578 v 419.0157 H 0 V 1080.72 l 14.9985,-17.2242 4.9995,-4.9833 15.0003,-15.7005 5.0004,-4.8186 14.9994,-15.6717 5.0004,-5.0319 15.0003,-17.0856 5.0004,-4.1166 14.9994,-13.2633 5.0004,-4.6242 14.9994,-13.8726 4.9995,-4.4109 15.0003,-13.7349 5.0004,-4.3938 14.9994,-13.6791 5.0013,-4.4595 14.9994,-13.1256 4.9995,-5.4909 15.0003,-17.1117 4.9995,-5.3442 15.0003,-17.2233 4.9995,-4.7718 15.0012,-19.7721 4.9995,-4.9203 15.0003,-19.2726 5.0004,-5.9355 14.9994,-23.7573 5.0004,-9.054 14.9985,-23.5089 5.0004,-9.2763 15.0003,-15.8949 4.9995,-5.5296 15.0012,-16.6689 4.9986,-5.2794 15.0012,-15.5079 4.9995,-4.8357 14.9994,-12.9303 5.0013,-4.9482 15.0003,-11.2986 4.9986,-4.1337 15.0012,-10.7721 4.9995,-3.933 14.9994,-11.8224 5.0004,-4.0977 15.0003,-12.7386 5.0004,-4.1175 14.9994,-15.147 4.9995,-4.4568 15.0012,-19.2177 4.9995,-6.3963 14.9994,-20.187 4.9995,-6.7833 15.0012,-20.1582 z" /><desc
             id="descl5">Depth: 90.00mm
Raise: 450.00mm
</desc></g><g
           id="layer6"
           inkscape:label="layer6 slic3r:z=1.75e-006"><path
             style="fill:#00a0e1;fill-opacity:0;stroke-width:4;stroke-opacity:0"
             id="polygon7"
             inkscape:connector-curvature="0"
             d="m 319.9986,710.4438 4.9995,3.5892 14.9994,6.7842 5.0013,2.5857 15.0003,7.8642 4.9986,2.4453 15.0012,7.8642 4.9995,2.8701 14.9994,8.0847 5.0013,3.5091 14.9985,9.1917 5.0004,3.3138 15.0003,9.6363 5.0004,3.4443 14.9994,10.3275 5.0004,3.591 14.9994,9.3033 5.0013,3.5082 14.9994,12.8763 4.9995,4.4766 15.0003,11.0214 5.0004,4.2003 14.9994,11.9052 4.9995,4.3101 15.0012,12.0465 4.9995,3.8205 15.0003,12.6 5.0004,5.4549 14.9994,12.7926 5.0004,3.4137 15.0003,8.1972 4.9995,2.1609 15.0003,6.0093 4.9995,1.2645 15.0003,3.4335 4.9995,1.0332 15.0003,2.5758 5.0004,0.738 14.9985,1.7163 5.0004,0.3771 15.0012,0.8325 4.9986,0.3411 15.0003,1.5768 5.0004,0.36 15.0003,1.2204 4.9995,-0.1656 15.0003,1.3284 4.9995,0.5616 15.0012,2.5218 4.9986,1.098 15.0003,2.16 4.9995,0.9504 15.0012,2.2707 5.0004,0.5535 14.9994,2.3544 4.9995,0.5715 15.0003,1.7712 5.0004,0.6102 14.9994,2.2698 4.9995,0.8496 15.0003,2.4921 5.0004,0.9234 15.0003,2.6586 4.9995,1.098 14.9994,4.2921 5.0004,1.5228 15.0012,4.3758 4.9986,1.6245 15.0003,4.1247 5.0004,1.2456 15.0003,3.8772 4.9995,1.1817 15.0003,3.4623 5.0004,0.9972 15.0003,3.1833 4.9986,0.6732 15.0012,1.9674 4.9995,0.4239 15.0003,1.3302 4.9995,0.3141 15.0003,0.2484 4.9995,0.083 15.0003,0.056 5.0004,0.1116 14.9994,0.2484 5.0004,0.064 14.9994,0.1944 5.0004,0.2034 14.9994,1.4112 5.0004,0.4248 15.0003,1.4409 4.9995,0.423 15.0012,0.7758 4.9995,0.2304 14.9994,0.2484 4.9995,0.2124 15.0012,0.2511 4.9995,0.5535 14.9994,0.6363 5.0013,0.4617 14.9985,1.1358 5.0004,0.3132 15.0003,1.1349 5.0004,0.36 14.9994,4.0698 5.0004,0.7218 15.0003,23.1768 5.0004,2.8899 14.9994,23.7024 4.9995,7.6509 15.0003,12.1014 5.0004,9.6084 15.0003,7.0335 4.9986,2.3625 15.4413,4.7043 19.5588,1.0458 5.0013,-0.1476 14.9994,0.5265 5.0004,0.7848 15.0003,0.8856 4.9995,0.8028 15.0003,1.1358 4.9995,0.396 15.0003,1.0809 4.9995,0.405 15.0003,1.0818 v 196.5123 H 0 V 908.6337 l 4.9986,-2.3256 15.0003,-8.7507 5.0004,-2.4462 14.9985,-7.7256 5.0004,-2.4552 15.0003,-7.3665 5.0004,-2.4093 15.0003,-6.8949 4.9986,-2.5101 15.0012,-7.0893 4.9995,-2.7873 15.0003,-7.614 5.0004,-3.6279 14.9985,-9.387 5.0013,-3.1293 15.0003,-11.574 4.9995,-4.293 15.0003,-10.08 4.9995,-4.1805 14.9994,-10.4661 5.0004,-4.329 14.9994,-13.5405 5.0004,-3.951 14.9994,-14.2038 5.0013,-5.1975 15.0003,-16.0344 4.9995,-6.3783 14.9994,-17.7201 5.0004,-4.4766 15.0003,0.5535 4.9995,-2.1969 z" /><desc
             id="descl6">Depth: 90.00mm
Raise: 540.00mm
</desc></g></g><rect
         style="fill:url(#radialGradient4296);fill-opacity:1;fill-rule:evenodd;stroke:none;stroke-width:3.25882;stroke-linecap:square;stroke-dasharray:none;stroke-dashoffset:0;stroke-opacity:1"
         id="rect2221"
         width="264.58334"
         height="264.58334"
         x="0"
         y="1.6940659e-21" /><circle
         style="fill:none;fill-rule:evenodd;stroke:#01a5d1;stroke-width:1.57742;stroke-linecap:square;stroke-dasharray:none;stroke-dashoffset:0;stroke-opacity:1"
         id="path307"
         cx="132.29167"
         cy="132.29167"
         r="122.72662" /><path
         id="path1226"
         style="font-weight:bold;font-size:246.203px;line-height:1.25;font-family:'Avenir Next LT Pro';-inkscape-font-specification:'Avenir Next LT Pro, Bold';stroke-width:4.41508"
         d="M 603.87804,50.281936 V 183.79472 h 28.96339 V 136.2882 c 0,-10.4197 5.65135,-18.72016 15.71778,-18.72016 10.41968,0 12.892,8.65369 12.892,18.54352 v 47.68316 h 29.13966 V 129.4006 c 0,-3.98163 -0.42685,-7.99767 -1.35372,-11.83256 h 10.75336 v 37.08705 c 0,18.71998 7.77059,31.25886 31.25884,31.25886 6.18114,0 12.89229,-1.23632 16.7776,-2.64914 l -0.35331,-21.19261 c -2.11922,0.88304 -5.65162,1.41304 -8.47725,1.41304 -8.30036,0 -10.94938,-4.23869 -10.94938,-12.36247 v -33.55473 h 19.76615 l 27.5126,64.8136 -2.82545,7.24087 c -2.82563,7.59397 -5.82816,11.83255 -14.83494,11.83255 -2.82571,0 -6.53439,-0.70624 -9.36003,-1.58932 l -3.17869,24.37135 c 4.2385,1.05959 10.41964,1.94255 15.89443,1.94255 22.07543,0 31.61224,-10.77287 38.67636,-29.13962 L 839.27995,95.845877 h -30.72897 l -17.4837,56.513333 h -0.52995 L 770.93395,95.845877 H 748.9098 738.79232 728.24701 V 72.710638 h -28.43314 v 23.135239 h -13.95178 v 12.720593 c -4.74237,-8.831756 -13.38542,-15.193089 -27.41328,-15.193089 -12.18562,0 -21.3692,6.534418 -25.25447,13.598549 h -0.35291 V 50.281936 Z m -128.76053,1.589329 c -9.35997,0 -16.60089,7.417522 -16.60089,15.894388 0,8.653617 7.24092,15.89439 16.60089,15.89439 9.18342,0 16.60092,-6.887551 16.60092,-15.89439 0,-8.830086 -7.4175,-15.894388 -16.60092,-15.894388 z m 416.67741,2.75742 c -18.50315,0 -40.20888,10.319018 -40.20888,34.693336 0,22.773079 17.07977,30.067799 33.80382,35.227319 16.01238,4.98164 30.77939,9.42928 30.77939,27.04282 0,16.19021 -14.9449,24.37431 -27.9327,24.37431 -13.16582,0 -23.30688,-6.93847 -28.82229,-15.83425 l -11.03042,8.18412 c 9.07365,12.45402 24.3742,18.68094 39.67495,18.68094 19.92646,0 41.09839,-11.03065 41.09839,-36.29462 0,-25.26387 -19.57074,-30.95705 -37.36226,-36.82823 -14.0552,-4.62581 -27.39905,-8.71783 -27.39905,-24.730164 0,-16.190264 14.41138,-23.662897 26.86551,-23.662897 11.92027,0 20.63808,4.981772 25.97554,12.63209 l 10.14084,-8.184142 C 921.32875,61.745192 908.69686,54.628685 891.79492,54.628685 Z M 306.98161,58.758844 V 183.79472 h 28.43309 l -0.70616,-88.478746 h 0.52991 l 31.61179,88.478746 h 21.19262 l 32.49531,-88.478746 h 0.52956 l -0.70615,88.478746 h 29.49291 V 58.758844 h -43.62138 l -27.19704,80.178486 h -0.70654 l -28.4331,-80.178486 z m 232.30872,34.614537 c -26.49053,0 -41.85502,21.722159 -41.85502,46.093469 0,24.37144 15.36449,45.21066 42.03166,45.21066 11.65583,0 21.19244,-4.59187 26.66718,-11.65593 h 0.52986 v 5.29828 c 0,14.65819 -7.94724,24.5479 -24.90117,24.5479 -9.88983,0 -20.66267,-3.7086 -29.13967,-11.12602 l -14.48132,20.66275 c 11.83247,8.83011 29.84618,13.77515 45.21069,13.77515 31.25882,0 51.74501,-16.24799 51.74501,-50.68555 V 95.845877 h -27.37373 v 11.302683 h -0.35327 C 561.18944,97.788551 550.23977,93.373381 539.29033,93.373381 Z m -78.65452,2.472496 v 87.948843 h 28.96344 V 95.845877 Z m 533.63796,2.549795 c -26.86527,0 -44.47884,18.681028 -44.47884,43.766998 0,25.08595 17.61357,43.76733 44.47884,43.76733 14.41153,0 24.55333,-5.6933 31.67043,-14.41109 l -9.0743,-6.76101 c -4.8039,6.40492 -12.099,10.85307 -22.59613,10.85307 -19.39285,0 -31.66893,-14.58936 -31.66893,-33.4483 0,-19.03687 12.4543,-33.62571 31.84709,-33.62571 9.07367,0 17.43637,4.62551 21.35057,11.03044 l 9.4301,-6.76064 c -7.117,-9.6074 -19.7501,-14.411088 -30.95883,-14.411088 z m 82.02013,0 c -14.2331,0 -25.9754,5.159498 -32.7361,11.920318 l 6.7606,8.00599 c 5.8712,-5.87117 14.9448,-9.78502 24.7302,-9.78502 14.411,0 22.2393,7.11646 22.2393,21.5276 v 2.66856 c -30.4235,0 -58.7117,2.313 -58.7117,27.93272 0,18.50311 16.1903,25.26416 28.8222,25.26416 13.3435,0 22.595,-4.62576 30.2454,-15.6565 h 0.3558 c 0,4.44781 0.5338,9.42915 1.2454,13.52122 h 10.8526 c -0.8895,-4.62577 -1.423,-12.27602 -1.423,-18.68095 v -36.47232 c 0,-20.28237 -14.4113,-30.245778 -32.3807,-30.245778 z m 107.4611,0 c -11.9202,0 -24.3746,5.693278 -31.3134,16.546038 h -0.5337 v -14.41113 h -12.098 v 125.96385 h 12.098 v -56.75494 h 0.5337 c 6.9388,10.31899 19.3932,16.19051 31.3134,16.19051 25.9756,0 43.0553,-19.21511 43.0553,-43.76733 0,-24.55226 -17.0797,-43.766998 -43.0553,-43.766998 z m 104.9696,0 c -23.6628,0 -41.9877,18.681028 -41.9877,43.766998 0,25.08595 18.3251,43.76733 43.0553,43.76733 13.6994,0 25.9756,-5.15964 35.761,-17.61366 l -9.0738,-7.11651 c -4.6256,7.47242 -14.2332,14.41114 -26.6872,14.41114 -17.0799,0 -30.0677,-13.52182 -30.4235,-30.24578 h 69.0312 c 0.1778,-2.13499 0.1776,-4.0921 0.1776,-5.69334 0,-22.7731 -13.6995,-41.276178 -39.8529,-41.276178 z m -106.2153,10.141288 c 20.1044,0 31.491,15.12255 31.491,33.62571 0,18.50313 -11.3866,33.4483 -31.491,33.4483 -18.6811,0 -32.0246,-14.41144 -32.0246,-33.4483 0,-19.03687 13.3435,-33.62571 32.0246,-33.62571 z m 106.2152,0 c 17.2577,0 26.8652,11.56444 27.5769,27.22095 h -56.7547 c 1.0675,-14.23323 12.9875,-27.22095 29.1778,-27.22095 z m -742.54656,8.50118 c 13.06865,0 21.36925,10.24305 21.36925,22.25208 0,12.00901 -8.124,22.42871 -21.36925,22.42871 -13.06871,0 -20.66276,-10.77283 -20.66276,-22.42871 0,-12.18566 7.59405,-22.25208 20.66276,-22.25208 z m 547.55176,25.12453 h 3.5581 v 6.22696 c 0,14.76697 -9.6071,27.57684 -26.6869,27.57684 -9.4294,0 -19.5709,-3.91398 -19.5709,-15.83425 0,-15.83443 22.9513,-17.96955 42.6997,-17.96955 z" /></g></g></svg>
