<?xml version="1.0" encoding="UTF-8" standalone="no"?>
<svg
   sodipodi:docname="Logo_FabLabChemnitz_PathConverted.svg"
   inkscape:version="1.1-alpha (7daf85a, 2021-02-16)"
   inkscape:export-ydpi="718.89301"
   inkscape:export-xdpi="718.89301"
   inkscape:export-filename="test.png"
   id="svg"
   version="1.1"
   viewBox="0 0 94.826666 74.126752"
   height="280.16409"
   width="358.39999"
   xmlns:inkscape="http://www.inkscape.org/namespaces/inkscape"
   xmlns:sodipodi="http://sodipodi.sourceforge.net/DTD/sodipodi-0.dtd"
   xmlns="http://www.w3.org/2000/svg"
   xmlns:svg="http://www.w3.org/2000/svg">
  <sodipodi:namedview
     id="namedview"
     pagecolor="#ffffff"
     bordercolor="#666666"
     borderopacity="1.0"
     objecttolerance="10.0"
     gridtolerance="10.0"
     guidetolerance="10.0"
     inkscape:pageshadow="2"
     inkscape:pageopacity="0"
     inkscape:pagecheckerboard="true"
     inkscape:document-units="mm"
     showgrid="false"
     inkscape:zoom="2.8222222"
     inkscape:cx="101.33858"
     inkscape:cy="97.972442"
     inkscape:window-width="1920"
     inkscape:window-height="964"
     inkscape:window-x="0"
     inkscape:window-y="27"
     inkscape:window-maximized="1"
     inkscape:current-layer="Logo"
     inkscape:showpageshadow="false"
     showborder="true"
     units="px"
     height="256px"
     inkscape:snap-grids="false"
     fit-margin-left="51.2"
     fit-margin-bottom="51.2"
     fit-margin-top="51.2"
     fit-margin-right="51.2" />
  <defs
     id="defs" />
  <g
     inkscape:label="Logo"
     inkscape:groupmode="layer"
     id="Logo"
     transform="translate(13.546667,13.546667)"
     style="display:inline">
    <path
       id="Background"
       style="color:#000000;display:inline;fill:#ffffff;fill-opacity:0.996582;stroke:none;stroke-width:0.609216;stroke-miterlimit:10"
       d="M 21.056388,-2.0724631e-4 V 15.40402 H -2.0766779e-4 V 31.271267 L 5.8903893,31.271786 V 47.033613 H 67.732608 V 8.2621369e-4 h -31.26941 v -0.001033 z"
       sodipodi:nodetypes="ccccccccccc" />
    <path
       id="Kasten"
       style="color:#000000;display:inline;fill:#231f1f;fill-opacity:0.996582;stroke:none;stroke-width:2.30255;stroke-miterlimit:10"
       d="M 130.7832 51.199219 L 130.7832 109.41992 L 51.199219 109.41992 L 51.199219 169.39062 L 73.462891 169.39258 L 73.462891 228.96484 L 307.19727 228.96484 L 307.19727 51.203125 L 189.01367 51.203125 L 189.01367 51.199219 L 130.7832 51.199219 z M 190.74023 52.923828 L 305.4707 52.923828 L 305.4707 167.66016 L 190.74023 167.66016 L 190.74023 52.923828 z M 132.50977 52.927734 L 189.01367 52.927734 L 189.01367 109.41992 L 132.50977 109.41992 L 132.50977 52.927734 z M 52.927734 111.14648 L 189.01367 111.14648 L 189.01367 167.65039 L 52.927734 167.65039 L 52.927734 111.14648 z M 103.44922 183.51953 L 103.44727 183.52539 C 109.64213 183.52539 114.46935 187.81932 115.68555 193.74805 C 115.68555 193.78509 115.64844 194.08068 115.64844 194.12695 C 115.49642 194.6212 115.19283 195.23047 114.4707 195.23047 L 111.92383 195.23047 C 111.27774 195.23047 111.01221 194.88876 110.74609 194.39453 C 110.32801 193.21628 110.06211 192.3039 109.41602 191.42969 C 108.04779 189.56746 105.88156 188.46484 103.44922 188.46484 C 99.382594 188.46484 96.037109 191.80964 96.037109 195.91406 L 96.037109 202.52734 C 96.037109 206.63177 99.382594 209.97656 103.44922 209.97656 C 105.88156 209.97656 108.00999 208.87369 109.49219 206.93555 C 110.25231 205.90956 110.5553 204.92257 110.85938 203.66797 L 110.82227 203.74023 C 110.93629 203.05625 111.31591 202.71484 112 202.71484 L 114.54688 202.71484 C 115.26895 202.71484 115.76367 203.32354 115.76367 203.93164 C 115.76367 204.69199 115.53565 205.56516 115.26953 206.28711 C 113.55927 211.15189 108.61796 214.83789 103.44922 214.83789 C 96.646205 214.83789 91.097656 209.32831 91.097656 202.52539 L 91.097656 195.91016 C 91.097656 189.10724 96.646205 183.51953 103.44922 183.51953 z M 199.33789 184.01172 C 200.05997 184.01172 201.42773 183.93692 201.42773 185.60938 L 201.42773 213.31445 C 201.42773 214.41635 200.81978 214.41602 200.09766 214.41602 L 197.85547 214.41602 C 196.52549 214.41602 196.33594 214.22701 196.33594 212.89648 L 196.33594 192.94336 C 193.71357 196.28744 191.20514 199.51781 188.46875 202.74805 L 188.50586 202.67383 C 188.16381 203.24398 187.93534 203.24414 187.36523 203.24414 L 185.88281 203.24414 C 185.16073 203.24414 185.08391 203.13098 184.66602 202.63672 L 176.875 192.94531 L 176.875 212.89844 C 176.875 214.22895 176.68564 214.41797 175.35547 214.41797 L 173.11328 214.41797 C 172.39115 214.45637 171.85938 214.41857 171.85938 213.39258 L 171.7832 185.57227 C 171.7832 184.01407 173.34219 184.01367 173.98828 184.01367 L 175.35547 184.01367 C 176.07755 184.01367 176.49533 184.09107 176.95117 184.69922 L 186.64258 196.85938 L 196.37305 184.58398 C 196.67707 184.20402 197.17138 184.01367 197.85547 184.01367 L 199.33789 184.01172 z M 121.12109 184.01367 L 123.70703 184.01367 C 124.96122 184.01367 124.96094 184.7362 124.96094 185.49609 L 124.96094 198.5332 L 136.81836 193.43945 L 136.81836 185.49609 C 136.81836 184.7362 136.89406 184.01367 138.07227 184.01367 L 140.61914 184.01367 C 141.34122 184.01367 141.91016 184.62237 141.91016 185.23047 L 141.91016 213.20312 C 141.91016 213.81122 141.34122 214.41797 140.61914 214.41797 L 138.07227 214.41797 C 136.89396 214.41797 136.81836 213.69739 136.81836 212.9375 L 136.81836 199.02539 L 124.96094 204.04297 L 124.96094 212.9375 C 124.96094 213.69739 124.96122 214.41797 123.70703 214.41797 L 121.12109 214.41797 C 120.39883 214.41797 119.98242 213.81122 119.98242 213.20312 L 119.90625 185.23047 C 119.90625 184.62237 120.39897 184.01367 121.12109 184.01367 z M 147.80273 184.01367 L 166.1582 184.01367 C 167.41239 184.01367 167.41211 184.7362 167.41211 185.49609 L 167.41211 187.58594 C 167.41211 188.95255 167.22279 189.06836 165.89258 189.06836 L 151.64062 189.06836 L 151.64062 195.79688 L 164.29688 195.79688 C 165.019 195.79686 165.51172 196.32884 165.51172 197.05078 L 165.51172 199.63477 C 165.51172 200.35717 165.019 200.88867 164.29688 200.88867 L 151.64062 200.88867 L 151.64062 209.36328 L 166.38672 209.36328 C 167.71678 209.36328 167.90625 209.47727 167.90625 210.8457 L 167.90625 212.89844 C 167.90625 213.65879 167.90653 214.41797 166.65234 214.41797 L 147.80078 214.41797 C 147.0787 214.41797 146.58594 213.92553 146.58594 213.20312 L 146.50977 185.23047 C 146.50977 184.50806 147.08065 184.01367 147.80273 184.01367 z M 225.4082 184.01367 L 227.99414 184.01367 C 228.71627 184.01367 229.24805 184.62237 229.24805 185.23047 L 229.24805 213.21094 C 229.24805 213.81903 228.71432 214.42578 227.99219 214.42578 L 225.4082 214.42578 C 224.91413 214.42578 224.57188 214.23692 224.34375 213.85742 C 219.78311 207.05404 215.83092 201.19997 211.15625 194.2832 L 211.15625 213.21094 C 211.15625 213.81903 210.62448 214.42578 209.90234 214.42578 L 207.2793 214.42578 C 206.55703 214.42578 206.14062 213.81903 206.14062 213.21094 L 206.06445 185.23828 C 206.06445 184.63018 206.55717 184.02148 207.2793 184.02148 L 210.0918 184.02148 C 210.54787 184.02148 210.89097 184.21435 211.11914 184.63086 L 211.11914 184.58398 L 224.1543 204.19531 L 224.1543 185.23047 C 224.1543 184.62237 224.68612 184.01367 225.4082 184.01367 z M 235.09961 184.01367 L 237.68359 184.01367 C 238.40572 184.01367 238.93945 184.62237 238.93945 185.23047 L 238.93945 213.20312 C 238.93945 213.81122 238.40572 214.41797 237.68359 214.41797 L 235.09961 214.41797 C 234.37734 214.41797 233.95898 213.81122 233.95898 213.20312 L 233.88477 185.23047 C 233.88477 184.62237 234.37753 184.01367 235.09961 184.01367 z M 243.30859 184.01367 L 263.56641 184.01367 C 264.74466 184.01367 264.82031 184.7362 264.82031 185.49609 L 264.82031 187.43555 C 264.82031 188.65407 264.66807 188.91797 263.33789 188.91797 L 256.04102 188.91797 L 256.04102 212.9375 C 256.04102 213.69739 256.00243 214.41797 254.82422 214.41797 L 252.20312 214.41797 C 251.02398 214.41797 250.98633 213.69739 250.98633 212.9375 L 250.98633 188.91797 L 243.61328 188.91797 C 242.28326 188.91797 242.09375 188.65174 242.09375 187.43555 L 242.09375 185.49609 C 242.09375 184.7362 242.13041 184.01367 243.30859 184.01367 z M 268.50781 184.01367 L 287.85156 184.01367 C 288.57365 184.01367 289.06836 184.62237 289.06836 185.23047 L 289.06836 187.625 C 289.06836 187.89112 289.02979 188.19716 288.76367 188.46094 L 273.67578 209.28711 L 288.08008 209.28711 C 289.4105 209.28711 289.5625 209.47809 289.5625 210.80859 L 289.5625 212.89844 C 289.5625 213.65879 289.48672 214.41797 288.30859 214.41797 L 267.67188 214.41797 C 266.49358 214.41797 266.41602 213.65879 266.41602 212.89844 L 266.41602 211.26367 C 266.41602 210.84578 266.56759 210.57823 266.75781 210.31445 L 282.30273 189.14453 L 268.73438 189.14453 C 267.40439 189.14453 267.21484 188.95551 267.21484 187.625 L 267.21484 185.49609 C 267.21484 184.7362 267.1778 184.01367 268.50781 184.01367 z "
       transform="matrix(0.26458333,0,0,0.26458333,-13.546667,-13.546667)" />
    <path
       id="Schrift-Main"
       style="font-size:6.67254px;font-family:Track;fill:#231f20;stroke-width:0.628475"
       d="m 34.355204,24.152851 c 0,-0.882337 -0.375832,-1.323629 -1.266374,-1.48697 0.334973,-0.179749 0.555569,-0.359498 0.653611,-0.531043 0.09808,-0.171546 0.147056,-0.392191 0.147056,-0.6781 0,-0.759893 -0.604583,-1.389015 -1.372582,-1.389015 h -2.679828 c -0.155224,0 -0.269612,0.106527 -0.269612,0.26142 l 0.01641,6.013268 c 0,0.130771 0.09808,0.261542 0.253265,0.261542 h 2.745189 c 0.980416,0 1.772928,-0.792586 1.772928,-1.773002 z m -3.701092,-2.998429 h 1.862803 c 0.163403,0 0.277778,0.138852 0.277778,0.302316 0,0.08939 -0.01628,0.163341 -0.04898,0.212319 -0.155235,0.245135 -1.462469,0.955927 -2.091566,1.282733 z m 1.00493,2.42649 h 1.045789 c 0.302292,0 0.58825,0.187952 0.58825,0.776178 0,0.07347 -0.0086,0.15526 -0.0086,0.228727 0,0.08939 -0.0086,0.15526 -0.0086,0.245134 0,0.03306 0.0086,0.228727 -0.122543,0.383987 l -0.08167,0.09796 c -0.13883,0.138853 -0.302233,0.204238 -0.490149,0.204238 h -1.928166 v -1.388892 z m -2.679816,2.761499 c 0,-0.03306 0,-0.04041 -0.0086,-0.09796 l -2.091567,-5.96429 c -0.05718,-0.106527 -0.08987,-0.212442 -0.253277,-0.212442 H 25.90681 c -0.163403,0 -0.204262,0.08939 -0.261444,0.212442 -0.21243,0.514758 -2.0834,6.029553 -2.0834,6.062246 0,0.15526 0.13889,0.261542 0.269612,0.261542 h 0.563748 c 0.196083,0 0.212417,-0.08204 0.269611,-0.212442 l 0.449361,-1.258244 2.009871,-0.890541 0.743485,2.148785 c 0.05718,0.122567 0.08987,0.212442 0.261445,0.212442 h 0.588249 c 0.17157,0 0.261445,-0.08939 0.261445,-0.261542 z m -3.374287,-2.68791 0.66179,-1.854673 c 0.08987,0.253339 0.138889,0.424884 0.196083,0.588226 0.02449,0.08938 0.05718,0.163463 0.08167,0.253338 0.02449,0.08939 0.08987,0.253216 0.187916,0.514636 z m -2.728831,2.949452 c 0.253277,0 0.261444,-0.163464 0.261444,-0.326805 v -0.441292 c 0,-0.294112 -0.02449,-0.318601 -0.318626,-0.318601 h -2.712509 v -5.130808 c 0,-0.163464 -0.0086,-0.318724 -0.261444,-0.318724 h -0.563736 c -0.171582,0 -0.261457,0.08939 -0.261457,0.26142 l 0.01641,6.013268 c 0,0.171667 0.08167,0.261542 0.24511,0.261542 z m -4.828564,-2.451102 c 0,-0.882337 -0.37582,-1.323629 -1.266374,-1.48697 0.334972,-0.179749 0.555569,-0.359498 0.653611,-0.531043 0.09808,-0.171546 0.147068,-0.392191 0.147068,-0.6781 0,-0.759893 -0.604596,-1.389015 -1.372595,-1.389015 h -2.679816 c -0.155235,0 -0.269623,0.106527 -0.269623,0.26142 l 0.01628,6.013268 c 0,0.130771 0.09808,0.261542 0.253277,0.261542 h 2.745177 c 0.980429,0 1.772928,-0.792586 1.772928,-1.773002 z m -3.701092,-2.998429 h 1.862802 c 0.163403,0 0.277791,0.138852 0.277791,0.302316 0,0.08939 -0.01641,0.163341 -0.04898,0.212319 -0.155236,0.245135 -1.462457,0.955927 -2.091566,1.282733 z m 1.004929,2.42649 h 1.04579 c 0.302291,0 0.588249,0.187952 0.588249,0.776178 0,0.07347 -0.0086,0.15526 -0.0086,0.228727 0,0.08939 -0.0086,0.15526 -0.0086,0.245134 0,0.03306 0.0086,0.228727 -0.122555,0.383987 l -0.08167,0.09796 c -0.138889,0.138853 -0.302292,0.204238 -0.490208,0.204238 h -1.928164 v -1.388892 z m -2.679804,2.761499 c 0,-0.03306 0,-0.04041 -0.0086,-0.09796 l -2.091566,-5.96429 c -0.05718,-0.106527 -0.08988,-0.212442 -0.253278,-0.212442 H 9.5991615 c -0.163403,0 -0.204251,0.08939 -0.261445,0.212442 -0.212429,0.514758 -2.083399,6.029553 -2.083399,6.062246 0,0.15526 0.138889,0.261542 0.269623,0.261542 h 0.563737 c 0.196083,0 0.212429,-0.08204 0.269611,-0.212442 l 0.44936,-1.258244 2.0098725,-0.890541 0.743485,2.148785 c 0.05718,0.122567 0.08987,0.212442 0.261444,0.212442 h 0.58825 c 0.171582,0 0.261456,-0.08939 0.261456,-0.261542 z m -3.3742875,-2.68791 0.661778,-1.854673 c 0.08987,0.253339 0.1389025,0.424884 0.1960835,0.588226 0.02449,0.08938 0.05718,0.163463 0.08167,0.253338 0.02449,0.08939 0.08988,0.253216 0.187916,0.514636 z m -5.907034,2.949452 c 0.269611,0 0.269611,-0.163464 0.269611,-0.326805 v -2.50008 h 2.728844 c 0.171569,0 0.261444,-0.08939 0.261444,-0.261542 V 22.95179 c 0,-0.171546 -0.08987,-0.26142 -0.261444,-0.26142 h -2.728844 v -1.535948 h 2.900413 c 0.294125,0 0.326806,-0.02449 0.326806,-0.318724 v -0.449251 c 0,-0.163464 -0.01629,-0.318724 -0.269612,-0.318724 h -3.790966 c -0.130723,0 -0.261445,0.106527 -0.261445,0.26142 l 0.01628,6.013268 c 0,0.15526 0.122543,0.261542 0.253265,0.261542 z" />
    <path
       id="Schrift-Est"
       style="font-size:2.58689px;font-family:Track;fill:#231f20;stroke-width:0.32258"
       d="m 32.024359,11.099677 c 0.414941,0 0.604988,-0.256522 0.604988,-0.544757 v -0.291419 c 0,-0.23436 -0.03171,-0.3959868 -0.0982,-0.4814528 -0.06649,-0.08571 -0.129865,-0.14571 -0.193218,-0.177423 -0.123535,-0.06 -0.281905,-0.07592 -0.354759,-0.07592 h -0.560651 v -0.522595 h 1.007268 c 0.06024,0 0.107752,-0.05755 0.107752,-0.111424 v -0.215381 c 0,-0.0502 -0.04751,-0.107751 -0.107752,-0.107751 h -1.327192 c -0.06024,0 -0.101384,0.05755 -0.101384,0.107751 l 0.0061,1.156247 c -0.0098,0.05388 0.04114,0.111425 0.101384,0.111425 0.402269,-0.01225 0.668341,-0.01225 0.807708,0 0.167884,0.01224 0.281917,0.01224 0.281917,0.3199478 v 0.281868 c 0,0.01225 0,0.02204 -0.0037,0.02816 -0.01579,0.07592 -0.07604,0.113873 -0.180545,0.113873 h -0.300892 c -0.202719,0 -0.275574,-0.03796 -0.31041,-0.193218 -0.0037,-0.04163 -0.0061,-0.06979 -0.0061,-0.08571 v -0.01225 c 0,-0.07959 -0.01898,-0.111424 -0.104568,-0.111424 h -0.212221 c -0.08865,0 -0.101385,0.03184 -0.101385,0.111424 v 0.05755 c 0,0.07347 0.01261,0.231175 0.07285,0.357906 0.02853,0.06 0.08865,0.123547 0.180557,0.193218 0.08547,0.06367 0.243898,0.09551 0.481453,0.09551 z m -1.415879,0.0032 c 0.08547,0 0.101385,-0.04775 0.101385,-0.12673 v -0.155138 c 0,-0.08571 -0.02535,-0.123547 -0.123535,-0.123547 H 30.22524 V 8.6924282 c 0,-0.06367 -0.0037,-0.123547 -0.101384,-0.123547 h -0.630334 c -0.0982,0 -0.123535,0.03796 -0.123535,0.123547 v 0.161504 c 0,0.07959 0.0158,0.126731 0.101384,0.126731 h 0.332585 V 10.697462 H 29.46187 c -0.09183,0 -0.11718,0.03796 -0.11718,0.123547 v 0.155138 c 0,0.07959 0.0158,0.12673 0.101384,0.12673 z M 29.046904,9.3385692 c 0,-0.443495 -0.373775,-0.804585 -0.817222,-0.804585 h -0.09183 c -0.418113,0 -0.769701,0.332683 -0.769701,0.763444 v 1.0737188 c 0,0.430883 0.351588,0.757076 0.769701,0.757076 h 0.09183 c 0.443447,0 0.817222,-0.354722 0.817222,-0.798218 z m -1.263839,-0.04163 c 0,-0.193218 0.164713,-0.348478 0.354759,-0.348478 h 0.09183 c 0.218564,0 0.399109,0.174239 0.399109,0.389619 v 0.9914368 c 0,0.21538 -0.180545,0.389619 -0.399109,0.389619 h -0.09183 c -0.190046,0 -0.354759,-0.15526 -0.354759,-0.348478 z m -0.747538,1.4828058 c 0,-0.05387 -0.04751,-0.111425 -0.107629,-0.111425 h -1.16248 v -0.272439 l 0.981935,-0.7443428 c 0.446617,-0.342111 0.411769,-1.111799 -0.310423,-1.111799 h -0.348429 c -0.234396,0 -0.395937,0.03184 -0.481453,0.09796 -0.08865,0.06612 -0.148881,0.133097 -0.180557,0.193218 -0.06012,0.123547 -0.07286,0.281868 -0.07286,0.354723 v 0.05755 c 0,0.07959 0.01261,0.111424 0.101384,0.111424 h 0.212222 c 0.08547,0 0.104568,-0.03183 0.104568,-0.111424 v -0.01225 c 0,-0.01592 0.0037,-0.04408 0.0061,-0.08571 0.0349,-0.155138 0.107752,-0.193218 0.31041,-0.193218 h 0.338927 c 0.104568,0 0.164713,0.03796 0.180545,0.113873 0.0158,0.07959 -0.01261,0.152077 -0.07922,0.224932 -0.0158,0.01592 -0.05069,0.04408 -0.101385,0.08571 l -0.883733,0.6840998 c -0.186888,0.117548 -0.19639,0.183789 -0.19639,0.351661 l 0.0037,0.582839 c 0,0.0502 0.03796,0.107751 0.0982,0.107751 h 1.479232 c 0.06012,0 0.107629,-0.05755 0.107629,-0.107751 z m 5.305377,-3.8135448 c 0,-0.0502 -0.04433,-0.101629 -0.104568,-0.101629 h -0.215393 c -0.06024,0 -0.101384,0.0502 -0.101384,0.101629 v 0.234359 c 0,0.0502 0.04114,0.10163 0.101384,0.10163 h 0.215393 c 0.06024,0 0.104568,-0.0502 0.104568,-0.10163 z m -0.801378,-1.789654 c 0.110813,0 0.123523,-0.02204 0.123523,-0.123547 v -0.161627 c 0,-0.06367 -0.0061,-0.123425 -0.104568,-0.123425 h -1.688294 c -0.0982,0 -0.101385,0.06 -0.101385,0.123425 v 0.161627 c 0,0.101629 0.0158,0.123547 0.126706,0.123547 h 0.614502 v 2.001851 c 0,0.06367 0.0037,0.123547 0.101384,0.123547 h 0.218552 c 0.0982,0 0.101385,-0.06 0.101385,-0.123547 v -2.001851 z m -1.976529,1.339791 c 0,-0.21538 -0.09183,-0.367457 -0.221723,-0.456107 -0.0633,-0.04163 -0.136208,-0.07959 -0.221736,-0.107751 -0.07922,-0.02816 -0.215392,-0.06367 -0.405439,-0.117547 l -0.364261,-0.10163 c -0.04751,-0.01224 -0.09502,-0.04163 -0.136208,-0.08204 -0.07922,-0.07959 -0.06012,-0.174239 -0.05069,-0.228114 v 0 c 0.0349,-0.161505 0.183716,-0.278685 0.345258,-0.278685 h 0.240738 c 0.20272,0 0.313582,0.101629 0.323083,0.370518 0.0037,0.0502 0.04114,0.101629 0.101385,0.101629 h 0.209062 c 0.0982,0 0.0982,-0.06 0.101385,-0.123546 0.0098,-0.243911 -0.07922,-0.462475 -0.221736,-0.576471 -0.142538,-0.113874 -0.323083,-0.183667 -0.51313,-0.183667 h -0.240738 c -0.36109,0 -0.687345,0.256522 -0.753869,0.608184 h 0.0037 c -0.02216,0.08571 -0.01898,0.151954 -0.01898,0.218564 v 0.04408 c 0,0.424394 0.437116,0.547941 0.842556,0.639774 0.228066,0.05388 0.421284,0.08571 0.50997,0.161627 0.05388,0.04775 0.05069,0.142526 0.04751,0.183668 0,0.02204 -0.0037,0.04163 -0.0061,0.06367 -0.02853,0.167872 -0.193218,0.272317 -0.383265,0.272317 H 28.50903 c -0.1647,0 -0.307238,-0.113873 -0.342086,-0.269256 -0.0037,-0.04163 -0.0061,-0.06979 -0.0061,-0.08571 0,-0.0502 0.0037,-0.06 -0.0098,-0.101629 -0.01273,-0.0502 -0.04433,-0.07592 -0.09502,-0.07592 h -0.215393 c -0.0982,0 -0.101384,0.06 -0.101384,0.123547 v -0.01225 c 0,0.07347 -0.0037,0.126731 0.02216,0.256645 0.01273,0.06612 0.04114,0.136158 0.08865,0.205829 0.136208,0.218564 0.383265,0.357907 0.658839,0.357907 h 0.240739 c 0.228054,0 0.430773,-0.05388 0.573311,-0.180484 0.142539,-0.12673 0.240739,-0.392803 0.240739,-0.63353 z M 27.3489,7.3019442 c 0.104568,0 0.104568,-0.06367 0.104568,-0.126731 v -0.171055 c 0,-0.113874 -0.0158,-0.123547 -0.126706,-0.123547 H 26.09777 v -0.706385 h 1.054789 c 0.06012,0 0.101385,-0.04408 0.101385,-0.104078 v -0.21538 c 0,-0.06 -0.04114,-0.104078 -0.101385,-0.104078 H 26.09777 v -0.560675 h 1.187826 c 0.110812,0 0.126693,-0.01225 0.126693,-0.123547 v -0.174239 c 0,-0.06367 0,-0.123425 -0.104567,-0.123425 h -1.5299 c -0.06024,0 -0.107752,0.04163 -0.107752,0.101629 l 0.0061,2.331351 c 0,0.06 0.04114,0.101629 0.101384,0.101629 z" />
    <path
       id="Signet"
       fill="#209fda"
       d="m 51.45548,29.835852 c -1.605754,-0.08081 -3.127915,-0.405904 -4.569018,-0.977844 -3.11032,-1.234979 -5.634913,-3.454048 -7.238782,-6.365787 -0.969738,-1.759777 -1.545413,-3.658408 -1.715734,-5.66381 -0.03894,-0.446311 -0.04273,-0.582715 -0.04273,-1.178409 0,-0.70516 0.01261,-0.989844 0.08106,-1.593865 0.290978,-2.657789 1.348706,-5.2062342 3.038053,-7.3204892 0.55808,-0.696956 1.271407,-1.42783 1.955188,-1.997933 1.685564,-1.405912 3.67784,-2.410817 5.78323,-2.919821 0.820785,-0.197993 1.564282,-0.307948 2.533385,-0.37713 0.260819,-0.01714 1.372594,-0.01714 1.6353,0 0.987334,0.06979 1.744643,0.183545 2.586807,0.390232 2.458595,0.607204 4.74813,1.884794 6.543686,3.652775 1.138162,1.118045 2.020549,2.327188 2.736374,3.74816 0.480792,0.9515192 0.823307,1.8596932 1.077209,2.8577412 0.216201,0.843401 0.344413,1.621415 0.410398,2.489305 0.05596,0.731608 0.04714,1.641618 -0.0213,2.372614 -0.177227,1.867774 -0.709556,3.661469 -1.568678,5.28668 -0.678124,1.284569 -1.473147,2.371267 -2.475566,3.390008 -1.032578,1.045802 -2.19087,1.901079 -3.525115,2.600607 -1.659176,0.871073 -3.477985,1.402728 -5.342049,1.564968 -0.404741,0.03428 -0.610253,0.04286 -1.135651,0.04775 -0.307949,0 -0.642934,-7.35e-4 -0.746008,0 z m 0.938944,-7.305918 c 0,-3.707386 0.0037,-6.7461 0.0086,-6.753079 0.0049,-0.01224 0.540484,-0.319214 1.191585,-0.693773 0.651725,-0.375171 3.279392,-1.887365 5.840424,-3.362336 2.894131,-1.666108 4.655746,-2.6854612 4.655746,-2.6955022 0,-0.01347 -0.179113,-0.335621 -0.252016,-0.453168 l -0.0251,-0.03918 -0.03453,0.01714 c -0.01702,0.01224 -0.489584,0.279664 -1.045789,0.600837 -0.557455,0.321173 -1.842685,1.0596382 -2.853909,1.6416182 -1.011211,0.581981 -2.153156,1.240612 -2.537155,1.461135 -0.385249,0.221258 -1.527194,0.87744 -2.53778,1.460033 -1.011224,0.582592 -2.030602,1.169593 -2.264398,1.304038 l -0.424847,0.244522 -0.03453,-0.01469 c -0.02571,-0.01224 -4.618045,-2.645911 -8.705647,-4.99269 -0.19672,-0.11265 -0.632881,-0.3631722 -0.971,-0.5567572 -0.337482,-0.193585 -0.923222,-0.530431 -1.30345,-0.747893 -0.380228,-0.217462 -0.696981,-0.394763 -0.705784,-0.392191 -0.01702,0.01224 -0.286583,0.47631 -0.279677,0.490881 0.0037,0.01225 1.319172,0.765403 2.924302,1.6868012 1.605754,0.920051 4.23467,2.429062 5.847343,3.353521 l 2.926175,1.679943 0.0024,6.737896 c 0.0012,3.705427 0.0061,6.742917 0.0086,6.750998 0.0049,0.01225 0.07041,0.01347 0.289092,0.01347 h 0.282187 z m -1.058352,5.959759 0.0012,-0.754138 -0.03833,-0.02571 c -0.02323,-0.01347 -0.389003,-0.225543 -0.814474,-0.47129 -1.466241,-0.844625 -1.630892,-0.93952 -1.646602,-0.953356 -0.01445,-0.01225 -0.01702,-0.209381 -0.01702,-1.608926 0,-0.877317 0.0049,-1.600721 0.0098,-1.607089 0.0049,0 0.06783,-0.03918 0.140775,-0.07592 0.526655,-0.25395 0.94145,-0.720343 1.172099,-1.314812 0.299782,-0.764301 0.332462,-1.684352 0.100527,-2.685461 -0.353841,-1.529704 -1.283357,-2.977737 -2.510132,-3.905992 -0.614024,-0.465045 -1.263239,-0.752913 -1.917486,-0.851604 -0.209908,-0.03184 -0.566883,-0.03429 -0.746633,-0.01225 -0.524137,0.08204 -0.936421,0.28848 -1.294021,0.649815 -0.435537,0.444965 -0.694471,1.059026 -0.781823,1.855285 -0.02388,0.22187 -0.02388,0.676263 0,0.913806 0.03453,0.326193 0.08608,0.624714 0.162141,0.917479 0.235682,0.905113 0.641673,1.737126 1.212964,2.491998 0.05975,0.07836 0.123804,0.162117 0.140775,0.185994 l 0.03269,0.04163 0.0024,1.246857 c 0.0025,1.106779 0.0025,1.246978 -0.01322,1.252611 -0.01102,0 -0.09551,-0.03918 -0.211169,-0.106527 -0.175293,-0.101629 -1.434761,-0.826993 -2.007926,-1.158818 -0.127587,-0.07469 -0.418565,-0.242686 -0.642933,-0.37211 -0.226878,-0.130771 -0.41668,-0.245747 -0.423598,-0.253951 -0.01102,-0.01347 -0.01445,-1.197143 -0.01445,-5.830947 v -5.813438 l -0.02767,-0.02082 c -0.06845,-0.04653 -1.283345,-0.7372412 -1.299055,-0.7372412 -0.02645,0 -0.2935,0.5681442 -0.460049,0.9854362 -0.696981,1.730269 -1.032578,3.519556 -1.003044,5.347168 0.01102,0.646019 0.054,1.167022 0.143921,1.775451 0.260183,1.78794 0.874208,3.502413 1.801838,5.042157 0.443079,0.735409 0.981677,1.458691 1.579992,2.12173 0.214303,0.23693 0.810107,0.829686 1.041381,1.035149 0.942715,0.83838 1.93256,1.507663 3.026739,2.051318 1.459947,0.723405 3.014164,1.17339 4.660154,1.348731 0.261444,0.02816 0.495865,0.04775 0.568769,0.0453 h 0.07041 z m 1.969023,0.732221 c 1.707568,-0.149016 3.392507,-0.624102 4.910272,-1.384607 2.411466,-1.205959 4.427619,-3.115977 5.776325,-5.470224 0.89997,-1.570478 1.496399,-3.391846 1.697514,-5.192398 0.05902,-0.53741 0.07481,-0.800054 0.08289,-1.386443 0.0098,-0.775566 -0.0251,-1.351914 -0.125701,-2.062706 -0.169685,-1.207307 -0.493343,-2.364288 -0.98922,-3.523229 -0.132608,-0.3110102 -0.32743,-0.7189962 -0.347548,-0.7264652 -0.01102,0 -0.739077,0.407251 -1.228661,0.6957312 l -0.100527,0.05877 v 1.718269 c 0,0.945274 -0.0024,1.723901 -0.0061,1.730146 -0.0049,0 -0.08987,0.05755 -0.190426,0.112649 -0.220597,0.124404 -0.708295,0.401007 -1.455552,0.825156 -0.307948,0.174729 -0.575686,0.324357 -0.592657,0.333785 l -0.03331,0.01469 -0.143922,-0.137628 c -0.319263,-0.309173 -0.60522,-0.47129 -1.017505,-0.575001 -0.226878,-0.05755 -0.380228,-0.07224 -0.663038,-0.0649 -0.271497,0 -0.382739,0.01959 -0.637277,0.08204 -0.8057,0.197381 -1.554217,0.649202 -2.27445,1.373831 -0.692585,0.696344 -1.238726,1.541704 -1.584388,2.459305 -0.530431,1.404565 -0.553683,2.779132 -0.06404,3.774608 0.245735,0.500188 0.66555,0.915031 1.121828,1.113636 0.201116,0.08571 0.445589,0.152689 0.676239,0.183545 0.157745,0.01959 0.498375,0.01469 0.677499,-0.01224 0.810096,-0.12122 1.585637,-0.513411 2.317821,-1.169593 0.591384,-0.533492 1.109877,-1.194082 1.493876,-1.914915 0.184145,-0.341866 0.372061,-0.785607 0.477645,-1.122452 0.01824,-0.05877 0.03955,-0.12318 0.05033,-0.143996 0.01445,-0.03306 0.09171,-0.08204 0.917577,-0.557981 0.500261,-0.289827 0.906264,-0.51733 0.915055,-0.514146 0.01322,0 0.01445,0.298521 0.01445,2.077767 0,1.961444 0,2.074583 -0.01702,2.089032 -0.01102,0.01224 -0.305439,0.180361 -0.654247,0.381416 -0.348797,0.201177 -0.893689,0.51537 -1.210441,0.698303 -0.948997,0.548675 -1.620203,0.935111 -2.926176,1.689372 -0.681271,0.39464 -1.473146,0.850869 -1.752823,1.012496 -0.282186,0.16273 -1.121827,0.646632 -1.866574,1.077148 -0.744109,0.430516 -1.426005,0.823319 -1.512745,0.874256 l -0.16088,0.09306 -0.0024,0.759893 -0.0037,0.760383 0.125702,-0.01225 c 0.06845,0 0.207397,-0.01469 0.306699,-0.02204 z M 52.3297,12.32844 c 0.712053,-0.0551 1.405263,-0.213054 2.020548,-0.463209 0.817013,-0.330479 1.497023,-0.854053 1.904912,-1.466155 0.279664,-0.4192512 0.432389,-0.9723352 0.395301,-1.4323602 -0.03453,-0.410313 -0.170309,-0.801279 -0.397824,-1.140697 -0.05155,-0.07836 -0.125689,-0.180973 -0.164651,-0.230563 -0.09367,-0.118772 -0.397836,-0.420476 -0.527921,-0.526758 -0.651738,-0.531044 -1.515892,-0.901807 -2.520197,-1.082168 -0.896199,-0.162117 -1.922507,-0.137628 -2.80111,0.0649 l -0.147069,0.03306 -0.444328,-0.253338 c -0.246996,-0.139465 -0.603335,-0.343703 -0.795647,-0.452434 -0.226878,-0.127588 -0.348808,-0.203626 -0.346298,-0.213667 0.0012,-0.01224 0.81263,-0.482065 1.80185,-1.052781 1.620202,-0.934499 1.801837,-1.036373 1.822579,-1.02621 0.02829,0.01347 0.466319,0.268277 3.333427,1.923119 1.175875,0.679324 2.541564,1.466767 3.033657,1.751574 0.49398,0.284072 1.034464,0.597041 1.205409,0.694997 1.845207,1.066617 2.495683,1.439829 2.505112,1.439829 0.01702,0 1.291511,-0.729649 1.3154,-0.752913 0.01445,-0.01347 0.0024,-0.03428 -0.07922,-0.156485 -0.916941,-1.361832 -2.103505,-2.578566 -3.459129,-3.543922 -0.931402,-0.664875 -1.997296,-1.230571 -3.070097,-1.63219 -1.34682,-0.503983 -2.70433,-0.783647 -4.14291,-0.856624 -0.2935,-0.01347 -1.022537,-0.01347 -1.327339,0 -1.058352,0.0502 -2.080265,0.219911 -3.10279,0.512187 -2.052604,0.588837 -3.899061,1.629619 -5.485334,3.092712 -0.209283,0.192361 -0.645444,0.630959 -0.831474,0.835197 -0.449361,0.489045 -0.864155,1.017517 -1.244383,1.57562 -0.09171,0.138241 -0.113139,0.174117 -0.101752,0.185382 0.03208,0.03184 1.303463,0.751077 1.318548,0.747281 0.01102,0 0.312345,-0.175953 0.673716,-0.382763 1.899891,-1.097963 2.276973,-1.314078 2.291421,-1.314078 0.0086,0 0.481417,0.268277 1.047051,0.595694 0.849069,0.492106 1.031328,0.600837 1.031328,0.619694 0,0.01224 -0.01322,0.07592 -0.03012,0.143383 -0.05155,0.197871 -0.06845,0.335499 -0.06845,0.54292 -0.0024,0.27342 0.03453,0.484637 0.124441,0.743485 0.182884,0.5223502 0.562487,1.0068652 1.111151,1.4173002 0.76359,0.570593 1.815661,0.943928 2.960741,1.048863 0.345662,0.03061 0.855987,0.03551 1.191596,0.01224 z"
       style="stroke-width:0.628475" />
  </g>
  <g
     inkscape:groupmode="layer"
     id="layer1"
     inkscape:label="Ausrichtenboxen"
     style="display:none"
     transform="translate(13.546667,13.546667)">
    <path
       id="Ausrichtebox-ObenLinks"
       style="display:inline;fill:#ffff07;fill-opacity:0.997066;stroke:none;stroke-width:0;stroke-linecap:square;stroke-linejoin:bevel;stroke-miterlimit:2;stroke-dashoffset:1.88976;paint-order:markers stroke fill"
       d="m 21.514849,0.45716429 h 14.95113 V 15.405195 h -14.95113 z"
       transform="scale(0.99992373)" />
    <path
       id="Ausrichtebox-MitteLinks"
       style="display:inline;fill:#ffff07;fill-opacity:0.997066;stroke:none;stroke-width:0;stroke-linecap:square;stroke-linejoin:bevel;stroke-miterlimit:2;stroke-dashoffset:1.88976;paint-order:markers stroke fill"
       d="M 0.4571642,15.862049 H 36.465981 V 30.813182 L 0.4571642,30.81008 Z"
       sodipodi:nodetypes="ccccc"
       transform="scale(0.99992373)" />
    <path
       id="Ausrichtebox-ObenRechts"
       style="display:inline;fill:#ffff07;fill-opacity:0.997066;stroke:none;stroke-width:0;stroke-linecap:square;stroke-linejoin:bevel;stroke-miterlimit:2;stroke-dashoffset:1.88976;paint-order:markers stroke fill"
       d="M 36.922834,0.45613065 H 67.280919 V 30.815767 H 36.922834 Z"
       sodipodi:nodetypes="ccccc"
       transform="scale(0.99992373)" />
    <path
       id="Ausrichtebox-Unten"
       style="display:inline;fill:#ffff07;fill-opacity:0.997066;stroke:none;stroke-width:0;stroke-linecap:square;stroke-linejoin:bevel;stroke-miterlimit:2;stroke-dashoffset:1.88976;paint-order:markers stroke fill"
       d="M 5.8908388,31.274171 H 67.737776 V 47.0372 H 5.8908388 Z"
       sodipodi:nodetypes="ccccc"
       transform="scale(0.99992373)" />
  </g>
</svg>
