<?xml version="1.0" encoding="UTF-8" standalone="no"?>
<svg
   width="70"
   height="60"
   viewBox="0 0 70 60"
   version="1.1"
   id="svg1"
   sodipodi:docname="fablabchemnitz.de.affine_spirals.svg"
   inkscape:version="1.4-dev (1:1.4.0-dev+202403210151+2fe0648968)"
   xml:space="preserve"
   xmlns:inkscape="http://www.inkscape.org/namespaces/inkscape"
   xmlns:sodipodi="http://sodipodi.sourceforge.net/DTD/sodipodi-0.dtd"
   xmlns="http://www.w3.org/2000/svg"
   xmlns:svg="http://www.w3.org/2000/svg"><sodipodi:namedview
     id="namedview1"
     pagecolor="#ffffff"
     bordercolor="#000000"
     borderopacity="0.25"
     inkscape:showpageshadow="2"
     inkscape:pageopacity="0.0"
     inkscape:pagecheckerboard="0"
     inkscape:deskcolor="#d1d1d1"
     showgrid="true"
     inkscape:zoom="9.7932861"
     inkscape:cx="36.606712"
     inkscape:cy="39.516869"
     inkscape:current-layer="layer1"
     inkscape:window-width="1920"
     inkscape:window-height="1007"
     inkscape:window-x="0"
     inkscape:window-y="0"
     inkscape:window-maximized="1"><inkscape:grid
       id="grid1"
       units="px"
       originx="0"
       originy="0"
       spacingx="1"
       spacingy="1"
       empcolor="#0099e5"
       empopacity="0.30196078"
       color="#3f84a6"
       opacity="0.14902"
       empspacing="5"
       dotted="false"
       gridanglex="30"
       gridanglez="30"
       visible="true" /></sodipodi:namedview><defs
     id="defs1" /><g
     inkscape:label="org.ekips.filter.gears"
     inkscape:groupmode="layer"
     id="layer1"><path
       style="fill:none;stroke:#dd0000;stroke-width:0.4;stroke-dasharray:none"
       d="m 9.032045,29.99997 4.88847,-2.77468 v 0 l 4.26524,-1.73076 v 0 l 3.64719,-0.94783 v 0 l 3.06163,-0.38044 v 0 l 2.52668,0.0182 v 0 l 2.04757,0.28435 v 0 l 1.63339,0.45055 m -22.07017,5.08063 4.88847,2.77467 v 0 l 4.26524,1.73077 v 0 l 3.64719,0.94783 v 0 l 3.06163,0.38043 v 0 l 2.52668,-0.0182 v 0 l 2.04757,-0.28435 v 0 l 1.63339,-0.45054 m -21.18596,-11.80114 5.44158,-1.41525 v 0 l 4.56777,-0.5674 v 0 l 3.76795,0.0273 v 0 l 3.05643,0.42588 v 0 l 2.43449,0.67127 v 0 l 1.90475,0.805 v 0 l 1.4607,0.85695 m -22.63367,-0.80371 4.00426,3.94583 v 0 l 3.67317,2.77468 v 0 l 3.27715,1.8606 v 0 l 2.85907,1.15947 v 0 l 2.44359,0.63621 v 0 l 2.05276,0.25449 v 0 l 1.69312,-0.013 m -17.40892,-16.88177 5.62206,0.0416 v 0 l 4.55868,0.63362 v 0 l 3.63291,1.00236 v 0 l 2.84219,1.20102 v 0 l 2.17742,1.27892 v 0 l 1.63208,1.27113 v 0 l 1.18804,1.20621 m -21.65338,-6.63481 2.84738,4.84822 v 0 l 2.82792,3.63032 v 0 l 2.68508,2.64483 v 0 l 2.46047,1.86061 v 0 l 2.19688,1.24646 v 0 l 1.91644,0.77774 v 0 l 1.63858,0.42587 m -12.44515,-20.81201 5.41952,1.49445 v 0 l 4.23927,1.79309 v 0 l 3.24989,1.90734 v 0 l 2.43319,1.89696 v 0 l 1.77361,1.79828 v 0 l 1.24647,1.65027 v 0 l 0.83616,1.47238 m -19.19811,-12.01277 1.49446,5.41951 v 0 l 1.79309,4.23927 v 0 l 1.90734,3.24989 v 0 l 1.89696,2.43319 v 0 l 1.79828,1.77361 v 0 l 1.65027,1.24647 v 0 l 1.47238,0.83616 m -6.63481,-23.32571 4.84822,2.84739 v 0 l 3.63032,2.82791 v 0 l 2.64483,2.68508 v 0 l 1.86061,2.46047 v 0 l 1.24646,2.19688 v 0 l 0.77774,1.91644 v 0 l 0.42587,1.63858 m -15.43405,-16.57275 0.0416,5.62206 v 0 l 0.63362,4.55868 v 0 l 1.00236,3.63291 v 0 l 1.20102,2.84219 v 0 l 1.27892,2.17742 v 0 l 1.27113,1.63208 v 0 l 1.20621,1.18804 m -0.37134,-24.24758 3.94583,4.00426 v 0 l 2.77468,3.67317 v 0 l 1.8606,3.27715 v 0 l 1.15947,2.85907 v 0 l 0.63621,2.44359 v 0 l 0.25449,2.05276 v 0 l -0.013,1.69312 m -10.6183,-20.00312 -1.41525,5.44159 v 0 l -0.5674,4.56776 v 0 l 0.0273,3.76795 v 0 l 0.42588,3.05643 v 0 l 0.67127,2.43449 v 0 l 0.805,1.90475 v 0 l 0.85695,1.4607 m 5.9168,-23.51788 2.77467,4.88847 v 0 l 1.73077,4.26524 v 0 l 0.94783,3.64719 v 0 l 0.38043,3.06163 v 0 l -0.0182,2.52668 v 0 l -0.28435,2.04757 v 0 l -0.45054,1.63339 m -5.08063,-22.07017 -2.77468,4.88847 v 0 l -1.73076,4.26524 v 0 l -0.94783,3.64719 v 0 l -0.38044,3.06163 v 0 l 0.0182,2.52668 v 0 l 0.28435,2.04757 v 0 l 0.45055,1.63339 m 11.80113,-21.18596 1.41526,5.44159 v 0 l 0.5674,4.56776 v 0 l -0.0273,3.76795 v 0 l -0.42588,3.05643 v 0 l -0.67127,2.43449 v 0 l -0.805,1.90475 v 0 l -0.85695,1.4607 m 0.80371,-22.63367 -3.94583,4.00426 v 0 l -2.77467,3.67317 v 0 l -1.86061,3.27715 v 0 l -1.15947,2.85907 v 0 l -0.63621,2.44359 v 0 l -0.25449,2.05276 v 0 l 0.013,1.69312 m 16.88176,-17.40892 -0.0416,5.62206 v 0 l -0.63361,4.55868 v 0 l -1.00237,3.63291 v 0 l -1.20102,2.84219 v 0 l -1.27892,2.17742 v 0 l -1.27113,1.63208 v 0 l -1.20621,1.18804 m 6.63481,-21.65338 -4.84821,2.84739 v 0 l -3.63032,2.82791 v 0 l -2.64484,2.68508 v 0 l -1.8606,2.46047 v 0 l -1.24647,2.19688 v 0 l -0.77774,1.91644 v 0 l -0.42587,1.63858 m 20.81202,-12.44514 -1.49446,5.41951 v 0 l -1.79309,4.23927 v 0 l -1.90734,3.24989 v 0 l -1.89696,2.43319 v 0 l -1.79828,1.77361 v 0 l -1.65027,1.2464 v 0 l -1.47238,0.83616 m 12.01278,-19.1981 -5.41952,1.49445 v 0 l -4.23926,1.79309 v 0 l -3.24989,1.90734 v 0 l -2.4332,1.89696 v 0 l -1.77361,1.79828 v 0 l -1.24646,1.65027 v 0 l -0.83617,1.47238 m 23.32571,-6.63481 -2.84738,4.84822 v 0 l -2.82791,3.63032 v 0 l -2.68509,2.64483 v 0 l -2.46046,1.86061 v 0 l -2.19689,1.24646 v 0 l -1.91644,0.77774 v 0 l -1.63858,0.42587 m 16.57275,-15.43405 -5.62206,0.0416 v 0 l -4.55867,0.63362 v 0 l -3.63292,1.00236 v 0 l -2.84219,1.20102 v 0 l -2.17742,1.27892 v 0 l -1.63208,1.27113 v 0 l -1.18804,1.20621 m 24.24758,-0.37134 -4.00426,3.94583 v 0 l -3.67316,2.77463 v 0 l -3.27716,1.8606 v 0 l -2.85907,1.15947 v 0 l -2.44359,0.63621 v 0 l -2.05276,0.25449 v 0 l -1.69311,-0.013 m 20.00311,-10.6183 -5.44158,-1.41525 v 0 l -4.56777,-0.5674 v 0 l -3.76795,0.0273 v 0 l -3.05643,0.42588 v 0 l -2.43449,0.67127 v 0 l -1.90475,0.805 v 0 l -1.4607,0.85695 m 23.51788,5.9168 -4.88847,2.77467 v 0 l -4.26523,1.73077 v 0 l -3.6472,0.94783 v 0 l -3.06163,0.38043 v 0 l -2.52668,-0.0182 v 0 l -2.04757,-0.28435 v 0 l -1.63338,-0.45054 m 22.07016,-5.08063 -4.88847,-2.77468 v 0 l -4.26523,-1.73076 v 0 l -3.6472,-0.94783 v 0 l -3.06163,-0.38044 v 0 l -2.52668,0.0182 v 0 l -2.04757,0.28435 v 0 l -1.63338,0.45055 m 21.18595,11.80113 -5.44158,1.41526 v 0 l -4.56777,0.5674 v 0 l -3.76795,-0.0273 v 0 l -3.05643,-0.42588 v 0 l -2.43449,-0.67127 v 0 l -1.90475,-0.805 v 0 l -1.4607,-0.85695 m 22.63367,0.80371 -4.00426,-3.94583 v 0 l -3.67316,-2.77466 v 0 l -3.27716,-1.86061 v 0 l -2.85907,-1.15947 v 0 l -2.44359,-0.63621 v 0 l -2.05276,-0.25449 v 0 l -1.69311,0.013 m 17.40891,16.88176 -5.62206,-0.0416 v 0 l -4.55867,-0.63361 v 0 l -3.63292,-1.00237 v 0 l -2.84219,-1.20102 v 0 l -2.17742,-1.27892 v 0 l -1.63208,-1.27113 v 0 l -1.18804,-1.20621 m 21.65338,6.63481 -2.84738,-4.84821 v 0 l -2.82791,-3.63032 v 0 l -2.68509,-2.64484 v 0 l -2.46046,-1.86056 v 0 l -2.19689,-1.24647 v 0 l -1.91644,-0.77774 v 0 l -1.63858,-0.42587 m 12.44515,20.81202 -5.41952,-1.49446 v 0 l -4.23926,-1.79309 v 0 l -3.24989,-1.90734 v 0 l -2.4332,-1.89696 v 0 l -1.77361,-1.79828 v 0 l -1.24646,-1.65027 v 0 l -0.83617,-1.47238 m 19.19811,12.01278 -1.49446,-5.41952 v 0 l -1.79309,-4.23926 v 0 l -1.90734,-3.24989 v 0 l -1.89696,-2.4332 v 0 l -1.79828,-1.77361 v 0 l -1.65027,-1.24646 v 0 l -1.47238,-0.83617 m 6.63481,23.32571 -4.84821,-2.84738 v 0 l -3.63032,-2.82791 v 0 l -2.64484,-2.68509 v 0 l -1.8606,-2.46046 v 0 l -1.24647,-2.19689 v 0 l -0.77774,-1.91644 v 0 l -0.42587,-1.63858 m 15.43405,16.57275 -0.0416,-5.62206 v 0 l -0.63361,-4.55867 v 0 l -1.00237,-3.63292 v 0 l -1.20102,-2.84219 v 0 l -1.27892,-2.17742 v 0 l -1.27113,-1.63208 v 0 l -1.20621,-1.18804 m 0.37134,24.24758 -3.94583,-4.00426 v 0 l -2.77467,-3.67316 v 0 l -1.86061,-3.27716 v 0 l -1.15947,-2.85907 v 0 l -0.63621,-2.44359 v 0 l -0.25449,-2.05276 v 0 l 0.013,-1.69311 m 10.61829,20.00311 1.41526,-5.44158 v 0 l 0.5674,-4.56777 v 0 l -0.0273,-3.76795 v 0 l -0.42588,-3.05643 v 0 l -0.67127,-2.43449 v 0 l -0.805,-1.90475 v 0 l -0.85695,-1.4607 m -5.91679,23.51788 -2.77468,-4.88847 v 0 l -1.73076,-4.26523 v 0 l -0.94783,-3.6472 v 0 l -0.38044,-3.06163 v 0 l 0.0182,-2.52668 v 0 l 0.28435,-2.04757 v 0 l 0.45055,-1.63338 m 5.08063,22.07016 2.77467,-4.88847 v 0 l 1.73077,-4.26523 v 0 l 0.94783,-3.6472 v 0 l 0.38043,-3.06163 v 0 l -0.0182,-2.52668 v 0 l -0.28435,-2.04757 v 0 l -0.45054,-1.63338 m -11.80114,21.18595 -1.41525,-5.44158 v 0 l -0.5674,-4.56777 v 0 l 0.0273,-3.76795 v 0 l 0.42588,-3.05643 v 0 l 0.67127,-2.43449 v 0 l 0.805,-1.90475 v 0 l 0.85695,-1.4607 m -0.80371,22.63367 3.94583,-4.00426 v 0 l 2.77468,-3.67316 v 0 l 1.8606,-3.27716 v 0 l 1.15947,-2.85907 v 0 l 0.63621,-2.44359 v 0 l 0.25449,-2.05276 v 0 l -0.013,-1.69311 m -16.88177,17.40891 0.0416,-5.62206 v 0 l 0.63362,-4.55867 v 0 l 1.00236,-3.63292 v 0 l 1.20102,-2.84219 v 0 l 1.27892,-2.17742 v 0 l 1.27113,-1.63208 v 0 l 1.20621,-1.18804 m -6.63481,21.65338 4.84822,-2.84738 v 0 l 3.63032,-2.82791 v 0 l 2.64483,-2.68509 v 0 l 1.86061,-2.46046 v 0 l 1.24646,-2.19689 v 0 l 0.77774,-1.91644 v 0 l 0.42587,-1.63858 m -20.81202,12.44515 1.49446,-5.41952 v 0 l 1.79309,-4.23926 v 0 l 1.90734,-3.24989 v 0 l 1.89696,-2.4332 v 0 l 1.79828,-1.77361 v 0 l 1.65027,-1.24646 v 0 l 1.47238,-0.83617 m -12.01278,19.19811 5.41952,-1.49446 v 0 l 4.23927,-1.79309 v 0 l 3.24989,-1.90734 v 0 l 2.43319,-1.89696 v 0 l 1.77361,-1.79828 v 0 l 1.24647,-1.65027 v 0 l 0.83616,-1.47238 m -23.32571,6.63481 2.84738,-4.84821 v 0 l 2.82792,-3.63032 v 0 l 2.68508,-2.64484 v 0 l 2.46047,-1.8606 v 0 l 2.19688,-1.24647 v 0 l 1.91644,-0.77774 v 0 l 1.63858,-0.42587 m -16.57275,15.43405 5.62206,-0.0416 v 0 l 4.55868,-0.63361 v 0 l 3.63291,-1.00237 v 0 l 2.84219,-1.20102 v 0 l 2.17742,-1.27892 v 0 l 1.63208,-1.27113 v 0 l 1.18804,-1.20621 m -24.24758,0.37134 4.00426,-3.94583 v 0 l 3.67317,-2.77462 v 0 l 3.27715,-1.86061 v 0 l 2.85907,-1.15947 v 0 l 2.44359,-0.63621 v 0 l 2.05276,-0.25449 v 0 l 1.69312,0.013 m -20.00312,10.61829 5.44158,1.41526 v 0 l 4.56777,0.5674 v 0 l 3.76795,-0.0273 v 0 l 3.05643,-0.42588 v 0 l 2.43449,-0.67127 v 0 l 1.90475,-0.805 v 0 l 1.4607,-0.85695"
       id="path1" /></g></svg>
