<?xml version="1.0" encoding="UTF-8" standalone="no"?>
<!-- Created with Inkscape (http://www.inkscape.org/) -->

<svg
   width="100.0px"
   height="100.0px"
   viewBox="0 0 100.0 100.0"
   version="1.1"
   id="svg2051"
   inkscape:version="1.4.2 (1:1.4.2+202505120737+ebf0e940d0)"
   sodipodi:docname="icon.svg"
   xml:space="preserve"
   inkscape:export-filename="/home/zypresse/Downloads/icon.png"
   inkscape:export-xdpi="96"
   inkscape:export-ydpi="96"
   xmlns:inkscape="http://www.inkscape.org/namespaces/inkscape"
   xmlns:sodipodi="http://sodipodi.sourceforge.net/DTD/sodipodi-0.dtd"
   xmlns="http://www.w3.org/2000/svg"
   xmlns:svg="http://www.w3.org/2000/svg"
   xmlns:rdf="http://www.w3.org/1999/02/22-rdf-syntax-ns#"
   xmlns:cc="http://creativecommons.org/ns#"><sodipodi:namedview
     id="namedview2053"
     pagecolor="#ffffff"
     bordercolor="#666666"
     borderopacity="1.0"
     inkscape:pageshadow="2"
     inkscape:pageopacity="0.0"
     inkscape:pagecheckerboard="false"
     inkscape:document-units="px"
     showgrid="false"
     inkscape:showpageshadow="false"
     inkscape:snap-tangential="true"
     inkscape:snap-perpendicular="true"
     inkscape:deskcolor="#ffffff"
     inkscape:lockguides="true"
     inkscape:zoom="7.3258744"
     inkscape:cx="51.870941"
     inkscape:cy="60.811853"
     inkscape:window-width="1920"
     inkscape:window-height="1008"
     inkscape:window-x="0"
     inkscape:window-y="0"
     inkscape:window-maximized="1"
     inkscape:current-layer="svg2051"
     inkscape:export-bgcolor="#ffffffff" /><defs
     id="defs2048" /><g
     inkscape:label="Layer 1"
     inkscape:groupmode="layer"
     id="layer1"
     transform="scale(3.77953, 3.77953)" /><metadata
     id="metadata2118"><rdf:RDF><cc:Work
         rdf:about="" /></rdf:RDF></metadata><path
     id="rect14"
     style="fill:#00bcff;fill-rule:evenodd;stroke-width:2.30465;stroke-linecap:round;stroke-linejoin:round;fill-opacity:1"
     d="M 7.3047421,10.701129 V 19.90877 H 89.331628 V 10.701129 Z M 69.758665,22.213513 50.266419,55.972506 a 1.1523248,1.1523248 0 0 1 -1.152726,1.152723 h -4.30077 V 81.92865 l 10.610314,6.469567 V 82.051855 57.125229 L 71.052295,40.271225 a 1.1523248,1.1523248 0 0 1 0.317212,-0.78595 L 87.797969,22.213513 Z" /><path
     id="path15"
     style="fill:#0094ff;fill-opacity:1;fill-rule:evenodd;stroke:none;stroke-width:2.30465;stroke-linecap:round;stroke-linejoin:round;stroke-dasharray:none;stroke-opacity:1"
     d="M 8.8391123,22.213513 39.855072,54.820487 h 9.258621 a 1.1523248,1.1523248 0 0 1 1.152726,1.152019 L 69.758665,22.213513 Z M 40.512154,57.125229 v 22.18076 l 4.300769,2.622661 V 57.125229 Z" /><path
     style="baseline-shift:baseline;display:inline;overflow:visible;vector-effect:none;fill-rule:evenodd;stroke-width:0.362528;stroke-linecap:round;stroke-linejoin:round;enable-background:accumulate;stop-color:#000000"
     d="M 6.1520159,8.3970945 C 5.5158716,8.3973287 5.0002335,8.9129674 5.0000002,9.5491117 V 21.061496 c 7.94e-5,0.29546 0.1136356,0.579604 0.3172119,0.793738 L 38.207412,56.432746 v 23.519703 c -1.28e-4,0.401931 0.20916,0.774893 0.552289,0.984205 l 17.215825,10.497734 c 0.768069,0.468382 1.752677,-0.08459 1.752453,-0.984209 v -8.398324 c -1.68e-4,-0.636449 -0.516278,-1.152242 -1.152727,-1.15202 -0.636171,1.71e-4 -1.151847,0.515849 -1.152015,1.15202 v 6.346362 L 40.512154,79.305989 v -22.18076 h 8.601539 c 0.636724,2.22e-4 1.152946,-0.515999 1.152726,-1.152723 -1.69e-4,-0.636449 -0.516277,-1.152241 -1.152726,-1.152019 H 39.855072 L 8.8391123,22.213513 H 87.797965 L 71.369507,39.485275 c -0.438144,0.461138 -0.41976,1.190077 0.04107,1.628544 0.460945,0.438333 1.189878,0.420268 1.628544,-0.04036 L 91.319162,21.855234 c 0.26352,-0.290229 0.32808,-0.329935 0.317212,-0.793738 V 9.5491117 C 91.636141,8.9129673 91.120502,8.3973285 90.484358,8.3970945 Z M 7.3047421,10.701129 H 89.331628 V 19.90877 H 7.3047421 Z"
     id="path11"
     sodipodi:nodetypes="cccccccccccccccccccccccccccccccccc" /><rect
     style="fill:#ffffa0;fill-opacity:1;fill-rule:evenodd;stroke:#000000;stroke-width:2.31171;stroke-linecap:round;stroke-linejoin:round;stroke-dasharray:none;stroke-opacity:1"
     id="rect16"
     width="30.606379"
     height="30.606379"
     x="63.237766"
     y="48.698227" /><path
     style="fill:#d7fff3;fill-opacity:1;fill-rule:evenodd;stroke:#000000;stroke-width:1.67858;stroke-linecap:round;stroke-linejoin:round;stroke-dasharray:none;stroke-opacity:1"
     d="M 89.686931,52.855441 67.394976,75.147392"
     id="path16" /><path
     style="fill:#d7fff3;fill-opacity:1;fill-rule:evenodd;stroke:#000000;stroke-width:1.67858;stroke-linecap:round;stroke-linejoin:round;stroke-dasharray:none;stroke-opacity:1"
     d="M 89.686928,75.147392 67.394976,52.855437"
     id="path17" /></svg>
