<?xml version="1.0" encoding="UTF-8" standalone="no"?>
<!-- Created with Inkscape (http://www.inkscape.org/) -->

<svg
   width="100.0px"
   height="100.0px"
   viewBox="0 0 100.0 100.0"
   version="1.1"
   id="svg2051"
   inkscape:version="1.4.2 (1:1.4.2+202505120737+ebf0e940d0)"
   sodipodi:docname="icon.svg"
   xml:space="preserve"
   inkscape:export-filename="icon.png"
   inkscape:export-xdpi="96"
   inkscape:export-ydpi="96"
   xmlns:inkscape="http://www.inkscape.org/namespaces/inkscape"
   xmlns:sodipodi="http://sodipodi.sourceforge.net/DTD/sodipodi-0.dtd"
   xmlns="http://www.w3.org/2000/svg"
   xmlns:svg="http://www.w3.org/2000/svg"><sodipodi:namedview
     id="namedview2053"
     pagecolor="#ffffff"
     bordercolor="#666666"
     borderopacity="1.0"
     inkscape:pageshadow="2"
     inkscape:pageopacity="0.0"
     inkscape:pagecheckerboard="false"
     inkscape:document-units="px"
     showgrid="false"
     inkscape:showpageshadow="false"
     inkscape:snap-tangential="true"
     inkscape:snap-perpendicular="true"
     inkscape:deskcolor="#ffffff"
     inkscape:lockguides="true"
     inkscape:zoom="7.3258742"
     inkscape:cx="27.914757"
     inkscape:cy="52.416952"
     inkscape:window-width="1920"
     inkscape:window-height="1008"
     inkscape:window-x="0"
     inkscape:window-y="0"
     inkscape:window-maximized="1"
     inkscape:current-layer="g34"
     inkscape:export-bgcolor="#ffffffff" /><defs
     id="defs2048" /><g
     inkscape:label="1"
     inkscape:groupmode="layer"
     id="g34"><path
       id="1"
       style="baseline-shift:baseline;display:inline;overflow:visible;vector-effect:none;fill-rule:evenodd;stroke-linecap:square;enable-background:accumulate;stop-color:#000000;stop-opacity:1;opacity:1"
       d="M 25.03125 6.7558594 L 12.097656 55.027344 C 10.391182 56.762473 9.5813785 57.668632 8.6679688 58.8125 L 8.0175781 59.626953 L 4.1933594 59.626953 L 0.3671875 59.626953 L 0.3671875 62.460938 C 0.5504985 62.480477 2.177949 62.496094 4.125 62.496094 C 7.623688 62.496094 7.8963065 62.484964 8.4140625 62.310547 C 9.3315695 62.001462 9.7735799 61.662003 10.589844 60.652344 L 10.587891 60.660156 C 10.626296 60.612569 10.666828 60.56438 10.707031 60.513672 C 11.629245 59.350469 12.537152 58.30363 13.998047 56.748047 C 14.663571 56.039387 15.444004 55.224602 16.392578 54.246094 C 19.480613 51.060605 19.708489 50.8497 20.392578 50.507812 C 21.704275 49.852258 23.150966 50.608093 23.140625 51.943359 C 23.134625 52.711512 22.714279 53.445866 21.605469 54.619141 C 19.886419 56.438139 18.962891 57.669728 18.962891 58.140625 C 18.962891 58.685975 19.461772 59.011063 20.615234 59.216797 C 21.166038 59.315037 22.778321 59.343185 27.943359 59.345703 L 28.007812 59.345703 L 30.509766 59.347656 L 34.564453 59.349609 L 34.976562 59.558594 C 35.949433 60.050071 36.187614 61.362958 35.460938 62.226562 C 35.019866 62.750749 34.873704 62.773438 31.933594 62.773438 L 31.929688 62.773438 C 30.913748 62.773435 30.241137 62.77284 29.8125 62.785156 C 29.812986 62.785924 29.813967 62.786341 29.814453 62.787109 C 29.352989 62.801604 29.154004 62.831774 29.152344 62.902344 L 29.097656 65.226562 L 31.605469 65.253906 L 33.447266 65.273438 C 33.916262 65.278431 34.337266 65.284399 34.712891 65.289062 L 34.710938 65.287109 C 37.458231 65.321221 37.858405 65.353853 38.089844 65.480469 C 39.045618 66.003363 39.165226 67.519384 38.429688 68.265625 C 38.339623 68.357 38.23684 68.4369 38.121094 68.501953 C 38.078462 68.525913 38.03956 68.546009 37.996094 68.564453 C 37.983888 68.569637 37.972098 68.57529 37.958984 68.580078 C 37.948138 68.584065 37.937472 68.588075 37.925781 68.591797 C 37.922661 68.59279 37.919205 68.592775 37.916016 68.59375 C 37.901436 68.598216 37.88541 68.60138 37.869141 68.605469 C 37.850947 68.610075 37.82746 68.614986 37.806641 68.619141 C 37.762917 68.627805 37.711324 68.635742 37.652344 68.642578 C 37.625291 68.645748 37.595496 68.649528 37.564453 68.652344 C 37.5236 68.656012 37.468638 68.659009 37.419922 68.662109 C 37.232529 68.67446 36.672817 68.672322 36.326172 68.677734 C 35.686478 68.688426 35.099622 68.697266 33.556641 68.697266 C 29.848098 68.697266 29.323273 68.715756 29.195312 68.84375 C 29.003867 69.035197 28.982387 71.024068 29.169922 71.179688 C 29.246542 71.243278 30.275683 71.288391 32.0625 71.306641 C 34.656767 71.333131 34.856296 71.347221 35.15625 71.523438 C 36.227902 72.153008 36.169887 74.004458 35.060547 74.578125 C 34.847864 74.688108 34.284726 74.712891 32.070312 74.712891 C 29.713408 74.712891 29.320954 74.733721 29.195312 74.859375 C 29.081387 74.973299 29.050781 75.217861 29.050781 75.986328 C 29.050781 77.280876 29.072802 77.3045 30.199219 77.304688 C 31.172125 77.304873 31.52255 77.4379 31.943359 77.964844 C 32.27243 78.376909 32.365211 78.933852 32.226562 79.429688 C 32.213771 79.475432 32.198363 79.519914 32.181641 79.564453 C 32.180921 79.566373 32.180414 79.568395 32.179688 79.570312 C 32.170226 79.59523 32.159131 79.620075 32.148438 79.644531 C 32.136051 79.672873 32.123414 79.700876 32.109375 79.728516 C 32.100027 79.746929 32.090159 79.765134 32.080078 79.783203 C 32.060269 79.818672 32.040201 79.852727 32.017578 79.886719 C 32.012815 79.893876 32.008794 79.901117 32.003906 79.908203 C 32.002065 79.910881 31.999906 79.913348 31.998047 79.916016 C 31.965744 79.962231 31.930199 80.007932 31.892578 80.050781 C 31.841106 80.109405 31.798252 80.161477 31.755859 80.208984 C 31.743779 80.222448 31.729086 80.23933 31.716797 80.251953 C 31.708562 80.260417 31.699885 80.269248 31.691406 80.277344 C 31.685257 80.283215 31.678208 80.289241 31.671875 80.294922 C 31.662997 80.302876 31.653881 80.310769 31.644531 80.318359 C 31.638064 80.323618 31.631744 80.328897 31.625 80.333984 C 31.623508 80.335108 31.6226 80.336776 31.621094 80.337891 C 31.614979 80.342426 31.60794 80.345209 31.601562 80.349609 C 31.585683 80.360578 31.568622 80.370709 31.550781 80.380859 C 31.545763 80.383715 31.542307 80.387833 31.537109 80.390625 C 31.534064 80.392262 31.530454 80.392916 31.527344 80.394531 C 31.502339 80.407539 31.475103 80.419986 31.445312 80.431641 C 31.44124 80.433234 31.437767 80.433978 31.433594 80.435547 C 31.40686 80.445595 31.375065 80.455772 31.34375 80.464844 C 31.291361 80.479993 31.235951 80.493252 31.167969 80.505859 C 31.151315 80.508948 31.119282 80.510727 31.101562 80.513672 C 30.807164 80.563579 29.874699 80.568234 29.154297 80.585938 C 27.963502 80.621203 26.645219 80.636719 23.134766 80.636719 C 17.911214 80.636719 15.105015 80.602929 14.779297 80.537109 C 12.911974 80.159794 11.145918 79.147851 10.294922 77.964844 C 10.093649 77.685055 9.808203 77.411566 9.640625 77.339844 C 9.401353 77.237433 8.4598177 77.212891 4.8554688 77.212891 C 2.5443458 77.212891 0.6153265 77.240551 0.3671875 77.275391 L 0.3671875 79.644531 L 0.36132812 79.644531 L 0.36914062 79.988281 L 4.5449219 79.988281 L 8.7207031 79.988281 L 9.2402344 80.441406 C 10.708372 81.718354 12.294565 82.527177 14.103516 82.923828 C 14.646775 83.042919 15.971393 83.073811 22.3125 83.109375 L 29.875 83.152344 C 29.875 83.152344 31.519879 82.991574 32.4375 82.367188 C 32.620179 82.242886 32.785709 82.112889 32.935547 81.980469 L 74.96875 93.244141 L 87.765625 45.482422 C 87.766601 45.481437 87.766603 45.481453 87.767578 45.480469 C 89.825088 43.404881 90.700755 42.437882 91.699219 41.1875 L 92.349609 40.373047 L 96.173828 40.373047 L 100 40.373047 L 100 37.539062 C 99.81669 37.519523 98.189239 37.503906 96.242188 37.503906 C 92.743499 37.503906 92.470881 37.515036 91.953125 37.689453 C 90.98882 38.014303 90.561724 38.349164 89.660156 39.486328 C 88.317819 41.179439 87.005404 42.627469 83.974609 45.753906 C 80.886574 48.939395 80.658698 49.1503 79.974609 49.492188 C 78.662912 50.147742 77.216223 49.391907 77.226562 48.056641 C 77.232563 47.288488 77.652909 46.554134 78.761719 45.380859 C 80.480769 43.561861 81.404297 42.330272 81.404297 41.859375 C 81.404297 41.314025 80.905415 40.988937 79.751953 40.783203 C 79.201149 40.684963 77.588866 40.656815 72.423828 40.654297 L 71.992188 40.654297 L 70.652344 40.652344 L 69.488281 40.652344 L 65.802734 40.650391 L 65.390625 40.441406 C 64.417755 39.949929 64.179573 38.637041 64.90625 37.773438 C 65.347322 37.249251 65.493484 37.226562 68.433594 37.226562 C 69.201958 37.226563 69.774375 37.227533 70.193359 37.222656 C 70.959322 37.213741 71.212777 37.185507 71.214844 37.097656 L 71.269531 34.773438 L 68.390625 34.742188 L 66.919922 34.726562 C 66.285171 34.719805 65.740794 34.713346 65.273438 34.707031 C 62.869835 34.674552 62.497604 34.640032 62.277344 34.519531 C 61.384929 34.0313 61.221751 32.677418 61.802734 31.892578 C 61.920173 31.733932 62.067684 31.598319 62.246094 31.498047 C 62.3241 31.454206 62.390224 31.420904 62.494141 31.394531 C 62.5825 31.372151 62.697879 31.3545 62.873047 31.341797 C 63.223268 31.316308 63.810015 31.307757 64.882812 31.304688 C 65.402103 31.303201 66.034935 31.302734 66.810547 31.302734 C 70.51909 31.302734 71.043914 31.284244 71.171875 31.15625 C 71.363321 30.964803 71.384801 28.975932 71.197266 28.820312 C 71.120646 28.756722 70.091504 28.711609 68.304688 28.693359 C 65.71042 28.666869 65.510891 28.652781 65.210938 28.476562 C 64.139285 27.846992 64.197301 25.995542 65.306641 25.421875 C 65.519324 25.311892 66.082462 25.287109 68.296875 25.287109 C 70.653779 25.287109 71.046234 25.266279 71.171875 25.140625 C 71.285801 25.026701 71.316406 24.782139 71.316406 24.013672 C 71.316406 22.719124 71.294386 22.695498 70.167969 22.695312 C 69.195063 22.695128 68.844637 22.5621 68.423828 22.035156 C 68.106794 21.638164 68.009676 21.106752 68.126953 20.625 C 68.136054 20.587542 68.148443 20.550408 68.160156 20.513672 C 68.167881 20.489469 68.174746 20.465247 68.183594 20.441406 C 68.184313 20.439468 68.18482 20.437483 68.185547 20.435547 C 68.204065 20.386229 68.224699 20.338421 68.248047 20.291016 C 68.251285 20.284441 68.254482 20.278018 68.257812 20.271484 C 68.281988 20.224064 68.3069 20.177821 68.335938 20.132812 C 68.344016 20.120229 68.352871 20.108075 68.361328 20.095703 C 68.395936 20.045307 68.433748 19.995758 68.474609 19.949219 C 68.536192 19.879079 68.583756 19.820009 68.634766 19.765625 C 68.643417 19.756402 68.65326 19.745132 68.662109 19.736328 C 68.668289 19.730164 68.675306 19.724713 68.681641 19.71875 C 68.692867 19.708199 68.704864 19.697435 68.716797 19.6875 C 68.725354 19.680382 68.733145 19.672826 68.742188 19.666016 C 68.764643 19.649104 68.787914 19.634226 68.814453 19.619141 C 68.837752 19.605897 68.865007 19.593943 68.892578 19.582031 C 68.902327 19.577819 68.911502 19.572411 68.921875 19.568359 C 68.949865 19.557457 68.982472 19.546887 69.015625 19.537109 C 69.065089 19.522522 69.120108 19.510299 69.183594 19.498047 C 69.464305 19.443588 70.339727 19.435354 71.056641 19.416016 C 72.234925 19.377669 73.630844 19.363281 77.232422 19.363281 C 82.455974 19.363281 85.262173 19.397071 85.587891 19.462891 C 87.455214 19.840206 89.22127 20.852149 90.072266 22.035156 C 90.273539 22.314945 90.558984 22.588434 90.726562 22.660156 C 90.965834 22.762567 91.90737 22.787109 95.511719 22.787109 C 97.822842 22.787109 99.751861 22.759449 100 22.724609 L 100 20.355469 L 100.00586 20.355469 L 99.998047 20.011719 L 95.822266 20.011719 L 91.646484 20.011719 L 91.126953 19.558594 C 89.658815 18.281646 88.072623 17.472823 86.263672 17.076172 C 85.720413 16.957081 84.395793 16.926189 78.054688 16.890625 L 70.492188 16.847656 C 70.492188 16.847656 68.847307 17.008426 67.929688 17.632812 C 67.712303 17.780729 67.518948 17.934697 67.347656 18.09375 L 25.03125 6.7558594 z M 26.644531 9.5507812 L 66.15625 20.136719 C 65.997151 20.842213 66.06133 21.449268 66.115234 21.753906 C 66.175324 22.093467 66.249435 22.457631 66.279297 22.564453 C 66.329897 22.745365 66.288097 22.762624 65.669922 22.814453 C 64.133061 22.943297 62.757064 24.045646 62.248047 25.556641 C 62.000963 26.290108 61.978131 27.452078 62.195312 28.199219 C 62.274282 28.470863 62.327722 28.706627 62.322266 28.746094 L 62.322266 28.748047 L 62.322266 28.75 C 62.306536 28.76026 61.989916 28.81815 61.619141 28.878906 C 61.510085 28.896778 61.403763 28.918262 61.298828 28.943359 C 59.690949 28.080388 57.976379 27.397821 56.185547 26.917969 L 56.183594 26.917969 L 55.082031 26.623047 L 54.492188 28.826172 L 55.59375 29.121094 C 56.792566 29.442316 57.952634 29.863095 59.064453 30.376953 C 58.552933 31.058073 58.266665 31.924537 58.269531 32.896484 C 58.272531 33.81493 58.373872 34.302697 58.708984 34.988281 C 59.300063 36.197523 60.381455 36.968945 61.765625 37.167969 L 62.496094 37.271484 L 62.302734 37.642578 C 62.017834 38.185428 62.029714 39.732548 62.326172 40.486328 C 62.760731 41.591233 63.70527 42.538448 64.765625 42.933594 C 65.006418 43.023324 65.59119 43.099005 66.255859 43.126953 L 66.792969 43.150391 L 70.484375 43.150391 L 70.5 43.150391 C 70.626998 43.530251 70.744188 43.913242 70.849609 44.298828 L 71.150391 45.398438 L 73.351562 44.796875 L 73.050781 43.697266 C 73.001523 43.517099 72.950048 43.337264 72.896484 43.158203 L 73.421875 43.160156 C 75.038105 43.165556 76.608474 43.195886 76.910156 43.228516 L 77.457031 43.289062 L 76.621094 44.189453 C 75.747849 45.128969 75.249158 45.938148 74.982422 46.845703 C 74.773638 47.556065 74.789877 48.729326 75.019531 49.457031 C 75.584461 51.24733 77.337703 52.30293 79.181641 52.210938 C 79.79629 52.180258 80.421311 52.021864 81.015625 51.720703 C 81.728471 51.359475 82.373965 50.825687 84.542969 48.693359 L 73.355469 90.451172 L 34.189453 79.955078 C 34.376096 79.210488 34.308195 78.56394 34.251953 78.246094 C 34.191863 77.906533 34.117753 77.542369 34.087891 77.435547 C 34.037291 77.254635 34.079091 77.237376 34.697266 77.185547 C 36.234127 77.056703 37.610124 75.954354 38.119141 74.443359 C 38.366225 73.709892 38.389057 72.547922 38.171875 71.800781 C 38.092905 71.529137 38.039466 71.293373 38.044922 71.253906 L 38.044922 71.251953 L 38.044922 71.25 C 38.060652 71.23974 38.377272 71.18185 38.748047 71.121094 C 38.764384 71.118416 38.780628 71.116123 38.796875 71.113281 C 40.358402 71.940453 42.03631 72.60549 43.814453 73.082031 L 44.916016 73.376953 L 45.505859 71.173828 L 44.404297 70.878906 C 43.291824 70.580765 42.223215 70.200892 41.203125 69.748047 C 41.776501 69.049095 42.100703 68.136514 42.097656 67.103516 C 42.094656 66.18507 41.993315 65.697303 41.658203 65.011719 C 41.067124 63.802477 39.985732 63.031055 38.601562 62.832031 L 37.871094 62.728516 L 38.064453 62.357422 C 38.349353 61.814572 38.337474 60.267452 38.041016 59.513672 C 37.606457 58.408767 36.661918 57.461552 35.601562 57.066406 C 35.360771 56.976676 34.775997 56.900995 34.111328 56.873047 L 33.574219 56.849609 L 29.882812 56.849609 L 29.496094 56.847656 C 29.369259 56.469053 29.252434 56.087196 29.146484 55.701172 L 28.845703 54.601562 L 26.644531 55.205078 L 26.947266 56.304688 C 26.996467 56.483952 27.048215 56.662002 27.101562 56.839844 L 26.945312 56.839844 C 25.329082 56.834444 23.758713 56.804114 23.457031 56.771484 L 22.910156 56.710938 L 23.746094 55.810547 C 24.619339 54.871031 25.11803 54.061852 25.384766 53.154297 C 25.59355 52.443935 25.57731 51.270674 25.347656 50.542969 C 24.782726 48.75267 23.029485 47.69707 21.185547 47.789062 C 20.570898 47.819742 19.945876 47.978136 19.351562 48.279297 C 18.586444 48.667014 17.901592 49.25201 15.324219 51.800781 L 26.644531 9.5507812 z M 82.365234 24.029297 L 80.240234 26.154297 L 81.851562 27.765625 L 75.964844 27.765625 L 75.964844 33.775391 L 81.849609 33.775391 L 80.240234 35.384766 L 82.365234 37.509766 L 89.105469 30.769531 L 82.365234 24.029297 z M 49.933594 26.103516 C 49.231707 26.105126 48.53165 26.137654 47.833984 26.201172 L 46.697266 26.304688 L 46.904297 28.578125 L 48.041016 28.474609 C 49.303192 28.359728 50.576152 28.356055 51.845703 28.464844 L 52.982422 28.560547 L 53.177734 26.289062 L 52.041016 26.191406 C 51.339197 26.131247 50.635481 26.101905 49.933594 26.103516 z M 44.794922 26.650391 L 43.695312 26.951172 C 41.737533 27.4866 39.840493 28.272525 38.052734 29.304688 C 32.566322 32.47227 28.561136 37.689878 26.919922 43.808594 L 26.919922 43.810547 L 26.919922 43.8125 L 26.917969 43.8125 L 26.917969 43.814453 L 26.617188 44.910156 L 28.818359 45.513672 L 29.119141 44.414062 L 29.121094 44.408203 L 29.121094 44.40625 C 30.604913 38.86856 34.228406 34.147767 39.193359 31.28125 C 40.810691 30.347483 42.526071 29.634683 44.296875 29.150391 L 45.396484 28.849609 L 44.794922 26.650391 z M 73.695312 46.699219 L 71.421875 46.90625 L 71.525391 48.042969 C 71.640179 49.304948 71.643972 50.578333 71.535156 51.847656 L 71.4375 52.982422 L 73.710938 53.177734 L 73.808594 52.041016 C 73.928941 50.637633 73.925762 49.231068 73.798828 47.835938 L 73.695312 46.699219 z M 26.285156 46.822266 L 26.1875 47.958984 C 26.064545 49.37477 26.069286 50.782138 26.195312 52.166016 L 26.298828 53.300781 L 28.572266 53.09375 L 28.46875 51.958984 C 28.354829 50.708184 28.34975 49.436371 28.460938 48.15625 L 28.558594 47.019531 L 26.285156 46.822266 z M 71.173828 54.492188 L 70.878906 55.59375 C 69.395086 61.13144 65.771594 65.852233 60.806641 68.71875 C 59.18841 69.653037 57.471019 70.365306 55.699219 70.849609 L 54.599609 71.150391 L 55.201172 73.351562 L 56.300781 73.050781 C 58.259649 72.515345 60.158492 71.728062 61.947266 70.695312 C 67.435479 67.526691 71.44183 62.306861 73.082031 56.185547 L 73.376953 55.082031 L 71.173828 54.492188 z M 18.001953 62.490234 L 11.261719 69.230469 L 18.001953 75.970703 L 20.126953 73.845703 L 18.515625 72.234375 L 24.402344 72.234375 L 24.402344 66.224609 L 18.517578 66.224609 L 20.126953 64.615234 L 18.001953 62.490234 z M 53.091797 71.421875 L 51.957031 71.525391 C 50.695023 71.640114 49.42172 71.644102 48.152344 71.535156 L 47.015625 71.4375 L 46.820312 73.710938 L 47.957031 73.808594 C 49.360521 73.929089 50.766929 73.925691 52.162109 73.798828 L 53.298828 73.695312 L 53.091797 71.421875 z " /></g></svg>
