<?xml version="1.0" encoding="UTF-8" standalone="no"?>
<!-- Created with Inkscape (http://www.inkscape.org/) -->

<svg
   width="70"
   height="60"
   viewBox="0 0 70.000001 60.000001"
   version="1.1"
   id="svg5"
   sodipodi:docname="vpype_logo.svg"
   inkscape:version="1.4-dev (1:1.4.0-dev+202403210151+2fe0648968)"
   xmlns:inkscape="http://www.inkscape.org/namespaces/inkscape"
   xmlns:sodipodi="http://sodipodi.sourceforge.net/DTD/sodipodi-0.dtd"
   xmlns="http://www.w3.org/2000/svg"
   xmlns:svg="http://www.w3.org/2000/svg">
  <sodipodi:namedview
     id="namedview7"
     pagecolor="#ffffff"
     bordercolor="#000000"
     borderopacity="0.25"
     inkscape:showpageshadow="2"
     inkscape:pageopacity="0.0"
     inkscape:pagecheckerboard="0"
     inkscape:deskcolor="#ffffff"
     inkscape:document-units="px"
     showgrid="false"
     inkscape:zoom="6.289171"
     inkscape:cx="25.838064"
     inkscape:cy="43.884957"
     inkscape:window-width="1920"
     inkscape:window-height="1007"
     inkscape:window-x="0"
     inkscape:window-y="0"
     inkscape:window-maximized="1"
     inkscape:current-layer="layer1"
     showborder="true" />
  <defs
     id="defs2" />
  <g
     inkscape:label="Ebene 1"
     inkscape:groupmode="layer"
     id="layer1"
     transform="scale(3.77953)">
    <g
       id="g6"
       transform="matrix(0.09172155,0,0,0.09172155,0.61923896,-3.1510107)">
      <g
         id="g2"
         transform="matrix(0.70866612,0,0,0.70866612,15.553359,70.123927)">
        <path
           style="fill:#fef700"
           d="m 6.4834039,81.562391 c 0,-1.940278 0.014699,-1.984375 0.6614583,-1.984375 H 7.8063206 V 74.28635 68.994683 h 7.2760414 7.276042 V 66.34885 63.703017 H 15.082362 7.8063206 v -1.984375 c 0,-1.940278 -0.014699,-1.984375 -0.6614584,-1.984375 -0.6467593,0 -0.6614583,-0.0441 -0.6614583,-1.984375 0,-1.940278 0.014699,-1.984375 0.6614583,-1.984375 0.6467593,0 0.6614584,0.0441 0.6614584,1.984375 v 1.984375 h 7.2760414 7.276042 v 1.984375 c 0,1.940277 0.0147,1.984375 0.661459,1.984375 h 0.661458 v 2.645833 2.645833 h -0.661458 -0.661459 v 5.291667 5.291666 H 15.082362 7.8063206 v 1.984375 c 0,1.940278 -0.014699,1.984375 -0.6614584,1.984375 -0.6467593,0 -0.6614583,-0.0441 -0.6614583,-1.984375 z m 191.8229261,0 c 0,-1.940278 0.0147,-1.984375 0.66145,-1.984375 h 0.66146 V 74.28635 68.994683 h 7.27604 7.27605 V 66.34885 63.703017 h -7.27605 -7.27604 v -1.984375 c 0,-1.940278 -0.0147,-1.984375 -0.66146,-1.984375 -0.64676,0 -0.66145,-0.0441 -0.66145,-1.984375 0,-1.940278 0.0147,-1.984375 0.66145,-1.984375 0.64676,0 0.66146,0.0441 0.66146,1.984375 v 1.984375 h 7.27604 7.27605 v 1.984375 c 0,1.940277 0.0147,1.984375 0.66145,1.984375 h 0.66146 v 2.645833 2.645833 h -0.66146 -0.66145 v 5.291667 5.291666 h -7.27605 -7.27604 v 1.984375 c 0,1.940278 -0.0147,1.984375 -0.66146,1.984375 -0.64676,0 -0.66145,-0.0441 -0.66145,-1.984375 z M 26.327154,72.963433 v -3.96875 H 43.525071 60.722989 V 70.3176 c 0,1.234722 0.0441,1.322916 0.661458,1.322916 0.529167,0 0.661458,0.132292 0.661458,0.661459 0,0.529166 0.132292,0.661458 0.661459,0.661458 0.529166,0 0.661458,0.132292 0.661458,0.661458 0,0.529167 0.132292,0.661459 0.661458,0.661459 0.529167,0 0.661459,0.132291 0.661459,0.661458 0,0.529166 0.132291,0.661458 0.661458,0.661458 0.529167,0 0.661458,0.132292 0.661458,0.661458 v 0.661459 H 46.170905 26.327154 Z m 48.947918,3.307291 c 0,-0.617361 0.08819,-0.661458 1.322917,-0.661458 h 1.322917 V 74.28635 72.963433 h 1.322916 1.322917 v -1.984375 c 0,-1.940278 0.0147,-1.984375 0.661458,-1.984375 h 0.661459 v 3.96875 3.96875 h -3.307292 -3.307292 z m 13.229167,0 v -0.661458 h 5.291667 5.291667 V 74.28635 72.963433 h 1.322917 1.32292 v -1.984375 -1.984375 h 1.32291 c 1.23473,0 1.32292,0.0441 1.32292,0.661458 0,0.529167 0.13229,0.661459 0.66146,0.661459 0.52916,0 0.66146,0.132291 0.66146,0.661458 0,0.529167 0.13229,0.661458 0.66145,0.661458 0.52917,0 0.66146,0.132292 0.66146,0.661459 0,0.529166 0.13229,0.661458 0.66146,0.661458 0.64676,0 0.66146,0.0441 0.66146,1.984375 v 1.984375 h -9.921876 -9.921875 z m 26.458331,-1.322916 v -1.984375 h 1.32292 1.32292 V 71.640516 70.3176 h 1.32291 c 1.23473,0 1.32292,-0.0441 1.32292,-0.661459 0,-0.529166 0.13229,-0.661458 0.66146,-0.661458 h 0.66146 v 3.96875 3.96875 h -3.3073 -3.30729 z m 13.22917,1.322916 v -0.661458 h 5.29167 5.29166 V 74.28635 72.963433 h 1.32292 1.32292 v -1.984375 c 0,-1.940278 0.0147,-1.984375 0.66146,-1.984375 h 0.66145 v 3.96875 3.96875 h -7.27604 -7.27604 z m 21.16667,-1.322916 v -1.984375 h 5.29166 5.29167 v -1.322917 c 0,-1.234722 -0.0441,-1.322916 -0.66146,-1.322916 -0.52916,0 -0.66146,-0.132292 -0.66146,-0.661459 v -0.661458 h 18.52084 18.52083 v 3.96875 3.96875 h -23.15104 -23.15104 z m -79.375005,-3.96875 c 0,-0.529167 -0.132291,-0.661458 -0.661458,-0.661458 -0.529167,0 -0.661458,-0.132292 -0.661458,-0.661459 0,-0.617361 0.08819,-0.661458 1.322916,-0.661458 h 1.322917 V 70.3176 c 0,1.234722 -0.0441,1.322916 -0.661458,1.322916 -0.529167,0 -0.661459,-0.132291 -0.661459,-0.661458 z M 88.504239,70.3176 v -1.322917 h 3.307292 3.307292 v 1.322917 1.322916 h -3.307292 -3.307292 z m 39.687501,0 v -1.322917 h 3.30729 3.30729 v 1.322917 1.322916 h -3.30729 -3.30729 z M 26.327154,63.703017 V 62.3801 h 17.197917 17.197918 v 1.322917 1.322916 H 43.525071 26.327154 Z m 41.010418,0 V 62.3801 h 3.307292 3.307291 v 1.322917 1.322916 h -3.307291 -3.307292 z m 13.229167,0 c 0,-1.234723 0.0441,-1.322917 0.661458,-1.322917 0.617361,0 0.661459,0.08819 0.661459,1.322917 0,1.234722 -0.0441,1.322916 -0.661459,1.322916 -0.617361,0 -0.661458,-0.08819 -0.661458,-1.322916 z m 19.843751,0.661458 c 0,-0.529167 -0.13229,-0.661458 -0.661459,-0.661458 -0.529167,0 -0.661458,-0.132292 -0.661458,-0.661459 0,-0.646759 0.0441,-0.661458 1.984377,-0.661458 h 1.98437 v 1.322917 1.322916 h -1.32291 c -1.23473,0 -1.32292,-0.0441 -1.32292,-0.661458 z m 9.26042,-0.661458 V 62.3801 h 1.98437 1.98438 v 1.322917 1.322916 h -1.98438 -1.98437 z m 10.58333,0 c 0,-1.234723 0.0441,-1.322917 0.66146,-1.322917 0.61736,0 0.66146,0.08819 0.66146,1.322917 0,1.234722 -0.0441,1.322916 -0.66146,1.322916 -0.61736,0 -0.66146,-0.08819 -0.66146,-1.322916 z m 19.84375,0.661458 c 0,-0.529167 -0.13229,-0.661458 -0.66146,-0.661458 -0.52916,0 -0.66146,-0.132292 -0.66146,-0.661459 0,-0.646759 0.0441,-0.661458 1.98438,-0.661458 h 1.98437 v 1.322917 1.322916 h -1.32291 c -1.23473,0 -1.32292,-0.0441 -1.32292,-0.661458 z m 19.84375,-0.661458 V 62.3801 h 17.85938 17.85937 v 1.322917 1.322916 h -17.85937 -17.85938 z"
           id="path5" />
        <path
           style="fill:#e1c700"
           d="m 6.4834039,90.822807 c 0,-0.529166 0.1322916,-0.661458 0.6614583,-0.661458 0.5291667,0 0.6614584,0.132292 0.6614584,0.661458 0,0.529167 -0.1322917,0.661459 -0.6614584,0.661459 -0.5291667,0 -0.6614583,-0.132292 -0.6614583,-0.661459 z m 191.8229261,0 c 0,-0.529166 0.13229,-0.661458 0.66145,-0.661458 0.52917,0 0.66146,0.132292 0.66146,0.661458 0,0.529167 -0.13229,0.661459 -0.66146,0.661459 -0.52916,0 -0.66145,-0.132292 -0.66145,-0.661459 z M 6.4834039,85.531141 c 0,-1.940278 0.014699,-1.984375 0.6614583,-1.984375 0.6467593,0 0.6614584,-0.0441 0.6614584,-1.984375 v -1.984375 h 7.2760414 7.276042 V 74.28635 68.994683 h 0.661459 0.661458 v 5.291667 5.291666 h -0.661458 c -0.64676,0 -0.661459,0.0441 -0.661459,1.984375 v 1.984375 H 15.082362 7.8063206 v 1.984375 c 0,1.940278 -0.014699,1.984375 -0.6614584,1.984375 -0.6467593,0 -0.6614583,-0.0441 -0.6614583,-1.984375 z m 191.8229261,0 c 0,-1.940278 0.0147,-1.984375 0.66145,-1.984375 0.64676,0 0.66146,-0.0441 0.66146,-1.984375 v -1.984375 h 7.27604 7.27605 V 74.28635 68.994683 h 0.66145 0.66146 v 5.291667 5.291666 h -0.66146 c -0.64676,0 -0.66145,0.0441 -0.66145,1.984375 v 1.984375 h -7.27605 -7.27604 v 1.984375 c 0,1.940278 -0.0147,1.984375 -0.66146,1.984375 -0.64676,0 -0.66145,-0.0441 -0.66145,-1.984375 z M 26.327154,78.916558 v -1.984375 h 20.505209 20.505209 v 0.661458 c 0,0.529167 0.132292,0.661458 0.661458,0.661458 0.529167,0 0.661459,0.132292 0.661459,0.661459 0,0.529166 0.132291,0.661458 0.661458,0.661458 0.529167,0 0.661458,0.132292 0.661458,0.661458 v 0.661459 H 48.15528 26.327154 Z m 46.302085,0.661458 v -1.322917 h 1.322916 c 1.234723,0 1.322917,-0.0441 1.322917,-0.661458 v -0.661458 h 3.307292 3.307292 v 1.322916 c 0,1.234723 0.0441,1.322917 0.661458,1.322917 0.529167,0 0.661458,0.132292 0.661458,0.661458 v 0.661459 h -5.291666 -5.291667 z m 15.875,-0.661458 v -1.984375 h 9.921875 9.921876 v 1.322916 c 0,1.234723 0.0441,1.322917 0.66146,1.322917 0.52916,0 0.66146,0.132292 0.66146,0.661458 v 0.661459 H 99.087573 88.504239 Z m 26.458331,0 v -1.984375 h 3.30729 3.3073 v 1.322916 c 0,1.234723 0.0441,1.322917 0.66145,1.322917 0.52917,0 0.66146,0.132292 0.66146,0.661458 v 0.661459 h -3.96875 -3.96875 z m 13.22917,0 v -1.984375 h 7.27604 7.27604 v 1.322916 c 0,1.234723 0.0441,1.322917 0.66146,1.322917 0.52917,0 0.66146,0.132292 0.66146,0.661458 v 0.661459 h -7.9375 -7.9375 z m 31.75,0.661458 c 0,-1.234722 -0.0441,-1.322917 -0.66146,-1.322917 -0.52916,0 -0.66146,-0.132291 -0.66146,-0.661458 v -0.661458 h 18.52084 18.52083 v 1.984375 1.984375 H 177.80112 159.94174 Z M 22.358404,61.718642 V 59.734267 H 15.082362 7.8063206 v -1.984375 c 0,-1.940278 -0.014699,-1.984375 -0.6614584,-1.984375 -0.6467593,0 -0.6614583,-0.0441 -0.6614583,-1.984375 0,-1.940278 0.014699,-1.984375 0.6614583,-1.984375 0.6467593,0 0.6614584,0.0441 0.6614584,1.984375 v 1.984375 h 7.2760414 7.276042 v 1.984375 c 0,1.940277 0.0147,1.984375 0.661459,1.984375 0.646759,0 0.661458,0.0441 0.661458,1.984375 0,1.940277 -0.0147,1.984375 -0.661458,1.984375 -0.64676,0 -0.661459,-0.0441 -0.661459,-1.984375 z m 191.822926,0 v -1.984375 h -7.27605 -7.27604 v -1.984375 c 0,-1.940278 -0.0147,-1.984375 -0.66146,-1.984375 -0.64676,0 -0.66145,-0.0441 -0.66145,-1.984375 0,-1.940278 0.0147,-1.984375 0.66145,-1.984375 0.64676,0 0.66146,0.0441 0.66146,1.984375 v 1.984375 h 7.27604 7.27605 v 1.984375 c 0,1.940277 0.0147,1.984375 0.66145,1.984375 0.64676,0 0.66146,0.0441 0.66146,1.984375 0,1.940277 -0.0147,1.984375 -0.66146,1.984375 -0.64676,0 -0.66145,-0.0441 -0.66145,-1.984375 z M 26.327154,60.395725 V 58.41135 h 84.666666 84.66667 v 1.984375 1.984375 h -18.52083 -18.52084 v -0.661458 -0.661459 h -7.9375 -7.9375 v 0.661459 0.661458 h -2.64583 -2.64583 v -0.661458 -0.661459 h -7.9375 -7.9375 v 0.661459 c 0,0.617361 -0.0882,0.661458 -1.32292,0.661458 -1.23472,0 -1.32292,-0.0441 -1.32292,-0.661458 v -0.661459 h -2.64583 -2.64583 v 0.661459 0.661458 h -2.64584 -2.64583 v -0.661458 -0.661459 h -2.64583 -2.64584 v 0.661459 0.661458 h -2.64583 -2.645834 v -0.661458 -0.661459 h -7.9375 -7.9375 v 0.661459 c 0,0.617361 -0.08819,0.661458 -1.322917,0.661458 -1.234722,0 -1.322917,-0.0441 -1.322917,-0.661458 v -0.661459 h -2.645833 -2.645834 v 0.661459 0.661458 h -3.96875 -3.96875 V 61.718642 61.057183 H 63.368822 60.722989 V 61.718642 62.3801 H 43.525071 26.327154 Z"
           id="path4" />
        <path
           style="fill:#0275ce"
           d="M 68.660489,78.255099 V 76.932183 H 67.337572 66.014655 V 75.609266 74.28635 H 64.691739 63.368822 V 72.963433 71.640516 H 62.045905 60.722989 V 66.34885 61.057183 h 2.645833 2.645833 v 3.96875 3.96875 h 1.322917 1.322917 v 1.322917 1.322916 h 1.322916 1.322917 V 70.3176 68.994683 h 1.322917 1.322916 v -3.96875 -3.96875 h 2.645834 2.645833 v 5.291667 5.291666 h -1.322916 -1.322917 v 1.322917 1.322917 h -1.322917 -1.322917 v 1.322916 1.322917 h -1.322916 -1.322917 v 1.322916 1.322917 H 69.983405 68.660489 Z M 81.889656,70.3176 v -9.260417 h 7.9375 7.9375 v 1.322917 1.322917 h 1.322917 1.322917 v 3.968749 3.96875 h -1.322917 -1.322917 v 1.322917 1.322917 h -5.291667 -5.291667 v 2.645833 2.645833 h -2.645833 -2.645833 z m 13.229167,-2.645834 v -3.968749 h -3.96875 -3.968751 v 3.968749 3.96875 h 3.968751 3.96875 z m 13.229167,7.9375 v -3.96875 h -1.32292 -1.32291 V 70.3176 68.994683 h -1.32292 -1.32292 v -3.96875 -3.96875 h 2.64584 2.64583 v 3.96875 3.96875 h 2.64583 2.64584 v -3.96875 -3.96875 h 2.64583 2.64583 v 3.96875 3.96875 h -1.32291 -1.32292 v 1.322917 1.322916 h -1.32292 -1.32291 v 3.96875 3.96875 h -2.64584 -2.64583 z M 121.57716,70.3176 v -9.260417 h 7.9375 7.9375 v 1.322917 1.322917 h 1.32291 1.32292 v 3.968749 3.96875 h -1.32292 -1.32291 v 1.322917 1.322917 h -5.29167 -5.29167 v 2.645833 2.645833 h -2.64583 -2.64583 z m 13.22916,-2.645834 v -3.968749 h -3.96875 -3.96875 v 3.968749 3.96875 h 3.96875 3.96875 z m 7.9375,2.645834 v -9.260417 h 7.9375 7.9375 v 1.322917 1.322917 h -5.29166 -5.29167 v 2.645833 2.645833 h 5.29167 5.29166 v 1.322917 1.322916 h -5.29166 -5.29167 v 2.645834 2.645833 h 5.29167 5.29166 v 1.322916 1.322917 h -7.9375 -7.9375 z"
           id="path3" />
        <path
           style="fill:#907f00"
           d="m 7.8063206,90.822807 c 0,-0.529166 -0.1322917,-0.661458 -0.6614584,-0.661458 -0.6173611,0 -0.6614583,-0.08819 -0.6614583,-1.322917 0,-1.234722 0.044097,-1.322916 0.6614583,-1.322916 0.6467593,0 0.6614584,-0.0441 0.6614584,-1.984375 v -1.984375 h 7.2760414 7.276042 v -1.984375 c 0,-1.940278 0.0147,-1.984375 0.661459,-1.984375 0.646759,0 0.661458,0.0441 0.661458,1.984375 0,1.940278 -0.0147,1.984375 -0.661458,1.984375 -0.64676,0 -0.661459,0.0441 -0.661459,1.984375 v 1.984375 H 15.082362 7.8063206 v 1.322916 1.322917 h 7.2760414 7.276042 v 0.661458 0.661459 H 15.082362 7.8063206 Z m 191.8229194,0 c 0,-0.529166 -0.13229,-0.661458 -0.66146,-0.661458 -0.61736,0 -0.66145,-0.08819 -0.66145,-1.322917 0,-1.234722 0.0441,-1.322916 0.66145,-1.322916 0.64676,0 0.66146,-0.0441 0.66146,-1.984375 v -1.984375 h 7.27604 7.27605 v -1.984375 c 0,-1.940278 0.0147,-1.984375 0.66145,-1.984375 0.64676,0 0.66146,0.0441 0.66146,1.984375 0,1.940278 -0.0147,1.984375 -0.66146,1.984375 -0.64676,0 -0.66145,0.0441 -0.66145,1.984375 v 1.984375 h -7.27605 -7.27604 v 1.322916 1.322917 h 7.27604 7.27605 v 0.661458 0.661459 h -7.27605 -7.27604 z M 26.327154,88.838432 v -1.322916 h 84.666666 84.66667 v 1.322916 1.322917 H 110.99382 26.327154 Z m 0,-5.953124 v -1.984375 h 84.666666 84.66667 v 1.984375 1.984375 H 110.99382 26.327154 Z M 22.358404,57.749892 V 55.765517 H 15.082362 7.8063206 v -1.984375 -1.984375 h 7.2760414 7.276042 v 1.984375 c 0,1.940278 0.0147,1.984375 0.661459,1.984375 0.646759,0 0.661458,0.0441 0.661458,1.984375 0,1.940277 -0.0147,1.984375 -0.661458,1.984375 -0.64676,0 -0.661459,-0.0441 -0.661459,-1.984375 z m 191.822926,0 v -1.984375 h -7.27605 -7.27604 v -1.984375 -1.984375 h 7.27604 7.27605 v 1.984375 c 0,1.940278 0.0147,1.984375 0.66145,1.984375 0.64676,0 0.66146,0.0441 0.66146,1.984375 0,1.940277 -0.0147,1.984375 -0.66146,1.984375 -0.64676,0 -0.66145,-0.0441 -0.66145,-1.984375 z M 26.327154,55.765517 v -2.645833 h 84.666666 84.66667 v 2.645833 2.645833 H 110.99382 26.327154 Z"
           id="path2" />
        <path
           style="fill:#010000"
           d="m 6.4834039,92.145724 c 0,-0.529167 -0.1322917,-0.661458 -0.6614584,-0.661458 H 5.1604872 V 71.640516 51.796767 h 0.6614583 c 0.5291667,0 0.6614584,-0.132292 0.6614584,-0.661458 V 50.47385 h 9.2604171 9.260417 v 0.661459 0.661458 h 86.651042 86.65105 V 51.135309 50.47385 h 8.59895 8.59896 v 0.661459 c 0,0.529166 0.13229,0.661458 0.66146,0.661458 h 0.66146 v 19.843749 19.84375 h -0.66146 c -0.52917,0 -0.66146,0.132291 -0.66146,0.661458 v 0.661458 h -8.59896 -8.59895 V 92.145724 91.484266 H 111.65528 25.004238 v 0.661458 0.661458 H 15.743821 6.4834039 Z M 22.358404,90.822807 V 90.161349 H 15.082362 7.8063206 v -1.322917 -1.322916 h 7.2760414 7.276042 v -1.984375 c 0,-1.940278 0.0147,-1.984375 0.661459,-1.984375 h 0.661458 V 69.656141 55.765517 h -0.661458 c -0.64676,0 -0.661459,-0.0441 -0.661459,-1.984375 v -1.984375 h -7.9375 -7.9375001 v 19.843749 19.84375 h 7.9375001 7.9375 z m 191.822926,0 v -0.661458 h -7.27605 -7.27604 v -1.322917 -1.322916 h 7.27604 7.27605 v -1.984375 c 0,-1.940278 0.0147,-1.984375 0.66145,-1.984375 h 0.66146 V 69.656141 55.765517 h -0.66146 c -0.64676,0 -0.66145,-0.0441 -0.66145,-1.984375 v -1.984375 h -7.9375 -7.9375 v 19.843749 19.84375 h 7.9375 7.9375 z M 195.66049,88.838432 V 87.515516 H 110.99382 26.327154 v 1.322916 1.322917 h 84.666666 84.66667 z m 0,-19.843749 V 53.119684 H 110.99382 26.327154 v 15.874999 15.875 h 84.666666 84.66667 z M 69.983405,80.239474 c 0,-0.529166 0.132292,-0.661458 0.661459,-0.661458 0.617361,0 0.661458,-0.08819 0.661458,-1.322917 v -1.322916 h 1.322917 1.322916 V 75.609266 74.28635 h 1.322917 1.322917 v -1.322917 -1.322917 h 1.322917 1.322916 V 67.010308 62.3801 h 0.661459 0.661458 v 5.291666 5.291667 h -1.322917 -1.322916 v 1.322917 1.322916 h -1.322917 -1.322917 v 1.322917 1.322916 h -1.322917 -1.322916 v 1.322917 1.322917 h -1.322917 c -1.234722,0 -1.322917,-0.0441 -1.322917,-0.661459 z m 13.229167,0 c 0,-0.646759 0.0441,-0.661458 1.984375,-0.661458 h 1.984375 V 76.932183 74.28635 h 5.291667 5.291667 v -1.322917 -1.322917 h 1.322917 1.322917 v -3.307291 -3.307292 h 0.66146 0.66146 v 3.96875 3.96875 h -1.32292 -1.322917 v 1.322917 1.322916 h -5.291667 -5.291667 v 2.645833 2.645834 h -2.645833 -2.645834 z m 26.458338,0 c 0,-0.646759 0.0441,-0.661458 1.98437,-0.661458 h 1.98438 v -3.96875 -3.96875 h 1.32291 1.32292 V 70.3176 68.994683 h 1.32292 1.32291 V 65.687391 62.3801 h 0.66146 0.66146 v 3.96875 3.96875 h -1.32292 -1.32291 v 1.322916 1.322917 h -1.32292 -1.32292 v 3.96875 3.96875 h -2.64583 -2.64583 z m 13.22916,0 c 0,-0.646759 0.0441,-0.661458 1.98438,-0.661458 h 1.98437 V 76.932183 74.28635 h 5.29167 5.29167 v -1.322917 -1.322917 h 1.32291 1.32292 v -3.307291 -3.307292 h 0.66146 0.66146 v 3.96875 3.96875 h -1.32292 -1.32292 v 1.322917 1.322916 h -5.29166 -5.29167 v 2.645833 2.645834 h -2.64583 -2.64584 z m 21.16667,0 v -0.661458 h 7.27604 7.27604 v -0.661458 c 0,-0.529167 0.1323,-0.661459 0.66146,-0.661459 0.61736,0 0.66146,0.08819 0.66146,1.322917 v 1.322917 h -7.9375 -7.9375 z M 67.337572,77.593641 c 0,-0.529167 0.132292,-0.661458 0.661458,-0.661458 0.529167,0 0.661459,0.132291 0.661459,0.661458 0,0.529167 -0.132292,0.661458 -0.661459,0.661458 -0.529166,0 -0.661458,-0.132291 -0.661458,-0.661458 z M 148.03549,74.28635 v -2.645834 h 5.29167 5.29166 v -0.661458 c 0,-0.529167 0.1323,-0.661458 0.66146,-0.661458 0.61736,0 0.66146,0.08819 0.66146,1.322916 v 1.322917 h -5.29167 -5.29166 v 1.984375 c 0,1.940278 -0.0147,1.984375 -0.66146,1.984375 h -0.66146 z m -83.343751,0.661458 c 0,-0.529167 0.132291,-0.661458 0.661458,-0.661458 0.529167,0 0.661458,0.132291 0.661458,0.661458 0,0.529166 -0.132291,0.661458 -0.661458,0.661458 -0.529167,0 -0.661458,-0.132292 -0.661458,-0.661458 z m -2.645834,-2.645833 c 0,-0.529167 0.132292,-0.661459 0.661459,-0.661459 0.529166,0 0.661458,0.132292 0.661458,0.661459 0,0.529166 -0.132292,0.661458 -0.661458,0.661458 -0.529167,0 -0.661459,-0.132292 -0.661459,-0.661458 z m 44.979165,0 c 0,-0.529167 0.13229,-0.661459 0.66146,-0.661459 0.52917,0 0.66146,0.132292 0.66146,0.661459 0,0.529166 -0.13229,0.661458 -0.66146,0.661458 -0.52917,0 -0.66146,-0.132292 -0.66146,-0.661458 z M 68.660489,70.979058 c 0,-0.529167 0.132291,-0.661458 0.661458,-0.661458 0.529167,0 0.661458,0.132291 0.661458,0.661458 0,0.529167 -0.132291,0.661458 -0.661458,0.661458 -0.529167,0 -0.661458,-0.132291 -0.661458,-0.661458 z m 18.520833,-3.307292 v -3.968749 h 3.968751 3.96875 v 0.661458 0.661458 h -3.307292 -3.307292 v 3.307292 3.307291 h -0.661458 -0.661459 z m 39.687498,0 v -3.968749 h 3.96875 3.96875 v 0.661458 0.661458 h -3.30729 -3.30729 v 3.307292 3.307291 h -0.66146 -0.66146 z m -22.48958,1.984375 c 0,-0.529166 0.13229,-0.661458 0.66146,-0.661458 0.52916,0 0.66146,0.132292 0.66146,0.661458 0,0.529167 -0.1323,0.661459 -0.66146,0.661459 -0.52917,0 -0.66146,-0.132292 -0.66146,-0.661459 z M 66.014655,65.687391 V 62.3801 h 0.661459 0.661458 v 3.307291 3.307292 h -0.661458 -0.661459 z m 42.333335,0 V 62.3801 h 0.66146 0.66146 v 3.307291 3.307292 h -0.66146 -0.66146 z m 39.6875,0.661459 v -2.645833 h 5.29167 5.29166 v -0.661459 c 0,-0.529166 0.1323,-0.661458 0.66146,-0.661458 0.61736,0 0.66146,0.08819 0.66146,1.322917 v 1.322916 h -5.29167 -5.29166 v 1.984375 c 0,1.940278 -0.0147,1.984375 -0.66146,1.984375 h -0.66146 z M 97.764656,63.041558 c 0,-0.529166 0.132292,-0.661458 0.661458,-0.661458 0.529167,0 0.661459,0.132292 0.661459,0.661458 0,0.529167 -0.132292,0.661459 -0.661459,0.661459 -0.529166,0 -0.661458,-0.132292 -0.661458,-0.661459 z m 39.687504,0 c 0,-0.529166 0.13229,-0.661458 0.66146,-0.661458 0.52916,0 0.66145,0.132292 0.66145,0.661458 0,0.529167 -0.13229,0.661459 -0.66145,0.661459 -0.52917,0 -0.66146,-0.132292 -0.66146,-0.661459 z"
           id="path1" />
      </g>
    </g>
  </g>
</svg>
